<svg xmlns="http://www.w3.org/2000/svg" viewBox="0 0 900 325" width="900" height="325"><rect width="900" height="325" fill="#ffffff"/><polyline points="26.0,195.6 110.8,134.5" fill="none" stroke="#9aa7b8" stroke-width="1"/><polyline points="110.8,134.5 195.6,87.1" fill="none" stroke="#9aa7b8" stroke-width="1"/><polyline points="195.6,87.1 280.4,53.1" fill="none" stroke="#9aa7b8" stroke-width="1"/><polyline points="280.4,53.1 365.2,32.8" fill="none" stroke="#9aa7b8" stroke-width="1"/><polyline points="365.2,32.8 450.0,26.0" fill="none" stroke="#9aa7b8" stroke-width="1"/><polyline points="450.0,26.0 534.8,32.8" fill="none" stroke="#9aa7b8" stroke-width="1"/><polyline points="534.8,32.8 619.6,53.1" fill="none" stroke="#9aa7b8" stroke-width="1"/><polyline points="619.6,53.1 704.4,87.1" fill="none" stroke="#9aa7b8" stroke-width="1"/><polyline points="704.4,87.1 789.2,134.5" fill="none" stroke="#9aa7b8" stroke-width="1"/><polyline points="789.2,134.5 874.0,195.6" fill="none" stroke="#9aa7b8" stroke-width="1"/><polyline points="26.0,195.6 110.8,195.6" fill="none" stroke="#9aa7b8" stroke-width="1"/><polyline points="110.8,195.6 195.6,195.6" fill="none" stroke="#9aa7b8" stroke-width="1"/><polyline points="195.6,195.6 280.4,195.6" fill="none" stroke="#9aa7b8" stroke-width="1"/><polyline points="280.4,195.6 365.2,195.6" fill="none" stroke="#9aa7b8" stroke-width="1"/><polyline points="365.2,195.6 450.0,195.6" fill="none" stroke="#9aa7b8" stroke-width="1"/><polyline points="450.0,195.6 534.8,195.6" fill="none" stroke="#9aa7b8" stroke-width="1"/><polyline points="534.8,195.6 619.6,195.6" fill="none" stroke="#9aa7b8" stroke-width="1"/><polyline points="619.6,195.6 704.4,195.6" fill="none" stroke="#9aa7b8" stroke-width="1"/><polyline points="704.4,195.6 789.2,195.6" fill="none" stroke="#9aa7b8" stroke-width="1"/><polyline points="789.2,195.6 874.0,195.6" fill="none" stroke="#9aa7b8" stroke-width="1"/><polyline points="110.8,134.5 110.8,195.6" fill="none" stroke="#9aa7b8" stroke-width="1"/><polyline points="195.6,87.1 195.6,195.6" fill="none" stroke="#9aa7b8" stroke-width="1"/><polyline points="280.4,53.1 280.4,195.6" fill="none" stroke="#9aa7b8" stroke-width="1"/><polyline points="365.2,32.8 365.2,195.6" fill="none" stroke="#9aa7b8" stroke-width="1"/><polyline points="450.0,26.0 450.0,195.6" fill="none" stroke="#9aa7b8" stroke-width="1"/><polyline points="534.8,32.8 534.8,195.6" fill="none" stroke="#9aa7b8" stroke-width="1"/><polyline points="619.6,53.1 619.6,195.6" fill="none" stroke="#9aa7b8" stroke-width="1"/><polyline points="704.4,87.1 704.4,195.6" fill="none" stroke="#9aa7b8" stroke-width="1"/><polyline points="789.2,134.5 789.2,195.6" fill="none" stroke="#9aa7b8" stroke-width="1"/><polyline points="26.0,195.6 119.3,156.0" fill="none" stroke="#2563eb" stroke-width="2"/><polyline points="119.3,156.0 204.2,118.8" fill="none" stroke="#2563eb" stroke-width="2"/><polyline points="204.2,118.8 287.3,92.3" fill="none" stroke="#2563eb" stroke-width="2"/><polyline points="287.3,92.3 368.9,75.5" fill="none" stroke="#2563eb" stroke-width="2"/><polyline points="368.9,75.5 450.0,69.7" fill="none" stroke="#2563eb" stroke-width="2"/><polyline points="450.0,69.7 531.1,75.5" fill="none" stroke="#2563eb" stroke-width="2"/><polyline points="531.1,75.5 612.7,92.3" fill="none" stroke="#2563eb" stroke-width="2"/><polyline points="612.7,92.3 695.8,118.8" fill="none" stroke="#2563eb" stroke-width="2"/><polyline points="695.8,118.8 780.7,156.0" fill="none" stroke="#2563eb" stroke-width="2"/><polyline points="780.7,156.0 874.0,195.6" fill="none" stroke="#2563eb" stroke-width="2"/><polyline points="26.0,195.6 110.8,231.5" fill="none" stroke="#2563eb" stroke-width="2"/><polyline points="110.8,231.5 195.6,260.7" fill="none" stroke="#2563eb" stroke-width="2"/><polyline points="195.6,260.7 280.4,282.0" fill="none" stroke="#2563eb" stroke-width="2"/><polyline points="280.4,282.0 365.2,295.0" fill="none" stroke="#2563eb" stroke-width="2"/><polyline points="365.2,295.0 450.0,299.4" fill="none" stroke="#2563eb" stroke-width="2"/><polyline points="450.0,299.4 534.8,295.0" fill="none" stroke="#2563eb" stroke-width="2"/><polyline points="534.8,295.0 619.6,282.0" fill="none" stroke="#2563eb" stroke-width="2"/><polyline points="619.6,282.0 704.4,260.7" fill="none" stroke="#2563eb" stroke-width="2"/><polyline points="704.4,260.7 789.2,231.5" fill="none" stroke="#2563eb" stroke-width="2"/><polyline points="789.2,231.5 874.0,195.6" fill="none" stroke="#2563eb" stroke-width="2"/><polyline points="119.3,156.0 110.8,231.5" fill="none" stroke="#2563eb" stroke-width="2"/><polyline points="204.2,118.8 195.6,260.7" fill="none" stroke="#2563eb" stroke-width="2"/><polyline points="287.3,92.3 280.4,282.0" fill="none" stroke="#2563eb" stroke-width="2"/><polyline points="368.9,75.5 365.2,295.0" fill="none" stroke="#2563eb" stroke-width="2"/><polyline points="450.0,69.7 450.0,299.4" fill="none" stroke="#2563eb" stroke-width="2"/><polyline points="531.1,75.5 534.8,295.0" fill="none" stroke="#2563eb" stroke-width="2"/><polyline points="612.7,92.3 619.6,282.0" fill="none" stroke="#2563eb" stroke-width="2"/><polyline points="695.8,118.8 704.4,260.7" fill="none" stroke="#2563eb" stroke-width="2"/><polyline points="780.7,156.0 789.2,231.5" fill="none" stroke="#2563eb" stroke-width="2"/><rect x="22.0" y="191.6" width="8" height="8" fill="#0f766e" stroke="#fff" stroke-width="0.8"/><rect x="870.0" y="191.6" width="8" height="8" fill="#0f766e" stroke="#fff" stroke-width="0.8"/></svg>