<svg xmlns="http://www.w3.org/2000/svg" viewBox="0 0 900 222" width="900" height="222"><rect width="900" height="222" fill="#ffffff"/><polyline points="26.0,195.6 110.8,134.5" fill="none" stroke="#9aa7b8" stroke-width="1"/><polyline points="110.8,134.5 195.6,87.1" fill="none" stroke="#9aa7b8" stroke-width="1"/><polyline points="195.6,87.1 280.4,53.1" fill="none" stroke="#9aa7b8" stroke-width="1"/><polyline points="280.4,53.1 365.2,32.8" fill="none" stroke="#9aa7b8" stroke-width="1"/><polyline points="365.2,32.8 450.0,26.0" fill="none" stroke="#9aa7b8" stroke-width="1"/><polyline points="450.0,26.0 534.8,32.8" fill="none" stroke="#9aa7b8" stroke-width="1"/><polyline points="534.8,32.8 619.6,53.1" fill="none" stroke="#9aa7b8" stroke-width="1"/><polyline points="619.6,53.1 704.4,87.1" fill="none" stroke="#9aa7b8" stroke-width="1"/><polyline points="704.4,87.1 789.2,134.5" fill="none" stroke="#9aa7b8" stroke-width="1"/><polyline points="789.2,134.5 874.0,195.6" fill="none" stroke="#9aa7b8" stroke-width="1"/><polyline points="26.0,195.6 110.8,195.6" fill="none" stroke="#9aa7b8" stroke-width="1"/><polyline points="110.8,195.6 195.6,195.6" fill="none" stroke="#9aa7b8" stroke-width="1"/><polyline points="195.6,195.6 280.4,195.6" fill="none" stroke="#9aa7b8" stroke-width="1"/><polyline points="280.4,195.6 365.2,195.6" fill="none" stroke="#9aa7b8" stroke-width="1"/><polyline points="365.2,195.6 450.0,195.6" fill="none" stroke="#9aa7b8" stroke-width="1"/><polyline points="450.0,195.6 534.8,195.6" fill="none" stroke="#9aa7b8" stroke-width="1"/><polyline points="534.8,195.6 619.6,195.6" fill="none" stroke="#9aa7b8" stroke-width="1"/><polyline points="619.6,195.6 704.4,195.6" fill="none" stroke="#9aa7b8" stroke-width="1"/><polyline points="704.4,195.6 789.2,195.6" fill="none" stroke="#9aa7b8" stroke-width="1"/><polyline points="789.2,195.6 874.0,195.6" fill="none" stroke="#9aa7b8" stroke-width="1"/><polyline points="110.8,134.5 110.8,195.6" fill="none" stroke="#9aa7b8" stroke-width="1"/><polyline points="195.6,87.1 195.6,195.6" fill="none" stroke="#9aa7b8" stroke-width="1"/><polyline points="280.4,53.1 280.4,195.6" fill="none" stroke="#9aa7b8" stroke-width="1"/><polyline points="365.2,32.8 365.2,195.6" fill="none" stroke="#9aa7b8" stroke-width="1"/><polyline points="450.0,26.0 450.0,195.6" fill="none" stroke="#9aa7b8" stroke-width="1"/><polyline points="534.8,32.8 534.8,195.6" fill="none" stroke="#9aa7b8" stroke-width="1"/><polyline points="619.6,53.1 619.6,195.6" fill="none" stroke="#9aa7b8" stroke-width="1"/><polyline points="704.4,87.1 704.4,195.6" fill="none" stroke="#9aa7b8" stroke-width="1"/><polyline points="789.2,134.5 789.2,195.6" fill="none" stroke="#9aa7b8" stroke-width="1"/><polyline points="26.0,195.6 110.8,134.5" fill="none" stroke="#2563eb" stroke-width="2"/><polyline points="110.8,134.5 195.6,87.1" fill="none" stroke="#2563eb" stroke-width="2"/><polyline points="195.6,87.1 280.4,53.1" fill="none" stroke="#2563eb" stroke-width="2"/><polyline points="280.4,53.1 365.2,32.8" fill="none" stroke="#2563eb" stroke-width="2"/><polyline points="365.2,32.8 450.0,26.0" fill="none" stroke="#2563eb" stroke-width="2"/><polyline points="450.0,26.0 534.8,32.8" fill="none" stroke="#2563eb" stroke-width="2"/><polyline points="534.8,32.8 619.6,53.1" fill="none" stroke="#2563eb" stroke-width="2"/><polyline points="619.6,53.1 704.4,87.1" fill="none" stroke="#2563eb" stroke-width="2"/><polyline points="704.4,87.1 789.2,134.5" fill="none" stroke="#2563eb" stroke-width="2"/><polyline points="789.2,134.5 874.0,195.6" fill="none" stroke="#2563eb" stroke-width="2"/><polyline points="26.0,195.6 110.8,195.6" fill="none" stroke="#2563eb" stroke-width="2"/><polyline points="110.8,195.6 195.6,195.6" fill="none" stroke="#2563eb" stroke-width="2"/><polyline points="195.6,195.6 280.4,195.6" fill="none" stroke="#2563eb" stroke-width="2"/><polyline points="280.4,195.6 365.2,195.6" fill="none" stroke="#2563eb" stroke-width="2"/><polyline points="365.2,195.6 450.0,195.6" fill="none" stroke="#2563eb" stroke-width="2"/><polyline points="450.0,195.6 534.8,195.6" fill="none" stroke="#2563eb" stroke-width="2"/><polyline points="534.8,195.6 619.6,195.6" fill="none" stroke="#2563eb" stroke-width="2"/><polyline points="619.6,195.6 704.4,195.6" fill="none" stroke="#2563eb" stroke-width="2"/><polyline points="704.4,195.6 789.2,195.6" fill="none" stroke="#2563eb" stroke-width="2"/><polyline points="789.2,195.6 874.0,195.6" fill="none" stroke="#2563eb" stroke-width="2"/><polyline points="110.8,134.5 110.8,195.6" fill="none" stroke="#2563eb" stroke-width="2"/><polyline points="195.6,87.1 195.6,195.6" fill="none" stroke="#2563eb" stroke-width="2"/><polyline points="280.4,53.1 280.4,195.6" fill="none" stroke="#2563eb" stroke-width="2"/><polyline points="365.2,32.8 365.2,195.6" fill="none" stroke="#2563eb" stroke-width="2"/><polyline points="450.0,26.0 450.0,195.6" fill="none" stroke="#2563eb" stroke-width="2"/><polyline points="534.8,32.8 534.8,195.6" fill="none" stroke="#2563eb" stroke-width="2"/><polyline points="619.6,53.1 619.6,195.6" fill="none" stroke="#2563eb" stroke-width="2"/><polyline points="704.4,87.1 704.4,195.6" fill="none" stroke="#2563eb" stroke-width="2"/><polyline points="789.2,134.5 789.2,195.6" fill="none" stroke="#2563eb" stroke-width="2"/><rect x="22.0" y="191.6" width="8" height="8" fill="#0f766e" stroke="#fff" stroke-width="0.8"/><rect x="870.0" y="191.6" width="8" height="8" fill="#0f766e" stroke="#fff" stroke-width="0.8"/></svg>