<svg xmlns="http://www.w3.org/2000/svg" viewBox="0 0 900 325" width="900" height="325"><rect width="900" height="325" fill="#ffffff"/><polyline points="26.0,195.6 110.8,134.5" fill="none" stroke="#9aa7b8" stroke-width="1"/><polyline points="110.8,134.5 195.6,87.1" fill="none" stroke="#9aa7b8" stroke-width="1"/><polyline points="195.6,87.1 280.4,53.1" fill="none" stroke="#9aa7b8" stroke-width="1"/><polyline points="280.4,53.1 365.2,32.8" fill="none" stroke="#9aa7b8" stroke-width="1"/><polyline points="365.2,32.8 450.0,26.0" fill="none" stroke="#9aa7b8" stroke-width="1"/><polyline points="450.0,26.0 534.8,32.8" fill="none" stroke="#9aa7b8" stroke-width="1"/><polyline points="534.8,32.8 619.6,53.1" fill="none" stroke="#9aa7b8" stroke-width="1"/><polyline points="619.6,53.1 704.4,87.1" fill="none" stroke="#9aa7b8" stroke-width="1"/><polyline points="704.4,87.1 789.2,134.5" fill="none" stroke="#9aa7b8" stroke-width="1"/><polyline points="789.2,134.5 874.0,195.6" fill="none" stroke="#9aa7b8" stroke-width="1"/><polyline points="26.0,195.6 110.8,195.6" fill="none" stroke="#9aa7b8" stroke-width="1"/><polyline points="110.8,195.6 195.6,195.6" fill="none" stroke="#9aa7b8" stroke-width="1"/><polyline points="195.6,195.6 280.4,195.6" fill="none" stroke="#9aa7b8" stroke-width="1"/><polyline points="280.4,195.6 365.2,195.6" fill="none" stroke="#9aa7b8" stroke-width="1"/><polyline points="365.2,195.6 450.0,195.6" fill="none" stroke="#9aa7b8" stroke-width="1"/><polyline points="450.0,195.6 534.8,195.6" fill="none" stroke="#9aa7b8" stroke-width="1"/><polyline points="534.8,195.6 619.6,195.6" fill="none" stroke="#9aa7b8" stroke-width="1"/><polyline points="619.6,195.6 704.4,195.6" fill="none" stroke="#9aa7b8" stroke-width="1"/><polyline points="704.4,195.6 789.2,195.6" fill="none" stroke="#9aa7b8" stroke-width="1"/><polyline points="789.2,195.6 874.0,195.6" fill="none" stroke="#9aa7b8" stroke-width="1"/><polyline points="110.8,134.5 110.8,195.6" fill="none" stroke="#9aa7b8" stroke-width="1"/><polyline points="195.6,87.1 195.6,195.6" fill="none" stroke="#9aa7b8" stroke-width="1"/><polyline points="280.4,53.1 280.4,195.6" fill="none" stroke="#9aa7b8" stroke-width="1"/><polyline points="365.2,32.8 365.2,195.6" fill="none" stroke="#9aa7b8" stroke-width="1"/><polyline points="450.0,26.0 450.0,195.6" fill="none" stroke="#9aa7b8" stroke-width="1"/><polyline points="534.8,32.8 534.8,195.6" fill="none" stroke="#9aa7b8" stroke-width="1"/><polyline points="619.6,53.1 619.6,195.6" fill="none" stroke="#9aa7b8" stroke-width="1"/><polyline points="704.4,87.1 704.4,195.6" fill="none" stroke="#9aa7b8" stroke-width="1"/><polyline points="789.2,134.5 789.2,195.6" fill="none" stroke="#9aa7b8" stroke-width="1"/><polyline points="26.0,195.6 117.2,152.9" fill="none" stroke="#2563eb" stroke-width="2"/><polyline points="117.2,152.9 202.4,116.1" fill="none" stroke="#2563eb" stroke-width="2"/><polyline points="202.4,116.1 286.5,92.0" fill="none" stroke="#2563eb" stroke-width="2"/><polyline points="286.5,92.0 368.8,77.7" fill="none" stroke="#2563eb" stroke-width="2"/><polyline points="368.8,77.7 450.0,72.9" fill="none" stroke="#2563eb" stroke-width="2"/><polyline points="450.0,72.9 531.2,77.7" fill="none" stroke="#2563eb" stroke-width="2"/><polyline points="531.2,77.7 613.5,92.0" fill="none" stroke="#2563eb" stroke-width="2"/><polyline points="613.5,92.0 697.6,116.1" fill="none" stroke="#2563eb" stroke-width="2"/><polyline points="697.6,116.1 782.8,152.9" fill="none" stroke="#2563eb" stroke-width="2"/><polyline points="782.8,152.9 874.0,195.6" fill="none" stroke="#2563eb" stroke-width="2"/><polyline points="26.0,195.6 110.8,231.9" fill="none" stroke="#2563eb" stroke-width="2"/><polyline points="110.8,231.9 195.6,261.2" fill="none" stroke="#2563eb" stroke-width="2"/><polyline points="195.6,261.2 280.4,282.3" fill="none" stroke="#2563eb" stroke-width="2"/><polyline points="280.4,282.3 365.2,295.1" fill="none" stroke="#2563eb" stroke-width="2"/><polyline points="365.2,295.1 450.0,299.4" fill="none" stroke="#2563eb" stroke-width="2"/><polyline points="450.0,299.4 534.8,295.1" fill="none" stroke="#2563eb" stroke-width="2"/><polyline points="534.8,295.1 619.6,282.3" fill="none" stroke="#2563eb" stroke-width="2"/><polyline points="619.6,282.3 704.4,261.2" fill="none" stroke="#2563eb" stroke-width="2"/><polyline points="704.4,261.2 789.2,231.9" fill="none" stroke="#2563eb" stroke-width="2"/><polyline points="789.2,231.9 874.0,195.6" fill="none" stroke="#2563eb" stroke-width="2"/><polyline points="117.2,152.9 110.8,231.9" fill="none" stroke="#2563eb" stroke-width="2"/><polyline points="202.4,116.1 195.6,261.2" fill="none" stroke="#2563eb" stroke-width="2"/><polyline points="286.5,92.0 280.4,282.3" fill="none" stroke="#2563eb" stroke-width="2"/><polyline points="368.8,77.7 365.2,295.1" fill="none" stroke="#2563eb" stroke-width="2"/><polyline points="450.0,72.9 450.0,299.4" fill="none" stroke="#2563eb" stroke-width="2"/><polyline points="531.2,77.7 534.8,295.1" fill="none" stroke="#2563eb" stroke-width="2"/><polyline points="613.5,92.0 619.6,282.3" fill="none" stroke="#2563eb" stroke-width="2"/><polyline points="697.6,116.1 704.4,261.2" fill="none" stroke="#2563eb" stroke-width="2"/><polyline points="782.8,152.9 789.2,231.9" fill="none" stroke="#2563eb" stroke-width="2"/><rect x="22.0" y="191.6" width="8" height="8" fill="#0f766e" stroke="#fff" stroke-width="0.8"/><rect x="870.0" y="191.6" width="8" height="8" fill="#0f766e" stroke="#fff" stroke-width="0.8"/></svg>