<svg xmlns="http://www.w3.org/2000/svg" viewBox="0 0 960 334" width="960" height="334"><rect width="960" height="334" fill="#ffffff"/><polyline points="26.0,308.0 106.6,206.4" fill="none" stroke="#9aa7b8" stroke-width="1"/><polyline points="106.6,206.4 187.1,127.5" fill="none" stroke="#9aa7b8" stroke-width="1"/><polyline points="187.1,127.5 267.7,71.1" fill="none" stroke="#9aa7b8" stroke-width="1"/><polyline points="267.7,71.1 348.2,37.3" fill="none" stroke="#9aa7b8" stroke-width="1"/><polyline points="348.2,37.3 428.8,26.0" fill="none" stroke="#9aa7b8" stroke-width="1"/><polyline points="428.8,26.0 509.3,37.3" fill="none" stroke="#9aa7b8" stroke-width="1"/><polyline points="509.3,37.3 589.9,71.1" fill="none" stroke="#9aa7b8" stroke-width="1"/><polyline points="589.9,71.1 670.5,127.5" fill="none" stroke="#9aa7b8" stroke-width="1"/><polyline points="670.5,127.5 751.0,206.4" fill="none" stroke="#9aa7b8" stroke-width="1"/><polyline points="751.0,206.4 831.6,308.0" fill="none" stroke="#9aa7b8" stroke-width="1"/><polyline points="106.6,227.4 187.1,227.4" fill="none" stroke="#9aa7b8" stroke-width="1"/><polyline points="187.1,227.4 267.7,227.4" fill="none" stroke="#9aa7b8" stroke-width="1"/><polyline points="267.7,227.4 348.2,227.4" fill="none" stroke="#9aa7b8" stroke-width="1"/><polyline points="348.2,227.4 428.8,227.4" fill="none" stroke="#9aa7b8" stroke-width="1"/><polyline points="428.8,227.4 509.3,227.4" fill="none" stroke="#9aa7b8" stroke-width="1"/><polyline points="509.3,227.4 589.9,227.4" fill="none" stroke="#9aa7b8" stroke-width="1"/><polyline points="589.9,227.4 670.5,227.4" fill="none" stroke="#9aa7b8" stroke-width="1"/><polyline points="670.5,227.4 751.0,227.4" fill="none" stroke="#9aa7b8" stroke-width="1"/><polyline points="26.0,308.0 106.6,227.4" fill="none" stroke="#9aa7b8" stroke-width="1"/><polyline points="831.6,308.0 751.0,227.4" fill="none" stroke="#9aa7b8" stroke-width="1"/><polyline points="106.6,206.4 106.6,227.4" fill="none" stroke="#9aa7b8" stroke-width="1"/><polyline points="187.1,127.5 187.1,227.4" fill="none" stroke="#9aa7b8" stroke-width="1"/><polyline points="267.7,71.1 267.7,227.4" fill="none" stroke="#9aa7b8" stroke-width="1"/><polyline points="348.2,37.3 348.2,227.4" fill="none" stroke="#9aa7b8" stroke-width="1"/><polyline points="428.8,26.0 428.8,227.4" fill="none" stroke="#9aa7b8" stroke-width="1"/><polyline points="509.3,37.3 509.3,227.4" fill="none" stroke="#9aa7b8" stroke-width="1"/><polyline points="589.9,71.1 589.9,227.4" fill="none" stroke="#9aa7b8" stroke-width="1"/><polyline points="670.5,127.5 670.5,227.4" fill="none" stroke="#9aa7b8" stroke-width="1"/><polyline points="751.0,206.4 751.0,227.4" fill="none" stroke="#9aa7b8" stroke-width="1"/><polyline points="26.0,308.0 139.9,236.5" fill="none" stroke="#2563eb" stroke-width="2"/><polyline points="139.9,236.5 235.4,175.1" fill="none" stroke="#2563eb" stroke-width="2"/><polyline points="235.4,175.1 319.3,125.7" fill="none" stroke="#2563eb" stroke-width="2"/><polyline points="319.3,125.7 400.2,95.4" fill="none" stroke="#2563eb" stroke-width="2"/><polyline points="400.2,95.4 480.0,85.2" fill="none" stroke="#2563eb" stroke-width="2"/><polyline points="480.0,85.2 559.8,95.4" fill="none" stroke="#2563eb" stroke-width="2"/><polyline points="559.8,95.4 640.7,125.7" fill="none" stroke="#2563eb" stroke-width="2"/><polyline points="640.7,125.7 724.6,175.1" fill="none" stroke="#2563eb" stroke-width="2"/><polyline points="724.6,175.1 820.1,236.5" fill="none" stroke="#2563eb" stroke-width="2"/><polyline points="820.1,236.5 934.0,308.0" fill="none" stroke="#2563eb" stroke-width="2"/><polyline points="155.4,261.0 236.5,277.2" fill="none" stroke="#2563eb" stroke-width="2"/><polyline points="236.5,277.2 317.7,288.2" fill="none" stroke="#2563eb" stroke-width="2"/><polyline points="317.7,288.2 398.8,294.0" fill="none" stroke="#2563eb" stroke-width="2"/><polyline points="398.8,294.0 480.0,295.7" fill="none" stroke="#2563eb" stroke-width="2"/><polyline points="480.0,295.7 561.2,294.0" fill="none" stroke="#2563eb" stroke-width="2"/><polyline points="561.2,294.0 642.3,288.2" fill="none" stroke="#2563eb" stroke-width="2"/><polyline points="642.3,288.2 723.5,277.2" fill="none" stroke="#2563eb" stroke-width="2"/><polyline points="723.5,277.2 804.6,261.0" fill="none" stroke="#2563eb" stroke-width="2"/><polyline points="26.0,308.0 155.4,261.0" fill="none" stroke="#2563eb" stroke-width="2"/><polyline points="934.0,308.0 804.6,261.0" fill="none" stroke="#2563eb" stroke-width="2"/><polyline points="139.9,236.5 155.4,261.0" fill="none" stroke="#2563eb" stroke-width="2"/><polyline points="235.4,175.1 236.5,277.2" fill="none" stroke="#2563eb" stroke-width="2"/><polyline points="319.3,125.7 317.7,288.2" fill="none" stroke="#2563eb" stroke-width="2"/><polyline points="400.2,95.4 398.8,294.0" fill="none" stroke="#2563eb" stroke-width="2"/><polyline points="480.0,85.2 480.0,295.7" fill="none" stroke="#2563eb" stroke-width="2"/><polyline points="559.8,95.4 561.2,294.0" fill="none" stroke="#2563eb" stroke-width="2"/><polyline points="640.7,125.7 642.3,288.2" fill="none" stroke="#2563eb" stroke-width="2"/><polyline points="724.6,175.1 723.5,277.2" fill="none" stroke="#2563eb" stroke-width="2"/><polyline points="820.1,236.5 804.6,261.0" fill="none" stroke="#2563eb" stroke-width="2"/><rect x="22.0" y="304.0" width="8" height="8" fill="#0f766e" stroke="#fff" stroke-width="0.8"/></svg>