<svg xmlns="http://www.w3.org/2000/svg" viewBox="0 0 980 300" width="980" height="300"><rect width="980" height="300" fill="#ffffff"/><polyline points="26.0,180.9 69.4,180.9" fill="none" stroke="#9aa7b8" stroke-width="1"/><polyline points="69.4,180.9 112.8,180.9" fill="none" stroke="#9aa7b8" stroke-width="1"/><polyline points="112.8,180.9 156.2,180.9" fill="none" stroke="#9aa7b8" stroke-width="1"/><polyline points="156.2,180.9 199.6,180.9" fill="none" stroke="#9aa7b8" stroke-width="1"/><polyline points="199.6,180.9 243.0,180.9" fill="none" stroke="#9aa7b8" stroke-width="1"/><polyline points="243.0,180.9 286.4,180.9" fill="none" stroke="#9aa7b8" stroke-width="1"/><polyline points="286.4,180.9 329.7,180.9" fill="none" stroke="#9aa7b8" stroke-width="1"/><polyline points="329.7,180.9 373.1,180.9" fill="none" stroke="#9aa7b8" stroke-width="1"/><polyline points="373.1,180.9 416.5,180.9" fill="none" stroke="#9aa7b8" stroke-width="1"/><polyline points="416.5,180.9 459.9,180.9" fill="none" stroke="#9aa7b8" stroke-width="1"/><polyline points="459.9,180.9 503.3,180.9" fill="none" stroke="#9aa7b8" stroke-width="1"/><polyline points="503.3,180.9 546.7,180.9" fill="none" stroke="#9aa7b8" stroke-width="1"/><polyline points="546.7,180.9 590.1,180.9" fill="none" stroke="#9aa7b8" stroke-width="1"/><polyline points="590.1,180.9 633.5,180.9" fill="none" stroke="#9aa7b8" stroke-width="1"/><polyline points="633.5,180.9 676.9,180.9" fill="none" stroke="#9aa7b8" stroke-width="1"/><polyline points="676.9,180.9 720.3,180.9" fill="none" stroke="#9aa7b8" stroke-width="1"/><polyline points="720.3,180.9 763.7,180.9" fill="none" stroke="#9aa7b8" stroke-width="1"/><polyline points="763.7,180.9 807.1,180.9" fill="none" stroke="#9aa7b8" stroke-width="1"/><polyline points="807.1,180.9 850.5,180.9" fill="none" stroke="#9aa7b8" stroke-width="1"/><polyline points="850.5,180.9 893.8,180.9" fill="none" stroke="#9aa7b8" stroke-width="1"/><polyline points="893.8,180.9 937.2,180.9" fill="none" stroke="#9aa7b8" stroke-width="1"/><polyline points="329.7,211.1 329.7,180.9" fill="none" stroke="#9aa7b8" stroke-width="1"/><polyline points="329.7,180.9 329.7,26.0" fill="none" stroke="#9aa7b8" stroke-width="1"/><polyline points="329.7,26.0 26.0,180.9" fill="none" stroke="#9aa7b8" stroke-width="1"/><polyline points="329.7,26.0 69.4,180.9" fill="none" stroke="#9aa7b8" stroke-width="1"/><polyline points="329.7,26.0 112.8,180.9" fill="none" stroke="#9aa7b8" stroke-width="1"/><polyline points="329.7,26.0 156.2,180.9" fill="none" stroke="#9aa7b8" stroke-width="1"/><polyline points="329.7,26.0 199.6,180.9" fill="none" stroke="#9aa7b8" stroke-width="1"/><polyline points="329.7,26.0 243.0,180.9" fill="none" stroke="#9aa7b8" stroke-width="1"/><polyline points="329.7,26.0 416.5,180.9" fill="none" stroke="#9aa7b8" stroke-width="1"/><polyline points="329.7,26.0 459.9,180.9" fill="none" stroke="#9aa7b8" stroke-width="1"/><polyline points="329.7,26.0 503.3,180.9" fill="none" stroke="#9aa7b8" stroke-width="1"/><polyline points="329.7,26.0 546.7,180.9" fill="none" stroke="#9aa7b8" stroke-width="1"/><polyline points="329.7,26.0 590.1,180.9" fill="none" stroke="#9aa7b8" stroke-width="1"/><polyline points="329.7,26.0 633.5,180.9" fill="none" stroke="#9aa7b8" stroke-width="1"/><polyline points="329.7,26.0 676.9,180.9" fill="none" stroke="#9aa7b8" stroke-width="1"/><polyline points="329.7,26.0 720.3,180.9" fill="none" stroke="#9aa7b8" stroke-width="1"/><polyline points="329.7,26.0 763.7,180.9" fill="none" stroke="#9aa7b8" stroke-width="1"/><polyline points="329.7,26.0 807.1,180.9" fill="none" stroke="#9aa7b8" stroke-width="1"/><polyline points="329.7,26.0 850.5,180.9" fill="none" stroke="#9aa7b8" stroke-width="1"/><polyline points="329.7,26.0 893.8,180.9" fill="none" stroke="#9aa7b8" stroke-width="1"/><polyline points="329.7,26.0 937.2,180.9" fill="none" stroke="#9aa7b8" stroke-width="1"/><polyline points="26.0,180.9 70.4,194.2" fill="none" stroke="#2563eb" stroke-width="2"/><polyline points="70.4,194.2 114.5,200.6" fill="none" stroke="#2563eb" stroke-width="2"/><polyline points="114.5,200.6 158.3,205.3" fill="none" stroke="#2563eb" stroke-width="2"/><polyline points="158.3,205.3 201.7,209.7" fill="none" stroke="#2563eb" stroke-width="2"/><polyline points="201.7,209.7 244.8,214.1" fill="none" stroke="#2563eb" stroke-width="2"/><polyline points="244.8,214.1 287.8,205.2" fill="none" stroke="#2563eb" stroke-width="2"/><polyline points="287.8,205.2 330.8,188.7" fill="none" stroke="#2563eb" stroke-width="2"/><polyline points="330.8,188.7 373.8,214.9" fill="none" stroke="#2563eb" stroke-width="2"/><polyline points="373.8,214.9 416.8,234.0" fill="none" stroke="#2563eb" stroke-width="2"/><polyline points="416.8,234.0 459.8,239.7" fill="none" stroke="#2563eb" stroke-width="2"/><polyline points="459.8,239.7 502.9,245.6" fill="none" stroke="#2563eb" stroke-width="2"/><polyline points="502.9,245.6 546.0,251.7" fill="none" stroke="#2563eb" stroke-width="2"/><polyline points="546.0,251.7 589.4,257.8" fill="none" stroke="#2563eb" stroke-width="2"/><polyline points="589.4,257.8 633.0,263.6" fill="none" stroke="#2563eb" stroke-width="2"/><polyline points="633.0,263.6 677.1,268.8" fill="none" stroke="#2563eb" stroke-width="2"/><polyline points="677.1,268.8 721.7,272.6" fill="none" stroke="#2563eb" stroke-width="2"/><polyline points="721.7,272.6 767.0,273.8" fill="none" stroke="#2563eb" stroke-width="2"/><polyline points="767.0,273.8 813.1,270.6" fill="none" stroke="#2563eb" stroke-width="2"/><polyline points="813.1,270.6 860.0,259.5" fill="none" stroke="#2563eb" stroke-width="2"/><polyline points="860.0,259.5 907.3,233.6" fill="none" stroke="#2563eb" stroke-width="2"/><polyline points="907.3,233.6 954.0,180.9" fill="none" stroke="#2563eb" stroke-width="2"/><polyline points="329.7,211.1 330.8,188.7" fill="none" stroke="#2563eb" stroke-width="2"/><polyline points="330.8,188.7 348.7,68.3" fill="none" stroke="#2563eb" stroke-width="2"/><polyline points="348.7,68.3 26.0,180.9" fill="none" stroke="#2563eb" stroke-width="2"/><polyline points="348.7,68.3 70.4,194.2" fill="none" stroke="#2563eb" stroke-width="2"/><polyline points="348.7,68.3 114.5,200.6" fill="none" stroke="#2563eb" stroke-width="2"/><polyline points="348.7,68.3 158.3,205.3" fill="none" stroke="#2563eb" stroke-width="2"/><polyline points="348.7,68.3 201.7,209.7" fill="none" stroke="#2563eb" stroke-width="2"/><polyline points="348.7,68.3 244.8,214.1" fill="none" stroke="#2563eb" stroke-width="2"/><polyline points="348.7,68.3 416.8,234.0" fill="none" stroke="#2563eb" stroke-width="2"/><polyline points="348.7,68.3 459.8,239.7" fill="none" stroke="#2563eb" stroke-width="2"/><polyline points="348.7,68.3 502.9,245.6" fill="none" stroke="#2563eb" stroke-width="2"/><polyline points="348.7,68.3 546.0,251.7" fill="none" stroke="#2563eb" stroke-width="2"/><polyline points="348.7,68.3 589.4,257.8" fill="none" stroke="#2563eb" stroke-width="2"/><polyline points="348.7,68.3 633.0,263.6" fill="none" stroke="#2563eb" stroke-width="2"/><polyline points="348.7,68.3 677.1,268.8" fill="none" stroke="#2563eb" stroke-width="2"/><polyline points="348.7,68.3 721.7,272.6" fill="none" stroke="#2563eb" stroke-width="2"/><polyline points="348.7,68.3 767.0,273.8" fill="none" stroke="#2563eb" stroke-width="2"/><polyline points="348.7,68.3 813.1,270.6" fill="none" stroke="#2563eb" stroke-width="2"/><polyline points="348.7,68.3 860.0,259.5" fill="none" stroke="#2563eb" stroke-width="2"/><polyline points="348.7,68.3 907.3,233.6" fill="none" stroke="#2563eb" stroke-width="2"/><polyline points="348.7,68.3 954.0,180.9" fill="none" stroke="#2563eb" stroke-width="2"/><rect x="22.0" y="176.9" width="8" height="8" fill="#0f766e" stroke="#fff" stroke-width="0.8"/><rect x="933.2" y="176.9" width="8" height="8" fill="#0f766e" stroke="#fff" stroke-width="0.8"/><rect x="325.7" y="207.1" width="8" height="8" fill="#0f766e" stroke="#fff" stroke-width="0.8"/></svg>