<svg xmlns="http://www.w3.org/2000/svg" viewBox="0 0 980 217" width="980" height="217"><rect width="980" height="217" fill="#ffffff"/><polyline points="187.9,107.2 187.9,97.7" fill="none" stroke="#9aa7b8" stroke-width="1"/><polyline points="187.9,97.7 187.9,26.0" fill="none" stroke="#9aa7b8" stroke-width="1"/><polyline points="792.1,107.2 792.1,97.7" fill="none" stroke="#9aa7b8" stroke-width="1"/><polyline points="792.1,97.7 792.1,26.0" fill="none" stroke="#9aa7b8" stroke-width="1"/><polyline points="26.0,97.7 187.9,26.0" fill="none" stroke="#9aa7b8" stroke-width="1"/><polyline points="187.9,26.0 225.7,41.8" fill="none" stroke="#9aa7b8" stroke-width="1"/><polyline points="225.7,41.8 263.4,55.5" fill="none" stroke="#9aa7b8" stroke-width="1"/><polyline points="263.4,55.5 301.2,67.1" fill="none" stroke="#9aa7b8" stroke-width="1"/><polyline points="301.2,67.1 339.0,76.6" fill="none" stroke="#9aa7b8" stroke-width="1"/><polyline points="339.0,76.6 376.7,84.0" fill="none" stroke="#9aa7b8" stroke-width="1"/><polyline points="376.7,84.0 414.5,89.3" fill="none" stroke="#9aa7b8" stroke-width="1"/><polyline points="414.5,89.3 452.2,92.4" fill="none" stroke="#9aa7b8" stroke-width="1"/><polyline points="452.2,92.4 490.0,93.5" fill="none" stroke="#9aa7b8" stroke-width="1"/><polyline points="490.0,93.5 527.8,92.4" fill="none" stroke="#9aa7b8" stroke-width="1"/><polyline points="527.8,92.4 565.5,89.3" fill="none" stroke="#9aa7b8" stroke-width="1"/><polyline points="565.5,89.3 603.3,84.0" fill="none" stroke="#9aa7b8" stroke-width="1"/><polyline points="603.3,84.0 641.0,76.6" fill="none" stroke="#9aa7b8" stroke-width="1"/><polyline points="641.0,76.6 678.8,67.1" fill="none" stroke="#9aa7b8" stroke-width="1"/><polyline points="678.8,67.1 716.6,55.5" fill="none" stroke="#9aa7b8" stroke-width="1"/><polyline points="716.6,55.5 754.3,41.8" fill="none" stroke="#9aa7b8" stroke-width="1"/><polyline points="754.3,41.8 792.1,26.0" fill="none" stroke="#9aa7b8" stroke-width="1"/><polyline points="792.1,26.0 954.0,97.7" fill="none" stroke="#9aa7b8" stroke-width="1"/><polyline points="187.9,97.7 225.7,97.7" fill="none" stroke="#9aa7b8" stroke-width="1"/><polyline points="225.7,97.7 263.4,97.7" fill="none" stroke="#9aa7b8" stroke-width="1"/><polyline points="263.4,97.7 301.2,97.7" fill="none" stroke="#9aa7b8" stroke-width="1"/><polyline points="301.2,97.7 339.0,97.7" fill="none" stroke="#9aa7b8" stroke-width="1"/><polyline points="339.0,97.7 376.7,97.7" fill="none" stroke="#9aa7b8" stroke-width="1"/><polyline points="376.7,97.7 414.5,97.7" fill="none" stroke="#9aa7b8" stroke-width="1"/><polyline points="414.5,97.7 452.2,97.7" fill="none" stroke="#9aa7b8" stroke-width="1"/><polyline points="452.2,97.7 490.0,97.7" fill="none" stroke="#9aa7b8" stroke-width="1"/><polyline points="490.0,97.7 527.8,97.7" fill="none" stroke="#9aa7b8" stroke-width="1"/><polyline points="527.8,97.7 565.5,97.7" fill="none" stroke="#9aa7b8" stroke-width="1"/><polyline points="565.5,97.7 603.3,97.7" fill="none" stroke="#9aa7b8" stroke-width="1"/><polyline points="603.3,97.7 641.0,97.7" fill="none" stroke="#9aa7b8" stroke-width="1"/><polyline points="641.0,97.7 678.8,97.7" fill="none" stroke="#9aa7b8" stroke-width="1"/><polyline points="678.8,97.7 716.6,97.7" fill="none" stroke="#9aa7b8" stroke-width="1"/><polyline points="716.6,97.7 754.3,97.7" fill="none" stroke="#9aa7b8" stroke-width="1"/><polyline points="754.3,97.7 792.1,97.7" fill="none" stroke="#9aa7b8" stroke-width="1"/><polyline points="225.7,41.8 225.7,97.7" fill="none" stroke="#9aa7b8" stroke-width="1"/><polyline points="263.4,55.5 263.4,97.7" fill="none" stroke="#9aa7b8" stroke-width="1"/><polyline points="301.2,67.1 301.2,97.7" fill="none" stroke="#9aa7b8" stroke-width="1"/><polyline points="339.0,76.6 339.0,97.7" fill="none" stroke="#9aa7b8" stroke-width="1"/><polyline points="376.7,84.0 376.7,97.7" fill="none" stroke="#9aa7b8" stroke-width="1"/><polyline points="414.5,89.3 414.5,97.7" fill="none" stroke="#9aa7b8" stroke-width="1"/><polyline points="452.2,92.4 452.2,97.7" fill="none" stroke="#9aa7b8" stroke-width="1"/><polyline points="490.0,93.5 490.0,97.7" fill="none" stroke="#9aa7b8" stroke-width="1"/><polyline points="527.8,92.4 527.8,97.7" fill="none" stroke="#9aa7b8" stroke-width="1"/><polyline points="565.5,89.3 565.5,97.7" fill="none" stroke="#9aa7b8" stroke-width="1"/><polyline points="603.3,84.0 603.3,97.7" fill="none" stroke="#9aa7b8" stroke-width="1"/><polyline points="641.0,76.6 641.0,97.7" fill="none" stroke="#9aa7b8" stroke-width="1"/><polyline points="678.8,67.1 678.8,97.7" fill="none" stroke="#9aa7b8" stroke-width="1"/><polyline points="716.6,55.5 716.6,97.7" fill="none" stroke="#9aa7b8" stroke-width="1"/><polyline points="754.3,41.8 754.3,97.7" fill="none" stroke="#9aa7b8" stroke-width="1"/><polyline points="187.9,97.7 187.9,107.2" fill="none" stroke="#9aa7b8" stroke-width="1"/><polyline points="792.1,97.7 792.1,107.2" fill="none" stroke="#9aa7b8" stroke-width="1"/><polyline points="187.9,107.2 188.1,99.4" fill="none" stroke="#2563eb" stroke-width="2"/><polyline points="188.1,99.4 200.0,39.9" fill="none" stroke="#2563eb" stroke-width="2"/><polyline points="792.1,107.2 791.9,99.4" fill="none" stroke="#2563eb" stroke-width="2"/><polyline points="791.9,99.4 780.0,40.0" fill="none" stroke="#2563eb" stroke-width="2"/><polyline points="26.0,97.7 200.0,39.9" fill="none" stroke="#2563eb" stroke-width="2"/><polyline points="200.0,39.9 234.0,68.0" fill="none" stroke="#2563eb" stroke-width="2"/><polyline points="234.0,68.0 268.0,95.6" fill="none" stroke="#2563eb" stroke-width="2"/><polyline points="268.0,95.6 302.7,121.1" fill="none" stroke="#2563eb" stroke-width="2"/><polyline points="302.7,121.1 338.4,143.5" fill="none" stroke="#2563eb" stroke-width="2"/><polyline points="338.4,143.5 375.1,161.9" fill="none" stroke="#2563eb" stroke-width="2"/><polyline points="375.1,161.9 412.8,175.4" fill="none" stroke="#2563eb" stroke-width="2"/><polyline points="412.8,175.4 451.2,183.7" fill="none" stroke="#2563eb" stroke-width="2"/><polyline points="451.2,183.7 489.9,186.5" fill="none" stroke="#2563eb" stroke-width="2"/><polyline points="489.9,186.5 528.6,183.7" fill="none" stroke="#2563eb" stroke-width="2"/><polyline points="528.6,183.7 567.0,175.3" fill="none" stroke="#2563eb" stroke-width="2"/><polyline points="567.0,175.3 604.7,161.8" fill="none" stroke="#2563eb" stroke-width="2"/><polyline points="604.7,161.8 641.4,143.4" fill="none" stroke="#2563eb" stroke-width="2"/><polyline points="641.4,143.4 677.1,121.1" fill="none" stroke="#2563eb" stroke-width="2"/><polyline points="677.1,121.1 711.9,95.6" fill="none" stroke="#2563eb" stroke-width="2"/><polyline points="711.9,95.6 745.9,68.0" fill="none" stroke="#2563eb" stroke-width="2"/><polyline points="745.9,68.0 780.0,40.0" fill="none" stroke="#2563eb" stroke-width="2"/><polyline points="780.0,40.0 954.0,97.7" fill="none" stroke="#2563eb" stroke-width="2"/><polyline points="187.9,97.7 225.6,125.8" fill="none" stroke="#2563eb" stroke-width="2"/><polyline points="225.6,125.8 263.3,139.4" fill="none" stroke="#2563eb" stroke-width="2"/><polyline points="263.3,139.4 301.0,152.8" fill="none" stroke="#2563eb" stroke-width="2"/><polyline points="301.0,152.8 338.6,165.4" fill="none" stroke="#2563eb" stroke-width="2"/><polyline points="338.6,165.4 376.3,176.1" fill="none" stroke="#2563eb" stroke-width="2"/><polyline points="376.3,176.1 414.0,184.2" fill="none" stroke="#2563eb" stroke-width="2"/><polyline points="414.0,184.2 451.7,189.2" fill="none" stroke="#2563eb" stroke-width="2"/><polyline points="451.7,189.2 489.5,190.9" fill="none" stroke="#2563eb" stroke-width="2"/><polyline points="489.5,190.9 527.2,189.2" fill="none" stroke="#2563eb" stroke-width="2"/><polyline points="527.2,189.2 564.9,184.1" fill="none" stroke="#2563eb" stroke-width="2"/><polyline points="564.9,184.1 602.5,176.0" fill="none" stroke="#2563eb" stroke-width="2"/><polyline points="602.5,176.0 640.2,165.3" fill="none" stroke="#2563eb" stroke-width="2"/><polyline points="640.2,165.3 677.8,152.8" fill="none" stroke="#2563eb" stroke-width="2"/><polyline points="677.8,152.8 715.4,139.4" fill="none" stroke="#2563eb" stroke-width="2"/><polyline points="715.4,139.4 753.1,125.9" fill="none" stroke="#2563eb" stroke-width="2"/><polyline points="753.1,125.9 790.7,97.7" fill="none" stroke="#2563eb" stroke-width="2"/><polyline points="234.0,68.0 225.6,125.8" fill="none" stroke="#2563eb" stroke-width="2"/><polyline points="268.0,95.6 263.3,139.4" fill="none" stroke="#2563eb" stroke-width="2"/><polyline points="302.7,121.1 301.0,152.8" fill="none" stroke="#2563eb" stroke-width="2"/><polyline points="338.4,143.5 338.6,165.4" fill="none" stroke="#2563eb" stroke-width="2"/><polyline points="375.1,161.9 376.3,176.1" fill="none" stroke="#2563eb" stroke-width="2"/><polyline points="412.8,175.4 414.0,184.2" fill="none" stroke="#2563eb" stroke-width="2"/><polyline points="451.2,183.7 451.7,189.2" fill="none" stroke="#2563eb" stroke-width="2"/><polyline points="489.9,186.5 489.5,190.9" fill="none" stroke="#2563eb" stroke-width="2"/><polyline points="528.6,183.7 527.2,189.2" fill="none" stroke="#2563eb" stroke-width="2"/><polyline points="567.0,175.3 564.9,184.1" fill="none" stroke="#2563eb" stroke-width="2"/><polyline points="604.7,161.8 602.5,176.0" fill="none" stroke="#2563eb" stroke-width="2"/><polyline points="641.4,143.4 640.2,165.3" fill="none" stroke="#2563eb" stroke-width="2"/><polyline points="677.1,121.1 677.8,152.8" fill="none" stroke="#2563eb" stroke-width="2"/><polyline points="711.9,95.6 715.4,139.4" fill="none" stroke="#2563eb" stroke-width="2"/><polyline points="745.9,68.0 753.1,125.9" fill="none" stroke="#2563eb" stroke-width="2"/><polyline points="187.9,97.7 187.9,107.2" fill="none" stroke="#2563eb" stroke-width="2"/><polyline points="790.7,97.7 792.1,107.2" fill="none" stroke="#2563eb" stroke-width="2"/><rect x="183.9" y="103.2" width="8" height="8" fill="#0f766e" stroke="#fff" stroke-width="0.8"/><rect x="788.1" y="103.2" width="8" height="8" fill="#0f766e" stroke="#fff" stroke-width="0.8"/><rect x="22.0" y="93.7" width="8" height="8" fill="#0f766e" stroke="#fff" stroke-width="0.8"/><rect x="950.0" y="93.7" width="8" height="8" fill="#0f766e" stroke="#fff" stroke-width="0.8"/><rect x="183.9" y="93.7" width="8" height="8" fill="#0f766e" stroke="#fff" stroke-width="0.8"/><rect x="788.1" y="93.7" width="8" height="8" fill="#0f766e" stroke="#fff" stroke-width="0.8"/></svg>