<svg xmlns="http://www.w3.org/2000/svg" viewBox="0 0 980 618" width="980" height="618"><rect width="980" height="618" fill="#ffffff"/><polygon points="116.7,56.2 156.6,79.2 111.8,105.1 71.9,82.1" fill="#dbeafe" fill-opacity="0.5" stroke="#94a3b8" stroke-width="0.8"/><polygon points="71.9,82.1 111.8,105.1 66.9,131.0 27.1,108.0" fill="#dbeafe" fill-opacity="0.5" stroke="#94a3b8" stroke-width="0.8"/><polygon points="156.6,79.2 196.4,102.2 151.6,128.1 111.8,105.1" fill="#dbeafe" fill-opacity="0.5" stroke="#94a3b8" stroke-width="0.8"/><polygon points="111.8,105.1 151.6,128.1 106.8,154.0 66.9,131.0" fill="#dbeafe" fill-opacity="0.5" stroke="#94a3b8" stroke-width="0.8"/><polygon points="196.4,102.2 236.3,125.2 191.5,151.1 151.6,128.1" fill="#dbeafe" fill-opacity="0.5" stroke="#94a3b8" stroke-width="0.8"/><polygon points="151.6,128.1 191.5,151.1 146.6,177.0 106.8,154.0" fill="#dbeafe" fill-opacity="0.5" stroke="#94a3b8" stroke-width="0.8"/><polygon points="236.3,125.2 276.2,148.2 231.3,174.1 191.5,151.1" fill="#dbeafe" fill-opacity="0.5" stroke="#94a3b8" stroke-width="0.8"/><polygon points="191.5,151.1 231.3,174.1 186.5,200.0 146.6,177.0" fill="#dbeafe" fill-opacity="0.5" stroke="#94a3b8" stroke-width="0.8"/><polygon points="276.2,148.2 316.0,171.2 271.2,197.1 231.3,174.1" fill="#dbeafe" fill-opacity="0.5" stroke="#94a3b8" stroke-width="0.8"/><polygon points="231.3,174.1 271.2,197.1 226.3,223.0 186.5,200.0" fill="#dbeafe" fill-opacity="0.5" stroke="#94a3b8" stroke-width="0.8"/><polygon points="316.0,171.2 355.9,194.2 311.0,220.1 271.2,197.1" fill="#dbeafe" fill-opacity="0.5" stroke="#94a3b8" stroke-width="0.8"/><polygon points="271.2,197.1 311.0,220.1 266.2,246.0 226.3,223.0" fill="#dbeafe" fill-opacity="0.5" stroke="#94a3b8" stroke-width="0.8"/><polygon points="355.9,194.2 395.7,217.2 350.9,243.1 311.0,220.1" fill="#dbeafe" fill-opacity="0.5" stroke="#94a3b8" stroke-width="0.8"/><polygon points="311.0,220.1 350.9,243.1 306.0,269.0 266.2,246.0" fill="#dbeafe" fill-opacity="0.5" stroke="#94a3b8" stroke-width="0.8"/><polygon points="395.7,217.2 435.6,240.3 390.7,266.1 350.9,243.1" fill="#dbeafe" fill-opacity="0.5" stroke="#94a3b8" stroke-width="0.8"/><polygon points="350.9,243.1 390.7,266.1 345.9,292.0 306.0,269.0" fill="#dbeafe" fill-opacity="0.5" stroke="#94a3b8" stroke-width="0.8"/><polygon points="435.6,240.3 475.4,263.3 430.6,289.1 390.7,266.1" fill="#dbeafe" fill-opacity="0.5" stroke="#94a3b8" stroke-width="0.8"/><polygon points="390.7,266.1 430.6,289.1 385.7,315.0 345.9,292.0" fill="#dbeafe" fill-opacity="0.5" stroke="#94a3b8" stroke-width="0.8"/><polygon points="475.4,263.3 515.3,286.3 470.4,312.2 430.6,289.1" fill="#dbeafe" fill-opacity="0.5" stroke="#94a3b8" stroke-width="0.8"/><polygon points="430.6,289.1 470.4,312.2 425.6,338.0 385.7,315.0" fill="#dbeafe" fill-opacity="0.5" stroke="#94a3b8" stroke-width="0.8"/><polygon points="515.3,286.3 555.1,309.3 510.3,335.2 470.4,312.2" fill="#dbeafe" fill-opacity="0.5" stroke="#94a3b8" stroke-width="0.8"/><polygon points="470.4,312.2 510.3,335.2 465.4,361.0 425.6,338.0" fill="#dbeafe" fill-opacity="0.5" stroke="#94a3b8" stroke-width="0.8"/><polygon points="555.1,309.3 595.0,332.3 550.1,358.2 510.3,335.2" fill="#dbeafe" fill-opacity="0.5" stroke="#94a3b8" stroke-width="0.8"/><polygon points="510.3,335.2 550.1,358.2 505.3,384.1 465.4,361.0" fill="#dbeafe" fill-opacity="0.5" stroke="#94a3b8" stroke-width="0.8"/><polygon points="595.0,332.3 634.8,355.3 590.0,381.2 550.1,358.2" fill="#dbeafe" fill-opacity="0.5" stroke="#94a3b8" stroke-width="0.8"/><polygon points="550.1,358.2 590.0,381.2 545.2,407.1 505.3,384.1" fill="#dbeafe" fill-opacity="0.5" stroke="#94a3b8" stroke-width="0.8"/><polygon points="634.8,355.3 674.7,378.3 629.8,404.2 590.0,381.2" fill="#dbeafe" fill-opacity="0.5" stroke="#94a3b8" stroke-width="0.8"/><polygon points="590.0,381.2 629.8,404.2 585.0,430.1 545.2,407.1" fill="#dbeafe" fill-opacity="0.5" stroke="#94a3b8" stroke-width="0.8"/><polygon points="674.7,378.3 714.5,401.3 669.7,427.2 629.8,404.2" fill="#dbeafe" fill-opacity="0.5" stroke="#94a3b8" stroke-width="0.8"/><polygon points="629.8,404.2 669.7,427.2 624.9,453.1 585.0,430.1" fill="#dbeafe" fill-opacity="0.5" stroke="#94a3b8" stroke-width="0.8"/><polygon points="714.5,401.3 754.4,424.3 709.5,450.2 669.7,427.2" fill="#dbeafe" fill-opacity="0.5" stroke="#94a3b8" stroke-width="0.8"/><polygon points="669.7,427.2 709.5,450.2 664.7,476.1 624.9,453.1" fill="#dbeafe" fill-opacity="0.5" stroke="#94a3b8" stroke-width="0.8"/><polygon points="754.4,424.3 794.2,447.3 749.4,473.2 709.5,450.2" fill="#dbeafe" fill-opacity="0.5" stroke="#94a3b8" stroke-width="0.8"/><polygon points="709.5,450.2 749.4,473.2 704.6,499.1 664.7,476.1" fill="#dbeafe" fill-opacity="0.5" stroke="#94a3b8" stroke-width="0.8"/><polygon points="794.2,447.3 834.1,470.3 789.3,496.2 749.4,473.2" fill="#dbeafe" fill-opacity="0.5" stroke="#94a3b8" stroke-width="0.8"/><polygon points="749.4,473.2 789.3,496.2 744.4,522.1 704.6,499.1" fill="#dbeafe" fill-opacity="0.5" stroke="#94a3b8" stroke-width="0.8"/><polygon points="834.1,470.3 873.9,493.3 829.1,519.2 789.3,496.2" fill="#dbeafe" fill-opacity="0.5" stroke="#94a3b8" stroke-width="0.8"/><polygon points="789.3,496.2 829.1,519.2 784.3,545.1 744.4,522.1" fill="#dbeafe" fill-opacity="0.5" stroke="#94a3b8" stroke-width="0.8"/><polygon points="873.9,493.3 913.8,516.4 869.0,542.2 829.1,519.2" fill="#dbeafe" fill-opacity="0.5" stroke="#94a3b8" stroke-width="0.8"/><polygon points="829.1,519.2 869.0,542.2 824.1,568.1 784.3,545.1" fill="#dbeafe" fill-opacity="0.5" stroke="#94a3b8" stroke-width="0.8"/><polygon points="913.8,516.4 953.6,539.4 908.8,565.3 869.0,542.2" fill="#dbeafe" fill-opacity="0.5" stroke="#94a3b8" stroke-width="0.8"/><polygon points="869.0,542.2 908.8,565.3 864.0,591.1 824.1,568.1" fill="#dbeafe" fill-opacity="0.5" stroke="#94a3b8" stroke-width="0.8"/><polyline points="71.9,53.3 111.8,51.3" fill="none" stroke="#9aa7b8" stroke-width="1"/><polyline points="111.8,51.3 151.6,51.7" fill="none" stroke="#9aa7b8" stroke-width="1"/><polyline points="151.6,51.7 191.5,54.7" fill="none" stroke="#9aa7b8" stroke-width="1"/><polyline points="191.5,54.7 231.3,60.2" fill="none" stroke="#9aa7b8" stroke-width="1"/><polyline points="231.3,60.2 271.2,68.2" fill="none" stroke="#9aa7b8" stroke-width="1"/><polyline points="271.2,68.2 311.0,78.7" fill="none" stroke="#9aa7b8" stroke-width="1"/><polyline points="311.0,78.7 350.9,91.7" fill="none" stroke="#9aa7b8" stroke-width="1"/><polyline points="350.9,91.7 390.7,107.1" fill="none" stroke="#9aa7b8" stroke-width="1"/><polyline points="390.7,107.1 430.6,125.1" fill="none" stroke="#9aa7b8" stroke-width="1"/><polyline points="430.6,125.1 470.4,145.7" fill="none" stroke="#9aa7b8" stroke-width="1"/><polyline points="470.4,145.7 510.3,168.7" fill="none" stroke="#9aa7b8" stroke-width="1"/><polyline points="510.3,168.7 550.1,194.2" fill="none" stroke="#9aa7b8" stroke-width="1"/><polyline points="550.1,194.2 590.0,222.2" fill="none" stroke="#9aa7b8" stroke-width="1"/><polyline points="590.0,222.2 629.8,252.7" fill="none" stroke="#9aa7b8" stroke-width="1"/><polyline points="629.8,252.7 669.7,285.7" fill="none" stroke="#9aa7b8" stroke-width="1"/><polyline points="669.7,285.7 709.5,321.3" fill="none" stroke="#9aa7b8" stroke-width="1"/><polyline points="709.5,321.3 749.4,359.3" fill="none" stroke="#9aa7b8" stroke-width="1"/><polyline points="749.4,359.3 789.3,399.8" fill="none" stroke="#9aa7b8" stroke-width="1"/><polyline points="789.3,399.8 829.1,442.9" fill="none" stroke="#9aa7b8" stroke-width="1"/><polyline points="829.1,442.9 869.0,488.4" fill="none" stroke="#9aa7b8" stroke-width="1"/><polyline points="869.0,488.4 908.8,536.5" fill="none" stroke="#9aa7b8" stroke-width="1"/><polyline points="71.9,53.3 116.7,56.2" fill="none" stroke="#9aa7b8" stroke-width="1"/><polyline points="71.9,53.3 27.1,108.0" fill="none" stroke="#9aa7b8" stroke-width="1"/><polyline points="71.9,53.3 71.9,82.1" fill="none" stroke="#9aa7b8" stroke-width="1"/><polyline points="908.8,536.5 953.6,539.4" fill="none" stroke="#9aa7b8" stroke-width="1"/><polyline points="908.8,536.5 864.0,591.1" fill="none" stroke="#9aa7b8" stroke-width="1"/><polyline points="908.8,536.5 908.8,565.3" fill="none" stroke="#9aa7b8" stroke-width="1"/><polyline points="111.8,51.3 111.8,105.1" fill="none" stroke="#9aa7b8" stroke-width="1"/><polyline points="151.6,51.7 151.6,128.1" fill="none" stroke="#9aa7b8" stroke-width="1"/><polyline points="191.5,54.7 191.5,151.1" fill="none" stroke="#9aa7b8" stroke-width="1"/><polyline points="231.3,60.2 231.3,174.1" fill="none" stroke="#9aa7b8" stroke-width="1"/><polyline points="271.2,68.2 271.2,197.1" fill="none" stroke="#9aa7b8" stroke-width="1"/><polyline points="311.0,78.7 311.0,220.1" fill="none" stroke="#9aa7b8" stroke-width="1"/><polyline points="350.9,91.7 350.9,243.1" fill="none" stroke="#9aa7b8" stroke-width="1"/><polyline points="390.7,107.1 390.7,266.1" fill="none" stroke="#9aa7b8" stroke-width="1"/><polyline points="430.6,125.1 430.6,289.1" fill="none" stroke="#9aa7b8" stroke-width="1"/><polyline points="470.4,145.7 470.4,312.2" fill="none" stroke="#9aa7b8" stroke-width="1"/><polyline points="510.3,168.7 510.3,335.2" fill="none" stroke="#9aa7b8" stroke-width="1"/><polyline points="550.1,194.2 550.1,358.2" fill="none" stroke="#9aa7b8" stroke-width="1"/><polyline points="590.0,222.2 590.0,381.2" fill="none" stroke="#9aa7b8" stroke-width="1"/><polyline points="629.8,252.7 629.8,404.2" fill="none" stroke="#9aa7b8" stroke-width="1"/><polyline points="669.7,285.7 669.7,427.2" fill="none" stroke="#9aa7b8" stroke-width="1"/><polyline points="709.5,321.3 709.5,450.2" fill="none" stroke="#9aa7b8" stroke-width="1"/><polyline points="749.4,359.3 749.4,473.2" fill="none" stroke="#9aa7b8" stroke-width="1"/><polyline points="789.3,399.8 789.3,496.2" fill="none" stroke="#9aa7b8" stroke-width="1"/><polyline points="829.1,442.9 829.1,519.2" fill="none" stroke="#9aa7b8" stroke-width="1"/><polyline points="869.0,488.4 869.0,542.2" fill="none" stroke="#9aa7b8" stroke-width="1"/><polyline points="57.5,45.5 90.4,26.6" fill="none" stroke="#2563eb" stroke-width="2"/><polyline points="90.4,26.6 129.1,26.0" fill="none" stroke="#2563eb" stroke-width="2"/><polyline points="129.1,26.0 171.3,38.9" fill="none" stroke="#2563eb" stroke-width="2"/><polyline points="171.3,38.9 215.1,61.1" fill="none" stroke="#2563eb" stroke-width="2"/><polyline points="215.1,61.1 259.2,89.3" fill="none" stroke="#2563eb" stroke-width="2"/><polyline points="259.2,89.3 302.8,120.4" fill="none" stroke="#2563eb" stroke-width="2"/><polyline points="302.8,120.4 345.4,152.2" fill="none" stroke="#2563eb" stroke-width="2"/><polyline points="345.4,152.2 386.8,183.0" fill="none" stroke="#2563eb" stroke-width="2"/><polyline points="386.8,183.0 427.3,211.7" fill="none" stroke="#2563eb" stroke-width="2"/><polyline points="427.3,211.7 467.2,237.5" fill="none" stroke="#2563eb" stroke-width="2"/><polyline points="467.2,237.5 506.9,260.5" fill="none" stroke="#2563eb" stroke-width="2"/><polyline points="506.9,260.5 546.9,280.8" fill="none" stroke="#2563eb" stroke-width="2"/><polyline points="546.9,280.8 587.7,299.2" fill="none" stroke="#2563eb" stroke-width="2"/><polyline points="587.7,299.2 629.6,316.5" fill="none" stroke="#2563eb" stroke-width="2"/><polyline points="629.6,316.5 672.8,334.3" fill="none" stroke="#2563eb" stroke-width="2"/><polyline points="672.8,334.3 717.1,353.9" fill="none" stroke="#2563eb" stroke-width="2"/><polyline points="717.1,353.9 762.0,377.3" fill="none" stroke="#2563eb" stroke-width="2"/><polyline points="762.0,377.3 806.8,406.2" fill="none" stroke="#2563eb" stroke-width="2"/><polyline points="806.8,406.2 849.9,442.6" fill="none" stroke="#2563eb" stroke-width="2"/><polyline points="849.9,442.6 889.6,488.5" fill="none" stroke="#2563eb" stroke-width="2"/><polyline points="889.6,488.5 923.4,545.9" fill="none" stroke="#2563eb" stroke-width="2"/><polyline points="57.5,45.5 116.7,56.2" fill="none" stroke="#2563eb" stroke-width="2"/><polyline points="57.5,45.5 26.0,107.3" fill="none" stroke="#2563eb" stroke-width="2"/><polyline points="57.5,45.5 71.2,82.1" fill="none" stroke="#2563eb" stroke-width="2"/><polyline points="923.4,545.9 954.0,539.2" fill="none" stroke="#2563eb" stroke-width="2"/><polyline points="923.4,545.9 864.8,591.9" fill="none" stroke="#2563eb" stroke-width="2"/><polyline points="923.4,545.9 909.8,566.8" fill="none" stroke="#2563eb" stroke-width="2"/><polyline points="90.4,26.6 110.7,91.9" fill="none" stroke="#2563eb" stroke-width="2"/><polyline points="129.1,26.0 150.2,115.7" fill="none" stroke="#2563eb" stroke-width="2"/><polyline points="171.3,38.9 189.8,146.7" fill="none" stroke="#2563eb" stroke-width="2"/><polyline points="215.1,61.1 229.4,184.4" fill="none" stroke="#2563eb" stroke-width="2"/><polyline points="259.2,89.3 269.0,224.9" fill="none" stroke="#2563eb" stroke-width="2"/><polyline points="302.8,120.4 308.7,266.3" fill="none" stroke="#2563eb" stroke-width="2"/><polyline points="345.4,152.2 348.5,306.5" fill="none" stroke="#2563eb" stroke-width="2"/><polyline points="386.8,183.0 388.3,343.8" fill="none" stroke="#2563eb" stroke-width="2"/><polyline points="427.3,211.7 428.1,377.1" fill="none" stroke="#2563eb" stroke-width="2"/><polyline points="467.2,237.5 468.0,405.4" fill="none" stroke="#2563eb" stroke-width="2"/><polyline points="506.9,260.5 507.9,428.5" fill="none" stroke="#2563eb" stroke-width="2"/><polyline points="546.9,280.8 547.8,446.3" fill="none" stroke="#2563eb" stroke-width="2"/><polyline points="587.7,299.2 587.9,459.2" fill="none" stroke="#2563eb" stroke-width="2"/><polyline points="629.6,316.5 627.9,468.0" fill="none" stroke="#2563eb" stroke-width="2"/><polyline points="672.8,334.3 668.0,474.0" fill="none" stroke="#2563eb" stroke-width="2"/><polyline points="717.1,353.9 708.2,478.7" fill="none" stroke="#2563eb" stroke-width="2"/><polyline points="762.0,377.3 748.4,484.4" fill="none" stroke="#2563eb" stroke-width="2"/><polyline points="806.8,406.2 788.6,492.9" fill="none" stroke="#2563eb" stroke-width="2"/><polyline points="849.9,442.6 828.9,508.0" fill="none" stroke="#2563eb" stroke-width="2"/><polyline points="889.6,488.5 869.3,530.4" fill="none" stroke="#2563eb" stroke-width="2"/><rect x="112.7" y="52.2" width="8" height="8" fill="#0f766e" stroke="#fff" stroke-width="0.8"/><rect x="23.1" y="104.0" width="8" height="8" fill="#0f766e" stroke="#fff" stroke-width="0.8"/><rect x="949.6" y="535.4" width="8" height="8" fill="#0f766e" stroke="#fff" stroke-width="0.8"/><rect x="860.0" y="587.1" width="8" height="8" fill="#0f766e" stroke="#fff" stroke-width="0.8"/></svg>