<svg xmlns="http://www.w3.org/2000/svg" viewBox="0 0 960 470" width="960" height="470"><rect width="960" height="470" fill="#ffffff"/><polyline points="177.3,329.1 177.3,26.4" fill="none" stroke="#9aa7b8" stroke-width="1"/><polyline points="782.7,329.1 782.7,26.4" fill="none" stroke="#9aa7b8" stroke-width="1"/><polyline points="26.0,329.1 177.3,26.4" fill="none" stroke="#9aa7b8" stroke-width="1"/><polyline points="177.3,26.4 253.0,137.1" fill="none" stroke="#9aa7b8" stroke-width="1"/><polyline points="253.0,137.1 328.7,75.6" fill="none" stroke="#9aa7b8" stroke-width="1"/><polyline points="328.7,75.6 404.3,38.7" fill="none" stroke="#9aa7b8" stroke-width="1"/><polyline points="404.3,38.7 480.0,26.4" fill="none" stroke="#9aa7b8" stroke-width="1"/><polyline points="480.0,26.4 555.7,38.7" fill="none" stroke="#9aa7b8" stroke-width="1"/><polyline points="555.7,38.7 631.3,75.6" fill="none" stroke="#9aa7b8" stroke-width="1"/><polyline points="631.3,75.6 707.0,137.1" fill="none" stroke="#9aa7b8" stroke-width="1"/><polyline points="707.0,137.1 782.7,26.4" fill="none" stroke="#9aa7b8" stroke-width="1"/><polyline points="782.7,26.4 934.0,329.1" fill="none" stroke="#9aa7b8" stroke-width="1"/><polyline points="177.3,329.1 253.0,329.1" fill="none" stroke="#9aa7b8" stroke-width="1"/><polyline points="253.0,329.1 328.7,329.1" fill="none" stroke="#9aa7b8" stroke-width="1"/><polyline points="328.7,329.1 404.3,329.1" fill="none" stroke="#9aa7b8" stroke-width="1"/><polyline points="404.3,329.1 480.0,329.1" fill="none" stroke="#9aa7b8" stroke-width="1"/><polyline points="480.0,329.1 555.7,329.1" fill="none" stroke="#9aa7b8" stroke-width="1"/><polyline points="555.7,329.1 631.3,329.1" fill="none" stroke="#9aa7b8" stroke-width="1"/><polyline points="631.3,329.1 707.0,329.1" fill="none" stroke="#9aa7b8" stroke-width="1"/><polyline points="707.0,329.1 782.7,329.1" fill="none" stroke="#9aa7b8" stroke-width="1"/><polyline points="253.0,137.1 253.0,329.1" fill="none" stroke="#9aa7b8" stroke-width="1"/><polyline points="328.7,75.6 328.7,329.1" fill="none" stroke="#9aa7b8" stroke-width="1"/><polyline points="404.3,38.7 404.3,329.1" fill="none" stroke="#9aa7b8" stroke-width="1"/><polyline points="480.0,26.4 480.0,329.1" fill="none" stroke="#9aa7b8" stroke-width="1"/><polyline points="555.7,38.7 555.7,329.1" fill="none" stroke="#9aa7b8" stroke-width="1"/><polyline points="631.3,75.6 631.3,329.1" fill="none" stroke="#9aa7b8" stroke-width="1"/><polyline points="707.0,137.1 707.0,329.1" fill="none" stroke="#9aa7b8" stroke-width="1"/><polyline points="177.3,329.1 170.5,26.0" fill="none" stroke="#2563eb" stroke-width="2"/><polyline points="782.7,329.1 789.5,26.0" fill="none" stroke="#2563eb" stroke-width="2"/><polyline points="26.0,329.1 170.5,26.0" fill="none" stroke="#2563eb" stroke-width="2"/><polyline points="170.5,26.0 203.9,164.5" fill="none" stroke="#2563eb" stroke-width="2"/><polyline points="203.9,164.5 310.2,141.4" fill="none" stroke="#2563eb" stroke-width="2"/><polyline points="310.2,141.4 402.5,139.5" fill="none" stroke="#2563eb" stroke-width="2"/><polyline points="402.5,139.5 480.0,140.5" fill="none" stroke="#2563eb" stroke-width="2"/><polyline points="480.0,140.5 557.5,139.5" fill="none" stroke="#2563eb" stroke-width="2"/><polyline points="557.5,139.5 649.8,141.4" fill="none" stroke="#2563eb" stroke-width="2"/><polyline points="649.8,141.4 756.1,164.5" fill="none" stroke="#2563eb" stroke-width="2"/><polyline points="756.1,164.5 789.5,26.0" fill="none" stroke="#2563eb" stroke-width="2"/><polyline points="789.5,26.0 934.0,329.1" fill="none" stroke="#2563eb" stroke-width="2"/><polyline points="177.3,329.1 253.0,353.1" fill="none" stroke="#2563eb" stroke-width="2"/><polyline points="253.0,353.1 328.7,395.5" fill="none" stroke="#2563eb" stroke-width="2"/><polyline points="328.7,395.5 404.3,430.6" fill="none" stroke="#2563eb" stroke-width="2"/><polyline points="404.3,430.6 480.0,443.9" fill="none" stroke="#2563eb" stroke-width="2"/><polyline points="480.0,443.9 555.7,430.6" fill="none" stroke="#2563eb" stroke-width="2"/><polyline points="555.7,430.6 631.3,395.5" fill="none" stroke="#2563eb" stroke-width="2"/><polyline points="631.3,395.5 707.0,353.1" fill="none" stroke="#2563eb" stroke-width="2"/><polyline points="707.0,353.1 782.7,329.1" fill="none" stroke="#2563eb" stroke-width="2"/><polyline points="203.9,164.5 253.0,353.1" fill="none" stroke="#2563eb" stroke-width="2"/><polyline points="310.2,141.4 328.7,395.5" fill="none" stroke="#2563eb" stroke-width="2"/><polyline points="402.5,139.5 404.3,430.6" fill="none" stroke="#2563eb" stroke-width="2"/><polyline points="480.0,140.5 480.0,443.9" fill="none" stroke="#2563eb" stroke-width="2"/><polyline points="557.5,139.5 555.7,430.6" fill="none" stroke="#2563eb" stroke-width="2"/><polyline points="649.8,141.4 631.3,395.5" fill="none" stroke="#2563eb" stroke-width="2"/><polyline points="756.1,164.5 707.0,353.1" fill="none" stroke="#2563eb" stroke-width="2"/><rect x="173.3" y="325.1" width="8" height="8" fill="#0f766e" stroke="#fff" stroke-width="0.8"/><rect x="778.7" y="325.1" width="8" height="8" fill="#0f766e" stroke="#fff" stroke-width="0.8"/><rect x="22.0" y="325.1" width="8" height="8" fill="#0f766e" stroke="#fff" stroke-width="0.8"/><rect x="930.0" y="325.1" width="8" height="8" fill="#0f766e" stroke="#fff" stroke-width="0.8"/></svg>