<svg xmlns="http://www.w3.org/2000/svg" viewBox="0 0 980 217" width="980" height="217"><rect width="980" height="217" fill="#ffffff"/><polyline points="187.9,107.2 187.9,97.7" fill="none" stroke="#9aa7b8" stroke-width="1"/><polyline points="187.9,97.7 187.9,26.0" fill="none" stroke="#9aa7b8" stroke-width="1"/><polyline points="792.1,107.2 792.1,97.7" fill="none" stroke="#9aa7b8" stroke-width="1"/><polyline points="792.1,97.7 792.1,26.0" fill="none" stroke="#9aa7b8" stroke-width="1"/><polyline points="26.0,97.7 187.9,26.0" fill="none" stroke="#9aa7b8" stroke-width="1"/><polyline points="187.9,26.0 225.7,77.7" fill="none" stroke="#9aa7b8" stroke-width="1"/><polyline points="225.7,77.7 263.4,64.0" fill="none" stroke="#9aa7b8" stroke-width="1"/><polyline points="263.4,64.0 301.2,52.4" fill="none" stroke="#9aa7b8" stroke-width="1"/><polyline points="301.2,52.4 339.0,42.9" fill="none" stroke="#9aa7b8" stroke-width="1"/><polyline points="339.0,42.9 376.7,35.5" fill="none" stroke="#9aa7b8" stroke-width="1"/><polyline points="376.7,35.5 414.5,30.2" fill="none" stroke="#9aa7b8" stroke-width="1"/><polyline points="414.5,30.2 452.2,27.1" fill="none" stroke="#9aa7b8" stroke-width="1"/><polyline points="452.2,27.1 490.0,26.0" fill="none" stroke="#9aa7b8" stroke-width="1"/><polyline points="490.0,26.0 527.8,27.1" fill="none" stroke="#9aa7b8" stroke-width="1"/><polyline points="527.8,27.1 565.5,30.2" fill="none" stroke="#9aa7b8" stroke-width="1"/><polyline points="565.5,30.2 603.3,35.5" fill="none" stroke="#9aa7b8" stroke-width="1"/><polyline points="603.3,35.5 641.0,42.9" fill="none" stroke="#9aa7b8" stroke-width="1"/><polyline points="641.0,42.9 678.8,52.4" fill="none" stroke="#9aa7b8" stroke-width="1"/><polyline points="678.8,52.4 716.6,64.0" fill="none" stroke="#9aa7b8" stroke-width="1"/><polyline points="716.6,64.0 754.3,77.7" fill="none" stroke="#9aa7b8" stroke-width="1"/><polyline points="754.3,77.7 792.1,26.0" fill="none" stroke="#9aa7b8" stroke-width="1"/><polyline points="792.1,26.0 954.0,97.7" fill="none" stroke="#9aa7b8" stroke-width="1"/><polyline points="187.9,97.7 225.7,97.7" fill="none" stroke="#9aa7b8" stroke-width="1"/><polyline points="225.7,97.7 263.4,97.7" fill="none" stroke="#9aa7b8" stroke-width="1"/><polyline points="263.4,97.7 301.2,97.7" fill="none" stroke="#9aa7b8" stroke-width="1"/><polyline points="301.2,97.7 339.0,97.7" fill="none" stroke="#9aa7b8" stroke-width="1"/><polyline points="339.0,97.7 376.7,97.7" fill="none" stroke="#9aa7b8" stroke-width="1"/><polyline points="376.7,97.7 414.5,97.7" fill="none" stroke="#9aa7b8" stroke-width="1"/><polyline points="414.5,97.7 452.2,97.7" fill="none" stroke="#9aa7b8" stroke-width="1"/><polyline points="452.2,97.7 490.0,97.7" fill="none" stroke="#9aa7b8" stroke-width="1"/><polyline points="490.0,97.7 527.8,97.7" fill="none" stroke="#9aa7b8" stroke-width="1"/><polyline points="527.8,97.7 565.5,97.7" fill="none" stroke="#9aa7b8" stroke-width="1"/><polyline points="565.5,97.7 603.3,97.7" fill="none" stroke="#9aa7b8" stroke-width="1"/><polyline points="603.3,97.7 641.0,97.7" fill="none" stroke="#9aa7b8" stroke-width="1"/><polyline points="641.0,97.7 678.8,97.7" fill="none" stroke="#9aa7b8" stroke-width="1"/><polyline points="678.8,97.7 716.6,97.7" fill="none" stroke="#9aa7b8" stroke-width="1"/><polyline points="716.6,97.7 754.3,97.7" fill="none" stroke="#9aa7b8" stroke-width="1"/><polyline points="754.3,97.7 792.1,97.7" fill="none" stroke="#9aa7b8" stroke-width="1"/><polyline points="225.7,77.7 225.7,97.7" fill="none" stroke="#9aa7b8" stroke-width="1"/><polyline points="263.4,64.0 263.4,97.7" fill="none" stroke="#9aa7b8" stroke-width="1"/><polyline points="301.2,52.4 301.2,97.7" fill="none" stroke="#9aa7b8" stroke-width="1"/><polyline points="339.0,42.9 339.0,97.7" fill="none" stroke="#9aa7b8" stroke-width="1"/><polyline points="376.7,35.5 376.7,97.7" fill="none" stroke="#9aa7b8" stroke-width="1"/><polyline points="414.5,30.2 414.5,97.7" fill="none" stroke="#9aa7b8" stroke-width="1"/><polyline points="452.2,27.1 452.2,97.7" fill="none" stroke="#9aa7b8" stroke-width="1"/><polyline points="490.0,26.0 490.0,97.7" fill="none" stroke="#9aa7b8" stroke-width="1"/><polyline points="527.8,27.1 527.8,97.7" fill="none" stroke="#9aa7b8" stroke-width="1"/><polyline points="565.5,30.2 565.5,97.7" fill="none" stroke="#9aa7b8" stroke-width="1"/><polyline points="603.3,35.5 603.3,97.7" fill="none" stroke="#9aa7b8" stroke-width="1"/><polyline points="641.0,42.9 641.0,97.7" fill="none" stroke="#9aa7b8" stroke-width="1"/><polyline points="678.8,52.4 678.8,97.7" fill="none" stroke="#9aa7b8" stroke-width="1"/><polyline points="716.6,64.0 716.6,97.7" fill="none" stroke="#9aa7b8" stroke-width="1"/><polyline points="754.3,77.7 754.3,97.7" fill="none" stroke="#9aa7b8" stroke-width="1"/><polyline points="187.9,97.7 187.9,107.2" fill="none" stroke="#9aa7b8" stroke-width="1"/><polyline points="792.1,97.7 792.1,107.2" fill="none" stroke="#9aa7b8" stroke-width="1"/><polyline points="187.9,107.2 187.7,98.2" fill="none" stroke="#2563eb" stroke-width="2"/><polyline points="187.7,98.2 189.3,30.1" fill="none" stroke="#2563eb" stroke-width="2"/><polyline points="792.1,107.2 792.3,98.2" fill="none" stroke="#2563eb" stroke-width="2"/><polyline points="792.3,98.2 790.7,30.1" fill="none" stroke="#2563eb" stroke-width="2"/><polyline points="26.0,97.7 189.3,30.1" fill="none" stroke="#2563eb" stroke-width="2"/><polyline points="189.3,30.1 208.6,95.5" fill="none" stroke="#2563eb" stroke-width="2"/><polyline points="208.6,95.5 251.8,97.4" fill="none" stroke="#2563eb" stroke-width="2"/><polyline points="251.8,97.4 294.2,101.4" fill="none" stroke="#2563eb" stroke-width="2"/><polyline points="294.2,101.4 335.4,106.2" fill="none" stroke="#2563eb" stroke-width="2"/><polyline points="335.4,106.2 375.3,110.9" fill="none" stroke="#2563eb" stroke-width="2"/><polyline points="375.3,110.9 414.2,114.8" fill="none" stroke="#2563eb" stroke-width="2"/><polyline points="414.2,114.8 452.3,117.3" fill="none" stroke="#2563eb" stroke-width="2"/><polyline points="452.3,117.3 490.0,118.2" fill="none" stroke="#2563eb" stroke-width="2"/><polyline points="490.0,118.2 527.7,117.3" fill="none" stroke="#2563eb" stroke-width="2"/><polyline points="527.7,117.3 565.8,114.8" fill="none" stroke="#2563eb" stroke-width="2"/><polyline points="565.8,114.8 604.7,111.0" fill="none" stroke="#2563eb" stroke-width="2"/><polyline points="604.7,111.0 644.6,106.3" fill="none" stroke="#2563eb" stroke-width="2"/><polyline points="644.6,106.3 685.8,101.4" fill="none" stroke="#2563eb" stroke-width="2"/><polyline points="685.8,101.4 728.2,97.5" fill="none" stroke="#2563eb" stroke-width="2"/><polyline points="728.2,97.5 771.4,95.5" fill="none" stroke="#2563eb" stroke-width="2"/><polyline points="771.4,95.5 790.7,30.1" fill="none" stroke="#2563eb" stroke-width="2"/><polyline points="790.7,30.1 954.0,97.7" fill="none" stroke="#2563eb" stroke-width="2"/><polyline points="187.9,97.7 225.6,115.8" fill="none" stroke="#2563eb" stroke-width="2"/><polyline points="225.6,115.8 263.3,131.7" fill="none" stroke="#2563eb" stroke-width="2"/><polyline points="263.3,131.7 301.0,147.4" fill="none" stroke="#2563eb" stroke-width="2"/><polyline points="301.0,147.4 338.8,161.9" fill="none" stroke="#2563eb" stroke-width="2"/><polyline points="338.8,161.9 376.5,174.0" fill="none" stroke="#2563eb" stroke-width="2"/><polyline points="376.5,174.0 414.2,183.2" fill="none" stroke="#2563eb" stroke-width="2"/><polyline points="414.2,183.2 451.9,189.0" fill="none" stroke="#2563eb" stroke-width="2"/><polyline points="451.9,189.0 489.6,190.9" fill="none" stroke="#2563eb" stroke-width="2"/><polyline points="489.6,190.9 527.3,189.0" fill="none" stroke="#2563eb" stroke-width="2"/><polyline points="527.3,189.0 565.1,183.2" fill="none" stroke="#2563eb" stroke-width="2"/><polyline points="565.1,183.2 602.8,174.0" fill="none" stroke="#2563eb" stroke-width="2"/><polyline points="602.8,174.0 640.5,161.9" fill="none" stroke="#2563eb" stroke-width="2"/><polyline points="640.5,161.9 678.2,147.4" fill="none" stroke="#2563eb" stroke-width="2"/><polyline points="678.2,147.4 715.9,131.7" fill="none" stroke="#2563eb" stroke-width="2"/><polyline points="715.9,131.7 753.7,115.8" fill="none" stroke="#2563eb" stroke-width="2"/><polyline points="753.7,115.8 791.4,97.7" fill="none" stroke="#2563eb" stroke-width="2"/><polyline points="208.6,95.5 225.6,115.8" fill="none" stroke="#2563eb" stroke-width="2"/><polyline points="251.8,97.4 263.3,131.7" fill="none" stroke="#2563eb" stroke-width="2"/><polyline points="294.2,101.4 301.0,147.4" fill="none" stroke="#2563eb" stroke-width="2"/><polyline points="335.4,106.2 338.8,161.9" fill="none" stroke="#2563eb" stroke-width="2"/><polyline points="375.3,110.9 376.5,174.0" fill="none" stroke="#2563eb" stroke-width="2"/><polyline points="414.2,114.8 414.2,183.2" fill="none" stroke="#2563eb" stroke-width="2"/><polyline points="452.3,117.3 451.9,189.0" fill="none" stroke="#2563eb" stroke-width="2"/><polyline points="490.0,118.2 489.6,190.9" fill="none" stroke="#2563eb" stroke-width="2"/><polyline points="527.7,117.3 527.3,189.0" fill="none" stroke="#2563eb" stroke-width="2"/><polyline points="565.8,114.8 565.1,183.2" fill="none" stroke="#2563eb" stroke-width="2"/><polyline points="604.7,111.0 602.8,174.0" fill="none" stroke="#2563eb" stroke-width="2"/><polyline points="644.6,106.3 640.5,161.9" fill="none" stroke="#2563eb" stroke-width="2"/><polyline points="685.8,101.4 678.2,147.4" fill="none" stroke="#2563eb" stroke-width="2"/><polyline points="728.2,97.5 715.9,131.7" fill="none" stroke="#2563eb" stroke-width="2"/><polyline points="771.4,95.5 753.7,115.8" fill="none" stroke="#2563eb" stroke-width="2"/><polyline points="187.9,97.7 187.9,107.2" fill="none" stroke="#2563eb" stroke-width="2"/><polyline points="791.4,97.7 792.1,107.2" fill="none" stroke="#2563eb" stroke-width="2"/><rect x="183.9" y="103.2" width="8" height="8" fill="#0f766e" stroke="#fff" stroke-width="0.8"/><rect x="788.1" y="103.2" width="8" height="8" fill="#0f766e" stroke="#fff" stroke-width="0.8"/><rect x="22.0" y="93.7" width="8" height="8" fill="#0f766e" stroke="#fff" stroke-width="0.8"/><rect x="950.0" y="93.7" width="8" height="8" fill="#0f766e" stroke="#fff" stroke-width="0.8"/><rect x="183.9" y="93.7" width="8" height="8" fill="#0f766e" stroke="#fff" stroke-width="0.8"/><rect x="788.1" y="93.7" width="8" height="8" fill="#0f766e" stroke="#fff" stroke-width="0.8"/></svg>