<svg xmlns="http://www.w3.org/2000/svg" viewBox="0 0 960 470" width="960" height="470"><rect width="960" height="470" fill="#ffffff"/><polyline points="26.0,328.7 101.7,328.7" fill="none" stroke="#9aa7b8" stroke-width="1"/><polyline points="101.7,328.7 177.3,328.7" fill="none" stroke="#9aa7b8" stroke-width="1"/><polyline points="177.3,328.7 253.0,328.7" fill="none" stroke="#9aa7b8" stroke-width="1"/><polyline points="253.0,328.7 328.7,328.7" fill="none" stroke="#9aa7b8" stroke-width="1"/><polyline points="328.7,328.7 404.3,328.7" fill="none" stroke="#9aa7b8" stroke-width="1"/><polyline points="404.3,328.7 480.0,328.7" fill="none" stroke="#9aa7b8" stroke-width="1"/><polyline points="480.0,328.7 555.7,328.7" fill="none" stroke="#9aa7b8" stroke-width="1"/><polyline points="555.7,328.7 631.3,328.7" fill="none" stroke="#9aa7b8" stroke-width="1"/><polyline points="631.3,328.7 707.0,328.7" fill="none" stroke="#9aa7b8" stroke-width="1"/><polyline points="707.0,328.7 782.7,328.7" fill="none" stroke="#9aa7b8" stroke-width="1"/><polyline points="782.7,328.7 858.3,328.7" fill="none" stroke="#9aa7b8" stroke-width="1"/><polyline points="858.3,328.7 934.0,328.7" fill="none" stroke="#9aa7b8" stroke-width="1"/><polyline points="480.0,328.7 480.0,26.0" fill="none" stroke="#9aa7b8" stroke-width="1"/><polyline points="480.0,26.0 101.7,328.7" fill="none" stroke="#9aa7b8" stroke-width="1"/><polyline points="480.0,26.0 253.0,328.7" fill="none" stroke="#9aa7b8" stroke-width="1"/><polyline points="480.0,26.0 404.3,328.7" fill="none" stroke="#9aa7b8" stroke-width="1"/><polyline points="480.0,26.0 555.7,328.7" fill="none" stroke="#9aa7b8" stroke-width="1"/><polyline points="480.0,26.0 707.0,328.7" fill="none" stroke="#9aa7b8" stroke-width="1"/><polyline points="480.0,26.0 858.3,328.7" fill="none" stroke="#9aa7b8" stroke-width="1"/><polyline points="26.0,328.7 102.2,375.7" fill="none" stroke="#2563eb" stroke-width="2"/><polyline points="102.2,375.7 178.2,431.8" fill="none" stroke="#2563eb" stroke-width="2"/><polyline points="178.2,431.8 254.3,443.5" fill="none" stroke="#2563eb" stroke-width="2"/><polyline points="254.3,443.5 329.6,425.4" fill="none" stroke="#2563eb" stroke-width="2"/><polyline points="329.6,425.4 404.8,369.0" fill="none" stroke="#2563eb" stroke-width="2"/><polyline points="404.8,369.0 480.0,328.7" fill="none" stroke="#2563eb" stroke-width="2"/><polyline points="480.0,328.7 554.6,368.8" fill="none" stroke="#2563eb" stroke-width="2"/><polyline points="554.6,368.8 629.4,425.0" fill="none" stroke="#2563eb" stroke-width="2"/><polyline points="629.4,425.0 704.1,443.1" fill="none" stroke="#2563eb" stroke-width="2"/><polyline points="704.1,443.1 779.6,431.6" fill="none" stroke="#2563eb" stroke-width="2"/><polyline points="779.6,431.6 855.1,375.6" fill="none" stroke="#2563eb" stroke-width="2"/><polyline points="855.1,375.6 930.8,328.7" fill="none" stroke="#2563eb" stroke-width="2"/><polyline points="480.0,328.7 478.8,45.5" fill="none" stroke="#2563eb" stroke-width="2"/><polyline points="478.8,45.5 102.2,375.7" fill="none" stroke="#2563eb" stroke-width="2"/><polyline points="478.8,45.5 254.3,443.5" fill="none" stroke="#2563eb" stroke-width="2"/><polyline points="478.8,45.5 404.8,369.0" fill="none" stroke="#2563eb" stroke-width="2"/><polyline points="478.8,45.5 554.6,368.8" fill="none" stroke="#2563eb" stroke-width="2"/><polyline points="478.8,45.5 704.1,443.1" fill="none" stroke="#2563eb" stroke-width="2"/><polyline points="478.8,45.5 855.1,375.6" fill="none" stroke="#2563eb" stroke-width="2"/><rect x="22.0" y="324.7" width="8" height="8" fill="#0f766e" stroke="#fff" stroke-width="0.8"/><rect x="476.0" y="324.7" width="8" height="8" fill="#0f766e" stroke="#fff" stroke-width="0.8"/></svg>