<svg xmlns="http://www.w3.org/2000/svg" viewBox="0 0 960 359" width="960" height="359"><rect width="960" height="359" fill="#ffffff"/><polyline points="26.0,224.9 136.5,224.9" fill="none" stroke="#9aa7b8" stroke-width="1"/><polyline points="136.5,224.9 247.0,224.9" fill="none" stroke="#9aa7b8" stroke-width="1"/><polyline points="247.0,224.9 357.5,224.9" fill="none" stroke="#9aa7b8" stroke-width="1"/><polyline points="357.5,224.9 468.0,224.9" fill="none" stroke="#9aa7b8" stroke-width="1"/><polyline points="468.0,224.9 578.5,224.9" fill="none" stroke="#9aa7b8" stroke-width="1"/><polyline points="578.5,224.9 689.0,224.9" fill="none" stroke="#9aa7b8" stroke-width="1"/><polyline points="689.0,224.9 799.5,224.9" fill="none" stroke="#9aa7b8" stroke-width="1"/><polyline points="799.5,224.9 910.0,224.9" fill="none" stroke="#9aa7b8" stroke-width="1"/><polyline points="26.0,224.9 136.5,137.9" fill="none" stroke="#9aa7b8" stroke-width="1"/><polyline points="136.5,137.9 247.0,75.7" fill="none" stroke="#9aa7b8" stroke-width="1"/><polyline points="247.0,75.7 357.5,38.4" fill="none" stroke="#9aa7b8" stroke-width="1"/><polyline points="357.5,38.4 468.0,26.0" fill="none" stroke="#9aa7b8" stroke-width="1"/><polyline points="468.0,26.0 578.5,38.4" fill="none" stroke="#9aa7b8" stroke-width="1"/><polyline points="578.5,38.4 689.0,75.7" fill="none" stroke="#9aa7b8" stroke-width="1"/><polyline points="689.0,75.7 799.5,137.9" fill="none" stroke="#9aa7b8" stroke-width="1"/><polyline points="799.5,137.9 910.0,224.9" fill="none" stroke="#9aa7b8" stroke-width="1"/><polyline points="136.5,137.9 136.5,224.9" fill="none" stroke="#9aa7b8" stroke-width="1"/><polyline points="247.0,75.7 247.0,224.9" fill="none" stroke="#9aa7b8" stroke-width="1"/><polyline points="357.5,38.4 357.5,224.9" fill="none" stroke="#9aa7b8" stroke-width="1"/><polyline points="468.0,26.0 468.0,224.9" fill="none" stroke="#9aa7b8" stroke-width="1"/><polyline points="578.5,38.4 578.5,224.9" fill="none" stroke="#9aa7b8" stroke-width="1"/><polyline points="689.0,75.7 689.0,224.9" fill="none" stroke="#9aa7b8" stroke-width="1"/><polyline points="799.5,137.9 799.5,224.9" fill="none" stroke="#9aa7b8" stroke-width="1"/><polyline points="26.0,224.9 139.5,249.0" fill="none" stroke="#2563eb" stroke-width="2"/><polyline points="139.5,249.0 253.0,289.0" fill="none" stroke="#2563eb" stroke-width="2"/><polyline points="253.0,289.0 366.5,321.0" fill="none" stroke="#2563eb" stroke-width="2"/><polyline points="366.5,321.0 480.0,333.0" fill="none" stroke="#2563eb" stroke-width="2"/><polyline points="480.0,333.0 593.5,321.0" fill="none" stroke="#2563eb" stroke-width="2"/><polyline points="593.5,321.0 707.0,289.0" fill="none" stroke="#2563eb" stroke-width="2"/><polyline points="707.0,289.0 820.5,249.0" fill="none" stroke="#2563eb" stroke-width="2"/><polyline points="820.5,249.0 934.0,224.9" fill="none" stroke="#2563eb" stroke-width="2"/><polyline points="26.0,224.9 138.6,152.3" fill="none" stroke="#2563eb" stroke-width="2"/><polyline points="138.6,152.3 258.8,119.6" fill="none" stroke="#2563eb" stroke-width="2"/><polyline points="258.8,119.6 372.9,108.7" fill="none" stroke="#2563eb" stroke-width="2"/><polyline points="372.9,108.7 480.0,106.5" fill="none" stroke="#2563eb" stroke-width="2"/><polyline points="480.0,106.5 587.1,108.7" fill="none" stroke="#2563eb" stroke-width="2"/><polyline points="587.1,108.7 701.2,119.6" fill="none" stroke="#2563eb" stroke-width="2"/><polyline points="701.2,119.6 821.4,152.3" fill="none" stroke="#2563eb" stroke-width="2"/><polyline points="821.4,152.3 934.0,224.9" fill="none" stroke="#2563eb" stroke-width="2"/><polyline points="138.6,152.3 139.5,249.0" fill="none" stroke="#2563eb" stroke-width="2"/><polyline points="258.8,119.6 253.0,289.0" fill="none" stroke="#2563eb" stroke-width="2"/><polyline points="372.9,108.7 366.5,321.0" fill="none" stroke="#2563eb" stroke-width="2"/><polyline points="480.0,106.5 480.0,333.0" fill="none" stroke="#2563eb" stroke-width="2"/><polyline points="587.1,108.7 593.5,321.0" fill="none" stroke="#2563eb" stroke-width="2"/><polyline points="701.2,119.6 707.0,289.0" fill="none" stroke="#2563eb" stroke-width="2"/><polyline points="821.4,152.3 820.5,249.0" fill="none" stroke="#2563eb" stroke-width="2"/><rect x="22.0" y="220.9" width="8" height="8" fill="#0f766e" stroke="#fff" stroke-width="0.8"/></svg>