<svg xmlns="http://www.w3.org/2000/svg" viewBox="0 0 980 407" width="980" height="407"><rect width="980" height="407" fill="#ffffff"/><polyline points="26.0,287.0 68.9,287.0" fill="none" stroke="#9aa7b8" stroke-width="1"/><polyline points="68.9,287.0 111.7,287.0" fill="none" stroke="#9aa7b8" stroke-width="1"/><polyline points="111.7,287.0 162.1,287.0" fill="none" stroke="#9aa7b8" stroke-width="1"/><polyline points="162.1,287.0 212.4,287.0" fill="none" stroke="#9aa7b8" stroke-width="1"/><polyline points="212.4,287.0 264.6,287.0" fill="none" stroke="#9aa7b8" stroke-width="1"/><polyline points="264.6,287.0 316.8,287.0" fill="none" stroke="#9aa7b8" stroke-width="1"/><polyline points="316.8,287.0 369.0,287.0" fill="none" stroke="#9aa7b8" stroke-width="1"/><polyline points="369.0,287.0 421.2,287.0" fill="none" stroke="#9aa7b8" stroke-width="1"/><polyline points="421.2,287.0 473.4,287.0" fill="none" stroke="#9aa7b8" stroke-width="1"/><polyline points="473.4,287.0 525.6,287.0" fill="none" stroke="#9aa7b8" stroke-width="1"/><polyline points="525.6,287.0 577.8,287.0" fill="none" stroke="#9aa7b8" stroke-width="1"/><polyline points="577.8,287.0 630.0,287.0" fill="none" stroke="#9aa7b8" stroke-width="1"/><polyline points="630.0,287.0 682.2,287.0" fill="none" stroke="#9aa7b8" stroke-width="1"/><polyline points="682.2,287.0 734.3,287.0" fill="none" stroke="#9aa7b8" stroke-width="1"/><polyline points="734.3,287.0 784.7,287.0" fill="none" stroke="#9aa7b8" stroke-width="1"/><polyline points="784.7,287.0 835.0,287.0" fill="none" stroke="#9aa7b8" stroke-width="1"/><polyline points="835.0,287.0 877.9,287.0" fill="none" stroke="#9aa7b8" stroke-width="1"/><polyline points="877.9,287.0 920.8,287.0" fill="none" stroke="#9aa7b8" stroke-width="1"/><polyline points="212.4,331.7 212.4,287.0" fill="none" stroke="#9aa7b8" stroke-width="1"/><polyline points="212.4,287.0 212.4,26.0" fill="none" stroke="#9aa7b8" stroke-width="1"/><polyline points="212.4,26.0 264.6,287.0" fill="none" stroke="#9aa7b8" stroke-width="1"/><polyline points="212.4,26.0 316.8,287.0" fill="none" stroke="#9aa7b8" stroke-width="1"/><polyline points="212.4,26.0 369.0,287.0" fill="none" stroke="#9aa7b8" stroke-width="1"/><polyline points="212.4,26.0 421.2,287.0" fill="none" stroke="#9aa7b8" stroke-width="1"/><polyline points="212.4,26.0 473.4,287.0" fill="none" stroke="#9aa7b8" stroke-width="1"/><polyline points="212.4,26.0 525.6,287.0" fill="none" stroke="#9aa7b8" stroke-width="1"/><polyline points="212.4,26.0 577.8,287.0" fill="none" stroke="#9aa7b8" stroke-width="1"/><polyline points="212.4,26.0 630.0,287.0" fill="none" stroke="#9aa7b8" stroke-width="1"/><polyline points="212.4,26.0 682.2,287.0" fill="none" stroke="#9aa7b8" stroke-width="1"/><polyline points="212.4,26.0 734.3,287.0" fill="none" stroke="#9aa7b8" stroke-width="1"/><polyline points="212.4,26.0 26.0,287.0" fill="none" stroke="#9aa7b8" stroke-width="1"/><polyline points="212.4,26.0 111.7,287.0" fill="none" stroke="#9aa7b8" stroke-width="1"/><polyline points="212.4,26.0 162.1,287.0" fill="none" stroke="#9aa7b8" stroke-width="1"/><polyline points="26.0,287.0 68.1,292.0" fill="none" stroke="#2563eb" stroke-width="2"/><polyline points="68.1,292.0 110.2,287.0" fill="none" stroke="#2563eb" stroke-width="2"/><polyline points="110.2,287.0 161.8,308.0" fill="none" stroke="#2563eb" stroke-width="2"/><polyline points="161.8,308.0 212.9,287.0" fill="none" stroke="#2563eb" stroke-width="2"/><polyline points="212.9,287.0 265.7,327.9" fill="none" stroke="#2563eb" stroke-width="2"/><polyline points="265.7,327.9 318.1,340.0" fill="none" stroke="#2563eb" stroke-width="2"/><polyline points="318.1,340.0 370.6,349.9" fill="none" stroke="#2563eb" stroke-width="2"/><polyline points="370.6,349.9 423.4,359.6" fill="none" stroke="#2563eb" stroke-width="2"/><polyline points="423.4,359.6 477.1,368.7" fill="none" stroke="#2563eb" stroke-width="2"/><polyline points="477.1,368.7 531.9,376.4" fill="none" stroke="#2563eb" stroke-width="2"/><polyline points="531.9,376.4 588.5,380.9" fill="none" stroke="#2563eb" stroke-width="2"/><polyline points="588.5,380.9 647.0,378.0" fill="none" stroke="#2563eb" stroke-width="2"/><polyline points="647.0,378.0 707.4,356.4" fill="none" stroke="#2563eb" stroke-width="2"/><polyline points="707.4,356.4 767.6,287.0" fill="none" stroke="#2563eb" stroke-width="2"/><polyline points="767.6,287.0 817.9,294.2" fill="none" stroke="#2563eb" stroke-width="2"/><polyline points="817.9,294.2 868.3,287.0" fill="none" stroke="#2563eb" stroke-width="2"/><polyline points="868.3,287.0 911.1,295.3" fill="none" stroke="#2563eb" stroke-width="2"/><polyline points="911.1,295.3 954.0,287.0" fill="none" stroke="#2563eb" stroke-width="2"/><polyline points="212.4,331.7 212.9,287.0" fill="none" stroke="#2563eb" stroke-width="2"/><polyline points="212.9,287.0 260.3,58.1" fill="none" stroke="#2563eb" stroke-width="2"/><polyline points="260.3,58.1 265.7,327.9" fill="none" stroke="#2563eb" stroke-width="2"/><polyline points="260.3,58.1 318.1,340.0" fill="none" stroke="#2563eb" stroke-width="2"/><polyline points="260.3,58.1 370.6,349.9" fill="none" stroke="#2563eb" stroke-width="2"/><polyline points="260.3,58.1 423.4,359.6" fill="none" stroke="#2563eb" stroke-width="2"/><polyline points="260.3,58.1 477.1,368.7" fill="none" stroke="#2563eb" stroke-width="2"/><polyline points="260.3,58.1 531.9,376.4" fill="none" stroke="#2563eb" stroke-width="2"/><polyline points="260.3,58.1 588.5,380.9" fill="none" stroke="#2563eb" stroke-width="2"/><polyline points="260.3,58.1 647.0,378.0" fill="none" stroke="#2563eb" stroke-width="2"/><polyline points="260.3,58.1 707.4,356.4" fill="none" stroke="#2563eb" stroke-width="2"/><polyline points="260.3,58.1 767.6,287.0" fill="none" stroke="#2563eb" stroke-width="2"/><polyline points="260.3,58.1 26.0,287.0" fill="none" stroke="#2563eb" stroke-width="2"/><polyline points="260.3,58.1 110.2,287.0" fill="none" stroke="#2563eb" stroke-width="2"/><polyline points="260.3,58.1 161.8,308.0" fill="none" stroke="#2563eb" stroke-width="2"/><rect x="22.0" y="283.0" width="8" height="8" fill="#0f766e" stroke="#fff" stroke-width="0.8"/><rect x="107.7" y="283.0" width="8" height="8" fill="#0f766e" stroke="#fff" stroke-width="0.8"/><rect x="208.4" y="283.0" width="8" height="8" fill="#0f766e" stroke="#fff" stroke-width="0.8"/><rect x="730.3" y="283.0" width="8" height="8" fill="#0f766e" stroke="#fff" stroke-width="0.8"/><rect x="831.0" y="283.0" width="8" height="8" fill="#0f766e" stroke="#fff" stroke-width="0.8"/><rect x="916.8" y="283.0" width="8" height="8" fill="#0f766e" stroke="#fff" stroke-width="0.8"/><rect x="208.4" y="327.7" width="8" height="8" fill="#0f766e" stroke="#fff" stroke-width="0.8"/></svg>