<svg xmlns="http://www.w3.org/2000/svg" viewBox="0 0 980 588" width="980" height="588"><rect width="980" height="588" fill="#ffffff"/><polyline points="26.0,26.0 116.0,78.0" fill="none" stroke="#9aa7b8" stroke-width="1"/><polyline points="116.0,78.0 206.0,129.9" fill="none" stroke="#9aa7b8" stroke-width="1"/><polyline points="206.0,129.9 249.6,155.1" fill="none" stroke="#9aa7b8" stroke-width="1"/><polyline points="249.6,155.1 293.2,180.2" fill="none" stroke="#9aa7b8" stroke-width="1"/><polyline points="293.2,180.2 490.0,293.9" fill="none" stroke="#9aa7b8" stroke-width="1"/><polyline points="490.0,293.9 686.8,407.5" fill="none" stroke="#9aa7b8" stroke-width="1"/><polyline points="686.8,407.5 730.4,432.7" fill="none" stroke="#9aa7b8" stroke-width="1"/><polyline points="730.4,432.7 774.0,457.9" fill="none" stroke="#9aa7b8" stroke-width="1"/><polyline points="774.0,457.9 864.0,509.8" fill="none" stroke="#9aa7b8" stroke-width="1"/><polyline points="864.0,509.8 954.0,561.8" fill="none" stroke="#9aa7b8" stroke-width="1"/><polyline points="26.0,26.0 116.0,82.5" fill="none" stroke="#2563eb" stroke-width="2"/><polyline points="116.0,82.5 206.0,129.9" fill="none" stroke="#2563eb" stroke-width="2"/><polyline points="206.0,129.9 249.6,152.2" fill="none" stroke="#2563eb" stroke-width="2"/><polyline points="249.6,152.2 293.2,180.2" fill="none" stroke="#2563eb" stroke-width="2"/><polyline points="293.2,180.2 490.0,401.0" fill="none" stroke="#2563eb" stroke-width="2"/><polyline points="490.0,401.0 686.8,407.5" fill="none" stroke="#2563eb" stroke-width="2"/><polyline points="686.8,407.5 730.4,429.9" fill="none" stroke="#2563eb" stroke-width="2"/><polyline points="730.4,429.9 774.0,457.9" fill="none" stroke="#2563eb" stroke-width="2"/><polyline points="774.0,457.9 864.0,514.4" fill="none" stroke="#2563eb" stroke-width="2"/><polyline points="864.0,514.4 954.0,561.8" fill="none" stroke="#2563eb" stroke-width="2"/><rect x="22.0" y="22.0" width="8" height="8" fill="#0f766e" stroke="#fff" stroke-width="0.8"/><rect x="202.0" y="125.9" width="8" height="8" fill="#0f766e" stroke="#fff" stroke-width="0.8"/><rect x="289.2" y="176.2" width="8" height="8" fill="#0f766e" stroke="#fff" stroke-width="0.8"/><rect x="682.8" y="403.5" width="8" height="8" fill="#0f766e" stroke="#fff" stroke-width="0.8"/><rect x="770.0" y="453.9" width="8" height="8" fill="#0f766e" stroke="#fff" stroke-width="0.8"/><rect x="950.0" y="557.8" width="8" height="8" fill="#0f766e" stroke="#fff" stroke-width="0.8"/></svg>