<svg xmlns="http://www.w3.org/2000/svg" viewBox="0 0 980 186" width="980" height="186"><rect width="980" height="186" fill="#ffffff"/><polyline points="26.0,160.0 103.3,119.1" fill="none" stroke="#9aa7b8" stroke-width="1"/><polyline points="103.3,119.1 180.7,85.6" fill="none" stroke="#9aa7b8" stroke-width="1"/><polyline points="180.7,85.6 258.0,59.5" fill="none" stroke="#9aa7b8" stroke-width="1"/><polyline points="258.0,59.5 335.3,40.9" fill="none" stroke="#9aa7b8" stroke-width="1"/><polyline points="335.3,40.9 412.7,29.7" fill="none" stroke="#9aa7b8" stroke-width="1"/><polyline points="412.7,29.7 490.0,26.0" fill="none" stroke="#9aa7b8" stroke-width="1"/><polyline points="490.0,26.0 567.3,29.7" fill="none" stroke="#9aa7b8" stroke-width="1"/><polyline points="567.3,29.7 644.7,40.9" fill="none" stroke="#9aa7b8" stroke-width="1"/><polyline points="644.7,40.9 722.0,59.5" fill="none" stroke="#9aa7b8" stroke-width="1"/><polyline points="722.0,59.5 799.3,85.6" fill="none" stroke="#9aa7b8" stroke-width="1"/><polyline points="799.3,85.6 876.7,119.1" fill="none" stroke="#9aa7b8" stroke-width="1"/><polyline points="876.7,119.1 954.0,160.0" fill="none" stroke="#9aa7b8" stroke-width="1"/><polyline points="26.0,26.0 103.3,26.0" fill="none" stroke="#9aa7b8" stroke-width="1"/><polyline points="103.3,26.0 180.7,26.0" fill="none" stroke="#9aa7b8" stroke-width="1"/><polyline points="180.7,26.0 258.0,26.0" fill="none" stroke="#9aa7b8" stroke-width="1"/><polyline points="258.0,26.0 335.3,26.0" fill="none" stroke="#9aa7b8" stroke-width="1"/><polyline points="335.3,26.0 412.7,26.0" fill="none" stroke="#9aa7b8" stroke-width="1"/><polyline points="412.7,26.0 490.0,26.0" fill="none" stroke="#9aa7b8" stroke-width="1"/><polyline points="490.0,26.0 567.3,26.0" fill="none" stroke="#9aa7b8" stroke-width="1"/><polyline points="567.3,26.0 644.7,26.0" fill="none" stroke="#9aa7b8" stroke-width="1"/><polyline points="644.7,26.0 722.0,26.0" fill="none" stroke="#9aa7b8" stroke-width="1"/><polyline points="722.0,26.0 799.3,26.0" fill="none" stroke="#9aa7b8" stroke-width="1"/><polyline points="799.3,26.0 876.7,26.0" fill="none" stroke="#9aa7b8" stroke-width="1"/><polyline points="876.7,26.0 954.0,26.0" fill="none" stroke="#9aa7b8" stroke-width="1"/><polyline points="26.0,26.0 26.0,160.0" fill="none" stroke="#9aa7b8" stroke-width="1"/><polyline points="103.3,26.0 103.3,119.1" fill="none" stroke="#9aa7b8" stroke-width="1"/><polyline points="180.7,26.0 180.7,85.6" fill="none" stroke="#9aa7b8" stroke-width="1"/><polyline points="258.0,26.0 258.0,59.5" fill="none" stroke="#9aa7b8" stroke-width="1"/><polyline points="335.3,26.0 335.3,40.9" fill="none" stroke="#9aa7b8" stroke-width="1"/><polyline points="412.7,26.0 412.7,29.7" fill="none" stroke="#9aa7b8" stroke-width="1"/><polyline points="567.3,26.0 567.3,29.7" fill="none" stroke="#9aa7b8" stroke-width="1"/><polyline points="644.7,26.0 644.7,40.9" fill="none" stroke="#9aa7b8" stroke-width="1"/><polyline points="722.0,26.0 722.0,59.5" fill="none" stroke="#9aa7b8" stroke-width="1"/><polyline points="799.3,26.0 799.3,85.6" fill="none" stroke="#9aa7b8" stroke-width="1"/><polyline points="876.7,26.0 876.7,119.1" fill="none" stroke="#9aa7b8" stroke-width="1"/><polyline points="954.0,26.0 954.0,160.0" fill="none" stroke="#9aa7b8" stroke-width="1"/><polyline points="26.0,160.0 102.9,133.0" fill="none" stroke="#2563eb" stroke-width="2"/><polyline points="102.9,133.0 180.7,115.7" fill="none" stroke="#2563eb" stroke-width="2"/><polyline points="180.7,115.7 259.0,108.2" fill="none" stroke="#2563eb" stroke-width="2"/><polyline points="259.0,108.2 337.3,109.5" fill="none" stroke="#2563eb" stroke-width="2"/><polyline points="337.3,109.5 414.5,115.1" fill="none" stroke="#2563eb" stroke-width="2"/><polyline points="414.5,115.1 490.0,119.8" fill="none" stroke="#2563eb" stroke-width="2"/><polyline points="490.0,119.8 565.5,115.1" fill="none" stroke="#2563eb" stroke-width="2"/><polyline points="565.5,115.1 642.7,109.5" fill="none" stroke="#2563eb" stroke-width="2"/><polyline points="642.7,109.5 721.0,108.2" fill="none" stroke="#2563eb" stroke-width="2"/><polyline points="721.0,108.2 799.3,115.7" fill="none" stroke="#2563eb" stroke-width="2"/><polyline points="799.3,115.7 877.1,133.0" fill="none" stroke="#2563eb" stroke-width="2"/><polyline points="877.1,133.0 954.0,160.0" fill="none" stroke="#2563eb" stroke-width="2"/><polyline points="33.1,26.8 110.3,40.7" fill="none" stroke="#2563eb" stroke-width="2"/><polyline points="110.3,40.7 187.3,56.6" fill="none" stroke="#2563eb" stroke-width="2"/><polyline points="187.3,56.6 263.8,75.0" fill="none" stroke="#2563eb" stroke-width="2"/><polyline points="263.8,75.0 339.7,94.7" fill="none" stroke="#2563eb" stroke-width="2"/><polyline points="339.7,94.7 415.0,111.4" fill="none" stroke="#2563eb" stroke-width="2"/><polyline points="415.0,111.4 490.0,118.8" fill="none" stroke="#2563eb" stroke-width="2"/><polyline points="490.0,118.8 565.0,111.4" fill="none" stroke="#2563eb" stroke-width="2"/><polyline points="565.0,111.4 640.3,94.7" fill="none" stroke="#2563eb" stroke-width="2"/><polyline points="640.3,94.7 716.2,75.0" fill="none" stroke="#2563eb" stroke-width="2"/><polyline points="716.2,75.0 792.7,56.6" fill="none" stroke="#2563eb" stroke-width="2"/><polyline points="792.7,56.6 869.7,40.7" fill="none" stroke="#2563eb" stroke-width="2"/><polyline points="869.7,40.7 946.9,26.8" fill="none" stroke="#2563eb" stroke-width="2"/><polyline points="33.1,26.8 26.0,160.0" fill="none" stroke="#2563eb" stroke-width="2"/><polyline points="110.3,40.7 102.9,133.0" fill="none" stroke="#2563eb" stroke-width="2"/><polyline points="187.3,56.6 180.7,115.7" fill="none" stroke="#2563eb" stroke-width="2"/><polyline points="263.8,75.0 259.0,108.2" fill="none" stroke="#2563eb" stroke-width="2"/><polyline points="339.7,94.7 337.3,109.5" fill="none" stroke="#2563eb" stroke-width="2"/><polyline points="415.0,111.4 414.5,115.1" fill="none" stroke="#2563eb" stroke-width="2"/><polyline points="565.0,111.4 565.5,115.1" fill="none" stroke="#2563eb" stroke-width="2"/><polyline points="640.3,94.7 642.7,109.5" fill="none" stroke="#2563eb" stroke-width="2"/><polyline points="716.2,75.0 721.0,108.2" fill="none" stroke="#2563eb" stroke-width="2"/><polyline points="792.7,56.6 799.3,115.7" fill="none" stroke="#2563eb" stroke-width="2"/><polyline points="869.7,40.7 877.1,133.0" fill="none" stroke="#2563eb" stroke-width="2"/><polyline points="946.9,26.8 954.0,160.0" fill="none" stroke="#2563eb" stroke-width="2"/><rect x="22.0" y="156.0" width="8" height="8" fill="#0f766e" stroke="#fff" stroke-width="0.8"/><rect x="950.0" y="156.0" width="8" height="8" fill="#0f766e" stroke="#fff" stroke-width="0.8"/></svg>