<?xml version="1.0" encoding="UTF-8"?>
<svg id="Capa_1" xmlns="http://www.w3.org/2000/svg" version="1.1" xmlns:xlink="http://www.w3.org/1999/xlink" viewBox="0 0 283.78 126.92">
  <!-- Generator: Adobe Illustrator 30.1.0, SVG Export Plug-In . SVG Version: 2.1.1 Build 89)  -->
  <defs>
    <style>
      .st0 {
        fill: #5f5f5f;
      }

      .st1 {
        fill: #fff;
      }

      .st2 {
        fill: none;
      }

      .st3 {
        clip-path: url(#clippath-1);
      }

      .st4 {
        fill: #a60033;
      }

      .st5 {
        fill: #aeaeae;
      }

      .st6 {
        fill: #979797;
      }

      .st7 {
        clip-path: url(#clippath);
      }

      .st8 {
        fill: #accde6;
      }

      .st9 {
        fill: #f7b502;
      }

      .st10 {
        fill: #12552b;
      }
    </style>
    <clipPath id="clippath">
      <rect class="st2" x="213.24" y="0" width="69.78" height="84.32"/>
    </clipPath>
    <clipPath id="clippath-1">
      <rect class="st2" x="213.24" y="0" width="69.78" height="84.32"/>
    </clipPath>
  </defs>
  <g>
    <path class="st1" d="M87.01,75.04c-1.22-.56-2.18-1.34-2.87-2.33-.7-1-1.07-2.11-1.11-3.34h2.58c.12,1.18.64,2.22,1.57,3.12.93.89,2.29,1.34,4.08,1.34,1.65,0,2.96-.42,3.92-1.27.96-.85,1.45-1.92,1.45-3.22,0-1.05-.27-1.89-.8-2.53-.53-.64-1.2-1.11-1.99-1.43-.79-.31-1.88-.66-3.27-1.03-1.63-.44-2.92-.87-3.87-1.29-.95-.42-1.77-1.07-2.44-1.95-.67-.88-1.01-2.08-1.01-3.59,0-1.25.33-2.38.98-3.36.65-.99,1.57-1.76,2.75-2.32,1.18-.56,2.54-.84,4.08-.84,2.25,0,4.07.55,5.45,1.66,1.38,1.1,2.18,2.53,2.39,4.27h-2.65c-.16-1-.71-1.89-1.64-2.67-.93-.78-2.18-1.17-3.76-1.17-1.46,0-2.68.39-3.66,1.17-.98.78-1.46,1.84-1.46,3.19,0,1.02.27,1.85.8,2.47.53.63,1.2,1.1,2,1.43.8.33,1.89.67,3.26,1.05,1.58.44,2.86.88,3.83,1.31s1.8,1.09,2.47,1.97c.67.88,1.01,2.07,1.01,3.55,0,1.14-.3,2.22-.91,3.24-.6,1.02-1.5,1.85-2.68,2.47-1.18.63-2.6.94-4.25.94s-3.01-.28-4.23-.84Z"/>
    <path class="st1" d="M107.29,74.71c-1.43-.8-2.56-1.94-3.38-3.41-.82-1.47-1.24-3.2-1.24-5.17s.42-3.7,1.25-5.17c.84-1.47,1.97-2.61,3.41-3.41,1.44-.8,3.05-1.2,4.84-1.2s3.41.4,4.86,1.2c1.45.8,2.59,1.94,3.41,3.41.82,1.48,1.24,3.2,1.24,5.17s-.42,3.67-1.25,5.16c-.84,1.49-1.99,2.63-3.45,3.43-1.46.8-3.09,1.2-4.88,1.2s-3.4-.4-4.83-1.2ZM115.59,72.93c1.07-.57,1.93-1.43,2.6-2.58.66-1.15.99-2.56.99-4.23s-.33-3.08-.98-4.23c-.65-1.15-1.51-2.01-2.58-2.58-1.07-.57-2.23-.85-3.48-.85s-2.42.29-3.48.85c-1.07.57-1.92,1.43-2.56,2.58-.64,1.15-.96,2.56-.96,4.23s.32,3.08.96,4.23c.64,1.15,1.49,2.01,2.54,2.58,1.06.57,2.21.85,3.47.85s2.42-.28,3.48-.85Z"/>
    <path class="st1" d="M154.25,58.37c1.41,1.41,2.11,3.44,2.11,6.11v11.15h-2.4v-10.87c0-2.07-.5-3.65-1.5-4.74-1-1.09-2.36-1.64-4.08-1.64s-3.22.59-4.29,1.78c-1.07,1.18-1.6,2.9-1.6,5.16v10.31h-2.4v-10.87c0-2.07-.5-3.65-1.5-4.74-1-1.09-2.37-1.64-4.11-1.64s-3.22.59-4.29,1.78c-1.07,1.18-1.6,2.9-1.6,5.16v10.31h-2.44v-19.02h2.44v3.27c.6-1.18,1.46-2.08,2.58-2.7,1.11-.62,2.36-.92,3.73-.92,1.65,0,3.09.4,4.34,1.18,1.24.79,2.14,1.95,2.7,3.48.51-1.51,1.39-2.67,2.63-3.47s2.65-1.2,4.23-1.2c2.23,0,4.05.7,5.45,2.11Z"/>
    <path class="st1" d="M165.26,74.71c-1.43-.8-2.56-1.94-3.38-3.41-.82-1.47-1.24-3.2-1.24-5.17s.42-3.7,1.25-5.17c.84-1.47,1.97-2.61,3.41-3.41,1.44-.8,3.05-1.2,4.84-1.2s3.41.4,4.86,1.2c1.45.8,2.59,1.94,3.41,3.41.82,1.48,1.24,3.2,1.24,5.17s-.42,3.67-1.25,5.16c-.84,1.49-1.99,2.63-3.45,3.43-1.46.8-3.09,1.2-4.88,1.2s-3.4-.4-4.83-1.2ZM173.57,72.93c1.07-.57,1.93-1.43,2.6-2.58.66-1.15.99-2.56.99-4.23s-.33-3.08-.98-4.23c-.65-1.15-1.51-2.01-2.58-2.58-1.07-.57-2.23-.85-3.48-.85s-2.42.29-3.48.85c-1.07.57-1.92,1.43-2.56,2.58-.64,1.15-.96,2.56-.96,4.23s.32,3.08.96,4.23c.64,1.15,1.49,2.01,2.54,2.58,1.06.57,2.21.85,3.47.85s2.42-.28,3.48-.85Z"/>
    <path class="st1" d="M185.33,74.4c-1.38-1.01-2.15-2.39-2.32-4.13h2.51c.12,1.07.62,1.93,1.52,2.6.89.66,2.1.99,3.61.99,1.32,0,2.36-.31,3.12-.94.75-.63,1.13-1.4,1.13-2.33,0-.65-.21-1.18-.63-1.6s-.95-.75-1.59-.99c-.64-.24-1.5-.5-2.6-.78-1.42-.37-2.57-.74-3.45-1.12-.88-.37-1.63-.92-2.25-1.65-.62-.73-.92-1.71-.92-2.94,0-.93.28-1.79.84-2.58.56-.79,1.35-1.42,2.37-1.88,1.02-.46,2.18-.7,3.48-.7,2.04,0,3.69.52,4.95,1.55,1.25,1.03,1.93,2.46,2.02,4.27h-2.44c-.07-1.11-.5-2.01-1.31-2.7-.8-.69-1.9-1.03-3.29-1.03-1.23,0-2.23.29-3,.87-.77.58-1.15,1.3-1.15,2.16,0,.74.23,1.35.68,1.83.45.48,1.02.85,1.69,1.12.67.27,1.58.56,2.72.89,1.37.37,2.46.73,3.27,1.08.81.35,1.51.86,2.09,1.53.58.67.88,1.57.91,2.68,0,1.02-.28,1.93-.84,2.74-.56.8-1.34,1.43-2.33,1.9-1,.46-2.15.7-3.45.7-2.18,0-3.97-.51-5.35-1.52Z"/>
    <path class="st1" d="M3.97,93.23v24.22H0v-24.22h3.97Z"/>
    <path class="st1" d="M22.94,98.87c1.2.63,2.13,1.56,2.8,2.79.67,1.23,1.01,2.72,1.01,4.46v11.32h-3.94v-10.73c0-1.72-.43-3.04-1.29-3.95-.86-.92-2.03-1.38-3.52-1.38s-2.67.46-3.54,1.38c-.87.92-1.31,2.24-1.31,3.95v10.73h-3.97v-19.2h3.97v2.19c.65-.79,1.48-1.4,2.49-1.85,1.01-.44,2.08-.66,3.22-.66,1.51,0,2.86.31,4.06.94Z"/>
    <path class="st1" d="M43.5,98.82c1.15.59,2.05,1.33,2.7,2.21v-2.79h4.01v19.51c0,1.77-.37,3.34-1.12,4.72-.74,1.38-1.82,2.47-3.22,3.26-1.41.79-3.08,1.18-5.03,1.18-2.6,0-4.76-.61-6.48-1.83-1.72-1.22-2.69-2.87-2.93-4.97h3.94c.3,1,.95,1.81,1.93,2.42.99.62,2.17.92,3.54.92,1.6,0,2.9-.49,3.88-1.46s1.48-2.39,1.48-4.25v-3.21c-.67.91-1.59,1.67-2.74,2.28-1.15.62-2.46.92-3.92.92-1.67,0-3.2-.42-4.58-1.27-1.38-.85-2.47-2.03-3.27-3.55-.8-1.52-1.2-3.25-1.2-5.17s.4-3.63,1.2-5.12c.8-1.49,1.89-2.64,3.27-3.47,1.38-.82,2.91-1.24,4.58-1.24,1.49,0,2.8.3,3.95.89ZM45.38,104.38c-.55-.98-1.26-1.72-2.14-2.23-.88-.51-1.84-.77-2.86-.77s-1.97.25-2.86.75c-.88.5-1.6,1.23-2.14,2.19-.55.96-.82,2.11-.82,3.43s.27,2.49.82,3.48c.55,1,1.27,1.76,2.16,2.28.89.52,1.84.78,2.84.78s1.97-.26,2.86-.77c.88-.51,1.6-1.26,2.14-2.25.55-.99.82-2.14.82-3.47s-.27-2.47-.82-3.45Z"/>
    <path class="st1" d="M72.89,109.33h-14.67c.12,1.53.69,2.76,1.71,3.69,1.02.93,2.28,1.39,3.76,1.39,2.14,0,3.65-.89,4.53-2.68h4.29c-.58,1.77-1.63,3.21-3.15,4.34-1.52,1.13-3.41,1.69-5.66,1.69-1.83,0-3.48-.41-4.93-1.24-1.45-.82-2.59-1.99-3.41-3.48-.82-1.5-1.24-3.23-1.24-5.21s.4-3.71,1.2-5.21,1.93-2.65,3.38-3.47c1.45-.81,3.12-1.22,5-1.22s3.43.4,4.84,1.18c1.42.79,2.52,1.9,3.31,3.33.79,1.43,1.19,3.07,1.19,4.93,0,.72-.05,1.37-.14,1.95ZM68.88,106.12c-.02-1.46-.55-2.64-1.57-3.52-1.02-.88-2.29-1.32-3.8-1.32-1.37,0-2.54.44-3.52,1.31-.98.87-1.56,2.05-1.74,3.54h10.63Z"/>
    <path class="st1" d="M90.67,98.87c1.2.63,2.13,1.56,2.8,2.79.67,1.23,1.01,2.72,1.01,4.46v11.32h-3.94v-10.73c0-1.72-.43-3.04-1.29-3.95-.86-.92-2.03-1.38-3.52-1.38s-2.67.46-3.54,1.38c-.87.92-1.31,2.24-1.31,3.95v10.73h-3.97v-19.2h3.97v2.19c.65-.79,1.48-1.4,2.49-1.85,1.01-.44,2.08-.66,3.22-.66,1.51,0,2.86.31,4.06.94Z"/>
    <path class="st1" d="M99.75,94.97c-.49-.49-.73-1.09-.73-1.81s.24-1.32.73-1.81,1.09-.73,1.81-.73,1.29.24,1.78.73.73,1.09.73,1.81-.24,1.32-.73,1.81-1.08.73-1.78.73-1.32-.24-1.81-.73ZM103.51,98.25v19.2h-3.97v-19.2h3.97Z"/>
    <path class="st1" d="M126.19,109.33h-14.67c.12,1.53.69,2.76,1.71,3.69,1.02.93,2.28,1.39,3.76,1.39,2.14,0,3.65-.89,4.53-2.68h4.29c-.58,1.77-1.63,3.21-3.15,4.34-1.52,1.13-3.41,1.69-5.66,1.69-1.83,0-3.48-.41-4.93-1.24-1.45-.82-2.59-1.99-3.41-3.48-.82-1.5-1.24-3.23-1.24-5.21s.4-3.71,1.2-5.21,1.93-2.65,3.38-3.47c1.45-.81,3.12-1.22,5-1.22s3.43.4,4.84,1.18c1.42.79,2.52,1.9,3.31,3.33.79,1.43,1.19,3.07,1.19,4.93,0,.72-.05,1.37-.14,1.95ZM122.19,106.12c-.02-1.46-.55-2.64-1.57-3.52-1.02-.88-2.29-1.32-3.8-1.32-1.37,0-2.54.44-3.52,1.31-.98.87-1.56,2.05-1.74,3.54h10.63Z"/>
    <path class="st1" d="M136.53,98.75c.96-.55,2.11-.82,3.43-.82v4.11h-1.01c-1.56,0-2.74.4-3.54,1.18s-1.2,2.16-1.2,4.11v10.1h-3.97v-19.2h3.97v2.79c.58-.98,1.35-1.74,2.32-2.28Z"/>
    <path class="st1" d="M149.19,93.09l-7.7,3.8v-2.93l7.7-4.25v3.38ZM147.59,98.25v19.2h-3.97v-19.2h3.97Z"/>
    <path class="st1" d="M152.69,102.64c.8-1.49,1.89-2.64,3.27-3.47,1.38-.82,2.91-1.24,4.58-1.24,1.51,0,2.83.3,3.95.89,1.13.59,2.03,1.33,2.7,2.21v-2.79h4.01v19.2h-4.01v-2.86c-.67.91-1.59,1.66-2.75,2.26-1.16.6-2.49.91-3.97.91-1.65,0-3.16-.42-4.53-1.27-1.37-.85-2.46-2.03-3.26-3.55-.8-1.52-1.2-3.25-1.2-5.17s.4-3.63,1.2-5.12ZM166.38,104.38c-.55-.98-1.26-1.72-2.14-2.23-.88-.51-1.84-.77-2.86-.77s-1.97.25-2.86.75c-.88.5-1.6,1.23-2.14,2.19-.55.96-.82,2.11-.82,3.43s.27,2.49.82,3.48c.55,1,1.27,1.76,2.16,2.28.89.52,1.84.78,2.84.78s1.97-.26,2.86-.77c.88-.51,1.6-1.26,2.14-2.25.55-.99.82-2.14.82-3.47s-.27-2.47-.82-3.45Z"/>
    <path class="st1" d="M192.18,92.78v13.9c0,1.14.25,2.04.75,2.7s1.31.99,2.42.99,1.94-.33,2.47-.99c.53-.66.8-1.56.8-2.7v-13.9h7.7v13.9c0,2.35-.49,4.35-1.46,6.01-.98,1.66-2.31,2.91-4.01,3.75-1.7.84-3.59,1.25-5.68,1.25s-3.94-.42-5.56-1.25c-1.61-.84-2.87-2.08-3.78-3.73-.91-1.65-1.36-3.66-1.36-6.03v-13.9h7.7Z"/>
    <path class="st1" d="M225.49,113.72h-8.22l-1.22,3.73h-8.12l9.02-24.67h8.92l8.99,24.67h-8.15l-1.22-3.73ZM223.61,107.9l-2.23-6.86-2.23,6.86h4.46Z"/>
    <path class="st1" d="M237.39,98.56c.99-1.9,2.4-3.39,4.23-4.44,1.83-1.06,4-1.59,6.48-1.59,2.14,0,4.05.4,5.73,1.2s3.05,1.93,4.11,3.4,1.76,3.17,2.11,5.12h-8.15c-.37-.81-.9-1.45-1.59-1.9-.69-.45-1.47-.68-2.35-.68-1.3,0-2.33.49-3.08,1.46-.76.98-1.13,2.29-1.13,3.94s.38,2.96,1.13,3.94c.75.98,1.78,1.46,3.08,1.46.88,0,1.67-.23,2.35-.68.69-.45,1.21-1.09,1.59-1.9h8.15c-.35,1.95-1.05,3.66-2.11,5.12s-2.43,2.6-4.11,3.4-3.59,1.2-5.73,1.2c-2.49,0-4.65-.53-6.48-1.59-1.83-1.06-3.25-2.54-4.23-4.44-.99-1.9-1.48-4.08-1.48-6.52s.49-4.61,1.48-6.52Z"/>
    <path class="st1" d="M281.88,99.92c1.27,1.51,1.9,3.55,1.9,6.13v11.39h-7.7v-10.42c0-.93-.25-1.67-.75-2.21-.5-.55-1.17-.82-2-.82s-1.53.27-2.02.82c-.49.55-.73,1.28-.73,2.21v10.42h-7.73v-25.78h7.73v9.13c.6-.93,1.41-1.68,2.42-2.26s2.21-.87,3.61-.87c2.25,0,4.01.75,5.28,2.26Z"/>
  </g>
  <g id="Escudo_Negro">
    <g class="st7">
      <g class="st3">
        <path class="st1" d="M248.18.05L213.34,0l-.05,33.89-.05,33.89v.79s0,.79,0,.79c0,.39.02.79.08,1.18.06.39.14.78.26,1.16h0c.26.86.65,1.69,1.15,2.48.5.79,1.11,1.54,1.8,2.23h0c.96.96,2.06,1.8,3.25,2.47,1.19.67,2.46,1.18,3.73,1.46.39.09.77.15,1.16.2.39.04.77.07,1.15.07h9.16s9.16.03,9.16.03c.04,0,.68-.04,1.39.18.71.22,1.48.71,1.77,1.76l.24.86.24.86.23-.87.23-.87c.28-1.04,1.1-1.52,1.86-1.74.76-.22,1.47-.19,1.52-.18h9.45s9.45.03,9.45.03c.38,0,.76-.02,1.14-.07.38-.04.77-.11,1.15-.19h0c1.26-.28,2.51-.79,3.68-1.46,1.17-.67,2.26-1.51,3.19-2.46h0c.67-.69,1.27-1.44,1.76-2.23.49-.79.88-1.62,1.13-2.48h0c.11-.38.2-.77.26-1.15.06-.39.09-.78.09-1.17l.05-34.69.05-34.69-34.84-.05Z"/>
        <path d="M248.18.05L213.34,0l-.05,33.89-.05,33.89v.79s0,.79,0,.79c0,.39.02.79.08,1.18.06.39.14.78.26,1.16h0c.26.86.65,1.69,1.15,2.48.5.79,1.11,1.54,1.8,2.23h0c.95.96,2.06,1.8,3.25,2.47,1.19.67,2.46,1.18,3.73,1.46.39.09.77.15,1.16.2.39.04.77.07,1.15.07h9.16s9.16.03,9.16.03c.04,0,.68-.04,1.39.18.71.22,1.48.71,1.77,1.76l.24.86.24.86.23-.87.23-.87c.28-1.04,1.1-1.52,1.86-1.74.76-.22,1.47-.19,1.52-.18h9.45s9.45.03,9.45.03c.38,0,.76-.02,1.14-.07.38-.04.77-.11,1.15-.19h0c1.26-.28,2.51-.79,3.68-1.46s2.26-1.51,3.19-2.46h0c.67-.69,1.27-1.44,1.76-2.23.49-.79.88-1.62,1.13-2.48h0c.11-.38.2-.76.26-1.15.06-.39.09-.78.09-1.17l.05-34.69.05-34.69-34.84-.05ZM281.99,35.28l-.05,34.2c0,.39-.04.78-.11,1.17-.07.39-.17.78-.3,1.16h0c-.29.86-.74,1.71-1.3,2.5-.56.79-1.24,1.54-2,2.2h0c-1.09.96-2.35,1.76-3.67,2.32-1.32.56-2.71.88-4.07.88h-9.43s-9.43-.03-9.43-.03c-.48-.03-1,.02-1.5.13-.5.12-.99.31-1.42.58h0c-.19.12-.36.25-.52.4-.16.15-.31.32-.43.5-.12-.18-.26-.35-.42-.5-.15-.15-.32-.29-.5-.41h0c-.4-.27-.85-.46-1.32-.58-.47-.12-.95-.17-1.42-.14h-9.15s-9.15-.03-9.15-.03c-1.37,0-2.78-.33-4.12-.89-1.35-.57-2.63-1.37-3.74-2.33h0c-.78-.67-1.47-1.42-2.04-2.21-.57-.8-1.02-1.64-1.32-2.5h0c-.13-.39-.23-.77-.3-1.16-.07-.39-.1-.78-.09-1.17v-.8s0-.8,0-.8l.05-33.4.05-33.4,33.87.05,33.87.05-.05,34.2Z"/>
        <path d="M248.2,10.15l-24.42-.04-.04,26.58-.04,26.58c0,.1,0,.2,0,.3,0,.1,0,.2.02.3.05.73.21,1.43.45,2.09.24.66.57,1.28.97,1.84.7.98,1.63,1.79,2.7,2.35,1.07.56,2.29.88,3.59.89l16.68.02,16.68.02c1.3,0,2.52-.31,3.59-.88,1.07-.56,2-1.37,2.7-2.34.4-.56.74-1.17.98-1.83.24-.66.4-1.36.46-2.09h0c0-.1.01-.2.02-.29,0-.1,0-.2,0-.3l.04-26.58.04-26.58-24.42-.04ZM229.8,63.87l-1.62-1.02-1.62,1.01.47-1.86-1.46-1.23,1.91-.13.72-1.77.72,1.78,1.91.14-1.47,1.23.46,1.86ZM229.35,56.03l.46,1.86-1.62-1.02-1.62,1.01.47-1.86-1.46-1.23,1.91-.13.72-1.77.72,1.77,1.91.14-1.47,1.23ZM229.36,50.05l.46,1.86-1.62-1.02-1.62,1.01.47-1.86-1.46-1.23,1.91-.13.72-1.77.72,1.78,1.91.14-1.47,1.23ZM229.36,44.07l.46,1.86-1.62-1.02-1.62,1.01.47-1.86-1.46-1.23,1.91-.13.72-1.77.71,1.78,1.91.14-1.47,1.23ZM237.82,69.86l-1.62-1.02-1.62,1.01.47-1.86-1.46-1.23,1.91-.13.72-1.77.71,1.78,1.91.14-1.47,1.23.46,1.86ZM237.37,62.02l.46,1.86-1.62-1.02-1.62,1.01.47-1.86-1.46-1.23,1.91-.13.72-1.77.72,1.78,1.91.14-1.47,1.23ZM237.38,56.04l.46,1.86-1.62-1.02-1.62,1.01.47-1.86-1.46-1.23,1.91-.13.72-1.77.72,1.78,1.91.14-1.47,1.23ZM237.39,50.07l.46,1.86-1.62-1.02-1.62,1.01.47-1.86-1.46-1.23,1.91-.13.72-1.77.72,1.78,1.91.14-1.47,1.23ZM237.4,44.09l.46,1.86-1.62-1.02-1.62,1.01.47-1.86-1.46-1.23,1.91-.13.72-1.77.72,1.78,1.91.14-1.47,1.23ZM245.45,63.89l-1.62-1.02-1.62,1.01.47-1.86-1.46-1.23,1.91-.13.72-1.77.72,1.78,1.91.14-1.47,1.23.46,1.86ZM245,56.05l.46,1.86-1.62-1.02-1.62,1.01.47-1.86-1.46-1.23,1.91-.13.72-1.77.72,1.77,1.91.14-1.47,1.23ZM245.01,50.08l.46,1.86-1.62-1.02-1.62,1.01.47-1.86-1.46-1.23,1.91-.13.72-1.77.72,1.78,1.91.14-1.47,1.23ZM245.02,44.1l.46,1.86-1.62-1.02-1.62,1.01.47-1.86-1.46-1.23,1.91-.13.72-1.77.72,1.78,1.91.14-1.47,1.23Z"/>
        <path d="M240.46,7.95c-.1-.03-.15-.07-.18-.14-.03-.07-.03-.16-.03-.33v-.85s0-.85,0-.85v-1.04s0-1.04,0-1.04c0-.03,0-.06.03-.08.02-.02.04-.04.07-.04h.12c.24,0,.41.01.54.07.13.05.22.15.29.31.05.15.07.28.09.37.03.09.06.15.13.15.04,0,.06-.01.08-.04.02-.03.02-.09.03-.17l.02-.51.02-.51v-.08s0-.06-.02-.09c-.01-.03-.03-.05-.06-.05-.04,0-.07.06-.1.12-.03.07-.08.14-.15.19-.02.02-.06.03-.1.03-.04,0-.09,0-.15,0-.07,0-.16,0-.26,0-.1,0-.21,0-.34,0h-.47s-.47,0-.47,0c-.11,0-.21,0-.31,0-.09,0-.18,0-.25,0-.09,0-.17,0-.23-.02-.06-.01-.1-.03-.13-.05-.05,0-.07-.07-.09-.13-.02-.06-.04-.13-.09-.13-.05,0-.08.04-.1.11s-.03.17-.06.28l-.1.39-.1.39s-.01.06-.02.09c0,.02,0,.04,0,.05,0,.05,0,.08.02.09.01.01.04.02.06.02.06,0,.11-.05.17-.13.06-.08.12-.21.21-.36.1-.12.19-.22.3-.28.11-.06.23-.09.39-.09h.11s.11,0,.11,0c.03,0,.06.02.07.05.02.03.03.07.03.1v1.03s0,1.03,0,1.03v.85s0,.85,0,.85c0,.16,0,.26-.03.33-.03.07-.08.1-.18.13-.08.03-.17.02-.23.03-.06,0-.11.03-.11.11,0,.04.01.07.04.09.03.02.07.03.12.03.08,0,.18-.01.31-.03.12-.01.27-.03.42-.03.16,0,.3.01.43.03.12.01.22.03.31.03.05,0,.09-.01.12-.03.03-.02.04-.05.04-.08,0-.08-.04-.11-.1-.12-.06,0-.15,0-.23-.04"/>
        <path d="M224.71,7.03s-.08.05-.15.14c-.06.09-.14.22-.26.37-.11.14-.22.25-.35.32-.13.07-.27.1-.44.1-.16,0-.29-.04-.37-.13-.08-.08-.13-.21-.13-.37v-.85s0-.85,0-.85v-.92s0-.92,0-.92c0-.12,0-.2.03-.26.03-.05.08-.08.17-.1.1-.02.18-.02.24-.03.06-.01.09-.03.09-.1,0-.03-.01-.06-.03-.08-.02-.02-.05-.03-.08-.03-.04,0-.12.02-.25.03-.13.02-.31.03-.54.03-.21,0-.37-.02-.48-.03-.12-.02-.19-.03-.23-.03-.03,0-.06.01-.07.03-.02.02-.03.05-.03.08,0,.08.04.1.1.1.06,0,.14,0,.24.04.07.02.11.05.13.11.02.05.02.13.02.25v.92s0,.92,0,.92v.85s0,.85,0,.85c0,.16,0,.27-.03.34-.03.07-.09.1-.22.13-.07.02-.15.02-.21.03-.06,0-.1.03-.1.11,0,.04.01.07.04.09.03.02.07.03.12.03.05,0,.13-.01.25-.02.12-.01.28-.02.48-.02.45,0,.84.02,1.15.04.31.02.55.04.71.04.05,0,.09-.01.11-.03s.04-.05.04-.1c0-.01,0-.03,0-.05,0-.02,0-.05.01-.08l.04-.36.04-.36s0-.07,0-.09c0-.02,0-.04,0-.04,0-.01,0-.03-.02-.04-.01-.01-.03-.02-.05-.02"/>
        <path d="M226.4,7.93c-.1-.03-.15-.07-.18-.13-.03-.07-.03-.17-.03-.33v-.85s0-.85,0-.85v-.92s0-.92,0-.92c0-.12,0-.2.03-.26.03-.06.08-.08.17-.1.1-.02.18-.02.24-.03.06-.01.09-.03.09-.1,0-.03-.01-.06-.03-.08-.02-.02-.05-.03-.08-.03-.04,0-.12.02-.25.03-.13.02-.29.03-.51.03-.22,0-.39-.02-.52-.03-.13-.02-.21-.03-.24-.03s-.07.01-.09.03-.03.05-.03.08c0,.08.04.1.11.11.07,0,.16,0,.26.03.08.02.12.05.14.1.02.05.03.13.03.25v.92s0,.92,0,.92v.85s0,.85,0,.85c0,.16,0,.27-.03.34s-.09.1-.22.13c-.07.02-.15.02-.2.03-.06,0-.1.03-.1.11,0,.04.01.07.04.09.03.02.07.03.12.03.05,0,.13-.01.25-.02s.28-.02.48-.02c.2,0,.36.01.48.02.12.01.2.02.25.02.05,0,.09-.01.12-.03.03-.02.04-.05.04-.08,0-.09-.04-.11-.1-.12-.06-.01-.15,0-.24-.03"/>
        <path d="M244.84,7.95c-.1-.07-.17-.15-.22-.26-.06-.11-.1-.25-.15-.43l-.23-.73-.23-.73-.35-1.11-.35-1.11c-.03-.11-.05-.2-.08-.26-.02-.06-.05-.1-.11-.1-.04,0-.06.02-.08.05-.02.03-.03.08-.05.14l-.37,1.19-.37,1.19-.24.79-.24.79c-.04.14-.08.26-.12.35-.04.09-.09.17-.16.22-.08.06-.17.06-.25.07-.08,0-.13.02-.13.11,0,.03.01.06.03.07.02.02.06.03.1.03.05,0,.12,0,.21-.02.09,0,.19-.02.3-.02.17,0,.31.01.42.02.11.01.2.02.25.02.04,0,.07,0,.1-.02.02-.01.03-.04.03-.07,0-.06-.02-.09-.08-.12-.05-.02-.13-.04-.23-.05-.07-.01-.12-.02-.15-.05-.03-.03-.05-.08-.05-.15,0-.05,0-.12.03-.22.02-.1.05-.22.09-.37l.09-.34.09-.34s.02-.04.03-.05c.02-.01.04-.02.05-.02h.48s.48,0,.48,0c.03,0,.06,0,.08.01.02,0,.03.02.04.05l.15.49.15.49c.02.08.04.15.05.21s.02.1.02.14c0,.07-.02.12-.06.14-.05.03-.13.04-.25.04-.05,0-.09.01-.11.04s-.04.05-.04.09c0,.03,0,.06.03.07.02.01.05.02.1.02.05,0,.14,0,.27-.02.13,0,.3-.02.52-.02.15,0,.28.01.39.02s.19.02.26.02c.06,0,.1,0,.12-.02.03-.02.04-.04.04-.09,0-.05-.03-.06-.09-.08-.05-.02-.12-.04-.2-.09M243.29,6.13h-.38s-.38,0-.38,0c-.02,0-.03,0-.04-.01,0,0-.02-.02-.02-.03,0,0,0-.01,0-.03,0-.01,0-.03,0-.05l.03-.1.03-.1.15-.58.15-.58s.01-.03.02-.04c0-.01.02-.02.03-.02,0,0,.02,0,.02.02,0,.01.02.03.02.05l.18.57.18.57.03.09.03.1s0,.03.01.04c0,.01,0,.02,0,.04,0,.02,0,.03-.02.04-.01.01-.03.02-.05.02"/>
        <path d="M230.22,5.79h0c-.08-.06-.16-.11-.25-.15-.09-.04-.19-.07-.3-.09.26-.1.45-.22.57-.39.12-.17.18-.37.18-.63,0-.42-.16-.71-.48-.91-.32-.19-.8-.28-1.45-.28-.48,0-.84.02-1.08.06-.24.04-.36.1-.36.18,0,.03,0,.06.02.08.02.02.04.03.07.03.04,0,.08,0,.13-.02.05,0,.09-.02.14-.02.07,0,.12.02.16.07.03.05.05.12.05.23v.92s0,.92,0,.92v.85s0,.85,0,.85c0,.04,0,.08,0,.1,0,.03,0,.04,0,.05,0,.1-.02.19-.06.24-.05.06-.12.09-.24.09-.06,0-.11,0-.14.03-.03.02-.04.05-.04.09,0,.04.01.07.04.09.02.02.06.03.11.03.05,0,.12-.01.22-.02.1-.01.22-.02.36-.02.19,0,.4.03.63.06.23.03.48.06.76.06.44,0,.8-.15,1.05-.39.25-.25.39-.6.4-1.01,0-.24-.04-.45-.12-.63s-.19-.33-.34-.45M228.3,3.96c0-.14.01-.23.08-.29.06-.06.17-.08.37-.08.3,0,.54.09.7.25.16.17.24.41.24.73,0,.29-.1.52-.28.68-.18.16-.44.24-.77.24h-.1c-.12,0-.18,0-.21-.04-.03-.03-.03-.09-.03-.2v-.64s0-.64,0-.64ZM228.91,7.99c-.23,0-.39-.05-.48-.14-.1-.1-.14-.24-.14-.44v-.79s0-.79,0-.79c0,0,0-.02,0-.02,0,0,0-.02,0-.02h0s.02-.03.03-.04c.02,0,.03-.01.06-.01h.24s.24,0,.24,0c.06,0,.12,0,.18.01.06,0,.11.02.16.04h0s0,0,0,0c.22.06.39.19.5.37.11.18.17.4.17.67,0,.37-.1.67-.27.86-.17.2-.42.3-.72.3"/>
        <path d="M247.53,5.81c-.11-.13-.24-.25-.41-.37-.16-.11-.35-.22-.56-.33-.24-.13-.42-.25-.54-.39-.12-.14-.18-.3-.18-.5,0-.24.07-.44.2-.58.13-.14.31-.21.54-.21.18,0,.31.06.42.16s.19.26.27.47c.05.13.08.23.11.3.03.07.06.11.11.11.03,0,.06-.01.07-.04.02-.03.03-.07.03-.12,0-.25,0-.45-.02-.59-.01-.14-.03-.22-.05-.25-.03-.05-.15-.11-.3-.15-.16-.05-.36-.09-.57-.09-.42,0-.76.14-1,.37-.24.24-.37.57-.37.97,0,.34.07.58.19.77.12.19.29.33.49.46h0c.07.04.14.08.21.12.07.04.15.08.22.13.29.17.51.34.66.53.15.19.22.4.22.63,0,.27-.09.5-.24.66-.15.16-.36.26-.59.26-.2,0-.39-.08-.55-.22-.16-.14-.29-.35-.37-.61-.04-.15-.05-.28-.07-.38-.02-.1-.04-.16-.11-.16-.03,0-.06.02-.08.06-.02.04-.03.1-.03.18,0,0,0,.03,0,.06,0,.03,0,.08,0,.14,0,.07,0,.15,0,.23,0,.08,0,.17,0,.25,0,.22.11.38.31.5.2.11.48.17.82.17.43,0,.8-.16,1.07-.44.26-.28.42-.67.42-1.12,0-.21-.03-.4-.08-.56-.05-.16-.13-.31-.24-.44h0Z"/>
        <path d="M262.43,7.98c-.1-.03-.15-.07-.18-.13-.03-.07-.03-.17-.03-.33v-.85s0-.85,0-.85v-.92s0-.92,0-.92c0-.12,0-.2.03-.26.03-.06.08-.08.17-.1.1-.02.18-.02.24-.03.06-.01.09-.03.09-.1,0-.03-.01-.06-.03-.08-.02-.02-.05-.03-.08-.03-.04,0-.12.02-.25.03-.13.02-.29.03-.51.03-.22,0-.39-.02-.52-.03-.13-.02-.21-.03-.25-.03s-.07.01-.08.03c-.02.02-.03.05-.03.08,0,.08.04.1.1.11.06,0,.16,0,.26.03.08.02.12.05.14.1.02.05.03.13.03.25v.92s0,.92,0,.92v.85s0,.85,0,.85c0,.17,0,.27-.03.34-.03.07-.09.1-.22.13-.07.02-.15.02-.2.03-.06,0-.1.03-.1.11,0,.04.01.07.04.09.03.02.07.03.12.03.05,0,.13-.01.25-.02.12-.01.28-.02.48-.02.2,0,.36.01.48.02.12.01.2.02.25.02.05,0,.1-.01.12-.03.03-.02.04-.05.04-.08,0-.09-.04-.11-.1-.12-.06-.01-.15,0-.23-.03"/>
        <path d="M235.2,5.79v.85s0,.85,0,.85c0,.17,0,.27-.03.34-.03.07-.09.1-.22.13-.07.02-.15.02-.21.03-.06,0-.09.03-.09.11,0,.04.01.07.04.09.03.02.07.03.12.03.05,0,.13-.01.25-.02.12-.01.28-.02.48-.02.2,0,.36.01.47.02.12.01.19.02.23.02.05,0,.08-.01.11-.03.03-.02.04-.05.04-.08,0-.05-.01-.08-.04-.1-.03-.02-.07-.03-.13-.03-.17,0-.25-.05-.29-.13-.04-.08-.05-.2-.05-.35v-.76s0-.76,0-.76c0-.03,0-.06.03-.08s.04-.03.07-.03h.08c.12,0,.2.02.26.07.06.05.11.14.17.28l.35.87.35.87c.03.09.06.15.09.19.03.04.07.06.15.06.06,0,.11,0,.17-.01.06,0,.11-.01.17-.01.09,0,.17,0,.25.01.08,0,.15.01.22.01.05,0,.08,0,.1-.01.02-.01.03-.03.03-.07,0-.06-.04-.08-.1-.11-.06-.02-.14-.04-.23-.07-.05-.02-.1-.09-.15-.2-.06-.11-.12-.28-.21-.48l-.22-.53-.22-.53c-.03-.08-.07-.16-.1-.23-.04-.07-.08-.13-.13-.19h0s-.03-.03-.04-.04c-.01-.01-.03-.02-.04-.03.25-.06.46-.2.6-.4.14-.2.22-.47.22-.78,0-.36-.11-.66-.32-.87-.21-.21-.53-.33-.94-.33-.17,0-.35.01-.54.02-.18.01-.37.02-.56.02-.13,0-.25,0-.33-.02-.09,0-.15-.02-.18-.02-.07,0-.12,0-.16.02-.03.01-.05.04-.05.09,0,.08.04.1.11.11.07,0,.16,0,.26.03.08.02.12.05.14.1.02.05.03.13.03.25v.92s0,.92,0,.92M236.25,5.62c-.13,0-.22,0-.28-.03-.06-.02-.08-.07-.08-.15v-.73s0-.73,0-.73c0-.13,0-.22.06-.29.05-.06.15-.1.33-.1.25,0,.44.1.57.28.13.18.2.44.2.76,0,.32-.07.56-.21.73-.13.16-.33.25-.6.25"/>
        <path d="M231.6,5.79v.85s0,.85,0,.85c0,.15,0,.26-.03.34-.03.08-.09.12-.2.14-.1.02-.18.01-.24.02-.06,0-.09.03-.09.1,0,.04.01.07.04.09.03.02.07.03.13.03.03,0,.11,0,.23-.02.12,0,.3-.02.53-.02.49,0,.9.02,1.23.03s.57.03.73.03c.11,0,.17,0,.19-.04.03-.04.03-.11.05-.22l.04-.37.04-.37s0-.08.01-.1c0-.02,0-.04,0-.04,0-.01-.01-.03-.03-.04-.02-.01-.03-.03-.05-.03-.06,0-.11.06-.16.16-.05.1-.12.23-.21.37-.12.19-.24.3-.4.36-.15.06-.34.08-.57.08-.23,0-.37-.02-.45-.09-.08-.07-.11-.19-.11-.41v-.79s0-.79,0-.79c0-.03,0-.05,0-.07,0-.02.01-.03.02-.04h0s.02-.02.04-.03c.02,0,.04,0,.07,0h.17s.17,0,.17,0c.07,0,.14,0,.2,0,.06,0,.12.01.17.03h0c.06.02.11.04.16.08.05.04.08.08.12.15.08.15.11.28.14.38.03.1.05.16.12.16.03,0,.05-.01.07-.03.02-.02.03-.06.03-.1,0-.03,0-.1-.01-.21,0-.1-.01-.24-.01-.41,0,0,0-.01,0-.02v-.02c0-.15,0-.3.02-.42.01-.13.02-.24.02-.34,0-.04,0-.07-.02-.08-.01-.02-.04-.02-.07-.02-.08,0-.1.07-.12.16-.02.09-.05.21-.15.31-.03.03-.12.07-.23.09-.11.03-.26.04-.42.04h-.35c-.07,0-.1,0-.12-.03-.02-.02-.02-.06-.02-.12v-.63s0-.63,0-.63c0-.18,0-.3.06-.37.06-.07.16-.1.37-.1.21,0,.39.03.55.07.16.05.28.12.39.22.14.13.2.27.24.38.04.11.07.19.14.19.03,0,.06-.01.07-.05.01-.03.02-.08.02-.15v-.33s0-.33,0-.33v-.03c0-.08,0-.14-.03-.18-.03-.04-.08-.05-.19-.05-.05,0-.2,0-.45.02-.25,0-.6.02-1.05.01-.35,0-.63,0-.82-.02-.19,0-.3-.02-.33-.02-.04,0-.07,0-.1.03s-.03.05-.03.08c0,.08.04.1.1.11s.14,0,.23.03c.07.02.11.05.13.11.02.05.02.13.02.25v.92s0,.92,0,.92"/>
        <path d="M270.74,3.41s-.1,0-.19.01c-.09,0-.2.01-.34.01-.13,0-.24,0-.32-.01-.09,0-.15-.01-.2-.01s-.08,0-.1.03c-.02.02-.03.05-.03.08,0,.08.07.1.16.11.09,0,.19,0,.26.06.07.05.1.16.12.32.02.16.02.38.02.68v.58s0,.58,0,.58v.7c0,.27,0,.49-.03.68-.03.19-.07.35-.17.49-.09.13-.22.23-.37.3-.15.07-.33.11-.54.11-.41,0-.66-.12-.81-.37-.15-.24-.19-.6-.19-1.07v-.43s0-.43,0-.43v-.92s0-.92,0-.92c0-.12,0-.2.03-.25.02-.05.07-.08.14-.1.09-.03.18-.02.25-.03.07,0,.11-.03.11-.11,0-.03,0-.06-.03-.08-.02-.02-.05-.03-.08-.03s-.12.02-.25.03c-.13.02-.3.03-.52.03-.22,0-.39-.02-.52-.03-.13-.02-.21-.03-.24-.03-.03,0-.06.01-.08.03s-.03.05-.03.08c0,.08.04.1.1.1.06,0,.15,0,.25.04.08.02.12.05.14.1.02.05.02.13.02.26v.92s0,.92,0,.92v.43s0,.43,0,.43c0,.24,0,.45.03.63.03.19.09.36.19.51.13.19.3.33.53.42.22.09.5.13.83.13.3,0,.55-.05.76-.15s.37-.24.48-.43c.1-.17.15-.36.18-.57.03-.21.03-.44.03-.71v-.35s0-.35,0-.35v-.59s0-.59,0-.59c0-.39,0-.64.05-.8.04-.16.13-.23.29-.23.08,0,.13,0,.17-.02.04-.02.05-.04.05-.09,0-.04-.01-.07-.04-.08-.03-.02-.07-.03-.12-.03"/>
        <path d="M266.5,3.07s-.06.06-.1.12c-.03.07-.08.14-.15.18-.02.02-.06.03-.1.03-.04,0-.09,0-.15,0-.07,0-.16,0-.26,0-.1,0-.21,0-.34,0h-.47s-.47,0-.47,0c-.11,0-.21,0-.31,0-.09,0-.17,0-.25,0-.09,0-.17,0-.23-.02-.06-.01-.11-.03-.13-.05-.05,0-.07-.07-.09-.13-.02-.06-.04-.13-.09-.13-.05,0-.08.04-.1.11-.02.07-.03.17-.06.28l-.1.39-.1.39s-.02.06-.02.09c0,.02,0,.04,0,.05,0,.05,0,.08.02.09.02.01.04.02.06.02.06,0,.11-.05.17-.13.06-.08.12-.21.21-.36.1-.12.19-.22.3-.28.11-.06.23-.09.39-.09h.22s.06.02.07.05c.02.03.03.07.03.1v1.03s0,1.03,0,1.03v.85s0,.85,0,.85c0,.17,0,.27-.03.33-.03.07-.08.1-.18.13-.08.03-.17.02-.23.03-.06,0-.11.03-.11.11,0,.04.01.07.04.09s.07.03.12.03c.08,0,.19-.01.31-.03.12-.01.27-.03.42-.03.16,0,.3.01.43.03.12.01.22.03.31.03.05,0,.09-.01.12-.03.03-.02.04-.05.04-.08,0-.08-.04-.11-.1-.12-.06,0-.15,0-.24-.04-.1-.03-.15-.07-.18-.14-.03-.07-.03-.16-.03-.33v-.85s0-.85,0-.85v-1.04s0-1.04,0-1.04c0-.03,0-.06.03-.08.02-.02.04-.04.07-.04h.06s.06,0,.06,0c.23,0,.41.01.54.07.13.05.22.15.29.31.05.15.07.28.09.37.03.09.06.15.13.15.04,0,.06-.01.08-.04.02-.03.02-.09.03-.17l.02-.51.02-.51v-.08s0-.06-.02-.09c-.01-.03-.04-.05-.07-.05"/>
        <path d="M271.67,5.85v.85s0,.85,0,.85c0,.16,0,.27-.03.34-.03.07-.09.1-.22.13-.07.02-.15.02-.2.03-.06,0-.1.03-.1.11,0,.04.01.07.04.09.03.02.07.03.12.03.05,0,.13-.01.25-.02.12-.01.28-.02.48-.02.2,0,.36.01.47.02.12.01.19.02.23.02.05,0,.08-.01.11-.03s.04-.05.04-.08c0-.05-.01-.08-.04-.1-.03-.02-.07-.03-.13-.03-.17,0-.25-.05-.29-.13-.04-.08-.05-.21-.05-.35v-.76s0-.76,0-.76c0-.03.01-.06.03-.08.02-.02.04-.03.07-.03h.08c.12,0,.2.02.26.07.06.05.11.14.17.28l.34.87.34.87c.03.08.06.15.09.19.03.04.07.06.15.06.06,0,.11,0,.17-.01.06,0,.11-.01.17-.01.09,0,.17,0,.25.01.08,0,.15.01.22.01.05,0,.08,0,.1-.01.02-.01.03-.03.03-.07,0-.06-.04-.08-.1-.11-.06-.02-.14-.04-.22-.07-.05-.02-.1-.09-.15-.2-.06-.11-.12-.28-.21-.48l-.22-.53-.22-.53c-.03-.08-.06-.16-.1-.23-.04-.07-.08-.13-.13-.19h0s-.02-.03-.04-.04c-.01-.01-.03-.02-.04-.03.25-.06.46-.2.6-.4.14-.2.22-.47.22-.78,0-.36-.11-.66-.32-.86-.21-.21-.53-.33-.94-.33-.17,0-.35.01-.54.02-.18.01-.37.02-.57.02-.13,0-.25,0-.33-.02-.09,0-.15-.02-.18-.02-.07,0-.12,0-.16.02-.03.01-.05.04-.05.09,0,.08.04.1.11.11.07,0,.15,0,.25.03.08.02.12.05.14.1.02.05.03.13.03.25v.92s0,.92,0,.92M272.72,5.68c-.13,0-.22,0-.28-.03-.06-.02-.08-.07-.08-.15v-.73s0-.73,0-.73c0-.13,0-.22.06-.29.05-.06.15-.1.33-.1.25,0,.44.1.57.28.13.18.2.44.2.76,0,.32-.07.56-.21.73-.14.16-.34.25-.6.25"/>
        <path d="M250.06,5.82c0,.72.24,1.36.64,1.82.4.46.96.74,1.6.74.39,0,.72-.08.95-.2.23-.12.37-.29.37-.46,0-.18,0-.33.01-.44,0-.11.01-.18.01-.21,0-.05,0-.09-.02-.12-.02-.03-.04-.04-.06-.04-.05,0-.08.04-.12.12-.04.07-.08.18-.15.32-.12.27-.26.46-.42.6-.17.13-.36.2-.6.2-.38,0-.74-.24-1-.65-.26-.41-.43-.98-.42-1.65h0v-.02c0-.71.17-1.3.44-1.72.27-.41.64-.65,1.06-.65.2,0,.37.06.52.18.15.12.29.29.43.52.06.1.1.17.14.23.04.05.07.08.11.08.02,0,.03-.01.05-.04.01-.02.02-.06.02-.1,0-.23-.01-.41-.03-.55-.02-.13-.04-.22-.07-.25-.05-.05-.19-.13-.39-.18-.2-.06-.46-.1-.74-.1-.64,0-1.22.28-1.64.74-.42.46-.68,1.1-.68,1.81,0,0,0,0,0,0h0Z"/>
        <path d="M259.35,3.4c-.17,0-.32,0-.45,0-.13,0-.24,0-.32,0h-.06s-.06,0-.06,0c-.18,0-.33,0-.43-.01-.1,0-.16-.01-.18-.01-.05,0-.08,0-.11.03-.02.02-.04.04-.04.08,0,.08.04.1.1.11.06,0,.15,0,.25.04.07.02.11.05.13.11.02.05.03.13.03.24v.92s0,.92,0,.92v.82s0,.82,0,.82c0,.17,0,.29-.03.37-.03.08-.09.13-.2.16-.07.02-.13.02-.19.02-.05,0-.09.02-.1.08-.02-.02-.06-.03-.11-.05-.05-.02-.1-.04-.16-.07-.1-.07-.17-.15-.22-.26-.06-.11-.1-.25-.15-.43l-.23-.73-.23-.73-.35-1.11-.35-1.11c-.03-.11-.05-.2-.08-.26-.02-.06-.05-.1-.11-.1-.04,0-.06.02-.08.05-.02.03-.03.08-.05.14l-.37,1.19-.37,1.19-.25.79-.25.79c-.04.14-.08.26-.12.35-.04.1-.09.17-.16.22-.08.06-.17.06-.25.07-.08,0-.13.03-.13.11,0,.03.01.06.03.07.02.02.06.03.1.03.05,0,.12,0,.21-.02.09,0,.19-.02.3-.02.17,0,.31.01.42.02.11.01.2.02.25.02.04,0,.08,0,.1-.02.02-.01.03-.04.03-.07,0-.06-.03-.09-.08-.12-.05-.02-.13-.04-.23-.05-.07-.01-.12-.02-.15-.05-.03-.03-.05-.08-.05-.15,0-.05.01-.12.03-.22.02-.1.05-.22.09-.37l.09-.34.09-.34s.02-.04.03-.05c.02-.01.04-.02.05-.02h.48s.48,0,.48,0c.03,0,.06,0,.07.01.02,0,.03.02.04.05l.15.49.15.49c.02.08.04.15.05.21.01.06.02.1.02.14,0,.07-.02.12-.06.14-.05.03-.13.04-.25.04-.05,0-.09.01-.11.04-.03.02-.04.05-.04.09s0,.06.03.07c.02.01.05.02.1.02.05,0,.14,0,.27-.02.13,0,.31-.02.52-.02.15,0,.28.01.39.02.11.01.19.02.26.02.04,0,.08,0,.1-.01.03,0,.04-.02.05-.05.01.02.03.03.05.05.02.01.05.02.08.02.05,0,.14-.01.26-.03.12-.01.26-.03.44-.03.19,0,.35.01.47.03.12.01.21.03.26.03s.09-.01.12-.03c.03-.02.04-.05.04-.08,0-.09-.04-.11-.11-.12-.07,0-.16,0-.26-.05-.07-.03-.11-.08-.13-.14-.02-.06-.02-.15-.02-.28v-.72s0-.72,0-.72c0-.05,0-.09.01-.11,0-.02.03-.04.06-.04,0,0,.01,0,.02,0,0,0,.02,0,.03.01l.06.03.06.03c.09.04.18.08.26.1.08.02.15.04.22.04.13,0,.26-.03.38-.09.12-.06.23-.14.32-.25.11-.12.2-.27.26-.44.06-.17.1-.37.1-.57,0-.47-.11-.82-.33-1.05-.22-.24-.56-.35-1-.36M255.87,6.15h-.38s-.38,0-.38,0c-.02,0-.03,0-.04-.01-.01,0-.02-.02-.02-.03,0,0,0-.01,0-.03,0-.01,0-.03,0-.05l.03-.1.03-.1.15-.58.15-.58s.01-.03.02-.04c0-.01.02-.02.03-.02,0,0,.02,0,.02.02,0,.01.02.03.02.05l.18.57.18.57.03.1.03.09s0,.03,0,.04c0,.01,0,.02,0,.04,0,.02,0,.03-.02.04-.01.01-.03.02-.05.02M258.91,3.99c0-.13.01-.23.06-.29.05-.06.14-.09.3-.09.19,0,.36.12.49.32.13.2.21.49.21.84,0,.32-.08.58-.2.76-.12.18-.29.28-.46.28-.1,0-.2-.03-.27-.08-.08-.05-.13-.14-.13-.25v-.75s0-.75,0-.75Z"/>
        <path d="M277.4,70.71c-.21-.34-.51-.65-.92-.92-.65-.44-1.33-.61-1.96-.51-.63.1-1.2.46-1.63,1.1-.21.31-.38.58-.51.82-.13.24-.22.44-.27.59h0c-.03.1-.05.18-.05.24,0,.06.02.11.05.13.03.02.06.03.09.03.03,0,.05-.01.06-.03.03-.04.04-.09.05-.14.01-.05.03-.11.06-.16.04-.06.08-.08.13-.08.05,0,.11.03.18.08l1.56,1.05,1.56,1.05c.14.1.23.16.27.22.04.07.04.14,0,.27-.03.07-.08.14-.1.19s-.03.1.04.15c.03.02.07.03.1.02.03-.01.07-.04.1-.09.06-.08.1-.18.16-.28.05-.1.11-.21.18-.31.08-.12.18-.24.3-.37.11-.13.24-.28.36-.46.18-.26.3-.52.39-.77.08-.25.13-.5.12-.75h0c0-.38-.11-.75-.32-1.09M277.25,72.51c-.03.24-.11.47-.26.68-.14.2-.26.29-.41.29-.15,0-.32-.09-.55-.24l-1.07-.73-1.07-.73-.37-.25-.37-.25c-.13-.09-.22-.17-.23-.28-.01-.11.04-.26.2-.49.28-.41.72-.62,1.23-.63.51,0,1.09.18,1.66.57.3.2.55.42.74.65.19.23.34.46.42.7h0c.09.24.12.48.09.71"/>
        <path d="M274.1,67.87h0c0-.08.01-.17.02-.27,0-.1,0-.21.01-.32.02-.47.02-.84.02-1.11,0-.27,0-.43,0-.48,0-.11.02-.17.07-.19.04-.03.1-.03.19-.02h.38s.35.03.35.03c.07,0,.12,0,.15.02.03.01.05.04.05.07,0,.07-.09.1-.21.14-.12.04-.27.1-.41.24-.1.11-.19.24-.24.4-.06.16-.09.35-.1.58,0,.21.02.33.09.39.07.06.2.07.39.08l.67.02.67.02c.07,0,.11,0,.13-.01.02-.02.03-.05.03-.13v-.18s.01-.18.01-.18c0-.17,0-.32-.03-.44-.02-.12-.06-.21-.09-.25-.1-.11-.22-.15-.32-.17-.1-.03-.17-.04-.16-.13,0-.04.01-.06.03-.07.02-.01.05-.02.09-.02.1,0,.22.02.35.03.13.01.28.03.45.04.19,0,.34,0,.46,0,.11,0,.19,0,.23,0,.05,0,.09.01.11.03.02.02.04.04.04.07,0,.07-.07.09-.17.12-.1.03-.25.06-.41.14-.12.06-.19.14-.23.25-.04.11-.05.25-.06.42v.18s-.01.18-.01.18c0,.06,0,.09.02.12s.06.03.12.03l.83.03.83.03c.22,0,.35-.01.43-.1.08-.08.1-.23.11-.47.01-.25,0-.44-.06-.61-.06-.16-.17-.3-.36-.43-.15-.1-.28-.17-.38-.23-.1-.06-.16-.11-.16-.18,0-.02.01-.04.03-.05.02-.02.03-.03.05-.03,0,0,.01,0,.04,0,.02,0,.06,0,.1.01l.39.06.39.06c.13.02.2.02.23.05s.05.09.04.21c0,.16-.03.41-.06.75-.03.34-.06.76-.08,1.26h0s0,.02,0,.02c0,0,0,.01,0,.02,0,.24,0,.42,0,.55,0,.13.01.21.01.24,0,.06-.02.1-.04.13-.02.03-.05.04-.1.04-.07,0-.1-.04-.1-.1,0-.06,0-.15-.01-.25-.01-.12-.06-.18-.14-.21-.08-.03-.2-.04-.36-.05l-1.85-.07-1.85-.07c-.12,0-.2,0-.26,0s-.09.05-.12.13c-.03.09-.03.18-.04.24-.01.06-.04.11-.12.1-.04,0-.06-.01-.08-.04-.02-.02-.03-.06-.03-.1,0-.02,0-.08.02-.19,0-.1.02-.24.03-.43h0Z"/>
        <path d="M274.13,59.23h0s0-.03,0-.05v-.05c0-.3.05-.57.11-.78.06-.21.14-.36.19-.41.03-.03.12-.06.26-.07.14-.02.34-.03.57-.03.05,0,.08,0,.11.02.03.01.04.03.04.05,0,.04-.03.07-.09.11-.06.04-.14.09-.24.15-.24.15-.42.29-.55.45-.12.16-.19.34-.19.55v.06h0c.02.42.28.8.71,1.07.44.27,1.05.44,1.79.44.7,0,1.3-.17,1.73-.45.43-.27.68-.65.68-1.05h0s0-.01,0-.01c0-.25-.07-.45-.21-.63-.14-.17-.34-.32-.62-.44-.15-.07-.26-.11-.34-.15-.08-.04-.12-.08-.12-.13,0-.02.01-.05.04-.06.03-.02.07-.03.13-.03.03,0,.11,0,.22.01.12,0,.27.01.47.01.19,0,.36.14.49.39.13.25.21.59.21,1h0v.03h0c0,.67-.31,1.26-.8,1.67-.49.42-1.16.66-1.92.66-.73,0-1.39-.26-1.87-.69-.48-.42-.78-1.01-.81-1.67h0Z"/>
        <path d="M274.3,55.3h0s0-.06-.01-.08c0-.02,0-.04,0-.05,0-.04.01-.07.03-.09.02-.02.05-.03.08-.03.06,0,.09.03.1.07.01.05.01.11.02.18h0s0,.03,0,.05c0,.02,0,.03,0,.05.02.1.05.15.11.18.06.03.14.03.27.03h.74s.74,0,.74,0c.04,0,.06,0,.08-.03.02-.02.02-.04.02-.08v-.1s0-.1,0-.1v-.82s0-.82,0-.82c0-.03-.01-.06-.03-.07-.02-.02-.05-.02-.08-.02h-.73s-.73,0-.73,0c-.13,0-.21,0-.27.02-.06.02-.08.06-.11.15-.03.11-.02.2-.03.27,0,.07-.03.11-.11.11-.03,0-.06-.01-.08-.03-.02-.02-.03-.05-.03-.09,0-.04.02-.13.03-.26.02-.13.03-.31.03-.54,0-.23-.02-.41-.03-.54-.02-.13-.03-.22-.03-.26,0-.04.01-.07.03-.09.02-.02.05-.03.08-.03.07,0,.1.04.11.1.01.06,0,.15.03.25.02.1.05.15.11.18.06.03.14.03.27.03h1.85s1.85,0,1.85,0c.17,0,.27,0,.34-.03.07-.03.11-.08.14-.18.03-.09.02-.18.04-.25.01-.07.04-.11.13-.11.03,0,.06.02.08.05.02.03.03.08.03.13,0,.05-.01.13-.02.26-.01.13-.03.29-.03.5,0,.21.01.38.02.51.01.13.02.21.02.26,0,.06-.01.1-.03.13-.02.03-.06.05-.1.05-.08,0-.1-.04-.11-.1,0-.06,0-.14-.02-.22-.03-.13-.07-.19-.14-.23-.07-.03-.18-.03-.35-.03h-.87s-.87,0-.87,0c-.03,0-.06,0-.08.02-.02.02-.03.04-.03.07v.82s0,.82,0,.82v.2s.01.06.03.08c.02.02.05.03.08.03h.87s.87,0,.87,0c.17,0,.27,0,.34-.03.07-.03.11-.08.14-.19,0-.02,0-.03.01-.05,0-.02,0-.03,0-.04h0c.01-.07,0-.14.02-.19s.04-.08.12-.08c.03,0,.06.01.08.04.02.03.03.07.03.13,0,.01,0,.03,0,.04s0,.04,0,.06h0c0,.06-.02.15-.03.26,0,.11-.02.25-.02.4,0,.21.01.38.02.51.01.13.02.21.02.26,0,.06-.01.1-.04.13-.02.03-.06.04-.1.04-.08,0-.1-.04-.11-.1,0-.06,0-.14-.02-.21-.03-.13-.07-.19-.14-.23-.07-.03-.18-.03-.35-.03h-1.85s-1.85,0-1.85,0c-.13,0-.21,0-.27.03-.05.02-.08.07-.11.15-.03.11-.02.2-.03.27,0,.07-.03.11-.11.11-.03,0-.06,0-.08-.03-.02-.02-.03-.05-.03-.09s.02-.13.03-.26c.02-.13.03-.31.03-.54,0-.16,0-.29-.02-.4,0-.11-.02-.2-.03-.27"/>
        <path d="M274.29,51.38h0s.02-.13.03-.27c.02-.13.03-.31.03-.53,0-.23-.02-.41-.03-.54-.02-.13-.03-.22-.03-.26,0-.04.01-.07.03-.09.02-.02.05-.03.08-.03.07,0,.1.04.11.1.01.06,0,.15.03.25.02.1.05.15.11.18.06.03.14.03.27.03h1.85s1.85,0,1.85,0c.17,0,.28,0,.35-.03.07-.03.11-.08.14-.19.03-.09.02-.18.03-.25.01-.07.04-.11.13-.11.03,0,.06.01.08.04.02.03.03.07.03.13,0,.05-.01.14-.02.26-.01.13-.02.3-.02.51,0,.21.01.38.02.51.01.13.02.21.02.26,0,0,0,0,0,.01,0,0,0,0,0,.01h0s-.02.08-.04.11c-.02.02-.05.04-.09.04-.05,0-.08-.02-.09-.04-.02-.03-.02-.06-.02-.11,0-.03,0-.05,0-.08,0-.03,0-.06-.01-.09-.03-.13-.07-.19-.14-.23-.07-.03-.18-.03-.35-.03h-1.85s-1.85,0-1.85,0c-.13,0-.21,0-.26.03-.05.02-.08.07-.11.15-.01.05-.02.09-.02.13,0,.04,0,.08,0,.11h0s-.01.08-.03.1c-.02.02-.04.04-.09.04-.03,0-.06,0-.08-.03-.02-.02-.03-.05-.03-.09,0,0,0,0,0,0,0,0,0,0,0,0h0Z"/>
        <path d="M279.07,46.68h0c-.04-.08-.08-.15-.14-.22-.06-.07-.13-.13-.21-.2-.16-.12-.3-.21-.39-.27-.09-.06-.15-.11-.15-.15,0-.02.01-.03.02-.05.01-.01.03-.02.04-.02,0,0,.02,0,.05,0,.02,0,.06,0,.1,0l.38.04.38.04s.06,0,.09.01c.02,0,.04,0,.05,0,.05,0,.08.01.1.04.02.03.04.07.04.12,0,.08,0,.17,0,.27,0,.11-.01.23-.02.37h0c-.01.17-.02.37-.03.58,0,.22-.01.46-.01.73,0,.21.01.38.02.51.01.13.02.21.02.26,0,.06-.01.1-.03.13-.02.03-.05.04-.1.04-.08,0-.1-.04-.11-.1,0-.06,0-.14-.03-.22-.03-.13-.07-.19-.14-.23-.07-.03-.18-.03-.35-.03h-1.85s-1.85,0-1.85,0c-.12,0-.2,0-.26.02-.06.02-.09.06-.11.14-.03.1-.03.18-.04.25,0,.06-.03.1-.11.1-.03,0-.06,0-.08-.03-.02-.02-.03-.04-.03-.08,0-.04.02-.12.03-.24.02-.12.03-.29.03-.51,0-.24-.02-.43-.03-.56-.02-.14-.03-.22-.03-.26,0-.04.01-.07.03-.09.02-.02.05-.03.08-.03.07,0,.1.04.11.1.01.06,0,.15.03.25.02.1.05.15.11.18.06.03.14.03.27.03h1.85s1.85,0,1.85,0c.18,0,.31-.05.4-.13.09-.09.13-.22.13-.39,0-.08,0-.15-.02-.22-.02-.07-.04-.14-.07-.2h0Z"/>
        <path d="M274.58,41.95h.35s.35,0,.35,0c.07,0,.12,0,.15.02.03.01.05.04.05.07,0,.07-.08.1-.2.14-.12.04-.27.11-.41.25-.1.11-.18.24-.23.41-.05.16-.08.36-.08.58,0,.21.03.33.1.39.08.06.2.07.39.07h.67s.67,0,.67,0c.07,0,.11,0,.13-.02.02-.02.03-.05.03-.13v-.18s0-.18,0-.18c0-.16-.02-.32-.05-.44-.03-.12-.06-.21-.1-.24-.11-.11-.23-.14-.33-.16-.1-.02-.17-.04-.17-.12,0-.04,0-.06.03-.08.02-.02.05-.02.09-.02.1,0,.22.01.36.02.13.01.28.02.44.02.19,0,.34,0,.46-.01.12,0,.19-.01.23-.01.05,0,.09.01.11.03.02.02.04.04.04.07,0,.07-.06.09-.17.13-.1.03-.24.06-.4.15-.12.06-.19.15-.22.26-.04.11-.04.25-.04.42v.18s0,.18,0,.18c0,.06,0,.09.03.12.02.02.06.03.12.03h.83s.83,0,.83,0c.22,0,.35-.03.43-.11.07-.09.09-.23.09-.47,0-.25-.02-.44-.08-.6-.07-.16-.18-.29-.38-.42-.15-.1-.29-.16-.39-.22-.1-.06-.17-.11-.17-.17,0-.02.01-.04.03-.05.02-.02.03-.03.05-.03,0,0,.01,0,.04,0,.02,0,.06,0,.11.01l.39.05.39.05c.13.01.2.02.24.05.04.03.05.09.05.2,0,.17-.02.42-.03.77-.02.34-.03.78-.04,1.3,0,.24,0,.42.02.55,0,.13.02.21.02.24,0,.06-.01.11-.03.13-.02.03-.05.04-.1.04-.07,0-.1-.04-.11-.1-.01-.06,0-.15-.02-.25-.02-.12-.06-.18-.14-.21-.08-.03-.2-.03-.36-.03h-1.85s-1.85,0-1.85,0c-.12,0-.2,0-.26.02-.06.02-.09.06-.11.13-.03.09-.02.18-.03.24,0,.06-.03.11-.11.11-.04,0-.06-.01-.08-.04-.02-.02-.03-.06-.03-.1,0-.03,0-.15.02-.35,0-.2.02-.49.02-.86,0-.47,0-.84-.02-1.11,0-.27-.02-.43-.02-.48,0-.11.02-.17.06-.19.04-.03.1-.03.19-.03h.03Z"/>
        <path d="M243.56,76.46h0l.07.22.07.22c.06.19.1.33.16.45.06.12.13.21.23.28.08.05.15.07.21.09.06.02.09.04.09.09,0,.04-.01.07-.04.09-.03.02-.07.02-.13.02-.07,0-.16-.01-.27-.02-.11-.01-.25-.02-.41-.03-.23,0-.41,0-.55.02-.14,0-.23.02-.29.02-.05,0-.08,0-.11-.02-.02-.02-.03-.04-.03-.08,0-.04.02-.07.04-.09.03-.02.07-.04.12-.04.13,0,.22-.01.27-.04.05-.03.07-.08.07-.15,0-.04,0-.09-.02-.15-.01-.06-.03-.13-.05-.22l-.1-.33-.1-.33-.06-.19-.06-.19s-.02-.04-.04-.05c-.02,0-.05-.01-.08-.01h-.5s-.5,0-.5,0c-.02,0-.04,0-.05.02-.02.01-.03.03-.03.05l-.05.18-.05.19-.05.18-.05.18c-.04.16-.07.29-.09.39-.02.1-.03.18-.03.23,0,.08.02.13.05.16.03.03.09.05.16.06.11.02.19.03.24.05.05.03.08.06.08.12,0,.04-.01.06-.04.08-.02.02-.06.02-.1.02-.06,0-.15-.01-.26-.03-.12-.01-.27-.03-.44-.03-.12,0-.22.01-.31.02-.09.01-.16.02-.22.02-.05,0-.09-.01-.11-.03-.02-.02-.04-.05-.04-.08,0-.08.06-.1.14-.11.08,0,.18-.01.26-.08.07-.05.12-.13.17-.23.04-.1.08-.22.13-.37l.09-.28.09-.28.56-1.8.56-1.8c.02-.06.03-.11.05-.14.02-.03.04-.05.09-.05.06,0,.09.04.11.11.03.07.05.16.08.28l.54,1.71.54,1.71ZM248.21,76.47c0,.19-.02.37-.05.54-.03.16-.08.31-.17.46-.11.19-.28.35-.5.45-.22.1-.49.16-.8.16-.34,0-.63-.05-.87-.14-.24-.1-.42-.24-.56-.44-.1-.14-.15-.29-.19-.46-.03-.17-.04-.35-.05-.56h0s0-.06,0-.09c0-.03,0-.06,0-.09v-1.42s0-1.42,0-1.42c0-.13,0-.22-.02-.27-.02-.05-.07-.08-.15-.1-.11-.03-.2-.03-.27-.04-.07,0-.11-.03-.11-.11,0-.03.01-.06.03-.08.02-.02.05-.03.09-.03.04,0,.13.02.26.03.13.02.31.03.54.03.23,0,.41-.02.54-.03.13-.02.22-.03.26-.03s.07.01.09.03c.02.02.03.05.03.08,0,.08-.05.11-.12.12-.07,0-.17,0-.26.03-.08.02-.13.05-.15.11-.02.05-.03.14-.03.27v1.41s0,1.41,0,1.41c0,.03,0,.07,0,.1,0,.03,0,.07,0,.1h0c.01.43.08.75.23.97.16.22.41.33.81.33.21,0,.4-.04.56-.11.16-.07.29-.18.39-.32.07-.11.12-.24.15-.38.03-.14.04-.31.05-.49h0c0-.06,0-.11,0-.18s0-.12,0-.19v-.98s0-.98,0-.98c0-.31,0-.54-.02-.71-.02-.17-.06-.28-.12-.33-.07-.06-.18-.06-.27-.07-.09,0-.16-.02-.16-.11,0-.04.01-.06.04-.08.02-.02.06-.03.1-.03.05,0,.12,0,.21.01.09,0,.2.01.34.01.15,0,.26,0,.36-.01.09,0,.16-.01.2-.01.06,0,.1,0,.13.03.03.02.04.05.04.09,0,.05-.02.08-.06.09-.04.02-.1.02-.18.02-.17,0-.26.07-.31.24-.05.17-.05.44-.05.85v1s0,1,0,1c0,.06,0,.12,0,.18,0,.06,0,.12,0,.17M252.36,76.47c-.01.46-.18.86-.45,1.14-.28.28-.66.45-1.11.45-.36,0-.66-.06-.87-.18-.21-.12-.33-.29-.33-.52,0-.09,0-.18,0-.27,0-.08,0-.17,0-.24,0-.06,0-.11,0-.14,0-.04,0-.06,0-.07,0-.04,0-.08,0-.11,0-.03.01-.06.02-.08.01-.02.02-.04.04-.05.02-.01.03-.02.05-.02.02,0,.04,0,.06.02.02.01.03.03.04.05.02.05.03.12.05.2.01.09.03.19.06.29.08.27.22.49.39.64.17.15.37.23.58.23.24,0,.46-.1.62-.28.16-.17.26-.42.26-.7,0-.07,0-.14-.02-.2-.01-.06-.03-.13-.05-.19-.06-.16-.16-.3-.31-.44-.14-.14-.32-.27-.54-.39-.33-.19-.62-.34-.83-.57-.21-.23-.34-.52-.34-1,0-.42.14-.77.39-1.02.25-.25.61-.39,1.05-.39.23,0,.44.04.6.09.16.05.28.11.32.16.02.02.04.11.05.26.01.15.02.36.02.62,0,.06-.01.1-.03.13-.02.03-.04.04-.08.04-.06,0-.09-.04-.12-.11-.03-.07-.06-.18-.12-.32-.08-.21-.17-.38-.28-.49-.11-.11-.25-.17-.44-.17-.24,0-.43.08-.57.22-.13.14-.21.35-.21.61,0,.21.06.38.18.53.12.15.31.27.57.41.43.23.77.44,1,.72.23.27.35.61.35,1.06v.02s0,.01,0,.02h0ZM255.4,76.48h0v.34s0,.34,0,.34c0,.17,0,.27.03.34.03.07.08.11.19.14.09.03.18.03.25.04.06.01.11.03.11.12,0,.03-.01.06-.04.08-.03.02-.07.03-.13.03-.09,0-.19-.01-.32-.03-.13-.01-.28-.03-.45-.03-.17,0-.32.01-.45.03-.13.01-.24.03-.32.03-.06,0-.1-.01-.13-.03-.03-.02-.04-.05-.04-.1,0-.08.05-.1.11-.11.07,0,.16,0,.25-.03.11-.03.16-.07.19-.14.03-.07.03-.18.03-.35v-.34s0-.34,0-.34v-1.63s0-1.63,0-1.63c0-.03,0-.07-.03-.1-.02-.03-.04-.05-.08-.05h-.23c-.17,0-.3.03-.41.1-.12.07-.21.16-.31.29-.1.16-.17.29-.22.38-.06.09-.11.14-.17.14-.03,0-.05,0-.07-.02-.02-.02-.02-.04-.02-.1,0,0,0-.02.01-.05,0-.03.01-.06.02-.09l.1-.41.1-.41c.03-.12.04-.22.06-.3.02-.07.05-.12.1-.12.05,0,.07.07.09.13.02.07.04.14.09.14.03.03.08.05.14.06.06.01.14.02.24.02.08,0,.16,0,.26,0,.1,0,.2,0,.32,0h.5s.5,0,.5,0c.13,0,.25,0,.36,0,.11,0,.2,0,.27,0,.06,0,.11,0,.16,0,.04,0,.08-.02.1-.03.07-.04.12-.13.15-.2.04-.07.06-.13.1-.13.03,0,.06.02.07.06.01.03.02.07.02.09v.09s-.03.53-.03.53l-.03.53c0,.09-.01.15-.03.18-.02.03-.04.05-.08.05-.07,0-.11-.06-.14-.15-.03-.1-.05-.23-.1-.39-.07-.17-.17-.27-.31-.33-.14-.06-.32-.07-.57-.07h-.06s-.06,0-.06,0c-.03,0-.06.02-.08.04-.02.03-.03.06-.03.09v1.64s0,1.64,0,1.64ZM259.73,76.48l-.13-.33-.13-.33c-.06-.14-.11-.23-.17-.29-.07-.06-.15-.08-.28-.08h-.08s-.06.01-.08.03c-.02.02-.03.05-.03.08v.46s0,.46,0,.46v.34s0,.34,0,.34c0,.16,0,.29.05.37.05.09.13.14.31.14.06,0,.11.01.14.03.03.02.04.06.04.11,0,.03-.02.06-.04.08-.03.02-.07.03-.12.03-.04,0-.12-.01-.24-.02-.12-.01-.28-.02-.5-.02-.21,0-.38.01-.51.02-.13.01-.21.02-.26.02-.06,0-.1-.01-.13-.03-.03-.02-.04-.05-.04-.1,0-.08.04-.1.1-.11.06,0,.14,0,.22-.03.13-.03.19-.07.23-.14.03-.07.03-.18.03-.35v-.34s0-.34,0-.34v-1.51s0-1.51,0-1.51c0-.13,0-.21-.03-.27-.02-.05-.07-.08-.15-.11-.11-.03-.2-.02-.27-.03-.07,0-.11-.03-.11-.11,0-.05.02-.08.05-.1.04-.02.09-.02.16-.02.03,0,.09,0,.18.02.09,0,.21.02.35.02.2,0,.4-.01.59-.02.19-.01.38-.02.56-.02.43,0,.77.13.99.35.22.22.34.53.34.91,0,.32-.08.6-.23.82-.15.22-.37.37-.64.43.08.06.15.14.2.22.05.09.09.18.14.29l.14.33.14.33.1.23.09.23c.09.22.16.39.22.51.06.12.11.19.16.21.09.04.17.05.24.08.06.02.1.05.1.11,0,.04-.01.06-.03.07-.02.01-.06.01-.11.01-.07,0-.14,0-.23-.01-.08,0-.17-.01-.27-.01-.06,0-.12,0-.18.01-.06,0-.12.01-.18.01-.08,0-.13-.02-.16-.07-.03-.04-.06-.11-.09-.2l-.23-.59-.23-.59ZM262.36,76.49h0l.56-1.8.56-1.8c.02-.06.03-.11.05-.14.02-.03.04-.05.09-.05.06,0,.09.04.11.11.03.07.05.16.08.28l.54,1.71.54,1.71.07.22.07.22c.06.19.1.33.16.45.06.12.13.21.23.28.08.05.15.07.21.09.06.02.09.04.09.08,0,.05-.01.07-.04.09-.03.02-.07.02-.13.02-.07,0-.16-.01-.27-.02-.11-.01-.25-.02-.41-.03-.23,0-.41,0-.55.02-.14,0-.23.02-.29.02-.05,0-.08,0-.11-.02-.02-.02-.03-.04-.03-.08s.02-.07.05-.09c.03-.02.07-.04.12-.04.13,0,.22-.01.27-.04.05-.03.07-.08.07-.15,0-.04,0-.09-.02-.15-.01-.06-.03-.13-.06-.22l-.1-.33-.1-.33-.06-.19-.06-.19s-.02-.04-.04-.05c-.02,0-.05-.01-.08-.01h-.5s-.5,0-.5,0c-.02,0-.04,0-.05.02-.02.01-.03.03-.03.05l-.05.19-.05.18-.05.18-.05.18c-.04.16-.07.29-.09.39-.02.1-.03.18-.03.23,0,.08.02.13.05.16.04.03.09.05.16.06.11.02.19.03.24.05.05.03.08.06.08.12,0,.04-.01.06-.04.08-.02.02-.06.02-.1.02-.06,0-.15-.01-.27-.03-.12-.01-.27-.03-.44-.03-.12,0-.22.01-.31.02-.09.01-.17.02-.22.02-.05,0-.09-.01-.11-.03-.02-.02-.04-.05-.04-.08,0-.09.06-.1.14-.11.08-.01.18-.01.26-.08.07-.05.12-.13.17-.23.04-.1.08-.22.13-.37l.09-.28.09-.28ZM266.64,76.49h0v-1.51s0-1.51,0-1.51c0-.12,0-.2-.02-.26-.02-.06-.06-.09-.14-.11-.1-.03-.19-.03-.25-.04-.06,0-.1-.03-.1-.11,0-.03.01-.06.03-.08.02-.02.04-.03.08-.03.04,0,.12.02.24.03.12.02.29.03.51.03.24,0,.43-.02.56-.03.14-.02.22-.03.26-.03.04,0,.07.01.09.03.02.02.03.05.03.08,0,.07-.04.1-.1.11-.06.01-.15,0-.25.03-.1.02-.15.05-.18.11-.03.06-.03.14-.03.27v1.51s0,1.51,0,1.51v.34s0,.34,0,.34c0,.17.05.31.13.39.09.09.22.13.39.13.17,0,.33-.04.46-.11.14-.07.26-.19.37-.34.12-.16.21-.3.27-.39.06-.09.11-.15.15-.15.02,0,.03.01.05.02.01.01.02.03.02.04,0,0,0,.02,0,.05,0,.03,0,.06,0,.1l-.04.38-.04.38s0,.06-.01.09c0,.02,0,.04,0,.05,0,.04-.01.08-.04.1-.03.02-.07.04-.12.04-.17,0-.42-.02-.75-.04-.33-.02-.73-.04-1.21-.04-.21,0-.38.01-.51.02-.13.01-.21.02-.26.02-.06,0-.1-.01-.13-.03-.03-.02-.04-.05-.04-.1,0-.08.04-.1.1-.11.06,0,.14,0,.22-.03.13-.03.19-.07.23-.14.03-.07.03-.18.03-.35v-.34s0-.34,0-.34ZM263.41,74.18s-.02-.04-.02-.05c0-.01-.02-.02-.02-.02,0,0-.02,0-.03.02,0,.01-.02.03-.02.05l-.19.72-.19.72s0,.04,0,.05c0,.01,0,.02,0,.03,0,.01,0,.02.02.03,0,0,.02.02.04.02h.41s.4,0,.4,0c.02,0,.03,0,.05-.02.01-.01.02-.03.02-.04,0-.01,0-.02,0-.04,0-.01,0-.03,0-.04l-.22-.7-.22-.71ZM258.83,75.02c0,.08.02.13.08.16.06.03.15.03.29.03.28,0,.49-.09.63-.26.14-.17.22-.43.22-.77,0-.34-.07-.61-.21-.8-.14-.19-.34-.3-.6-.3-.19,0-.29.03-.34.1-.05.07-.06.17-.06.3v.77s0,.77,0,.77ZM242.09,74.15s-.02-.04-.02-.05c0-.01-.02-.02-.02-.02s-.02,0-.03.02c0,.01-.02.03-.02.05l-.19.72-.19.72s0,.04,0,.05c0,.01,0,.02,0,.03,0,.01,0,.02.02.03,0,0,.02.02.04.02h.41s.41,0,.41,0c.02,0,.03,0,.05-.02.01-.01.02-.03.02-.04,0-.01,0-.02,0-.04,0-.01,0-.03-.01-.04l-.22-.71-.22-.7Z"/>
        <path d="M235.48,75.34c0-.78-.24-1.44-.67-1.91-.43-.47-1.06-.74-1.83-.74-.61,0-1.09.04-1.41.1-.33.06-.5.15-.5.26,0,.04.01.07.03.09.02.02.04.03.06.03.05,0,.1-.02.15-.04.05-.02.1-.04.16-.04.07,0,.11.02.14.07.02.04.03.11.03.19v1.54s0,1.54,0,1.54v.34s0,.34,0,.34c0,.17,0,.28-.03.35-.03.07-.1.11-.23.14-.08.02-.16.02-.22.03-.06,0-.1.03-.1.11,0,.04.01.07.04.1.03.02.07.03.13.03.1,0,.21-.01.32-.03.11-.01.23-.03.36-.03.14,0,.3.02.47.04.18.02.37.04.58.04.6,0,1.09-.13,1.49-.39.39-.25.68-.62.85-1.08h0c.06-.16.11-.33.14-.52.03-.18.05-.38.05-.59M234.61,75.91c-.03.19-.07.37-.13.54h0c-.13.38-.33.69-.6.89-.26.21-.58.32-.94.32-.24,0-.39-.05-.47-.18-.08-.12-.11-.31-.11-.59v-.22s0-.22,0-.22v-1.52s0-1.52,0-1.52c0-.16.02-.27.1-.35.09-.08.24-.11.52-.11.5,0,.91.25,1.21.67.29.42.46,1.01.46,1.69,0,.22-.02.42-.04.61"/>
        <path d="M230.61,77.69c-.06-.02-.13-.04-.21-.09-.11-.07-.18-.16-.23-.28-.06-.12-.1-.27-.16-.45l-.07-.22-.07-.22-.54-1.71-.54-1.71c-.04-.11-.06-.21-.08-.28-.03-.07-.06-.11-.11-.11-.05,0-.07.02-.09.05-.02.03-.03.08-.05.14l-.56,1.8-.56,1.8-.09.28-.09.28c-.05.15-.08.27-.13.37-.04.1-.09.18-.17.23-.08.06-.18.07-.26.08-.08,0-.14.03-.14.11,0,.03.01.06.04.08.02.02.06.03.11.03.06,0,.13-.01.22-.02.09-.01.2-.02.31-.02.17,0,.32.01.44.03.12.01.21.03.26.03.04,0,.08,0,.1-.02.02-.02.04-.04.04-.08,0-.06-.03-.1-.08-.12-.05-.02-.14-.04-.24-.05-.07-.01-.13-.03-.16-.06s-.05-.08-.05-.16c0-.05.01-.13.03-.23.02-.1.05-.24.09-.39l.05-.18.05-.18.05-.19.05-.19s.02-.04.04-.05c.02-.01.04-.02.05-.02h.5s.5,0,.5,0c.03,0,.06,0,.08.01.02,0,.03.03.04.05l.06.19.06.19.1.33.1.33c.02.09.04.16.05.22.01.06.02.11.02.15,0,.07-.02.12-.07.15s-.13.04-.27.04c-.05,0-.09.01-.12.04s-.05.06-.05.09,0,.06.03.08c.02.02.06.02.11.02.05,0,.15,0,.29-.02.14,0,.32-.02.55-.02.16,0,.3.01.41.03.11.01.2.02.27.02.06,0,.1,0,.13-.02.03-.02.04-.05.04-.09,0-.05-.04-.07-.09-.09M228.82,75.67s-.03.02-.05.02h-.41s-.41,0-.41,0c-.02,0-.03,0-.04-.02,0,0-.02-.02-.02-.03,0,0,0-.01,0-.03,0-.01,0-.03,0-.05l.19-.72.19-.72s.01-.04.02-.05c0-.01.02-.02.03-.02,0,0,.02,0,.02.02,0,.01.02.03.02.05l.22.7.22.71s0,.03.01.04c0,.01,0,.03,0,.04,0,.02-.01.03-.02.04"/>
        <path d="M218.64,71.71h0l1.31-.81,1.31-.81c.11-.07.18-.11.21-.16.03-.05.03-.1.01-.18-.03-.1-.09-.18-.11-.25-.03-.06-.03-.11.04-.15.03-.02.06-.02.08-.02.03,0,.05.03.08.06.02.03.05.12.11.24.06.12.14.28.26.48.12.2.23.34.31.44.08.1.14.17.16.2.02.03.03.06.02.09,0,.03-.02.05-.05.07-.06.04-.1.02-.14-.03-.04-.05-.09-.12-.16-.2-.07-.08-.12-.1-.19-.1-.06,0-.14.05-.25.12l-.81.5-.81.5-.76.48-.76.48c-.14.09-.23.15-.28.21-.05.06-.05.13-.02.23.02.09.08.17.1.23.02.06.03.11-.05.16-.03.02-.06.02-.09,0-.03-.01-.06-.04-.09-.09-.03-.04-.06-.12-.12-.24-.06-.11-.14-.26-.25-.44-.11-.18-.21-.31-.29-.42-.08-.1-.13-.17-.16-.21-.03-.05-.04-.09-.04-.13,0-.04.02-.06.06-.09.06-.04.11-.02.15.03.04.05.08.11.14.17.1.09.16.13.24.12.08-.01.17-.07.32-.16l.27-.17.27-.17Z"/>
        <path d="M225.77,73.71c-.18-.61-.63-1.13-1.32-1.47-.27-.13-.51-.24-.72-.32-.21-.09-.4-.15-.56-.2h0c-.16-.04-.29-.06-.39-.06-.1,0-.16.02-.2.06h0s0,0,0,0c0,0,0,0,0,0-.02.03-.02.06-.02.09,0,.03.02.05.04.06.04.02.09.03.15.03.05,0,.11.01.16.04.06.03.09.07.09.12,0,.05-.02.11-.05.19l-.83,1.69-.83,1.69c-.08.16-.12.25-.18.3s-.13.05-.27.03c-.08-.02-.15-.05-.2-.07-.06-.02-.1-.01-.14.06-.02.04-.02.07,0,.1.02.03.05.06.1.09.09.04.19.08.3.12.11.04.22.08.33.13,0,0,.02,0,.03.02.01,0,.02.01.03.02h0c.12.06.24.14.38.23.14.09.29.18.47.27.58.29,1.14.38,1.63.29.5-.09.94-.35,1.3-.78.09-.1.17-.21.24-.33.08-.12.15-.25.21-.38.34-.7.42-1.4.23-2.01M224.81,75.32c-.12.24-.25.45-.39.64-.14.19-.29.34-.44.47h0c-.27.23-.56.36-.85.41-.3.05-.6,0-.89-.15-.08-.04-.15-.08-.2-.13-.05-.04-.09-.09-.12-.14h0c-.04-.08-.05-.17-.02-.28.02-.11.08-.24.15-.4l.77-1.57.77-1.57c.07-.14.13-.24.24-.27.11-.03.27,0,.52.13.45.22.71.62.79,1.13.08.5-.03,1.11-.33,1.72"/>
        <path d="M216.22,67.79h0c.03-.14.09-.26.16-.35.08-.09.18-.15.31-.18.09-.02.18-.03.26-.04.08-.01.16-.02.24-.04.06-.01.11-.02.14-.03.03,0,.06-.02.06-.02.08-.02.15-.02.19,0,.04.01.07.04.08.07.01.07-.04.11-.14.15-.1.04-.23.08-.38.15-.08.04-.15.08-.21.13-.06.05-.12.1-.17.15h0c-.12.12-.2.26-.25.4-.05.14-.06.29-.03.43.05.24.19.43.39.56.2.12.46.17.73.12.24-.05.44-.16.61-.35.17-.19.3-.45.41-.78.02-.06.04-.13.06-.19.02-.06.04-.12.06-.18h0c.1-.27.2-.5.38-.69.18-.19.43-.32.81-.4.4-.08.77-.01,1.05.17.29.19.5.5.59.91h0s0,.02,0,.03c0,0,0,.02,0,.03.04.22.05.44.03.61-.02.17-.06.3-.1.34-.02.02-.1.06-.24.1-.14.04-.35.08-.61.13-.06.01-.1,0-.13,0-.03-.01-.05-.04-.06-.07-.01-.06.02-.09.09-.14.07-.04.17-.09.29-.18.19-.12.34-.24.43-.37.09-.13.12-.28.08-.46,0,0,0,0,0-.01,0,0,0,0,0-.01h0c-.05-.23-.17-.4-.33-.5-.17-.1-.38-.13-.63-.09-.16.03-.29.09-.4.19-.1.1-.19.23-.26.4h0s-.04.1-.06.15c-.02.06-.04.11-.06.17-.14.47-.29.84-.52,1.12-.23.28-.53.46-.98.55-.46.09-.9,0-1.24-.21-.34-.22-.58-.57-.67-1.01-.03-.15-.05-.29-.05-.42,0-.13,0-.25.03-.36h0Z"/>
        <path d="M221.42,64s0-.09,0-.14h0c0-.15-.02-.29-.02-.44,0-.15-.02-.3-.02-.45,0-.14,0-.26.02-.35,0-.09.02-.15.02-.19,0-.07,0-.13-.02-.16-.02-.04-.04-.05-.1-.05-.08,0-.1.04-.11.11,0,.07,0,.16-.03.27-.02.08-.05.12-.11.15-.05.02-.14.03-.26.03h-1.85s-1.85,0-1.85,0c-.17,0-.28,0-.35-.03-.07-.03-.11-.1-.14-.23-.02-.08-.02-.16-.03-.22,0-.06-.03-.1-.11-.1-.04,0-.07.01-.1.04-.02.03-.03.07-.03.13,0,.05.01.14.02.26.01.13.02.3.02.51,0,.19-.01.35-.02.47-.01.12-.02.2-.03.25h0v.02s.01.09.03.12c.02.03.05.04.08.04.05,0,.08-.01.1-.04.02-.03.03-.07.03-.14h0c0-.18.05-.27.14-.31.09-.04.21-.05.37-.05h.8s.8,0,.8,0c.03,0,.06.01.08.03.02.02.03.04.03.08v.08s0,.06,0,.09c0,.03,0,.05-.01.08h0c-.02.06-.05.12-.11.16-.06.05-.13.08-.24.13l-.92.36-.92.36c-.09.04-.16.06-.2.09-.04.03-.07.08-.07.16,0,.06,0,.12.01.18,0,.06.01.12.01.18,0,.09,0,.18-.01.27,0,.08-.01.16-.01.23,0,.05,0,.08.01.1.01.02.03.03.07.03.06,0,.09-.04.11-.1.02-.06.04-.15.08-.24.02-.05.09-.1.21-.16.12-.06.29-.13.51-.22l.56-.23.56-.23c.11-.04.2-.08.29-.13.09-.05.16-.11.22-.2.06.27.21.48.42.63.21.15.5.23.82.23.38,0,.69-.11.91-.34.22-.22.35-.56.35-.99,0-.05,0-.09,0-.14M220.86,64.52c-.19.14-.47.21-.8.21-.34,0-.59-.07-.77-.22-.17-.14-.26-.35-.26-.63h0v-.02h0c0-.13,0-.22.03-.27.03-.05.07-.08.15-.08h.77s.77,0,.77,0c.13,0,.22,0,.29.05.07.05.11.14.11.3h0s0,.02,0,.03,0,.02,0,.03c0,.26-.11.47-.3.6"/>
        <path d="M216.35,59.15h0s0-.06,0-.08c0-.03,0-.06,0-.08,0-.24,0-.42-.02-.55-.01-.13-.02-.21-.02-.24,0-.06.01-.1.03-.13s.05-.04.1-.04c.07,0,.1.04.11.1,0,.06,0,.15.02.25.02.12.06.18.14.21.08.03.2.03.36.03h1.85s1.85,0,1.85,0c.12,0,.2,0,.26-.02.06-.02.09-.06.11-.13.03-.09.02-.18.03-.24,0-.07.03-.11.11-.11.04,0,.06.01.08.04.02.02.03.06.03.1,0,.03,0,.12-.01.27,0,.15-.01.37-.02.64h0s0,.09,0,.14c0,.05,0,.1,0,.15,0,.47,0,.84.01,1.11,0,.26.02.42.02.48,0,.11-.02.17-.06.2-.04.03-.1.03-.18.03h-.38s-.35,0-.35,0c-.07,0-.12,0-.15-.02-.03-.01-.05-.04-.05-.07,0-.07.09-.1.2-.14.12-.04.27-.11.4-.25.1-.11.18-.24.23-.41.05-.16.08-.36.08-.58,0-.21-.03-.33-.1-.39-.08-.06-.2-.07-.39-.07h-.67s-.67,0-.67,0c-.07,0-.11,0-.13.02-.02.02-.03.05-.03.13v.36c0,.17.02.32.04.44.03.12.06.21.1.24.11.11.23.14.33.16s.17.04.17.12c0,.04,0,.06-.03.08-.02.02-.05.02-.09.02-.1,0-.22-.01-.36-.02-.13-.01-.28-.02-.45-.02-.19,0-.34,0-.46.01-.12,0-.19.01-.23.01-.05,0-.09-.01-.11-.03-.02-.02-.04-.04-.04-.07,0-.07.06-.1.17-.13s.24-.06.4-.15c.12-.06.19-.15.22-.26.04-.11.04-.25.04-.42v-.18s0-.18,0-.18c0-.06,0-.09-.03-.12-.02-.02-.06-.03-.12-.03h-.83s-.83,0-.83,0c-.22,0-.35.03-.43.11-.07.09-.09.23-.09.47,0,.25.02.44.08.6.07.16.18.29.38.42.15.1.29.16.39.22.1.06.17.11.17.17,0,.02-.01.04-.03.05-.02.02-.03.03-.05.03,0,0-.01,0-.04,0-.02,0-.06,0-.11-.01l-.39-.04-.39-.04c-.13-.01-.2-.02-.24-.05-.04-.03-.05-.09-.05-.21,0-.16.02-.39.03-.71.02-.32.03-.71.04-1.18h0Z"/>
        <path d="M221.24,55.22c-.07-.03-.07-.13-.09-.23-.02-.09-.06-.18-.2-.18-.04,0-.09,0-.15.02-.06.01-.12.03-.19.05l-.48.17-.48.17-.82.28-.82.28c-.06.02-.11.04-.13.05-.03.01-.04.03-.04.05,0,.02.02.03.05.05.03.02.07.03.13.05l1.18.35,1.18.35c.13.04.23.06.32.08.09.02.16.03.21.03.21,0,.25-.12.27-.24.02-.12.02-.24.14-.24.03,0,.06.01.08.04.02.03.03.07.03.11,0,.04-.01.11-.02.2-.01.09-.02.22-.02.37,0,.17,0,.3.02.39,0,.09.02.15.02.17,0,.05,0,.09-.03.12-.02.03-.04.04-.08.04-.08,0-.1-.05-.11-.11,0-.06,0-.15-.04-.21-.03-.06-.08-.11-.16-.15-.07-.04-.16-.08-.27-.11l-2.16-.71-2.16-.71s-.08-.03-.11-.05c-.02-.02-.04-.04-.04-.06,0-.04.04-.06.11-.09.07-.03.16-.05.26-.09l.33-.11.33-.11,1.57-.54,1.57-.54c.2-.07.37-.12.49-.18.12-.06.21-.11.25-.2.03-.06.03-.14.04-.2,0-.07.03-.12.09-.12.04,0,.07,0,.09.03.02.02.03.05.03.1,0,.02-.01.12-.02.28-.01.17-.02.41-.02.73,0,.12,0,.23.02.32.01.09.02.16.02.2,0,.03,0,.05-.01.07s-.02.03-.04.04c0,0-.01,0-.02,0,0,0-.02,0-.03,0-.01,0-.02,0-.03,0,0,0-.02,0-.02,0"/>
        <path d="M221.21,51.3h0s.02-.03.03-.04c.02,0,.04-.02.07-.02.02,0,.04,0,.06.02.02.01.03.03.04.05h0s0,.02,0,.03c0,.01,0,.02,0,.03,0,.04-.02.13-.03.26-.02.13-.03.31-.03.54,0,.23.02.41.03.54s.03.22.03.26c0,.04-.01.07-.03.09-.02.02-.05.03-.08.03-.07,0-.1-.04-.11-.1-.01-.06,0-.15-.03-.25-.02-.1-.05-.15-.11-.18-.06-.03-.14-.03-.27-.03h-1.85s-1.85,0-1.85,0c-.17,0-.28,0-.35.03-.07.03-.11.08-.14.19-.03.09-.02.18-.04.25-.01.07-.04.11-.13.11-.03,0-.06-.01-.08-.04-.02-.03-.03-.07-.03-.13,0-.05.01-.14.02-.26.01-.13.02-.3.03-.51,0-.21-.01-.38-.02-.51-.01-.13-.02-.21-.02-.26,0-.02,0-.04,0-.05,0-.02,0-.03.01-.04h0s.02-.05.04-.06c.02-.01.04-.02.07-.02.03,0,.05,0,.07.02.02.01.03.03.03.05h0s.01.07.02.11c0,.04,0,.09.02.13.03.13.07.2.14.23.07.03.18.03.35.03h1.85s1.85,0,1.85,0c.13,0,.21,0,.26-.03.05-.02.08-.07.11-.15.02-.07.02-.13.03-.19,0-.05,0-.1.02-.13"/>
        <path d="M216.68,46.59h0c.06.04.15.07.27.08.12.01.28.02.48.02h1.68s1.68,0,1.68,0c.1,0,.17,0,.22-.01.05-.01.09-.03.12-.08h0s.01-.02.02-.03c0-.01.01-.02.02-.04.03-.1.03-.19.04-.26.01-.07.03-.11.11-.11.04,0,.06.01.08.03.02.02.03.05.03.08v.16s0,.16,0,.16v.35s0,.35,0,.35c0,.04,0,.06-.01.08s-.03.04-.07.06l-1.76,1.08-1.76,1.08s0,.03.02.04c.02,0,.04.01.06.01h1.11s1.11,0,1.11,0c.11,0,.2,0,.27,0,.07,0,.12,0,.14,0,.29,0,.46,0,.55-.07.09-.06.11-.18.11-.4,0-.04.01-.08.03-.1.02-.03.05-.04.08-.04.04,0,.07.02.09.06.02.04.03.09.03.15,0,.07,0,.15-.01.25,0,.09-.01.2-.01.31s0,.21.01.29c0,.08.01.15.01.21s-.01.1-.03.13c-.02.03-.05.05-.09.05-.05,0-.07,0-.09-.03-.02-.02-.02-.06-.02-.11v-.08c0-.14-.06-.22-.2-.26-.14-.04-.35-.05-.65-.05h-2.02s-2.02,0-2.02,0c-.05,0-.1-.01-.14-.04-.04-.02-.06-.05-.06-.08,0-.03.01-.05.03-.08.02-.03.05-.05.1-.07l2.17-1.33,2.17-1.33s0-.03-.02-.04c-.02,0-.04-.01-.06-.01h-1.58s-1.58,0-1.58,0c-.3,0-.5,0-.62.06s-.17.14-.17.3c0,.02,0,.05,0,.07,0,.02,0,.05,0,.07,0,.03-.01.06-.03.08-.02.02-.05.03-.09.03-.04,0-.07-.02-.09-.05-.02-.04-.03-.09-.03-.16,0-.07,0-.16.02-.25,0-.09.02-.2.02-.31,0-.04,0-.08,0-.12,0-.04,0-.07,0-.11,0-.05-.01-.11-.01-.15,0-.05,0-.1,0-.14,0-.06.01-.11.03-.14.02-.03.05-.05.09-.05.04,0,.08,0,.1.03.02.02.03.06.03.12v.07c0,.06,0,.11.02.16.02.04.04.08.08.1"/>
        <path d="M220.81,42.46h-1.41s-1.41,0-1.41,0c-.49,0-.87.05-1.12.2-.25.16-.38.42-.38.85,0,.21.04.4.11.56.07.16.18.29.32.39.15.1.32.15.52.17.2.03.44.03.72.03h.98s.98,0,.98,0c.31,0,.54,0,.71-.02.17-.02.28-.06.33-.12.06-.07.06-.18.06-.27,0-.09.02-.16.11-.16.04,0,.07.01.08.04.02.02.03.06.03.1,0,.05,0,.12-.01.21,0,.09-.01.2-.01.34,0,.15,0,.27.01.36,0,.09.01.16.01.2,0,.06,0,.1-.03.13-.02.03-.05.04-.09.04-.05,0-.08-.02-.09-.06-.02-.04-.02-.1-.02-.18,0-.17-.07-.26-.24-.31-.17-.05-.44-.05-.85-.05h-1s-1,0-1,0c-.28,0-.52,0-.75-.03-.22-.03-.42-.08-.6-.19-.19-.11-.35-.28-.45-.5-.1-.22-.16-.49-.16-.8,0-.34.05-.63.14-.87.1-.24.24-.42.44-.56.16-.11.33-.17.53-.2.2-.03.42-.03.67-.03h1.42s1.42,0,1.42,0c.13,0,.21,0,.27-.03.05-.02.08-.07.1-.15.03-.11.03-.2.04-.27,0-.07.03-.11.11-.11.03,0,.06.01.08.03.02.02.03.05.03.09,0,.04-.02.13-.03.26-.02.13-.03.31-.03.54,0,.23.02.41.03.54.02.13.03.22.03.26s-.01.07-.03.09c-.02.02-.05.03-.08.03-.08,0-.11-.05-.12-.12s0-.17-.03-.26c-.02-.08-.05-.13-.11-.15-.05-.02-.14-.03-.26-.03"/>
        <path class="st4" d="M247.67,16.13v5.38s-.02,8.79-.02,8.79v8.79c-.49-.1-1.43-.3-2.25-.47-.82-.17-1.52-.32-1.52-.32l-.65-5.22-.65-5.22s.04-.02.06-.04c.02-.01.04-.03.06-.05h0s.09-.09.12-.14c.03-.05.04-.1.04-.14,0-.11-.09-.19-.17-.24-.08-.05-.15-.08-.15-.08l-.34-2.79-.34-2.79s0-.03,0-.05c0-.02,0-.03,0-.05h0c-.03-.38.01-.7.07-.91.05-.22.12-.34.12-.34,0-.02-.1-.06-.2-.09-.1-.03-.2-.06-.22-.06-.15-.04-.34-.08-.53-.13-.2-.05-.41-.09-.6-.14-.06.01-.13.03-.2.05-.06.02-.12.04-.14.05-.01.06-.03.21-.05.35-.02.13-.03.25-.03.25,0,0-.22-.02-.46-.05-.24-.03-.51-.06-.61-.07-.02-.1-.03-.24-.05-.38-.01-.14-.02-.28-.03-.37,0-.04-.01-.06-.02-.08-.01-.02-.03-.03-.07-.03-.05,0-.48-.04-.91-.08-.43-.04-.87-.07-.92-.07-.02,0-.04,0-.06.01-.02,0-.03.03-.04.06-.01.08-.03.22-.05.38-.02.16-.04.34-.06.47-.1,0-.37.02-.63.04-.26.02-.5.04-.57.05-.03-.13-.05-.28-.07-.44-.02-.15-.05-.31-.07-.45-.05-.01-.13-.04-.21-.07-.08-.03-.16-.05-.2-.06-.03,0-.16,0-.31.02-.15.01-.34.03-.49.03,0-.02-.07-1.6-.14-3.2-.07-1.59-.14-3.19-.15-3.25.04-.01.1-.04.15-.1.05-.05.09-.12.09-.22,0,.04-.03.08-.07.12-.04.04-.1.06-.17.06-.08,0-.14-.04-.19-.1-.04-.05-.06-.11-.06-.15,0-.13.07-.2.15-.23.08-.03.17-.02.22.01-.04-.04-.08-.06-.13-.07-.04-.01-.08-.02-.1-.02-.13,0-.22.06-.28.14-.06.08-.08.17-.08.22,0,.06.02.13.07.2.04.07.11.12.22.14,0,.08,0,1.67,0,3.25,0,1.58,0,3.16-.01,3.22-.29.02-.46.03-.55.04-.09,0-.11.01-.13.03-.03.03-.08.36-.11.69-.04.33-.07.65-.07.68-.1.01-.21.03-.32.04-.12.02-.24.03-.37.05,0,0-.05-.24-.09-.49-.04-.25-.09-.5-.09-.5,0-.02,0-.04-.03-.06-.02-.01-.04-.02-.08-.03-.07-.01-.15-.03-.24-.05-.09-.02-.19-.04-.31-.05-.02,0-.28.05-.56.11-.28.06-.58.13-.65.15,0,0-.02,0-.03.02-.02.01-.03.03-.03.06l-.37,3.43-.38,3.43s-.08.04-.16.1c-.08.06-.17.14-.17.24,0,.08.02.16.07.23.05.07.11.12.16.16l-.55,5.23-.55,5.23s-.7.13-1.53.3c-.83.18-1.77.4-2.26.58l.02-14.2.02-14.2,11.65.02,11.65.02v5.38Z"/>
        <path class="st6" d="M238.36,34.46c-1.16-.02-2.33,1.11-2.19,3.43,0-.01-.86.01-1.73.04-.87.02-1.75.04-1.82.02-.18-.06-.24-.19-.31-.31-.06-.12-.13-.25-.31-.31-.18-.06-.3-.02-.41.02-.11.03-.21.04-.34-.09-.13-.14-.12-.24-.11-.35.01-.11.03-.21-.11-.35-.13-.14-.23-.11-.32-.1-.09.01-.16.01-.23-.16-.02-.05-.02-.09,0-.13.02-.04.07-.06.12-.09.54-.06.59-.21.5-.33-.1-.12-.35-.22-.44-.18-.06.02-.15-.02-.22-.09-.06-.07-.1-.18-.06-.29.03-.08-.06-.25-.17-.41-.1-.17-.21-.33-.21-.38,0-.02,0-.08,0-.14,0-.06,0-.14,0-.2h0s0-.07,0-.09,0-.05.01-.06c.1-.04.11-.21.09-.38-.01-.14-.04-.28-.05-.37,0-.02,0-.04,0-.06,0-.06,0-.11.02-.14.02-.07.04-.1.07-.12.04-.04.07-.07.08-.26,0-.19-.04-.3-.09-.4,0,0,0-.01,0-.02-.04-.1-.08-.21-.08-.38,0-.03.02-.04.05-.05.02,0,.04,0,.06-.01.02,0,.04,0,.05-.01.26-.03.34-.13.34-.23,0-.1-.1-.2-.21-.24-.06-.02-.1-.06-.14-.1-.07-.08-.09-.18-.1-.3,0-.18.04-.4.05-.59.02-.19,0-.18-.03-.18-.02,0-.05,0-.03-.18.02-.19-.02-.31-.05-.43-.03-.12-.06-.25-.05-.43.02-.19.09-.35.16-.48.07-.13.14-.24.15-.32,0-.09.02-.17.04-.23s.05-.13.07-.18h0c.05-.09.11-.16.15-.2.04-.04.08-.06.08-.06.72-.11,1.8-.2,2.84-.26,1.04-.06,2.06-.1,2.64-.11.03,0,.06,0,.09,0,.03,0,.05,0,.08,0,.9.01,2.08.04,3.15.1,1.08.06,2.05.16,2.56.31,0,0,0,.02,0,.06,0,.04.01.1.02.18l.68,6.27c.05.46.09.86.12,1.15.03.29.04.47.04.51,0,.05.03.54.07,1.04.04.5.08,1,.08,1.06.01.09.01.19-.01.27-.03.08-.08.15-.17.17-.04.01-.62-.05-1.19-.12-.57-.07-1.13-.14-1.13-.14.13-2.33-1.04-3.51-2.2-3.54"/>
        <path class="st6" d="M230.39,24.93s-.04-.01-.03-.2c.02-.19.04-.38.05-.58.02-.2.03-.39.05-.58.02-.19.02-.25.02-.31,0-.06,0-.12,0-.31,0-.1.01-.32.03-.59.02-.27.04-.58.08-.88h0c.02-.19.05-.37.08-.52.03-.15.07-.27.11-.33.07-.11.14-.2.23-.28.09-.08.22-.16.41-.24.05.24.09.52.12.74.03.22.05.39.07.39.12-.02.47-.04.8-.06.33-.02.63-.04.65-.04.02,0,.04-.01.06-.03.01-.01.02-.03.03-.05.01-.08.04-.36.07-.64.03-.28.06-.56.07-.67.09,0,.18-.01.25-.02.08,0,.14,0,.2,0,.12,0,.41.05.67.24.27.19.52.52.55,1.05.08,0,.42,0,.8,0,.38,0,.8-.01,1.05-.02.03,0,.07-.02.11-.04.03-.02.06-.05.07-.08.02-.16.05-.4.08-.62.03-.22.06-.44.07-.56.27.02.63.06.93.09.3.03.54.06.55.06,0,0,.03.26.05.54.02.28.05.59.06.69,0,.02.02.04.05.06.03.01.06.02.09.03.18.03.43.06.67.1.24.04.48.08.65.11.04,0,.06,0,.08-.01.02-.01.03-.03.03-.06.03-.2.06-.47.09-.71.03-.24.06-.44.07-.47.09.02.26.06.45.11.19.05.38.1.5.12.01.04.03.18.06.39.02.2.05.47.08.75h0c.03.29.06.6.08.88.02.28.04.55.05.74l-.21-.06-.21-.06c-.06-.01-.11,0-.15.04-.04.03-.07.08-.07.14l.05.81.05.81.34.15.34.15s.04.27.08.64.09.86.12,1.29c-.43-.09-1.28-.2-2.28-.29-1-.09-2.16-.16-3.18-.16-1.11-.02-2.14,0-3.06.04-.92.05-1.73.12-2.41.2-.08-.01-.2,0-.3,0-.1,0-.18-.04-.18-.13.04-.11,0-.18-.05-.25-.05-.07-.1-.14-.09-.25.02-.19-.04-.22-.09-.25-.05-.03-.11-.06-.09-.25.02-.19.04-.23.06-.27.02-.04.05-.08.06-.27.02-.19,0-.19-.03-.2"/>
        <path d="M235.4,22.76h.81s.81,0,.81,0c.06,0,.12.02.15.06.04.04.06.09.06.15v.81s0,.81,0,.81c0,.06-.02.11-.06.15-.04.04-.09.06-.15.06l-.11-.17-.11-.17h-.63s-.63,0-.63,0v-.62s0-.62,0-.62l-.18-.13-.18-.13c0-.06.02-.12.06-.15.04-.04.09-.06.15-.06M231.64,24.91l-.29-.1-.29-.1h-.16s-.16,0-.16,0v-.38s0-.38,0-.38l-.13-.27-.12-.27s0-.07.02-.09c.02-.02.04-.04.06-.04l.53-.17.53-.17s.04,0,.06.03c.02.02.02.05.02.08v.85s0,.85,0,.85c0,.03,0,.07-.02.09-.02.02-.04.04-.06.04"/>
        <polygon class="st6" points="231.66 20.11 231.76 20.13 231.86 20.15 231.94 20.61 232.03 21.06 231.91 21.05 231.79 21.05 231.73 20.58 231.66 20.11"/>
        <polygon class="st6" points="235.08 19.62 235.18 19.65 235.27 19.68 235.36 20.23 235.44 20.78 235.32 20.78 235.2 20.78 235.14 20.2 235.08 19.62"/>
        <polygon class="st1" points="239.45 15.78 240.75 16.7 242.06 17.62 242.21 15.56 242.36 13.51 240.91 14.65 239.45 15.78"/>
        <polygon class="st1" points="238.55 16.51 237.28 17.51 236.01 18.5 238.67 18.47 241.33 18.44 239.94 17.47 238.55 16.51"/>
        <polygon class="st1" points="234.92 17.95 236.29 16.9 237.66 15.86 236.19 14.82 234.73 13.78 234.82 15.87 234.92 17.95"/>
        <path class="st1" d="M238.54,15.15s.79-.65,1.59-1.26c.79-.61,1.59-1.22,1.59-1.22l-3.06.18-3.06.18s.74.54,1.47,1.08c.74.54,1.47,1.06,1.47,1.04"/>
        <path class="st8" d="M248.29,10.76l11.86.02,11.86.02-.05,28.33c-1.34-.36-2.57-.65-3.95-.89-1.38-.23-2.89-.41-4.79-.51-.31-.48-.6-1.03-.82-1.64-.21-.61-.34-1.28-.33-2h0c0-.17.02-.34.04-.51.02-.17.05-.35.09-.53.02-.02.06-.04.11-.06.05-.02.1-.04.14-.04.2,0,.2.07.19.13,0,.07-.02.13.19.13.2,0,.24.03.28.06.04.03.08.06.28.06.2,0,.24-.04.28-.07.04-.04.08-.07.28-.07.2,0,.24.06.28.12.04.06.08.12.28.12.21,0,.24-.12.26-.26.03-.14.05-.29.25-.34.2-.05.27,0,.34.04.07.05.15.09.34.04.2-.05.26-.05.31-.07.05-.02.09-.05.26-.17.16-.12.16-.22.16-.31,0-.09,0-.19.16-.31.16-.12.22-.11.26-.11.04,0,.07-.02.18-.19.11-.17.18-.19.26-.21.07-.02.15-.04.26-.21.11-.17.1-.23.07-.29-.03-.06-.07-.13-.04-.33.04-.2.19-.37.35-.54.15-.17.31-.33.35-.54.04-.2-.02-.27-.1-.34-.08-.07-.17-.14-.21-.35-.04-.2,0-.25.05-.31s.09-.1.05-.31c-.03-.19-.05-.25-.09-.3-.03-.05-.08-.08-.17-.23h0s0-.02-.01-.03c0,0,0-.02-.01-.02-.1-.18-.15-.2-.2-.21-.05-.02-.1-.03-.2-.21-.1-.18-.08-.25-.08-.32,0-.06,0-.12-.16-.26-.15-.14-.2-.14-.24-.15-.05,0-.09-.01-.24-.15-.15-.14-.22-.1-.29-.04-.07.05-.16.12-.35.04-.19-.08-.16-.24-.13-.4.03-.16.05-.32-.13-.4-.05-.02-.09-.03-.13-.03-.04,0-.07,0-.09.02.05-.17-.01-.21-.06-.26-.05-.05-.1-.1-.04-.29.06-.2.08-.22.09-.25.02-.03.03-.05.09-.25.06-.2.13-.21.19-.22.06-.01.12-.02.19-.22.06-.2.09-.24.08-.3,0-.05-.03-.1-.07-.31-.04-.2-.16-.23-.28-.26-.12-.03-.25-.06-.29-.26-.04-.2.06-.27.14-.34.08-.07.15-.12.04-.3-.11-.18-.19-.18-.28-.18-.09,0-.18,0-.28-.18-.08-.14-.06-.23-.03-.31.04-.08.08-.14.06-.22h0s-.02-.04-.04-.06c-.02-.02-.04-.05-.08-.07-.16-.13-.2-.15-.24-.17-.04-.02-.08-.04-.24-.17-.16-.13-.18-.22-.21-.3s-.07-.13-.26-.2c-.19-.07-.34-.26-.42-.48-.08-.22-.1-.48-.04-.68.06-.2.05-.22.05-.24,0-.02-.01-.04.04-.24.06-.2.05-.24.01-.29-.03-.05-.09-.1-.13-.3-.04-.2,0-.28.04-.36s.08-.15.04-.36c-.04-.2-.15-.22-.29-.23-.13,0-.28,0-.4-.18-.11-.17-.15-.22-.19-.27-.04-.05-.08-.1-.19-.27-.11-.17-.05-.3,0-.43.05-.12.08-.23-.09-.34-.17-.11-.23-.13-.3-.15-.06-.02-.13-.03-.3-.15-.17-.12-.25-.05-.34.03-.09.08-.18.18-.38.14-.2-.04-.26-.09-.32-.13s-.12-.09-.32-.13c-.2-.04-.24-.07-.29-.08-.04-.01-.09,0-.29.04-.2.04-.3-.08-.39-.21-.09-.12-.19-.25-.39-.21-.2.04-.22.18-.23.34,0,.16-.01.33-.18.45-.17.11-.31.02-.44-.06-.13-.09-.27-.18-.44-.06-.17.11-.23.18-.28.26-.05.08-.08.18-.2.35.24.05.34.2.33.38,0,.18-.09.39-.21.56-.12.17-.3.32-.46.48-.16.16-.31.32-.35.53-.04.2-.02.25.02.3s.11.09.17.29c.06.2.07.21.09.23.02.01.03.03.09.23.06.2-.04.24-.14.29-.1.05-.2.09-.14.29.06.2.06.21.07.24,0,.02.01.05.07.26-.17.06-.2.12-.23.17-.03.05-.07.11-.26.17-.19.07-.19.15-.18.24s.03.21-.12.34c-.12.1-.18.13-.22.15-.04.02-.07.02-.12.05-.02.01-.04.03-.07.05-.03.02-.06.05-.1.08-.16.13-.16.16-.14.2.02.04.05.09-.06.27-.11.18-.23.15-.36.13-.13-.02-.26-.05-.36.13-.11.18-.06.24,0,.31.06.07.14.14.1.34-.04.2-.13.24-.22.28-.09.04-.18.07-.22.28-.04.2-.12.28-.19.35-.06.07-.1.14-.04.34.06.2,0,.64-.12,1.07-.12.43-.29.84-.44.98-.15.14-.11.25-.06.36.05.11.1.22-.06.35-.15.14-.28.09-.39.06-.11-.03-.21-.06-.31.12-.1.17-.05.25,0,.32.05.07.11.14.05.29h0s0,.02-.01.03c0,0,0,.02-.02.03-.1.18-.22.19-.33.21-.11.02-.2.04-.24.25-.03.2,0,.25.04.3.04.05.07.1.04.3-.04.2-.1.28-.15.37-.05.08-.08.16-.04.36.04.2.05.4.06.6s.02.4.06.6c.04.2.08.29.14.37.06.08.14.15.25.32.11.17.2.18.3.19.09.01.19.02.3.19.06.09.09.15.12.19.03.04.04.07.06.09.02.02.04.04.08.07.04.03.09.07.18.12.17.12.26.08.36.05.1-.03.19-.07.36.05.17.12.19.17.21.2.03.03.06.05.26.09.2.05.24.16.28.27.04.11.08.22.28.27.1.02.17.04.21.05.05.01.08.02.11.02.03,0,.06,0,.11,0,.05,0,.11,0,.22,0,.21,0,.24-.02.28-.04s.08-.04.28-.04c.2,0,.28-.07.35-.14.07-.07.15-.14.34-.14.04.18.08.36.1.53.02.17.03.35.04.51h0c.02.75-.14,1.44-.38,2.06-.24.62-.57,1.17-.9,1.66-1.57.14-3.28.37-4.73.62-1.45.24-2.65.49-3.19.68l.04-28.33Z"/>
        <path class="st10" d="M257.76,31.4c-.2-.17-.49-.28-.6-.46-.1-.18-.58-.17-.9-.27-.32-.09-.49-.28.02-.84.14-.15.07-.33-.07-.51-.13-.18-.32-.37-.43-.54-.1-.18.11-.25.33-.33.22-.08.43-.15.33-.33-.03-.06-.05-.11-.06-.17,0-.05,0-.11,0-.16h0c.01-.1.05-.19.06-.29.01-.1,0-.2-.06-.32-.1-.18-.03-.38-.06-.5-.03-.11-.15-.14-.65.05-.44.11-.55-.11-.55-.36s.11-.52.11-.52c.52-.11.6-.41.6-.7s-.08-.56.11-.62c.69-.22,1-.37,1.1-.5.1-.13,0-.24-.16-.38-.3-.28-.22-.69-.03-.98.19-.29.48-.45.58-.23.25.5.61.57.86.49.26-.08.41-.32.24-.44-.3-.21-.36-.4-.32-.56.04-.16.2-.3.35-.43h0c.1-.08.21-.16.27-.24.06-.07.09-.14.04-.21-.12-.17-.2-.22-.28-.28-.08-.05-.16-.11-.28-.28-.12-.17.04-.26.19-.34.16-.09.31-.18.19-.34-.12-.17-.27-.18-.38-.21-.11-.03-.19-.06-.17-.26.02-.2.03-.31.04-.41.01-.11.02-.21.04-.41.02-.2.14-.34.26-.47.12-.13.23-.26.26-.47.02-.2.12-.23.22-.25.1-.02.2-.04.22-.25.02-.2.07-.22.12-.25.05-.02.09-.04.11-.25.01-.2.17-.11.33-.02.16.09.32.19.33-.02,0-.05.11-.08.25-.08.15,0,.34.05.51.16.17.11.28-.06.39-.24.11-.18.22-.36.39-.24.17.11.14.22.1.34-.05.12-.1.25.01.43.11.17.15.22.19.27.04.05.08.1.2.27.11.17.27.17.4.18.13,0,.25.03.29.23.04.2,0,.28-.04.36-.04.08-.08.15-.04.36.04.2.1.25.14.3.04.05.05.1-.01.29-.06.2-.05.22-.05.24,0,.02.01.04-.05.24-.06.2-.04.45.04.68.08.22.23.41.42.48.19.07.23.13.26.2.03.08.05.17.21.3.12.09.17.13.21.15.04.02.06.03.1.06h0s.04.03.07.05c.03.02.06.05.11.09.16.13.13.21.08.3-.05.09-.11.19,0,.37.11.18.19.18.28.18.09,0,.18,0,.28.18.11.18.04.24-.04.3-.08.06-.18.14-.14.34.04.2.16.23.28.26.12.03.25.06.29.26.04.2.06.25.07.31,0,.05-.02.1-.08.3-.06.2-.12.21-.19.22-.06.01-.13.02-.19.22-.06.2-.08.22-.09.25-.02.03-.03.05-.09.25-.06.19-.01.24.04.29.05.05.11.09.06.26.02-.01.05-.02.09-.02.04,0,.08,0,.12.03.19.08.16.24.14.4-.03.16-.05.32.13.4.19.08.27.01.34-.04.07-.05.14-.09.29.04.15.14.2.14.24.15.05,0,.09.01.24.15.15.14.16.19.16.26,0,.06-.02.14.08.32.04.07.07.11.09.14.03.03.05.05.07.06h0s.06.02.1.04.08.07.14.18c.1.18.15.22.19.27.04.05.06.11.09.31.03.2-.08.2-.19.2-.11,0-.23,0-.19.2.03.2.15.38.25.56.1.18.18.36.14.56-.16-.09-.26.09-.35.31-.09.23-.17.5-.28.62-.39.41-.73.74-.99.92-.26.18-.45.21-.53.02-.08-.19-.3.03-.52.25s-.44.44-.52.25c-.08-.19-.22-.18-.36-.18-.14,0-.28,0-.36-.18-.08-.19-.36-.11-.65-.04-.28.07-.57.15-.65-.04-.08-.19-.39,0-.69.18-.3.18-.61.37-.69.18-.08-.19-.33-.05-.58.08-.25.13-.5.27-.58.08-.08-.19-.56-.2-.99-.2-.43,0-.82,0-.71-.18.25-.41.13-.64-.07-.81"/>
        <path class="st10" d="M258.99,35.77c.1-.72.16-1.39.2-1.69h0s.01-.09.02-.11c0-.03,0-.04.01-.04.01,0,.04.04.1.07.06.03.17.06.36.04,0-.03,0-.02.03-.01.02.01.06.04.1.06h0s.07.03.11.04c.04,0,.07,0,.1-.04h0s.03-.05.05-.09c.01-.04.02-.1.02-.16.1-.01.21-.02.29-.02.08,0,.13,0,.13,0,0,0,.02.05.04.11.02.06.06.12.1.17h0s.02.03.03.03c0,0,.02.01.03.02.02,0,.04,0,.05,0,.02,0,.03-.03.05-.05h0s.04-.07.05-.1c.02-.03.03-.05.05-.05.02,0,.09.03.16.06.07.03.15.07.2.1h.02s.02,0,.02,0c.06-.04.08-.12.11-.17.03-.05.07-.07.16.02,0,.02,0,.05,0,.07,0,.02,0,.05,0,.07h0c-.05.84.13,1.55.36,2.16.23.6.5,1.09.61,1.49h-1.99s-1.99-.02-1.99-.02c.2-.46.34-1.22.44-1.94"/>
        <path class="st9" d="M271.93,63.65c0,.1-.01.2-.02.3-.06.74-.24,1.45-.51,2.11-.27.66-.64,1.27-1.09,1.81-.66.8-1.48,1.45-2.42,1.91s-1.99.71-3.1.7l-16.59-.02.04-30.44,23.72.03-.03,23.3c0,.1,0,.2,0,.3"/>
        <path d="M270.07,49.29c-.18-.73-.46-1.41-.77-1.77,0,0-.1-.11-.24-.27-.15-.16-.35-.37-.56-.58h0c-.13-.13-.26-.26-.39-.37-.13-.11-.25-.2-.35-.27-.32-.2-.79-.2-1.28-.2-.49,0-1,.03-1.4-.1-1.32-.44-2.59-.74-3.53-.92-.94-.18-1.55-.25-1.55-.25l-1.22-.61-1.22-.61c.32-.13.37-.7.33-1.23-.05-.53-.19-1.02-.27-1-.13.04-.13.48-.3.89-.17.41-.5.8-1.29.73-.03.03-.19-.07-.41-.18-.22-.11-.5-.24-.76-.26-.25-.02-.56.05-.8.11-.24.07-.42.14-.42.14-.08,0-.18,0-.3,0-.12-.01-.27-.04-.44-.1-.3-.1-.4-.51-.44-.85-.05-.35-.04-.63-.13-.51-.1.14-.36.65-.39,1.2-.03.56.17,1.16,1,1.49,0,0-.02.02-.04.07-.02.05-.04.12-.05.2-.01.09-.01.19-.01.28,0,.08,0,.14,0,.14l-.2.77-.2.77s-.11.09-.22.14c-.1.05-.2.1-.2.15,0,.05,0,.11.01.16,0,.05.02.1.03.15h0c.08.31.29.58.56.77.28.19.63.31,1.02.31.13,0,.27-.01.39-.04.13-.03.25-.06.36-.12h0s0,0,0,0c.15-.09.2.08.22.34.02.26,0,.6.05.85.02.14.08.25.17.39.09.14.21.3.34.57.14.26.19.44.19.59,0,.15-.04.26-.1.39-.08.19-.08.27-.1.33s-.06.09-.24.16c-.06.02-.11.05-.15.08-.04.03-.08.06-.11.09h0c-.1.1-.13.21-.16.35-.03.14-.04.31-.1.5-.07.24-.17.49-.19.67-.02.18.05.3.32.3h3.86s3.86.01,3.86.01c.1,0,.05.19.06.37.01.19.08.37.43.37.68,0,1.24,0,1.78,0,.55,0,1.08,0,1.68.02.36.04.64.1.86.09.23-.01.4-.1.55-.34.17,0,.7-.02,1.24-.31.54-.29,1.1-.86,1.33-1.96,0,0,0-.02,0-.03,0,0,0-.02,0-.03h0c.11-.57.03-1.35-.15-2.09"/>
        <path d="M268.33,63.77c-.18-.73-.46-1.41-.77-1.77,0,0-.1-.11-.24-.27-.15-.16-.35-.37-.56-.58h0c-.13-.13-.26-.26-.39-.37-.13-.11-.25-.2-.35-.27-.32-.2-.79-.2-1.28-.2-.49,0-1,.03-1.4-.1-1.32-.44-2.59-.74-3.53-.92-.94-.18-1.55-.25-1.55-.25l-1.22-.61-1.22-.61c.32-.13.37-.7.33-1.23-.05-.53-.19-1.02-.26-1-.13.04-.13.48-.3.89-.17.41-.5.8-1.29.73-.03.03-.19-.07-.41-.18-.22-.11-.5-.24-.76-.26-.25-.02-.56.05-.8.11-.24.07-.42.14-.42.14-.08,0-.18,0-.3,0-.12-.01-.27-.04-.44-.1-.3-.11-.4-.51-.44-.85-.05-.35-.04-.63-.13-.51-.1.14-.36.65-.39,1.2-.03.56.18,1.16,1,1.49,0,0-.02.02-.04.07-.02.05-.04.12-.05.2-.01.09-.01.19-.01.28,0,.08,0,.14,0,.14l-.2.77-.2.77s-.11.09-.22.14c-.1.05-.2.1-.2.15,0,.05,0,.11.01.16,0,.05.02.1.03.15h0c.08.31.28.58.56.77.28.19.63.31,1.02.31.13,0,.27-.01.39-.04.13-.03.25-.06.36-.12h0s0,0,0,0c.15-.09.2.08.22.34.02.26,0,.6.05.85.02.14.08.25.17.39.09.14.21.3.34.57.14.26.19.45.19.59,0,.15-.04.26-.1.39-.08.19-.08.27-.1.33s-.06.09-.24.16c-.06.02-.11.05-.15.08-.04.03-.08.06-.11.09h0c-.1.1-.13.21-.16.35-.03.14-.04.31-.1.5-.07.24-.17.49-.19.67-.02.18.05.3.32.3h3.86s3.86.01,3.86.01c.1,0,.05.19.06.37.01.19.08.37.43.37.68,0,1.24,0,1.78,0,.55,0,1.08,0,1.68.02.36.04.64.1.86.09.23-.01.4-.1.55-.34.17,0,.7-.02,1.24-.31.54-.29,1.1-.86,1.33-1.96,0,0,0-.02,0-.03,0,0,0-.02,0-.03h0c.11-.57.03-1.35-.15-2.09"/>
        <path class="st0" d="M253.94,42.84c.12-.07.38-.16.64-.19.26-.03.51.01.61.21-.23,0-.65.37-.96.55-.31.18-.51.17-.3-.57"/>
        <path class="st0" d="M255.91,46.28c-.13.03-.24.05-.34.1-.1.04-.18.1-.27.2-.01.01-.02.02-.03.03,0,.01-.02.02-.03.03h0c-.66.75-1,.82-1.15.69-.15-.13-.09-.47.04-.54.03-.02.06-.04.09-.06.03-.03.05-.06.07-.09h0c.04-.08.04-.17-.03-.23-.07-.06-.22-.1-.47-.09l.41-.38.41-.38c.06.02.18-.25.28-.51.1-.26.2-.52.23-.45.18.43.45.37.59.14.14-.23.15-.63-.19-.9h.06s.05-.03.05-.03c.05.08.17.25.28.39.1.14.19.26.19.25,0-.02.09.01.19.05.1.04.21.1.23.13.27.29.25.67.1.99-.15.32-.44.59-.71.65"/>
        <path class="st0" d="M259.71,46.95c-.03.09-.09.17-.18.24-.41.32-.86.76-1.15,1.19-.29.43-.41.86-.17,1.13.27.3.53.63.73.96.2.32.34.64.35.88v.03c0,.08-.03.13-.09.17-.05.04-.12.07-.19.11-.09-.1-.45-.23-.92-.28-.47-.05-1.05-.02-1.58.2-.07-.05-.12-.09-.15-.13-.03-.04-.05-.08-.06-.11h0c-.04-.22.48-.29,1.02-.33.54-.04,1.09-.04,1.12-.11.18-.55-.28-.96-.82-1.39-.53-.42-1.13-.86-1.21-1.43-.05-.41.11-.67.33-.88.22-.21.51-.36.72-.57h0c.1-.09.17-.19.22-.32.04-.13.05-.27,0-.45.2-.55.67-.56,1.1-.33.44.23.84.7.92,1.1.02.11.02.21,0,.3"/>
        <path class="st0" d="M264.94,50.29c-.1.22-.14.41-.15.59-.01.18,0,.34.02.48h0c.04.24.09.43.03.55-.06.12-.23.18-.64.18-1.31.5-1.72.5-1.65.34.08-.16.64-.47,1.26-.57.12-.02.26-.07.38-.16.13-.08.24-.2.32-.35h0c.03-.06.06-.13.08-.21.02-.08.03-.16.02-.24-.03-.98.07-2.15.47-3,.41-.85,1.12-1.37,2.33-1.07.43.11,1.01.89,1.44,1.59.43.7.7,1.33.52,1.12-.34-.37-.85-.63-1.28-.8-.43-.17-.76-.24-.76-.24s-.5.22-1.04.55c-.55.33-1.14.78-1.34,1.22"/>
        <path class="st0" d="M269.58,51.37h0c0,.08-.02.17-.05.28-.03.11-.07.24-.12.37-.16.34-.43.57-.74.71-.31.14-.67.19-.99.16-.02-.03-.03-.05-.04-.07s-.02-.04-.03-.05c-.05-.02-.08-.05-.1-.07-.02-.03-.05-.06-.08-.09-.22-.2-.53-.13-.79,0-.25.12-.45.28-.45.28.18-.17.32-.28.48-.37.16-.08.33-.14.57-.18.21-.04.35-.01.45.04.1.05.17.14.24.23.13,0,.26.02.41,0,.15-.03.32-.11.53-.32.13-.13.25-.3.35-.46.11-.16.19-.32.26-.44h0c.04-.08.07-.14.09-.19.02-.05.03-.07.03-.07,0,0,0,.02,0,.07,0,.04,0,.11-.01.19"/>
        <path class="st0" d="M252.2,57.33c.12-.07.38-.16.64-.19.26-.03.51.01.61.21-.23,0-.65.37-.96.55s-.51.17-.3-.57"/>
        <path class="st0" d="M254.17,60.76c-.13.03-.24.05-.34.1-.1.04-.18.11-.27.21-.01.01-.02.02-.03.03,0,.01-.02.02-.03.03h0c-.66.75-1,.82-1.15.69-.15-.13-.09-.47.04-.54.03-.02.06-.04.09-.06.03-.03.05-.05.07-.09h0c.04-.08.04-.17-.03-.23-.07-.06-.22-.1-.47-.09l.41-.38.41-.38c.06.02.18-.25.28-.51.1-.26.2-.52.23-.45.18.43.45.37.59.14s.15-.63-.19-.9h.06s.05-.03.05-.03c.05.08.17.25.28.39.1.14.19.26.19.25,0-.02.09.01.19.05.1.04.21.1.23.13.27.29.25.67.1.99-.15.32-.44.59-.71.65"/>
        <path class="st0" d="M257.97,61.44c-.03.09-.09.17-.18.24-.41.32-.86.76-1.15,1.19-.29.43-.41.86-.17,1.13.27.3.53.63.73.96.2.32.34.64.35.88v.03c0,.08-.03.13-.09.17-.05.04-.12.07-.19.11-.09-.1-.45-.23-.92-.28-.47-.05-1.05-.02-1.58.2-.07-.05-.12-.09-.15-.13-.03-.04-.05-.08-.06-.11h0c-.04-.22.48-.29,1.02-.33.54-.04,1.09-.04,1.12-.11.18-.55-.28-.97-.82-1.39-.53-.42-1.13-.86-1.21-1.43-.05-.41.11-.67.33-.88.22-.21.51-.36.72-.57h0c.1-.09.17-.19.22-.32.04-.12.05-.27,0-.45.2-.55.67-.56,1.1-.33.44.23.84.7.92,1.1.02.11.02.21,0,.3"/>
        <path class="st0" d="M263.2,64.78c-.1.22-.14.41-.15.59s0,.34.02.48h0c.04.24.09.43.03.55-.06.12-.23.18-.64.18-1.31.5-1.72.5-1.65.34.08-.16.64-.47,1.26-.57.12-.02.26-.07.38-.16.13-.08.24-.2.32-.35h0c.03-.06.06-.13.08-.21s.03-.16.02-.24c-.03-.98.07-2.15.47-3,.41-.85,1.12-1.37,2.33-1.07.43.11,1.01.89,1.44,1.59.43.7.7,1.33.52,1.13-.34-.37-.85-.63-1.28-.8-.43-.16-.76-.24-.76-.24s-.5.22-1.04.55c-.55.33-1.14.78-1.34,1.22"/>
        <path class="st0" d="M267.84,65.86h0c0,.08-.02.17-.05.28-.03.11-.07.24-.12.37-.16.34-.43.57-.74.71-.31.14-.67.19-.99.16-.02-.03-.03-.05-.04-.07-.01-.02-.02-.04-.03-.05-.05-.02-.08-.05-.1-.07-.02-.03-.05-.06-.08-.09-.22-.2-.53-.13-.79,0-.25.12-.45.28-.45.28.18-.17.32-.28.48-.37.16-.08.33-.14.57-.18.21-.04.35-.01.45.04.1.05.17.14.24.23.13,0,.26.02.41,0s.32-.11.53-.32c.13-.13.25-.3.35-.46.11-.16.19-.32.26-.44h0c.04-.08.07-.14.09-.19.02-.05.03-.07.03-.07,0,0,0,.02,0,.07,0,.04,0,.11-.01.19"/>
        <polygon class="st5" points="228.2 43.7 225.58 42.84 227.49 42.71 228.21 40.94 228.2 43.7"/>
        <polygon class="st5" points="226.58 45.93 227.04 44.07 228.2 43.7 226.58 45.93"/>
        <polygon class="st5" points="229.82 45.93 228.2 43.7 229.36 44.07 229.82 45.93"/>
        <polygon class="st5" points="228.92 42.71 228.2 43.7 230.83 42.85 228.92 42.71"/>
        <polygon class="st5" points="236.24 43.71 233.61 42.85 235.52 42.72 236.24 40.95 236.24 43.71"/>
        <polygon class="st5" points="234.61 45.94 235.08 44.08 236.24 43.71 234.61 45.94"/>
        <polygon class="st5" points="237.86 45.94 236.24 43.71 237.4 44.09 237.86 45.94"/>
        <polygon class="st5" points="236.96 42.72 236.24 43.71 238.87 42.86 236.96 42.72"/>
        <polygon class="st5" points="243.86 43.72 241.23 42.86 243.14 42.73 243.86 40.96 243.86 43.72"/>
        <polygon class="st5" points="242.23 45.95 242.7 44.09 243.86 43.72 242.23 45.95"/>
        <polygon class="st5" points="245.48 45.95 243.86 43.72 245.02 44.1 245.48 45.95"/>
        <polygon class="st5" points="244.58 42.73 243.86 43.72 246.49 42.87 244.58 42.73"/>
        <polygon class="st5" points="228.2 49.68 225.57 48.82 227.48 48.69 228.2 46.91 228.2 49.68"/>
        <polygon class="st5" points="226.57 51.91 227.04 50.05 228.2 49.68 226.57 51.91"/>
        <polygon class="st5" points="229.82 51.91 228.2 49.68 229.36 50.05 229.82 51.91"/>
        <polygon class="st5" points="228.92 48.69 228.2 49.68 230.82 48.83 228.92 48.69"/>
        <polygon class="st5" points="236.23 49.69 233.61 48.83 235.51 48.7 236.23 46.93 236.23 49.69"/>
        <polygon class="st5" points="234.6 51.92 235.07 50.06 236.23 49.69 234.6 51.92"/>
        <polygon class="st5" points="237.85 51.92 236.23 49.69 237.39 50.07 237.85 51.92"/>
        <polygon class="st5" points="236.95 48.7 236.23 49.69 238.86 48.84 236.95 48.7"/>
        <polygon class="st5" points="243.85 49.7 241.23 48.84 243.13 48.71 243.85 46.94 243.85 49.7"/>
        <polygon class="st5" points="242.22 51.93 242.69 50.07 243.85 49.7 242.22 51.93"/>
        <polygon class="st5" points="245.47 51.93 243.85 49.7 245.01 50.08 245.47 51.93"/>
        <polygon class="st5" points="244.57 48.71 243.85 49.7 246.48 48.85 244.57 48.71"/>
        <polygon class="st5" points="243.84 55.68 241.22 54.82 243.13 54.69 243.84 52.91 243.84 55.68"/>
        <polygon class="st5" points="242.21 57.91 242.68 56.05 243.84 55.68 242.21 57.91"/>
        <polygon class="st5" points="245.46 57.91 243.84 55.68 245 56.05 245.46 57.91"/>
        <polygon class="st5" points="244.56 54.69 243.84 55.68 246.47 54.83 244.56 54.69"/>
        <polygon class="st5" points="236.22 55.66 233.6 54.81 235.51 54.68 236.22 52.9 236.22 55.66"/>
        <polygon class="st5" points="234.59 57.9 235.06 56.04 236.22 55.66 234.59 57.9"/>
        <polygon class="st5" points="237.84 57.9 236.22 55.66 237.38 56.04 237.84 57.9"/>
        <polygon class="st5" points="236.94 54.68 236.22 55.66 238.85 54.82 236.94 54.68"/>
        <polygon class="st5" points="228.19 55.65 225.56 54.8 227.47 54.67 228.19 52.89 228.19 55.65"/>
        <polygon class="st5" points="226.56 57.88 227.03 56.03 228.19 55.65 226.56 57.88"/>
        <polygon class="st5" points="229.81 57.89 228.19 55.65 229.35 56.03 229.81 57.89"/>
        <polygon class="st5" points="228.91 54.67 228.19 55.65 230.81 54.8 228.91 54.67"/>
        <polygon class="st5" points="228.18 61.63 225.56 60.78 227.46 60.64 228.18 58.87 228.18 61.63"/>
        <polygon class="st5" points="226.55 63.86 227.02 62.01 228.18 61.63 226.55 63.86"/>
        <polygon class="st5" points="229.8 63.87 228.18 61.63 229.34 62.01 229.8 63.87"/>
        <polygon class="st5" points="228.9 60.65 228.18 61.63 230.81 60.78 228.9 60.65"/>
        <polygon class="st5" points="236.21 61.64 233.59 60.79 235.5 60.66 236.22 58.88 236.21 61.64"/>
        <polygon class="st5" points="234.59 63.88 235.05 62.02 236.21 61.64 234.59 63.88"/>
        <polygon class="st5" points="237.83 63.88 236.21 61.64 237.37 62.02 237.83 63.88"/>
        <polygon class="st5" points="236.93 60.66 236.21 61.64 238.84 60.8 236.93 60.66"/>
        <polygon class="st5" points="243.83 61.65 241.21 60.8 243.12 60.67 243.84 58.89 243.83 61.65"/>
        <polygon class="st5" points="242.21 63.89 242.67 62.03 243.83 61.66 242.21 63.89"/>
        <polygon class="st5" points="245.45 63.89 243.83 61.65 244.99 62.03 245.45 63.89"/>
        <polygon class="st5" points="244.55 60.67 243.83 61.65 246.46 60.81 244.55 60.67"/>
        <polygon class="st5" points="236.2 67.62 233.58 66.77 235.49 66.64 236.21 64.86 236.2 67.62"/>
        <polygon class="st5" points="234.58 69.85 235.04 68 236.2 67.62 234.58 69.85"/>
        <polygon class="st5" points="237.82 69.86 236.2 67.62 237.36 68 237.82 69.86"/>
        <polygon class="st5" points="236.92 66.64 236.2 67.62 238.83 66.77 236.92 66.64"/>
      </g>
    </g>
  </g>
</svg>