<?xml version="1.0" encoding="UTF-8"?>
<svg id="Capa_1" xmlns="http://www.w3.org/2000/svg" version="1.1" xmlns:xlink="http://www.w3.org/1999/xlink" viewBox="0 0 116.91 95.28">
  <!-- Generator: Adobe Illustrator 30.1.0, SVG Export Plug-In . SVG Version: 2.1.1 Build 89)  -->
  <defs>
    <style>
      .st0 {
        fill: #fff;
      }

      .st1 {
        fill: #606060;
      }

      .st2 {
        fill: #030402;
      }

      .st3 {
        fill: none;
      }

      .st4 {
        clip-path: url(#clippath-1);
      }

      .st5 {
        fill: #adadad;
      }

      .st6 {
        fill: #b6cde5;
      }

      .st7 {
        fill: #345631;
      }

      .st8 {
        fill: #979797;
      }

      .st9 {
        fill: #8f1d38;
      }

      .st10 {
        fill: #e7b62d;
      }

      .st11 {
        clip-path: url(#clippath);
      }
    </style>
    <clipPath id="clippath">
      <rect class="st3" x="74.38" y="0" width="42.48" height="51.33"/>
    </clipPath>
    <clipPath id="clippath-1">
      <rect class="st3" x="74.38" y="0" width="42.48" height="51.33"/>
    </clipPath>
  </defs>
  <g>
    <path class="st0" d="M2.43,48.36c-.74-.34-1.33-.81-1.75-1.42-.42-.61-.65-1.29-.68-2.04h1.57c.07.72.39,1.35.95,1.9.57.54,1.39.82,2.48.82,1,0,1.8-.26,2.39-.77.59-.52.88-1.17.88-1.96,0-.64-.16-1.15-.49-1.54-.33-.39-.73-.68-1.21-.87-.48-.19-1.15-.4-1.99-.63-.99-.27-1.77-.53-2.35-.78-.58-.25-1.07-.65-1.48-1.19-.41-.54-.61-1.27-.61-2.18,0-.76.2-1.45.59-2.05.4-.6.95-1.07,1.68-1.41.72-.34,1.55-.51,2.48-.51,1.37,0,2.48.34,3.32,1.01.84.67,1.33,1.54,1.45,2.6h-1.61c-.1-.61-.43-1.15-1-1.62-.57-.47-1.33-.71-2.29-.71-.89,0-1.63.24-2.23.71-.59.47-.89,1.12-.89,1.94,0,.62.16,1.12.49,1.51.32.38.73.67,1.22.87.49.2,1.15.41,1.98.64.96.27,1.74.53,2.33.8s1.1.66,1.51,1.2c.41.54.61,1.26.61,2.16,0,.69-.18,1.35-.55,1.97-.37.62-.91,1.12-1.63,1.51-.72.38-1.58.57-2.59.57s-1.83-.17-2.58-.51Z"/>
    <path class="st0" d="M14.77,48.15c-.87-.49-1.56-1.18-2.06-2.08-.5-.9-.75-1.95-.75-3.15s.25-2.25.76-3.15c.51-.9,1.2-1.59,2.08-2.08.88-.49,1.86-.73,2.95-.73s2.07.24,2.96.73c.88.49,1.58,1.18,2.08,2.08.5.9.75,1.95.75,3.15s-.25,2.23-.76,3.14c-.51.91-1.21,1.6-2.1,2.09-.89.49-1.88.73-2.97.73s-2.07-.24-2.94-.73ZM19.83,47.07c.65-.35,1.18-.87,1.58-1.57.4-.7.6-1.56.6-2.58s-.2-1.88-.59-2.58c-.4-.7-.92-1.22-1.57-1.57-.65-.35-1.36-.52-2.12-.52s-1.47.17-2.12.52c-.65.35-1.17.87-1.56,1.57-.39.7-.58,1.56-.58,2.58s.19,1.88.58,2.58c.39.7.9,1.22,1.55,1.57.64.35,1.35.52,2.11.52s1.47-.17,2.12-.52Z"/>
    <path class="st0" d="M43.36,38.21c.86.86,1.28,2.1,1.28,3.72v6.79h-1.46v-6.62c0-1.26-.3-2.22-.91-2.88-.61-.66-1.44-1-2.48-1s-1.96.36-2.61,1.08c-.65.72-.98,1.77-.98,3.14v6.28h-1.46v-6.62c0-1.26-.3-2.22-.91-2.88-.61-.66-1.44-1-2.5-1s-1.96.36-2.61,1.08c-.65.72-.98,1.77-.98,3.14v6.28h-1.48v-11.58h1.48v1.99c.37-.72.89-1.27,1.57-1.64.68-.37,1.43-.56,2.27-.56,1,0,1.88.24,2.64.72.76.48,1.3,1.19,1.64,2.12.31-.92.84-1.62,1.6-2.11s1.62-.73,2.58-.73c1.36,0,2.46.43,3.32,1.28Z"/>
    <path class="st0" d="M50.06,48.15c-.87-.49-1.56-1.18-2.06-2.08-.5-.9-.75-1.95-.75-3.15s.25-2.25.76-3.15c.51-.9,1.2-1.59,2.08-2.08.88-.49,1.86-.73,2.95-.73s2.07.24,2.96.73c.88.49,1.58,1.18,2.08,2.08.5.9.75,1.95.75,3.15s-.25,2.23-.76,3.14c-.51.91-1.21,1.6-2.1,2.09-.89.49-1.88.73-2.97.73s-2.07-.24-2.94-.73ZM55.12,47.07c.65-.35,1.18-.87,1.58-1.57.4-.7.6-1.56.6-2.58s-.2-1.88-.59-2.58c-.4-.7-.92-1.22-1.57-1.57-.65-.35-1.36-.52-2.12-.52s-1.47.17-2.12.52c-.65.35-1.17.87-1.56,1.57-.39.7-.58,1.56-.58,2.58s.19,1.88.58,2.58c.39.7.9,1.22,1.55,1.57.64.35,1.35.52,2.11.52s1.47-.17,2.12-.52Z"/>
    <path class="st0" d="M62.28,47.96c-.84-.61-1.31-1.45-1.41-2.51h1.53c.07.65.38,1.18.92,1.58.54.4,1.28.6,2.2.6.81,0,1.44-.19,1.9-.57.46-.38.69-.86.69-1.42,0-.4-.13-.72-.38-.98s-.58-.46-.97-.6c-.39-.15-.92-.31-1.58-.48-.86-.23-1.56-.45-2.1-.68-.54-.23-.99-.56-1.37-1.01-.37-.45-.56-1.04-.56-1.79,0-.57.17-1.09.51-1.57.34-.48.82-.86,1.44-1.15.62-.28,1.33-.42,2.12-.42,1.24,0,2.25.31,3.01.94.76.63,1.17,1.5,1.23,2.6h-1.48c-.04-.68-.31-1.23-.8-1.64-.49-.42-1.16-.63-2-.63-.75,0-1.36.18-1.82.53-.47.35-.7.79-.7,1.31,0,.45.14.82.41,1.11.28.29.62.52,1.03.68.41.16.96.34,1.65.54.83.23,1.5.45,1.99.66.49.21.92.52,1.27.93.35.41.54.95.55,1.63,0,.62-.17,1.18-.51,1.67-.34.49-.81.87-1.42,1.16-.61.28-1.31.42-2.1.42-1.33,0-2.41-.31-3.26-.92Z"/>
    <g>
      <path class="st0" d="M2.71,53.73v16.54H0v-16.54h2.71Z"/>
      <path class="st0" d="M15.67,57.58c.82.43,1.46,1.06,1.92,1.9.46.84.69,1.86.69,3.05v7.73h-2.69v-7.33c0-1.17-.29-2.07-.88-2.7-.59-.63-1.39-.94-2.4-.94s-1.82.31-2.41.94c-.59.63-.89,1.53-.89,2.7v7.33h-2.71v-13.11h2.71v1.5c.44-.54,1.01-.96,1.7-1.26.69-.3,1.42-.45,2.2-.45,1.03,0,1.95.21,2.77.64Z"/>
      <path class="st0" d="M29.7,57.55c.78.4,1.4.91,1.84,1.51v-1.9h2.74v13.32c0,1.21-.25,2.28-.76,3.22-.51.94-1.24,1.69-2.2,2.22-.96.54-2.11.81-3.44.81-1.78,0-3.25-.42-4.43-1.25-1.17-.83-1.84-1.96-2-3.39h2.69c.21.68.65,1.23,1.32,1.65.67.42,1.48.63,2.41.63,1.09,0,1.98-.33,2.65-1s1.01-1.63,1.01-2.9v-2.19c-.46.62-1.08,1.14-1.87,1.56-.78.42-1.68.63-2.68.63-1.14,0-2.19-.29-3.13-.87-.94-.58-1.69-1.39-2.24-2.43-.55-1.04-.82-2.22-.82-3.53s.27-2.48.82-3.5c.55-1.01,1.29-1.8,2.24-2.37.94-.56,1.99-.84,3.13-.84,1.01,0,1.92.2,2.7.61ZM30.99,61.34c-.37-.67-.86-1.17-1.46-1.52-.6-.35-1.25-.52-1.95-.52s-1.35.17-1.95.51c-.6.34-1.09.84-1.46,1.5-.37.66-.56,1.44-.56,2.34s.19,1.7.56,2.38c.37.68.86,1.2,1.48,1.56.61.36,1.26.54,1.94.54s1.35-.17,1.95-.52c.6-.35,1.09-.86,1.46-1.53.37-.67.56-1.46.56-2.37s-.19-1.69-.56-2.36Z"/>
      <path class="st0" d="M49.77,64.72h-10.02c.08,1.05.47,1.89,1.17,2.52.7.63,1.55.95,2.57.95,1.46,0,2.49-.61,3.09-1.83h2.93c-.4,1.21-1.11,2.19-2.15,2.96-1.04.77-2.33,1.15-3.87,1.15-1.25,0-2.38-.28-3.37-.84-.99-.56-1.77-1.36-2.33-2.38-.56-1.02-.84-2.21-.84-3.56s.27-2.53.82-3.56,1.32-1.81,2.31-2.37c.99-.56,2.13-.83,3.41-.83s2.34.27,3.31.81c.97.54,1.72,1.3,2.26,2.27.54.98.81,2.1.81,3.37,0,.49-.03.94-.1,1.33ZM47.03,62.53c-.02-1-.37-1.8-1.07-2.4-.7-.6-1.56-.9-2.59-.9-.94,0-1.74.3-2.4.89-.67.59-1.06,1.4-1.19,2.41h7.26Z"/>
      <path class="st0" d="M61.92,57.58c.82.43,1.46,1.06,1.92,1.9.46.84.69,1.86.69,3.05v7.73h-2.69v-7.33c0-1.17-.29-2.07-.88-2.7-.59-.63-1.39-.94-2.4-.94s-1.82.31-2.41.94c-.59.63-.89,1.53-.89,2.7v7.33h-2.71v-13.11h2.71v1.5c.44-.54,1.01-.96,1.7-1.26.69-.3,1.42-.45,2.2-.45,1.03,0,1.95.21,2.77.64Z"/>
      <path class="st0" d="M68.11,54.92c-.33-.33-.5-.75-.5-1.24s.17-.9.5-1.24.75-.5,1.24-.5.88.17,1.21.5.5.75.5,1.24-.17.9-.5,1.24-.74.5-1.21.5-.9-.17-1.24-.5ZM70.68,57.15v13.11h-2.71v-13.11h2.71Z"/>
      <path class="st0" d="M86.17,64.72h-10.02c.08,1.05.47,1.89,1.17,2.52.7.63,1.55.95,2.57.95,1.46,0,2.49-.61,3.09-1.83h2.93c-.4,1.21-1.11,2.19-2.15,2.96-1.04.77-2.33,1.15-3.87,1.15-1.25,0-2.38-.28-3.37-.84-.99-.56-1.77-1.36-2.33-2.38-.56-1.02-.84-2.21-.84-3.56s.27-2.53.82-3.56,1.32-1.81,2.31-2.37c.99-.56,2.13-.83,3.41-.83s2.34.27,3.31.81c.97.54,1.72,1.3,2.26,2.27.54.98.81,2.1.81,3.37,0,.49-.03.94-.1,1.33ZM83.43,62.53c-.02-1-.37-1.8-1.07-2.4-.7-.6-1.56-.9-2.59-.9-.94,0-1.74.3-2.4.89-.67.59-1.06,1.4-1.19,2.41h7.26Z"/>
      <path class="st0" d="M93.22,57.5c.66-.37,1.44-.56,2.34-.56v2.81h-.69c-1.06,0-1.87.27-2.41.81s-.82,1.48-.82,2.81v6.9h-2.71v-13.11h2.71v1.9c.4-.67.92-1.19,1.58-1.56Z"/>
      <path class="st0" d="M101.87,53.63l-5.26,2.59v-2l5.26-2.9v2.31ZM100.78,57.15v13.11h-2.71v-13.11h2.71Z"/>
      <path class="st0" d="M104.26,60.15c.55-1.01,1.29-1.8,2.24-2.37.94-.56,1.99-.84,3.13-.84,1.03,0,1.93.2,2.7.61.77.4,1.38.91,1.84,1.51v-1.9h2.74v13.11h-2.74v-1.95c-.46.62-1.09,1.13-1.88,1.55-.79.41-1.7.62-2.71.62-1.13,0-2.16-.29-3.09-.87-.94-.58-1.68-1.39-2.22-2.43-.55-1.04-.82-2.22-.82-3.53s.27-2.48.82-3.5ZM113.61,61.34c-.37-.67-.86-1.17-1.46-1.52-.6-.35-1.25-.52-1.95-.52s-1.35.17-1.95.51c-.6.34-1.09.84-1.46,1.5-.37.66-.56,1.44-.56,2.34s.19,1.7.56,2.38c.37.68.86,1.2,1.48,1.56.61.36,1.26.54,1.94.54s1.35-.17,1.95-.52c.6-.35,1.09-.86,1.46-1.53.37-.67.56-1.46.56-2.37s-.19-1.69-.56-2.36Z"/>
      <g>
        <path class="st0" d="M43.15,75.22v11.19c0,.92.2,1.64.6,2.17s1.05.8,1.95.8,1.56-.27,1.99-.8c.43-.53.65-1.26.65-2.17v-11.19h6.2v11.19c0,1.89-.39,3.5-1.18,4.84-.79,1.34-1.86,2.34-3.23,3.02-1.37.67-2.89,1.01-4.57,1.01s-3.18-.34-4.48-1.01c-1.3-.67-2.31-1.67-3.04-3-.73-1.33-1.09-2.95-1.09-4.85v-11.19h6.2Z"/>
        <path class="st0" d="M69.97,92.08h-6.62l-.98,3h-6.54l7.27-19.86h7.18l7.24,19.86h-6.57l-.98-3ZM68.45,87.39l-1.8-5.53-1.8,5.53h3.59Z"/>
        <path class="st0" d="M79.55,79.87c.8-1.53,1.93-2.73,3.41-3.58,1.48-.85,3.22-1.28,5.22-1.28,1.72,0,3.26.32,4.62.97s2.46,1.56,3.31,2.74,1.42,2.55,1.7,4.12h-6.57c-.3-.65-.73-1.16-1.28-1.53-.55-.36-1.18-.55-1.89-.55-1.05,0-1.88.39-2.48,1.18-.61.79-.91,1.84-.91,3.17s.3,2.38.91,3.17c.61.79,1.44,1.18,2.48,1.18.71,0,1.34-.18,1.89-.55.55-.36.98-.87,1.28-1.53h6.57c-.28,1.57-.85,2.95-1.7,4.12s-1.95,2.09-3.31,2.74-2.89.97-4.62.97c-2,0-3.74-.43-5.22-1.28-1.48-.85-2.61-2.04-3.41-3.58-.8-1.53-1.19-3.28-1.19-5.25s.4-3.71,1.19-5.25Z"/>
        <path class="st0" d="M115.38,80.97c1.02,1.22,1.53,2.86,1.53,4.94v9.17h-6.2v-8.39c0-.75-.2-1.34-.6-1.78-.4-.44-.94-.66-1.61-.66s-1.23.22-1.63.66c-.39.44-.59,1.03-.59,1.78v8.39h-6.23v-20.76h6.23v7.35c.49-.75,1.14-1.36,1.95-1.82s1.78-.7,2.9-.7c1.81,0,3.23.61,4.25,1.82Z"/>
      </g>
    </g>
  </g>
  <g id="Escudo_Negro">
    <g class="st11">
      <g class="st4">
        <path class="st0" d="M95.65.03L74.44,0l-.03,20.63-.03,20.63v.48s0,.48,0,.48c0,.24.01.48.05.72.03.24.09.47.16.71h0c.16.52.39,1.03.7,1.51.3.48.68.94,1.1,1.36h0c.58.58,1.26,1.1,1.98,1.5.72.41,1.5.72,2.27.89.24.05.47.09.71.12.23.03.47.04.7.04h5.58s5.58.02,5.58.02c.02,0,.41-.02.84.11.43.14.9.43,1.07,1.07l.15.53.15.53.14-.53.14-.53c.17-.63.67-.93,1.13-1.06.46-.14.89-.11.92-.11h5.75s5.75.02,5.75.02c.23,0,.46-.01.7-.04.23-.03.47-.07.7-.12h0c.77-.17,1.53-.48,2.24-.89.71-.41,1.37-.92,1.94-1.5h0c.41-.42.77-.88,1.07-1.36.3-.48.53-.99.69-1.51h0c.07-.23.12-.47.16-.7.04-.24.06-.47.06-.71l.03-21.12.03-21.12-21.21-.03Z"/>
        <path class="st2" d="M95.65.03L74.44,0l-.03,20.63-.03,20.63v.48s0,.48,0,.48c0,.24.01.48.05.72.03.24.09.47.16.71h0c.16.52.39,1.03.7,1.51.3.48.68.94,1.1,1.36h0c.58.58,1.26,1.1,1.98,1.5.72.41,1.5.72,2.27.89.24.05.47.09.71.12.23.03.47.04.7.04h5.58s5.58.02,5.58.02c.02,0,.41-.02.84.11.43.14.9.43,1.07,1.07l.15.53.15.53.14-.53.14-.53c.17-.63.67-.93,1.13-1.06.46-.14.89-.11.92-.11h5.75s5.75.02,5.75.02c.23,0,.46-.01.7-.04.23-.03.47-.07.7-.12h0c.77-.17,1.53-.48,2.24-.89s1.37-.92,1.94-1.5h0c.41-.42.77-.88,1.07-1.36.3-.48.53-.99.69-1.51h0c.07-.23.12-.47.16-.7.04-.24.06-.47.06-.71l.03-21.12.03-21.12-21.21-.03ZM116.23,21.47l-.03,20.82c0,.24-.02.47-.06.71-.04.24-.1.47-.18.71h0c-.18.52-.45,1.04-.79,1.52-.34.48-.75.94-1.21,1.34h0c-.66.59-1.43,1.07-2.23,1.41-.81.34-1.65.54-2.48.53h-5.74s-5.74-.02-5.74-.02c-.29-.02-.61,0-.91.08-.31.07-.6.19-.86.35h0c-.11.07-.22.15-.32.25-.1.09-.19.19-.26.3-.07-.11-.16-.21-.25-.3-.09-.09-.2-.17-.31-.25h0c-.24-.16-.52-.28-.8-.35-.29-.07-.58-.1-.86-.08h-5.57s-5.57-.02-5.57-.02c-.83,0-1.69-.2-2.51-.54-.82-.34-1.6-.83-2.27-1.42h0c-.47-.41-.89-.86-1.24-1.35-.35-.48-.62-1-.8-1.52h0c-.08-.24-.14-.47-.18-.71-.04-.24-.06-.47-.06-.71v-.49s0-.49,0-.49l.03-20.33.03-20.33,20.62.03,20.62.03-.03,20.82Z"/>
        <path class="st2" d="M95.66,6.18l-14.87-.02-.03,16.18-.03,16.18c0,.06,0,.12,0,.18,0,.06,0,.12.01.18.03.44.13.87.27,1.27.15.4.35.78.59,1.12.43.6.99,1.09,1.64,1.43.65.34,1.4.54,2.19.54h10.16s10.16.03,10.16.03c.79,0,1.53-.19,2.19-.53.65-.34,1.22-.83,1.65-1.43.25-.34.45-.72.6-1.12.15-.4.24-.83.28-1.27h0c0-.06,0-.12.01-.18,0-.06,0-.12,0-.18l.02-16.18.02-16.18-14.87-.02ZM84.46,38.88l-.99-.62-.99.62.28-1.13-.89-.75,1.16-.08.44-1.08.44,1.08,1.16.08-.89.75.28,1.13ZM84.19,34.11l.28,1.13-.99-.62-.99.62.28-1.13-.89-.75,1.16-.08.44-1.08.44,1.08,1.16.08-.89.75ZM84.19,30.47l.28,1.13-.99-.62-.99.62.28-1.13-.89-.75,1.16-.08.44-1.08.44,1.08,1.16.08-.89.75ZM84.2,26.83l.28,1.13-.99-.62-.99.62.28-1.13-.89-.75,1.16-.08.44-1.08.44,1.08,1.16.08-.89.75ZM89.35,42.53l-.99-.62-.99.62.28-1.13-.89-.75,1.16-.08.44-1.08.44,1.08,1.16.08-.89.75.28,1.13ZM89.07,37.75l.28,1.13-.99-.62-.99.62.28-1.13-.89-.75,1.16-.08.44-1.08.44,1.08,1.16.08-.89.75ZM89.08,34.11l.28,1.13-.99-.62-.99.62.28-1.13-.89-.75,1.16-.08.44-1.08.44,1.08,1.16.08-.89.75ZM89.08,30.48l.28,1.13-.99-.62-.99.62.28-1.13-.89-.75,1.16-.08.44-1.08.44,1.08,1.16.08-.89.75ZM89.09,26.84l.28,1.13-.99-.62-.99.62.28-1.13-.89-.75,1.16-.08.44-1.08.44,1.08,1.16.08-.89.75ZM93.99,38.89l-.99-.62-.99.62.28-1.13-.89-.75,1.16-.08.44-1.08.44,1.08,1.16.08-.89.75.28,1.13ZM93.71,34.12l.28,1.13-.99-.62-.99.62.28-1.13-.89-.75,1.16-.08.44-1.08.44,1.08,1.16.08-.89.75ZM93.72,30.48l.28,1.13-.99-.62-.99.62.28-1.13-.89-.75,1.16-.08.44-1.08.44,1.08,1.16.08-.89.75ZM93.72,26.84l.28,1.13-.99-.62-.99.62.28-1.13-.89-.75,1.16-.08.44-1.08.44,1.08,1.16.08-.89.75Z"/>
        <path class="st2" d="M90.95,4.84c-.06-.02-.09-.04-.11-.08-.02-.04-.02-.1-.02-.2v-.51s0-.51,0-.51v-.63s0-.63,0-.63c0-.02,0-.04.02-.05.01-.01.03-.03.05-.03h.07c.14,0,.25,0,.33.04.08.03.14.09.18.19.03.09.04.17.06.23.02.06.04.09.08.09.02,0,.04,0,.05-.03.01-.02.01-.05.02-.1v-.31s.03-.31.03-.31v-.05s0-.04-.01-.05c0-.02-.02-.03-.04-.03-.02,0-.04.03-.06.07-.02.04-.05.09-.09.11-.01,0-.03.02-.06.02-.03,0-.06,0-.09,0-.04,0-.1,0-.16,0-.06,0-.13,0-.21,0h-.29s-.29,0-.29,0c-.07,0-.13,0-.19,0-.06,0-.11,0-.15,0-.06,0-.1,0-.14,0-.04,0-.06-.02-.08-.03-.03,0-.04-.04-.05-.08-.01-.04-.03-.08-.05-.08-.03,0-.05.02-.06.07s-.02.1-.04.17l-.06.24-.06.24s0,.04-.01.05c0,.01,0,.03,0,.03,0,.03,0,.05.01.06,0,0,.02,0,.04,0,.04,0,.07-.03.1-.08.03-.05.07-.13.13-.22.06-.08.12-.13.18-.17.07-.04.14-.06.24-.06h.07s.07,0,.07,0c.02,0,.03.01.04.03.01.02.02.04.02.06v.63s0,.63,0,.63v.51s0,.51,0,.51c0,.1,0,.16-.02.2-.02.04-.05.06-.11.08-.05.02-.1.01-.14.02-.04,0-.06.02-.06.06,0,.02,0,.04.02.06.02.01.04.02.07.02.05,0,.11,0,.19-.02.07,0,.16-.02.26-.02.1,0,.19,0,.26.02.07,0,.14.02.19.02.03,0,.06,0,.07-.02.02-.01.02-.03.02-.05,0-.05-.02-.07-.06-.07-.04,0-.09,0-.14-.02"/>
        <path class="st2" d="M81.36,4.28s-.05.03-.09.09c-.04.05-.09.13-.16.23-.07.09-.14.15-.21.19-.08.04-.17.06-.27.06-.1,0-.17-.03-.23-.08-.05-.05-.08-.13-.08-.23v-.51s0-.51,0-.51v-.56s0-.56,0-.56c0-.08,0-.12.02-.16.02-.03.05-.05.11-.06.06-.01.11-.01.14-.02.04,0,.06-.02.06-.06,0-.02,0-.04-.02-.05-.01-.01-.03-.02-.05-.02-.02,0-.07,0-.15.02-.08,0-.19.02-.33.02-.13,0-.22-.01-.29-.02-.07,0-.11-.02-.14-.02-.02,0-.03,0-.04.02-.01.01-.02.03-.02.05,0,.05.02.06.06.06.04,0,.09,0,.14.02.04.01.07.03.08.07.01.03.01.08.01.15v.56s0,.56,0,.56v.51s0,.51,0,.51c0,.1,0,.16-.02.2-.02.04-.06.06-.13.08-.04.01-.09,0-.13.02-.03,0-.06.02-.06.06,0,.02,0,.04.02.06.02.01.04.02.07.02.03,0,.08,0,.15-.01.07,0,.17-.01.29-.01.28,0,.51.01.7.02.19.01.33.02.43.02.03,0,.05,0,.07-.02s.02-.03.02-.06c0,0,0-.02,0-.03,0-.01,0-.03,0-.05l.02-.22.02-.22s0-.04,0-.06c0-.01,0-.02,0-.03,0,0,0-.02-.01-.02,0,0-.02-.01-.03-.01"/>
        <path class="st2" d="M82.39,4.83c-.06-.02-.09-.04-.11-.08-.02-.04-.02-.1-.02-.2v-.51s0-.51,0-.51v-.56s0-.56,0-.56c0-.08,0-.12.02-.16.02-.03.05-.05.11-.06.06-.01.11-.01.14-.02.04,0,.06-.02.06-.06,0-.02,0-.04-.02-.05-.01-.01-.03-.02-.05-.02-.03,0-.07,0-.15.02-.08,0-.18.02-.31.02-.13,0-.24,0-.31-.02-.08,0-.13-.02-.15-.02s-.04,0-.05.02-.02.03-.02.05c0,.05.02.06.06.07.04,0,.09,0,.16.02.05.01.07.03.09.06.01.03.02.08.02.15v.56s0,.56,0,.56v.51s0,.51,0,.51c0,.1,0,.16-.02.2s-.06.06-.13.08c-.04.01-.09,0-.12.02-.03,0-.06.02-.06.06,0,.02,0,.04.02.06.02.01.04.02.07.02.03,0,.08,0,.15-.01s.17-.01.29-.01c.12,0,.22,0,.29.01.07,0,.12.01.15.01.03,0,.06,0,.07-.02.02-.01.02-.03.02-.05,0-.05-.02-.07-.06-.07-.04,0-.09,0-.14-.02"/>
        <path class="st2" d="M93.62,4.84c-.06-.04-.1-.09-.14-.16-.03-.07-.06-.15-.09-.26l-.14-.44-.14-.44-.21-.67-.21-.67c-.02-.07-.03-.12-.05-.16-.01-.04-.03-.06-.07-.06-.03,0-.04.01-.05.03-.01.02-.02.05-.03.08l-.23.73-.23.73-.15.48-.15.48c-.03.08-.05.16-.07.21-.03.06-.05.1-.1.13-.05.03-.11.04-.15.04-.05,0-.08.02-.08.06,0,.02,0,.03.02.05.01.01.04.02.06.02.03,0,.08,0,.13-.01.05,0,.11-.01.18-.01.1,0,.19,0,.26.01.07,0,.12.01.15.01.03,0,.05,0,.06-.01.01,0,.02-.02.02-.04,0-.04-.02-.06-.05-.07-.03-.01-.08-.02-.14-.03-.04,0-.07-.02-.09-.03-.02-.02-.03-.05-.03-.09,0-.03,0-.07.02-.13.01-.06.03-.14.05-.23l.06-.21.06-.21s.01-.02.02-.03c0,0,.02-.01.03-.01h.29s.29,0,.29,0c.02,0,.03,0,.05,0,.01,0,.02.01.02.03l.09.3.09.3s.02.09.03.13.01.06.01.08c0,.04,0,.07-.04.09-.03.02-.08.02-.15.02-.03,0-.05,0-.07.02s-.03.03-.03.05c0,.02,0,.04.02.04.01,0,.03.01.06.01.03,0,.09,0,.17-.01.08,0,.19-.01.32-.01.09,0,.17,0,.24.01s.12.01.16.01c.04,0,.06,0,.08-.01.02-.01.02-.03.02-.05,0-.03-.02-.04-.05-.05-.03-.01-.08-.02-.12-.05M92.67,3.73h-.23s-.23,0-.23,0c0,0-.02,0-.02,0,0,0,0-.01,0-.02,0,0,0,0,0-.02,0,0,0-.02,0-.03l.02-.06.02-.06.09-.35.09-.35s0-.02.01-.03c0,0,.01,0,.02,0,0,0,0,0,.01.01,0,0,0,.02.01.03l.11.35.11.35.02.06.02.06s0,.02,0,.02c0,0,0,.01,0,.02,0,0,0,.02-.01.03,0,0-.02.01-.03.01"/>
        <path class="st2" d="M84.71,3.52h0s-.1-.07-.15-.09c-.06-.02-.12-.04-.18-.06.16-.06.27-.14.35-.24.08-.1.11-.23.11-.38,0-.25-.1-.43-.29-.55-.2-.12-.49-.17-.88-.17-.29,0-.51.01-.66.04-.15.02-.22.06-.22.11,0,.02,0,.04.01.05,0,.01.02.02.04.02.02,0,.05,0,.08-.01.03,0,.06-.01.09-.01.04,0,.07.01.09.04.02.03.03.08.03.14v.56s0,.56,0,.56v.51s0,.51,0,.51c0,.03,0,.05,0,.06,0,.02,0,.03,0,.03,0,.06-.01.11-.04.15-.03.03-.07.05-.14.05-.04,0-.07,0-.09.02-.02.01-.03.03-.03.05,0,.02,0,.04.02.06.02.01.04.02.07.02.03,0,.07,0,.13-.01.06,0,.13-.01.22-.01.12,0,.24.02.38.04.14.02.29.04.46.04.26,0,.48-.09.64-.24.15-.15.24-.37.24-.62,0-.14-.02-.27-.07-.38s-.12-.2-.21-.27M83.55,2.41c0-.08,0-.14.05-.18.04-.04.11-.05.23-.05.19,0,.33.05.42.15.1.1.15.25.15.44,0,.18-.06.32-.17.41-.11.09-.27.14-.47.14h-.06c-.07,0-.11,0-.13-.02-.02-.02-.02-.06-.02-.12v-.39s0-.39,0-.39ZM83.92,4.86c-.14,0-.24-.03-.29-.09-.06-.06-.08-.15-.08-.27v-.48s0-.48,0-.48c0,0,0,0,0-.01,0,0,0,0,0-.01h0s.01-.02.02-.02c0,0,.02,0,.03,0h.15s.15,0,.15,0c.04,0,.08,0,.11,0,.04,0,.07.01.1.02h0s0,0,0,0c.13.04.24.12.31.22.07.11.1.25.1.41,0,.23-.06.41-.16.53-.1.12-.25.19-.44.19"/>
        <path class="st2" d="M95.25,3.54c-.07-.08-.15-.15-.25-.22-.1-.07-.21-.13-.34-.2-.15-.08-.26-.15-.33-.23-.07-.08-.11-.18-.11-.3,0-.15.04-.27.12-.35.08-.08.19-.13.33-.13.11,0,.19.03.25.1s.11.16.16.29c.03.08.05.14.07.18.02.04.03.06.07.06.02,0,.03,0,.04-.02.01-.02.02-.04.02-.07,0-.15,0-.28,0-.36,0-.09-.02-.14-.03-.15-.02-.03-.09-.06-.18-.09-.1-.03-.22-.05-.35-.05-.26,0-.46.08-.61.23-.14.14-.22.35-.22.59,0,.21.04.35.11.47.07.12.18.2.3.28h0s.08.05.13.08c.04.03.09.05.14.08.18.1.31.21.4.32.09.12.13.24.13.39,0,.16-.06.3-.15.4-.09.1-.22.16-.36.16-.12,0-.24-.05-.34-.13-.1-.09-.18-.21-.23-.37-.03-.09-.03-.17-.04-.23-.01-.06-.03-.1-.07-.1-.02,0-.04.01-.05.04-.01.02-.02.06-.02.11,0,0,0,.02,0,.04,0,.02,0,.05,0,.08,0,.04,0,.09,0,.14,0,.05,0,.1,0,.15,0,.13.07.23.19.3.12.07.29.1.5.1.26,0,.49-.1.65-.27.16-.17.26-.41.26-.68,0-.13-.02-.24-.05-.34-.03-.1-.08-.19-.14-.27h0Z"/>
        <path class="st2" d="M104.32,4.86c-.06-.02-.09-.04-.11-.08-.02-.04-.02-.1-.02-.2v-.51s0-.51,0-.51v-.56s0-.56,0-.56c0-.08,0-.12.02-.16.02-.03.05-.05.1-.06.06-.01.11-.01.15-.02.04,0,.06-.02.06-.06,0-.02,0-.04-.02-.05-.01-.01-.03-.02-.05-.02-.03,0-.07,0-.15.02-.08,0-.18.02-.31.02-.13,0-.24,0-.32-.02-.08,0-.13-.02-.15-.02s-.04,0-.05.02c-.01.01-.02.03-.02.05,0,.05.02.06.06.07.04,0,.09,0,.16.02.05.01.07.03.09.06.01.03.02.08.02.15v.56s0,.56,0,.56v.51s0,.51,0,.51c0,.1,0,.16-.02.2-.02.04-.06.06-.13.08-.04.01-.09,0-.12.02-.03,0-.06.02-.06.06,0,.02,0,.04.02.06.02.01.04.02.07.02.03,0,.08,0,.15-.01.07,0,.17-.01.29-.01.12,0,.22,0,.29.01.07,0,.12.01.15.01.03,0,.06,0,.07-.02.02-.01.02-.03.02-.05,0-.05-.02-.07-.06-.07-.04,0-.09,0-.14-.02"/>
        <path class="st2" d="M87.75,3.53v.51s0,.51,0,.51c0,.1,0,.16-.02.2-.02.04-.06.06-.13.08-.04.01-.09,0-.12.02-.03,0-.06.02-.06.06,0,.02,0,.04.02.06.02.01.04.02.07.02.03,0,.08,0,.15-.01.07,0,.17-.01.29-.01.12,0,.22,0,.29.01.07,0,.12.01.14.01.03,0,.05,0,.07-.02.02-.01.03-.03.03-.05,0-.03,0-.05-.02-.06-.02-.01-.04-.02-.08-.02-.1,0-.15-.03-.18-.08-.03-.05-.03-.12-.03-.22v-.46s0-.46,0-.46c0-.02,0-.04.02-.05s.03-.02.04-.02h.05c.07,0,.12.01.16.04.04.03.07.09.1.17l.21.53.21.53c.02.05.03.09.05.12.02.03.04.04.09.04.04,0,.07,0,.1,0,.03,0,.07,0,.1,0,.05,0,.11,0,.15,0,.05,0,.09,0,.13,0,.03,0,.05,0,.06,0,.01,0,.02-.02.02-.04,0-.04-.02-.05-.06-.06-.04-.01-.09-.02-.14-.04-.03-.01-.06-.05-.09-.12-.03-.07-.07-.17-.13-.3l-.14-.32-.13-.32s-.04-.1-.06-.14c-.02-.04-.05-.08-.08-.11h0s-.02-.02-.02-.02c0,0-.02-.01-.03-.02.15-.03.28-.12.37-.25.09-.12.14-.29.14-.47,0-.22-.07-.4-.2-.53-.13-.13-.32-.2-.57-.2-.11,0-.21,0-.33.01-.11,0-.23.01-.34.01-.08,0-.15,0-.2-.01-.05,0-.09,0-.11,0-.04,0-.07,0-.09.01-.02,0-.03.03-.03.06,0,.05.02.06.06.07.04,0,.09,0,.16.02.05.01.07.03.09.06.01.03.02.08.02.15v.56s0,.56,0,.56M88.39,3.42c-.08,0-.13,0-.17-.02-.03-.01-.05-.04-.05-.09v-.44s0-.45,0-.45c0-.08,0-.14.04-.18.03-.04.09-.06.2-.06.15,0,.27.06.35.17.08.11.12.27.12.46,0,.19-.04.34-.12.44-.08.1-.2.15-.36.15"/>
        <path class="st2" d="M85.56,3.52v.51s0,.51,0,.51c0,.09,0,.16-.02.21-.02.05-.05.07-.12.08-.06,0-.11,0-.14.01-.04,0-.06.02-.06.06,0,.03,0,.04.02.06.02.01.04.02.08.02.02,0,.06,0,.14-.01.08,0,.18-.01.32-.01.3,0,.55.01.75.02s.35.02.44.02c.07,0,.1,0,.12-.03.02-.02.02-.06.03-.14l.03-.23.03-.23s0-.05,0-.06c0-.01,0-.02,0-.02,0,0,0-.02-.02-.03,0,0-.02-.02-.03-.02-.04,0-.07.04-.1.1-.03.06-.07.14-.13.23-.07.11-.15.18-.24.22-.09.04-.2.05-.35.05-.14,0-.22-.01-.27-.05-.05-.04-.06-.12-.06-.25v-.48s0-.48,0-.48c0-.02,0-.03,0-.04,0-.01,0-.02.01-.02h0s.02-.01.03-.02c.01,0,.02,0,.04,0h.1s.1,0,.1,0c.04,0,.08,0,.12,0,.04,0,.07,0,.1.02h0s.07.02.1.05c.03.02.05.05.07.09.05.09.07.17.09.23.02.06.03.1.07.1.02,0,.03,0,.04-.02.01-.01.02-.04.02-.06,0-.02,0-.06,0-.13,0-.06,0-.15,0-.25,0,0,0,0,0-.01h0c0-.1,0-.19.01-.27,0-.08.01-.15.01-.21,0-.02,0-.04-.01-.05,0-.01-.02-.02-.04-.02-.05,0-.06.04-.07.1-.01.06-.03.13-.09.19-.02.02-.07.04-.14.06-.07.02-.16.03-.25.03h-.21s-.06,0-.07-.02c-.01-.01-.01-.04-.01-.08v-.39s0-.39,0-.39c0-.11,0-.18.04-.23.03-.04.1-.06.22-.06.13,0,.24.02.34.05.09.03.17.07.24.13.08.08.12.17.15.23.03.07.04.12.08.12.02,0,.03,0,.04-.03,0-.02.01-.05.01-.09v-.2s0-.2,0-.2h0v-.02s0-.08-.02-.11c-.02-.02-.05-.03-.11-.03-.03,0-.12,0-.28,0-.15,0-.37,0-.64,0-.22,0-.38,0-.5-.01-.12,0-.18,0-.2,0-.03,0-.05,0-.06.02s-.02.03-.02.05c0,.05.02.06.06.07s.09,0,.14.02c.04.01.07.03.08.07.01.03.01.08.01.15v.56s0,.56,0,.56"/>
        <path class="st2" d="M109.38,2.08s-.06,0-.12,0c-.05,0-.12,0-.21,0-.08,0-.15,0-.2,0-.05,0-.09,0-.12,0s-.05,0-.06.02c-.01.01-.02.03-.02.05,0,.05.04.06.09.07.05,0,.12,0,.16.04.04.03.06.1.07.19.01.1.01.23.01.41v.35s0,.35,0,.35v.42c0,.16,0,.3-.02.42-.02.12-.04.22-.1.3-.06.08-.13.14-.22.18-.09.04-.2.06-.33.06-.25,0-.4-.08-.49-.22-.09-.15-.12-.36-.12-.65v-.26s0-.26,0-.26v-.56s0-.56,0-.56c0-.07,0-.12.02-.15.01-.03.04-.05.09-.06.06-.02.11-.01.15-.02.04,0,.07-.02.07-.07,0-.02,0-.04-.02-.05-.01-.01-.03-.02-.05-.02s-.07,0-.15.02c-.08,0-.18.02-.32.02-.13,0-.24,0-.31-.02-.08,0-.13-.02-.15-.02-.02,0-.04,0-.05.02s-.02.03-.02.05c0,.05.02.06.06.06.04,0,.09,0,.15.02.05.01.07.03.09.06.01.03.01.08.01.16v.56s0,.56,0,.56v.26s0,.26,0,.26c0,.14,0,.27.02.39.02.12.05.22.12.31.08.12.19.2.32.26.14.05.3.08.5.08.18,0,.34-.03.46-.09s.23-.15.29-.26c.06-.11.09-.22.11-.35.02-.13.02-.27.02-.43v-.21s0-.21,0-.21v-.36s0-.36,0-.36c0-.23,0-.39.03-.49.03-.1.08-.14.18-.14.05,0,.08,0,.1-.01.02,0,.03-.03.03-.05,0-.02,0-.04-.02-.05-.02-.01-.04-.02-.07-.02"/>
        <path class="st2" d="M106.8,1.87s-.04.03-.06.07c-.02.04-.05.09-.09.11-.01,0-.03.02-.06.02-.03,0-.06,0-.09,0-.04,0-.1,0-.16,0-.06,0-.13,0-.21,0h-.29s-.29,0-.29,0c-.07,0-.13,0-.19,0-.06,0-.11,0-.15,0-.06,0-.1,0-.14,0-.04,0-.06-.02-.08-.03-.03,0-.04-.04-.05-.08-.01-.04-.03-.08-.05-.08-.03,0-.05.02-.06.07-.01.04-.02.1-.04.17l-.06.24-.06.24s-.01.04-.01.05c0,.01,0,.03,0,.03,0,.03,0,.05.01.06,0,0,.02.01.04.01.04,0,.07-.03.1-.08.03-.05.07-.13.13-.22.06-.08.12-.13.18-.17.07-.04.14-.06.24-.06h.13s.03.01.05.03c.01.02.02.04.02.06v.63s0,.63,0,.63v.51s0,.51,0,.51c0,.1,0,.16-.02.2-.02.04-.05.06-.11.08-.05.02-.1.01-.14.02-.04,0-.06.02-.06.06,0,.02,0,.04.02.06s.04.02.07.02c.05,0,.11,0,.19-.02.08,0,.16-.02.26-.02.1,0,.18,0,.26.02.07,0,.14.02.19.02.03,0,.06,0,.07-.02.02-.01.02-.03.02-.05,0-.05-.02-.07-.06-.07-.04,0-.09,0-.14-.02-.06-.02-.09-.04-.11-.08-.02-.04-.02-.1-.02-.2v-.51s0-.51,0-.51v-.63s0-.63,0-.63c0-.02,0-.04.02-.05.01-.01.03-.03.05-.03h.04s.04,0,.04,0c.14,0,.25,0,.33.04.08.03.14.09.18.19.03.09.04.17.06.23.02.06.04.09.08.09.02,0,.04,0,.05-.03.01-.02.01-.05.02-.1v-.31s.03-.31.03-.31v-.05s0-.04-.01-.05c0-.02-.02-.03-.04-.03"/>
        <path class="st2" d="M109.95,3.56v.51s0,.51,0,.51c0,.1,0,.16-.02.2-.02.04-.06.06-.13.08-.04.01-.09,0-.12.02-.03,0-.06.02-.06.06,0,.02,0,.04.02.06.02.01.04.02.07.02.03,0,.08,0,.15-.01.07,0,.17-.01.29-.01.12,0,.22,0,.29.01.07,0,.12.01.14.01.03,0,.05,0,.07-.02s.03-.03.03-.05c0-.03,0-.05-.02-.06-.02-.01-.04-.02-.08-.02-.1,0-.15-.03-.18-.08-.03-.05-.03-.12-.03-.22v-.46s0-.46,0-.46c0-.02,0-.04.02-.05.01-.01.03-.02.04-.02h.05c.07,0,.12.01.16.04.04.03.07.09.1.17l.21.53.21.53c.02.05.03.09.05.12.02.03.05.04.09.04.04,0,.07,0,.1,0,.03,0,.07,0,.1,0,.05,0,.1,0,.15,0,.05,0,.09,0,.13,0,.03,0,.05,0,.06,0,.01,0,.02-.02.02-.04,0-.04-.02-.05-.06-.06-.04-.01-.09-.02-.14-.04-.03-.01-.06-.05-.09-.12-.03-.07-.07-.17-.13-.3l-.14-.32-.14-.32s-.04-.1-.06-.14c-.02-.04-.05-.08-.08-.11h0s-.01-.02-.02-.02c0,0-.02-.01-.03-.02.15-.03.28-.12.37-.25.09-.12.14-.29.14-.47,0-.22-.07-.4-.2-.53-.13-.13-.32-.2-.57-.2-.11,0-.21,0-.33.01-.11,0-.23.01-.34.01-.08,0-.15,0-.2-.01-.05,0-.09-.01-.11-.01-.04,0-.07,0-.09.01-.02,0-.03.03-.03.06,0,.05.02.06.06.07.04,0,.09,0,.15.02.05.01.07.03.09.06.01.03.02.08.02.15v.56s0,.56,0,.56M110.59,3.45c-.08,0-.13,0-.17-.02-.03-.01-.05-.04-.05-.09v-.45s0-.44,0-.44c0-.08,0-.14.04-.18.03-.04.09-.06.2-.06.15,0,.27.06.35.17.08.11.12.27.12.46,0,.19-.04.34-.12.44-.08.1-.2.15-.36.15"/>
        <path class="st2" d="M96.8,3.54c0,.44.15.83.39,1.11.24.28.58.45.98.45.24,0,.44-.05.58-.12.14-.07.23-.17.23-.28,0-.11,0-.2,0-.27,0-.07,0-.11,0-.13,0-.03,0-.06-.01-.07,0-.02-.02-.02-.04-.02-.03,0-.05.02-.08.07-.02.05-.05.11-.09.2-.07.16-.16.28-.26.36-.1.08-.22.12-.37.12-.23,0-.45-.15-.61-.39-.16-.25-.26-.6-.26-1h0c0-.45.1-.81.27-1.06.16-.25.39-.39.64-.39.12,0,.23.04.32.11.09.07.18.18.26.32.03.06.06.11.09.14.02.03.05.05.07.05.01,0,.02,0,.03-.02,0-.01.01-.04.01-.06,0-.14,0-.25-.02-.33-.01-.08-.03-.13-.04-.15-.03-.03-.12-.08-.24-.11-.12-.04-.28-.06-.45-.06-.39,0-.74.17-1,.45-.26.28-.41.67-.41,1.1,0,0,0,0,0,0h0Z"/>
        <path class="st2" d="M102.45,2.07c-.1,0-.19,0-.27,0-.08,0-.14,0-.2,0h-.04s-.04,0-.04,0c-.11,0-.2,0-.26,0-.06,0-.1,0-.11,0-.03,0-.05,0-.07.02-.02.01-.02.03-.02.05,0,.05.02.06.06.07.04,0,.09,0,.15.02.04.01.07.03.08.07.01.03.02.08.02.15v.56s0,.56,0,.56v.5s0,.5,0,.5c0,.11,0,.18-.02.23-.02.05-.05.08-.12.1-.04.01-.08,0-.11.01-.03,0-.06.01-.06.05-.01-.01-.04-.02-.06-.03-.03,0-.06-.02-.1-.05-.06-.04-.1-.09-.14-.16-.03-.07-.06-.15-.09-.26l-.14-.44-.14-.44-.21-.67-.21-.67c-.02-.07-.03-.12-.05-.16-.01-.04-.03-.06-.07-.06-.03,0-.04.01-.05.03-.01.02-.02.05-.03.08l-.22.73-.22.73-.15.48-.15.48c-.03.08-.05.16-.07.21-.03.06-.05.1-.1.13-.05.04-.11.04-.15.04-.05,0-.08.02-.08.06,0,.02,0,.03.02.05.01.01.04.02.06.02.03,0,.08,0,.13-.01.05,0,.11-.01.18-.01.1,0,.19,0,.25.01.07,0,.12.01.15.01.03,0,.05,0,.06-.01.01,0,.02-.02.02-.04,0-.04-.02-.06-.05-.07-.03-.01-.08-.02-.14-.03-.04,0-.07-.02-.09-.03-.02-.02-.03-.05-.03-.09,0-.03,0-.07.02-.13.01-.06.03-.14.05-.23l.06-.21.06-.21s0-.02.02-.03c0,0,.02-.01.03-.01h.29s.29,0,.29,0c.02,0,.03,0,.05,0,.01,0,.02.01.02.03l.09.3.09.3s.02.09.03.13c0,.04.01.06.01.08,0,.04,0,.07-.04.09-.03.02-.08.02-.15.02-.03,0-.05,0-.07.02-.02.01-.03.03-.03.05s0,.04.02.04c.01,0,.03.01.06.01.03,0,.08,0,.16-.01.08,0,.19-.01.32-.01.09,0,.17,0,.24.01.06,0,.12.01.16.01.03,0,.05,0,.06,0,.02,0,.03-.02.03-.03,0,.01.02.02.03.03.01,0,.03,0,.05,0,.03,0,.09,0,.16-.02.07,0,.16-.02.27-.02.12,0,.21,0,.29.02.07,0,.13.02.16.02s.06,0,.07-.02c.02-.01.03-.03.03-.05,0-.06-.03-.07-.07-.07-.04,0-.1,0-.16-.03-.04-.02-.07-.05-.08-.08-.01-.04-.01-.09-.01-.17v-.44s0-.44,0-.44c0-.03,0-.05,0-.07,0-.01.02-.02.04-.02,0,0,0,0,.01,0,0,0,.01,0,.02,0l.04.02.04.02c.06.03.11.05.16.06.05.01.09.02.14.02.08,0,.16-.02.23-.05.07-.03.14-.09.2-.15.07-.07.12-.17.16-.27.04-.1.06-.22.06-.35,0-.28-.07-.5-.2-.64-.14-.14-.34-.22-.61-.22M100.33,3.74h-.23s-.23,0-.23,0c0,0-.02,0-.02,0,0,0-.01-.01-.01-.02,0,0,0,0,0-.02,0,0,0-.02,0-.03l.02-.06.02-.06.09-.35.09-.35s0-.02.01-.03c0,0,.01,0,.02,0,0,0,.01,0,.01.01,0,0,0,.02.02.03l.11.35.11.35.02.06.02.06s0,.02,0,.03c0,0,0,.01,0,.02,0,0,0,.02-.01.03,0,0-.02.01-.03.01M102.18,2.43c0-.08,0-.14.04-.18.03-.04.09-.05.18-.05.11,0,.22.07.3.19.08.12.13.3.13.51,0,.19-.05.35-.12.46-.07.11-.17.17-.28.17-.06,0-.12-.02-.17-.05-.05-.03-.08-.08-.08-.15v-.45s0-.45,0-.45Z"/>
        <path class="st2" d="M113.44,43.04c-.13-.21-.31-.4-.56-.56-.39-.27-.81-.37-1.19-.31-.38.06-.73.28-.99.67-.13.19-.23.35-.31.5-.08.14-.13.27-.16.36h0c-.02.06-.03.11-.03.15,0,.04.01.07.03.08.02.01.04.02.05.02.02,0,.03,0,.04-.02.02-.02.02-.05.03-.09,0-.03.02-.06.04-.09.02-.03.05-.05.08-.05.03,0,.07.02.11.05l.95.64.95.64c.09.06.14.1.17.14.03.04.02.09,0,.16-.02.05-.05.08-.06.12s-.02.06.02.09c.02.01.04.02.06.01.02,0,.04-.02.06-.05.03-.05.06-.11.1-.17.03-.06.07-.13.11-.19.05-.07.11-.14.18-.23.07-.08.15-.17.22-.28.11-.16.19-.31.24-.47.05-.15.08-.31.07-.46h0c0-.23-.07-.46-.19-.66M113.35,44.14c-.02.14-.07.28-.16.42-.08.12-.16.18-.25.18-.09,0-.2-.05-.34-.15l-.65-.44-.65-.44-.23-.15-.23-.15c-.08-.05-.13-.1-.14-.17,0-.07.03-.16.12-.3.17-.25.44-.38.75-.38.31,0,.66.11,1.01.34.18.12.33.26.45.39.12.14.2.28.26.43h0c.05.14.07.29.06.43"/>
        <path class="st2" d="M111.43,41.31h0c0-.05,0-.11.01-.17,0-.06,0-.13,0-.2.01-.29.01-.51.02-.68,0-.16,0-.26,0-.29,0-.07.02-.1.04-.12.02-.02.06-.02.11-.01h.23s.21.02.21.02c.04,0,.07,0,.09.01.02,0,.03.02.03.04,0,.04-.05.06-.13.08-.07.02-.17.06-.25.14-.06.06-.11.15-.15.24-.04.1-.06.22-.06.35,0,.13.01.2.06.24.04.04.12.04.24.05h.41s.41.03.41.03c.04,0,.07,0,.08,0,.01-.01.02-.03.02-.08v-.11s0-.11,0-.11c0-.1,0-.19-.02-.27-.01-.07-.03-.13-.06-.15-.06-.07-.14-.09-.2-.1-.06-.02-.1-.03-.1-.08,0-.02,0-.04.02-.05.01,0,.03-.01.05-.01.06,0,.13.01.22.02.08,0,.17.02.27.02.12,0,.21,0,.28,0,.07,0,.12,0,.14,0,.03,0,.05,0,.07.02.01.01.02.03.02.04,0,.04-.04.06-.1.07-.06.02-.15.03-.25.08-.08.04-.12.09-.14.15-.02.07-.03.15-.04.25v.11s0,.11,0,.11c0,.03,0,.06.02.07s.04.02.07.02l.51.02.51.02c.13,0,.21,0,.26-.06.05-.05.06-.14.07-.28,0-.15,0-.27-.04-.37-.04-.1-.1-.18-.22-.26-.09-.06-.17-.1-.23-.14-.06-.04-.1-.07-.1-.11,0,0,0-.02.02-.03,0,0,.02-.02.03-.02,0,0,0,0,.02,0,.02,0,.04,0,.06,0l.24.04.24.04c.08.01.12.01.14.03s.03.05.03.13c0,.1-.02.25-.04.46-.02.2-.04.46-.05.77h0s0,0,0,.01c0,0,0,0,0,.01,0,.15,0,.26,0,.34,0,.08,0,.13,0,.15,0,.04,0,.06-.02.08-.01.02-.03.03-.06.02-.05,0-.06-.02-.06-.06,0-.04,0-.09,0-.15,0-.07-.03-.11-.08-.13-.05-.02-.12-.02-.22-.03l-1.13-.04-1.13-.04c-.07,0-.12,0-.16,0s-.06.03-.07.08c-.02.05-.02.11-.03.15,0,.04-.02.06-.07.06-.02,0-.04,0-.05-.02-.01-.01-.02-.04-.02-.06,0-.01,0-.05.01-.11,0-.06.01-.15.02-.26h0Z"/>
        <path class="st2" d="M111.45,36.06h0s0-.02,0-.03v-.03c0-.18.03-.35.07-.48.04-.13.08-.22.12-.25.02-.02.07-.03.16-.05.09-.01.2-.02.35-.02.03,0,.05,0,.07.01.02,0,.02.02.02.03,0,.02-.02.04-.05.07-.03.03-.08.06-.15.09-.14.09-.26.18-.33.28-.08.1-.12.21-.12.33v.04h0c.01.26.17.49.43.65.27.17.64.27,1.09.27.43,0,.79-.1,1.05-.27.26-.17.42-.39.42-.64h0s0,0,0,0c0-.15-.04-.28-.13-.38-.08-.11-.21-.19-.38-.27-.09-.04-.16-.07-.21-.09-.05-.03-.07-.05-.07-.08,0-.02,0-.03.03-.04.02,0,.04-.02.08-.02.02,0,.06,0,.13,0,.07,0,.17,0,.28,0,.11,0,.22.09.3.24.08.15.13.36.13.61h0v.02h0c0,.41-.19.76-.48,1.02-.3.25-.71.4-1.17.4-.45,0-.85-.16-1.14-.42-.29-.26-.48-.62-.49-1.01h0Z"/>
        <path class="st2" d="M111.55,33.66h0s0-.03,0-.05c0-.01,0-.02,0-.03,0-.02,0-.04.02-.05.01-.01.03-.02.05-.02.04,0,.05.02.06.04,0,.03,0,.07.01.11h0s0,.02,0,.03c0,0,0,.02,0,.03.01.06.03.09.07.11.04.02.09.02.17.02h.45s.45,0,.45,0c.02,0,.04,0,.05-.02.01-.01.02-.03.02-.05v-.06s0-.06,0-.06v-.5s0-.5,0-.5c0-.02,0-.03-.02-.04-.01-.01-.03-.01-.05-.01h-.45s-.45,0-.45,0c-.08,0-.13,0-.16.01-.03.01-.05.04-.07.09-.02.06-.01.12-.02.16,0,.04-.02.07-.07.07-.02,0-.04,0-.05-.02-.01-.01-.02-.03-.02-.06,0-.02,0-.08.02-.16,0-.08.02-.19.02-.33,0-.14,0-.25-.02-.33,0-.08-.02-.13-.02-.16,0-.02,0-.04.02-.05.01-.01.03-.02.05-.02.04,0,.06.02.06.06,0,.04,0,.09.02.15.01.06.03.09.07.11.04.02.09.02.17.02h1.13s1.13,0,1.13,0c.1,0,.17,0,.21-.02.04-.02.07-.05.09-.11.02-.06.02-.11.02-.15,0-.04.02-.07.08-.07.02,0,.04.01.05.03.01.02.02.05.02.08,0,.03,0,.08-.02.16,0,.08-.02.18-.02.31,0,.13,0,.23.01.31,0,.08.01.13.01.16,0,.03,0,.06-.02.08-.01.02-.03.03-.06.03-.05,0-.06-.02-.07-.06,0-.04,0-.08-.02-.13-.02-.08-.04-.12-.09-.14-.04-.02-.11-.02-.21-.02h-.53s-.53,0-.53,0c-.02,0-.04,0-.05.01-.01,0-.02.02-.02.04v.5s0,.5,0,.5v.12s0,.04.02.05c.01.01.03.02.05.02h.53s.53,0,.53,0c.1,0,.17,0,.21-.02.04-.02.07-.05.09-.11,0,0,0-.02,0-.03,0,0,0-.02,0-.03h0s0-.09.01-.12.03-.05.07-.05c.02,0,.04,0,.05.03.01.02.02.04.02.08,0,0,0,.02,0,.03s0,.02,0,.04h0s-.01.09-.02.16c0,.07,0,.15,0,.25,0,.13,0,.23.01.31,0,.08.01.13.01.16,0,.03,0,.06-.02.08-.01.02-.03.03-.06.03-.05,0-.06-.02-.07-.06,0-.04,0-.08-.02-.13-.02-.08-.04-.12-.09-.14-.04-.02-.11-.02-.21-.02h-1.13s-1.13,0-1.13,0c-.08,0-.13,0-.16.02-.03.01-.05.04-.07.09-.02.06-.01.12-.02.16,0,.04-.02.07-.07.07-.02,0-.04,0-.05-.02-.01-.01-.02-.03-.02-.06s0-.08.02-.16c0-.08.02-.19.02-.33,0-.1,0-.18-.01-.25,0-.07-.01-.12-.02-.16"/>
        <path class="st2" d="M111.54,31.27h0s.01-.08.02-.16c0-.08.02-.19.02-.32,0-.14,0-.25-.02-.33-.01-.08-.02-.13-.02-.16,0-.02,0-.04.02-.05.01-.01.03-.02.05-.02.04,0,.06.02.06.06,0,.04,0,.09.02.15.01.06.03.09.07.11.04.02.09.02.16.02h1.13s1.13,0,1.13,0c.1,0,.17,0,.21-.02.04-.02.07-.05.09-.11.02-.06.01-.11.02-.15,0-.04.02-.07.08-.07.02,0,.04,0,.05.03.01.02.02.04.02.08,0,.03,0,.08-.02.16,0,.08-.01.18-.02.31,0,.13,0,.23.01.31,0,.08.01.13.01.16,0,0,0,0,0,0,0,0,0,0,0,0h0s0,.05-.02.07c-.01.01-.03.02-.06.02-.03,0-.05,0-.06-.03-.01-.02-.01-.04-.01-.06,0-.02,0-.03,0-.05,0-.02,0-.03,0-.05-.02-.08-.04-.12-.09-.14-.04-.02-.11-.02-.22-.02h-1.13s-1.13,0-1.13,0c-.08,0-.13,0-.16.02-.03.01-.05.04-.07.09,0,.03-.01.06-.01.08,0,.03,0,.05,0,.07h0s0,.05-.02.06c0,.01-.03.02-.05.02-.02,0-.04,0-.05-.02-.01-.01-.02-.03-.02-.06,0,0,0,0,0,0,0,0,0,0,0,0h0Z"/>
        <path class="st2" d="M114.45,28.41h0s-.05-.09-.09-.14c-.04-.04-.08-.08-.13-.12-.1-.07-.18-.12-.24-.16-.06-.04-.09-.07-.09-.09,0-.01,0-.02.01-.03,0,0,.02-.01.03-.01,0,0,.01,0,.03,0,.02,0,.04,0,.06,0l.23.02.23.02s.04,0,.05,0c.01,0,.02,0,.03,0,.03,0,.05,0,.06.03.01.02.02.04.02.07,0,.05,0,.1,0,.17,0,.07,0,.14-.01.22h0c0,.11-.01.22-.02.36,0,.13,0,.28,0,.44,0,.13,0,.23.01.31,0,.08.01.13.01.16,0,.03,0,.06-.02.08-.01.02-.03.03-.06.03-.05,0-.06-.02-.07-.06,0-.04,0-.08-.02-.13-.02-.08-.04-.12-.09-.14-.04-.02-.11-.02-.22-.02h-1.13s-1.13,0-1.13,0c-.07,0-.12,0-.16.01-.03.01-.05.04-.07.08-.02.06-.02.11-.02.15,0,.04-.02.06-.07.06-.02,0-.04,0-.05-.02-.01-.01-.02-.03-.02-.05,0-.02.01-.07.02-.15.01-.07.02-.17.02-.31,0-.15,0-.26-.02-.34-.01-.08-.02-.13-.02-.16,0-.02,0-.04.02-.05.01-.01.03-.02.05-.02.04,0,.06.02.06.06,0,.04,0,.09.02.15.01.06.03.09.07.11.04.02.09.02.16.02h1.13s1.13,0,1.13,0c.11,0,.19-.03.24-.08.05-.05.08-.13.08-.24,0-.05,0-.09-.01-.13,0-.04-.02-.08-.04-.12h0Z"/>
        <path class="st2" d="M111.72,25.54h.21s.21,0,.21,0c.04,0,.07,0,.09.01.02,0,.03.02.03.04,0,.04-.05.06-.12.09-.07.03-.16.07-.25.15-.06.07-.11.15-.14.25-.03.1-.05.22-.05.35,0,.13.02.2.06.24.05.04.12.04.24.04h.41s.41,0,.41,0c.04,0,.07,0,.08-.01.01-.01.02-.03.02-.08v-.11s0-.11,0-.11c0-.1-.01-.19-.03-.27-.02-.07-.04-.13-.06-.15-.06-.07-.14-.08-.2-.1-.06-.01-.1-.02-.1-.07,0-.02,0-.04.02-.05.01,0,.03-.01.05-.01.06,0,.14,0,.22.01.08,0,.17.01.27.01.12,0,.21,0,.28,0,.07,0,.12,0,.14,0,.03,0,.05,0,.07.02.02.01.02.03.02.04,0,.04-.04.06-.1.08-.06.02-.15.04-.24.09-.07.04-.11.09-.14.16-.02.07-.03.15-.03.25v.11s0,.11,0,.11c0,.03,0,.06.02.07.01.01.04.02.07.02h.51s.51,0,.51,0c.14,0,.22-.02.26-.07.05-.05.06-.14.06-.29,0-.15,0-.27-.05-.37-.04-.1-.11-.18-.23-.25-.09-.06-.18-.1-.24-.13-.06-.03-.1-.06-.1-.1,0,0,0-.02.02-.03,0,0,.02-.02.03-.02,0,0,0,0,.02,0,.02,0,.04,0,.06,0l.24.03.24.03c.08,0,.12.01.14.03.02.02.03.05.03.12,0,.1-.01.26-.02.47-.01.21-.02.47-.02.79,0,.15,0,.26.01.34,0,.08.01.13.01.15,0,.04,0,.06-.02.08-.01.02-.03.03-.06.03-.04,0-.06-.02-.06-.06,0-.04,0-.09-.01-.15,0-.07-.04-.11-.09-.13-.05-.02-.12-.02-.22-.02h-1.13s-1.13,0-1.13,0c-.07,0-.12,0-.16.01-.03.01-.05.04-.07.08-.02.05-.02.11-.02.15,0,.04-.02.07-.07.07-.02,0-.04,0-.05-.02-.01-.01-.02-.03-.02-.06,0-.02,0-.09.01-.21,0-.12.01-.3.01-.52,0-.29,0-.51,0-.68,0-.16-.01-.26-.01-.29,0-.07.01-.1.04-.12.02-.02.06-.02.11-.02h.02Z"/>
        <path class="st2" d="M92.84,46.54h0l.04.13.04.13c.03.11.06.2.1.28.04.07.08.13.14.17.05.03.09.04.13.06.03.01.06.02.06.05,0,.03,0,.04-.02.05-.02.01-.04.01-.08.01-.04,0-.1,0-.16-.01-.07,0-.15-.02-.25-.02-.14,0-.25,0-.33.01-.08,0-.14.01-.17.01-.03,0-.05,0-.06-.01-.01,0-.02-.02-.02-.05,0-.02,0-.04.03-.06.02-.01.04-.02.07-.02.08,0,.13,0,.16-.03.03-.02.04-.05.04-.09,0-.02,0-.05-.01-.09,0-.04-.02-.08-.03-.13l-.06-.2-.06-.2-.03-.11-.03-.12s-.01-.03-.03-.03c-.01,0-.03,0-.05,0h-.31s-.31,0-.31,0c0,0-.02,0-.03.01-.01,0-.02.02-.02.03l-.03.11-.03.11-.03.11-.03.11c-.02.1-.04.18-.06.24-.01.06-.02.11-.02.14,0,.05,0,.08.03.1.02.02.05.03.1.04.07,0,.12.02.15.03.03.02.05.04.05.07,0,.02,0,.04-.02.05-.01,0-.03.01-.06.01-.03,0-.09,0-.16-.02-.07,0-.16-.02-.27-.02-.07,0-.14,0-.19.01-.05,0-.1.01-.13.01-.03,0-.05,0-.07-.02-.01-.01-.02-.03-.02-.05,0-.05.04-.06.09-.07.05,0,.11,0,.16-.05.04-.03.08-.08.1-.14.03-.06.05-.14.08-.22l.05-.17.05-.17.34-1.1.34-1.1s.02-.07.03-.09c.01-.02.03-.03.05-.03.03,0,.05.02.07.06.02.04.03.1.05.17l.33,1.04.33,1.04ZM95.67,46.55c0,.12-.01.23-.03.33-.02.1-.05.19-.1.28-.07.12-.17.21-.31.27-.13.06-.3.1-.49.1-.21,0-.38-.03-.53-.09-.14-.06-.26-.15-.34-.27-.06-.08-.09-.18-.11-.28-.02-.1-.03-.22-.03-.34h0s0-.04,0-.05c0-.02,0-.04,0-.06v-.86s0-.86,0-.86c0-.08,0-.13-.02-.16-.01-.03-.04-.05-.09-.06-.06-.02-.12-.02-.16-.02-.04,0-.07-.02-.07-.07,0-.02,0-.04.02-.05.01-.01.03-.02.05-.02.03,0,.08,0,.16.02.08,0,.19.02.33.02.14,0,.25,0,.33-.02.08,0,.13-.02.16-.02s.04,0,.06.02c.01.01.02.03.02.05,0,.05-.03.07-.07.07-.04,0-.1,0-.16.02-.05.01-.08.03-.09.07-.01.03-.02.08-.02.16v.86s0,.86,0,.86c0,.02,0,.04,0,.06,0,.02,0,.04,0,.06h0c0,.26.05.46.14.59.1.13.25.2.49.2.13,0,.25-.02.34-.07.1-.04.18-.11.23-.19.05-.07.07-.14.09-.23.02-.09.03-.19.03-.3h0s0-.07,0-.11,0-.08,0-.12v-.6s0-.6,0-.6c0-.19,0-.33-.01-.43-.01-.1-.03-.17-.08-.2-.04-.03-.11-.03-.17-.04-.06,0-.1-.02-.1-.07,0-.02,0-.04.02-.05.01-.01.04-.02.06-.02.03,0,.07,0,.13,0,.06,0,.12,0,.21,0,.09,0,.16,0,.22,0,.06,0,.1,0,.12,0,.04,0,.06,0,.08.02.02.01.03.03.03.05,0,.03-.01.05-.03.06-.02,0-.06.01-.11.01-.1,0-.16.04-.19.15-.03.1-.03.27-.03.51v.61s0,.61,0,.61c0,.04,0,.07,0,.11,0,.04,0,.07,0,.1M98.19,46.55c0,.28-.11.52-.28.7-.17.17-.4.27-.68.27-.22,0-.4-.04-.53-.11-.13-.07-.2-.18-.2-.32,0-.06,0-.11,0-.16,0-.05,0-.1,0-.15,0-.04,0-.07,0-.09,0-.02,0-.04,0-.04,0-.02,0-.05,0-.06,0-.02,0-.03.01-.05,0-.01.01-.03.02-.03,0,0,.02-.01.03-.01.01,0,.03,0,.03.01,0,0,.02.02.02.03.01.03.02.07.03.12,0,.05.02.11.04.18.05.16.13.3.24.39.1.09.23.14.35.14.15,0,.28-.06.38-.17.1-.11.16-.25.16-.42,0-.04,0-.08-.01-.12,0-.04-.02-.08-.03-.12-.04-.1-.1-.18-.19-.27-.09-.08-.2-.16-.33-.24-.2-.11-.38-.21-.51-.35-.13-.14-.21-.32-.21-.61,0-.25.08-.47.24-.62.15-.15.37-.24.64-.24.14,0,.27.02.37.05.1.03.17.07.19.1.01.01.02.07.03.16,0,.09,0,.22,0,.38,0,.03,0,.06-.02.08-.01.02-.03.03-.05.03-.04,0-.05-.02-.07-.07-.02-.04-.04-.11-.07-.19-.05-.13-.1-.23-.17-.3-.07-.07-.15-.1-.27-.1-.14,0-.26.05-.34.14-.08.09-.13.21-.13.37,0,.13.04.23.11.32.08.09.19.17.35.25.26.14.47.27.61.44.14.17.21.37.21.65h0s0,.02,0,.03h0ZM100.05,46.55h0v.21s0,.21,0,.21c0,.1,0,.17.02.21.02.04.05.06.11.09.06.02.11.02.15.02.04,0,.06.02.06.08,0,.02,0,.04-.03.05-.02.01-.04.02-.08.02-.05,0-.12,0-.2-.02-.08,0-.17-.02-.27-.02-.1,0-.19,0-.27.02-.08,0-.15.02-.2.02-.03,0-.06,0-.08-.02-.02-.01-.03-.03-.03-.06,0-.05.03-.06.07-.07.04,0,.1,0,.15-.02.06-.02.1-.04.11-.08.02-.04.02-.11.02-.21v-.21s0-.21,0-.21v-.99s0-.99,0-.99c0-.02,0-.04-.02-.06-.01-.02-.03-.03-.05-.03h-.14c-.1,0-.18.02-.25.06-.07.04-.13.1-.19.18-.06.1-.1.18-.14.23-.04.05-.07.08-.11.08-.02,0-.03,0-.04-.01,0,0-.01-.03-.01-.06,0,0,0-.01,0-.03,0-.02,0-.04.01-.06l.06-.25.06-.25c.02-.07.03-.14.04-.18.01-.04.03-.07.06-.07.03,0,.04.04.06.08.01.04.03.08.06.09.02.02.05.03.09.03.04,0,.09,0,.15,0,.05,0,.1,0,.16,0,.06,0,.12,0,.2,0h.3s.3,0,.3,0c.08,0,.15,0,.22,0,.06,0,.12,0,.17,0,.04,0,.07,0,.1,0,.03,0,.05,0,.06-.02.04-.03.07-.08.09-.12.02-.04.04-.08.06-.08.02,0,.03.01.04.03,0,.02.01.04.01.06v.05s-.02.33-.02.33l-.02.32c0,.05,0,.09-.02.11-.01.02-.03.03-.05.03-.04,0-.06-.03-.08-.09-.02-.06-.03-.14-.06-.24-.04-.11-.1-.17-.19-.2-.08-.03-.2-.04-.35-.04h-.04s-.04,0-.04,0c-.02,0-.04.01-.05.03-.01.02-.02.04-.02.05v1s0,1,0,1ZM102.68,46.56l-.08-.2-.08-.2c-.03-.09-.06-.14-.11-.18-.04-.03-.09-.05-.17-.05h-.05s-.04,0-.05.02c-.01.01-.02.03-.02.05v.28s0,.28,0,.28v.21s0,.21,0,.21c0,.1,0,.17.03.23.03.05.08.08.19.08.04,0,.07,0,.08.02.02.01.02.03.02.06,0,.02,0,.04-.03.05-.02.01-.04.02-.07.02-.02,0-.07,0-.15-.01-.07,0-.17-.01-.3-.02-.13,0-.23,0-.31.01-.08,0-.13.01-.16.01-.03,0-.06,0-.08-.02-.02-.01-.03-.03-.03-.06,0-.05.02-.06.06-.07.04,0,.08,0,.13-.02.08-.02.12-.04.14-.09.02-.04.02-.11.02-.22v-.21s0-.21,0-.21v-.92s0-.92,0-.92c0-.08,0-.13-.02-.16-.02-.03-.04-.05-.09-.07-.06-.02-.12-.01-.16-.02-.04,0-.07-.02-.07-.07,0-.03.01-.05.03-.06.02,0,.06,0,.1,0,.02,0,.06,0,.11,0,.05,0,.13,0,.21,0,.12,0,.24,0,.36-.01.12,0,.23-.01.34-.01.26,0,.47.08.6.21.14.13.21.32.21.55,0,.2-.05.37-.14.5-.09.13-.22.22-.39.26.05.04.09.08.12.14.03.05.06.11.08.18l.08.2.08.2.06.14.06.14c.06.13.1.24.13.31.04.07.07.12.1.13.05.02.11.03.14.05.04.01.06.03.06.07,0,.02,0,.03-.02.04-.01,0-.03,0-.06,0-.04,0-.09,0-.14,0-.05,0-.11,0-.16,0-.04,0-.07,0-.11,0-.04,0-.07,0-.11,0-.05,0-.08-.01-.1-.04-.02-.03-.03-.07-.06-.12l-.14-.36-.14-.36ZM104.28,46.56h0l.34-1.1.34-1.1s.02-.07.03-.09c.01-.02.03-.03.05-.03.03,0,.05.02.07.06.02.04.03.1.05.17l.33,1.04.33,1.04.04.13.04.13c.03.11.06.2.1.28.04.07.08.13.14.17.05.03.09.04.13.06.03.01.06.02.06.05,0,.03,0,.04-.02.06-.02.01-.04.01-.08.01-.04,0-.1,0-.16-.02-.07,0-.15-.02-.25-.02-.14,0-.25,0-.33.01-.08,0-.14.01-.17.01-.03,0-.05,0-.06-.01-.01,0-.02-.02-.02-.05s0-.04.03-.06c.02-.01.04-.02.07-.02.08,0,.13,0,.16-.03.03-.02.04-.05.04-.09,0-.02,0-.05-.01-.09,0-.04-.02-.08-.03-.13l-.06-.2-.06-.2-.03-.12-.04-.11s-.01-.03-.03-.03c-.01,0-.03,0-.05,0h-.31s-.31,0-.31,0c0,0-.02,0-.03.01-.01,0-.02.02-.02.03l-.03.11-.03.11-.03.11-.03.11c-.02.1-.04.18-.06.24-.01.06-.02.11-.02.14,0,.05.01.08.03.1.02.02.05.03.1.04.07,0,.12.02.15.03.03.02.05.04.05.07,0,.02,0,.04-.02.05-.01,0-.04.01-.06.01-.03,0-.09,0-.16-.02-.07,0-.16-.02-.27-.02-.07,0-.14,0-.19.01-.06,0-.1.01-.14.01-.03,0-.05,0-.07-.02-.01-.01-.02-.03-.02-.05,0-.05.04-.06.09-.07.05,0,.11,0,.16-.05.04-.03.07-.08.1-.14.03-.06.05-.14.08-.22l.05-.17.05-.17ZM106.89,46.56h0v-.92s0-.92,0-.92c0-.07,0-.12-.01-.16-.01-.03-.04-.05-.08-.07-.06-.02-.11-.02-.15-.02-.04,0-.06-.02-.06-.07,0-.02,0-.04.02-.05.01-.01.03-.02.05-.02.03,0,.07,0,.15.02.07,0,.17.02.31.02.15,0,.26,0,.34-.02.08,0,.13-.02.16-.02.02,0,.04,0,.05.02.01.01.02.03.02.05,0,.04-.02.06-.06.07-.04,0-.09,0-.15.02-.06.01-.09.03-.11.07-.02.04-.02.09-.02.17v.92s0,.92,0,.92v.21s0,.21,0,.21c0,.11.03.19.08.24.05.05.13.08.24.08.11,0,.2-.02.28-.07.08-.05.16-.11.23-.2.07-.1.13-.18.16-.24.04-.06.07-.09.09-.09.01,0,.02,0,.03.01,0,0,.01.02.01.03,0,0,0,.01,0,.03,0,.02,0,.04,0,.06l-.02.23-.03.23s0,.04,0,.05c0,.01,0,.02,0,.03,0,.03,0,.05-.03.06-.02.01-.04.02-.07.02-.1,0-.26-.01-.45-.02-.2-.01-.44-.02-.73-.02-.13,0-.23,0-.31.01-.08,0-.13.01-.16.01-.03,0-.06,0-.08-.02-.02-.01-.03-.03-.03-.06,0-.05.03-.06.06-.07.04,0,.08,0,.13-.02.08-.02.12-.04.14-.09.02-.04.02-.11.02-.22v-.21s0-.21,0-.21ZM104.92,45.16s-.01-.03-.01-.03c0,0,0-.01-.01-.01,0,0-.01,0-.02.01,0,0-.01.02-.01.03l-.12.44-.12.44s0,.02,0,.03c0,0,0,.01,0,.02,0,0,0,.02,0,.02,0,0,.01,0,.02,0h.25s.25,0,.25,0c0,0,.02,0,.03-.01,0,0,.01-.02.01-.03,0,0,0-.02,0-.02,0,0,0-.02,0-.03l-.13-.43-.13-.43ZM102.13,45.67c0,.05.01.08.05.1.04.02.09.02.18.02.17,0,.3-.05.38-.16.09-.11.13-.26.13-.47,0-.2-.04-.37-.13-.49-.08-.12-.21-.18-.37-.18-.11,0-.17.02-.21.06-.03.04-.04.1-.04.18v.47s0,.47,0,.47ZM91.94,45.14s-.01-.03-.02-.03c0,0,0-.01-.01-.01s-.01,0-.02.01c0,0-.01.02-.01.03l-.12.44-.12.44s0,.02,0,.03c0,0,0,.01,0,.02,0,0,0,.01,0,.02,0,0,.01,0,.02,0h.25s.25,0,.25,0c0,0,.02,0,.03-.01,0,0,.01-.02.01-.03,0,0,0-.01,0-.02,0,0,0-.02,0-.03l-.13-.43-.13-.43Z"/>
        <path class="st2" d="M87.92,45.86c0-.48-.15-.88-.41-1.16-.26-.28-.64-.45-1.11-.45-.37,0-.66.02-.86.06-.2.04-.3.09-.3.16,0,.02,0,.04.02.05,0,.01.02.02.04.02.03,0,.06-.01.09-.02.03-.01.06-.02.1-.02.04,0,.07.01.08.04.02.03.02.07.02.12v.94s0,.94,0,.94v.21s0,.21,0,.21c0,.11,0,.17-.02.22-.02.04-.06.07-.14.09-.05.01-.09,0-.13.02-.04,0-.06.02-.06.07,0,.03,0,.04.03.06.02.01.04.02.08.02.06,0,.13,0,.2-.02.07,0,.14-.02.22-.02.09,0,.18.01.29.03.11.01.22.02.35.03.36,0,.67-.08.91-.23.24-.15.41-.38.52-.66h0c.04-.1.06-.2.08-.32.02-.11.03-.23.03-.36M87.39,46.21c-.02.12-.04.23-.08.33h0c-.08.23-.2.42-.36.54-.16.13-.35.19-.58.19-.15,0-.24-.03-.29-.11-.05-.07-.07-.19-.07-.36v-.14s0-.14,0-.14v-.93s0-.93,0-.93c0-.1,0-.17.06-.21.05-.05.15-.07.32-.07.3,0,.56.15.73.41.18.25.28.61.28,1.03,0,.13,0,.26-.03.37"/>
        <path class="st2" d="M84.95,47.29s-.08-.02-.13-.06c-.06-.04-.11-.1-.14-.17-.04-.07-.06-.16-.1-.28l-.04-.13-.04-.13-.33-1.04-.33-1.04c-.02-.07-.03-.13-.05-.17-.02-.04-.03-.06-.07-.06-.03,0-.04.01-.05.03-.01.02-.02.05-.03.09l-.34,1.1-.34,1.1-.05.17-.05.17c-.03.09-.05.16-.08.22-.03.06-.06.11-.1.14-.05.04-.11.04-.16.05-.05,0-.09.02-.09.07,0,.02,0,.04.02.05.01.01.04.02.07.02.03,0,.08,0,.13-.01.06,0,.12-.01.19-.01.11,0,.2,0,.27.02.07,0,.13.02.16.02.03,0,.05,0,.06-.01.01,0,.02-.02.02-.05,0-.04-.02-.06-.05-.07-.03-.02-.08-.02-.15-.03-.04,0-.08-.02-.1-.04s-.03-.05-.03-.1c0-.03,0-.08.02-.14.01-.06.03-.14.06-.24l.03-.11.03-.11.03-.11.03-.11s.01-.02.02-.03c.01,0,.02-.01.03-.01h.31s.31,0,.31,0c.02,0,.04,0,.05,0,.01,0,.02.02.03.03l.03.11.03.12.06.2.06.2c.01.05.03.1.03.13,0,.04.01.07.01.09,0,.04,0,.07-.04.09s-.08.03-.16.03c-.03,0-.05,0-.07.02s-.03.03-.03.06,0,.04.02.05c.01,0,.03.01.06.01.03,0,.09,0,.17-.01.08,0,.2-.01.33-.01.1,0,.18,0,.25.02.07,0,.12.02.16.02.04,0,.06,0,.08-.01.02-.01.02-.03.02-.05,0-.03-.02-.04-.06-.05M83.86,46.06s-.02.01-.03.01h-.25s-.25,0-.25,0c0,0-.02,0-.02,0,0,0,0-.01,0-.02,0,0,0,0,0-.02,0,0,0-.02,0-.03l.12-.44.12-.44s0-.02.01-.03c0,0,.01-.01.02-.01,0,0,0,0,.01.01,0,0,0,.02.01.03l.13.43.13.43s0,.02,0,.03c0,0,0,.02,0,.02,0,0,0,.02-.01.03"/>
        <path class="st2" d="M77.67,43.65h0l.79-.5.79-.5c.07-.04.11-.07.13-.1.02-.03.02-.06,0-.11-.02-.06-.05-.11-.07-.15-.02-.04-.02-.07.02-.09.02-.01.03-.01.05-.01.02,0,.03.02.05.04.01.02.03.07.07.14.03.07.08.17.16.29.07.12.14.21.19.27.05.06.09.1.1.12.01.02.02.04.01.06,0,.02-.01.03-.03.04-.04.02-.06.01-.09-.02-.03-.03-.05-.07-.1-.12-.04-.05-.08-.06-.11-.06-.04,0-.08.03-.15.07l-.49.31-.49.31-.46.29-.46.29c-.09.05-.14.09-.17.13-.03.04-.03.08-.01.14.02.06.05.1.06.14.02.04.02.07-.03.1-.02.01-.04.01-.06,0-.02,0-.04-.03-.06-.06-.02-.02-.04-.07-.07-.14-.03-.07-.08-.16-.15-.27-.07-.11-.13-.19-.17-.25-.05-.06-.08-.1-.1-.13-.02-.03-.03-.05-.02-.08,0-.02.01-.04.04-.05.04-.02.06-.01.09.02.02.03.05.07.08.1.06.06.1.08.15.07.05,0,.1-.04.19-.1l.16-.1.16-.1Z"/>
        <path class="st2" d="M82.01,44.87c-.11-.37-.38-.69-.8-.89-.16-.08-.31-.14-.44-.2-.13-.05-.25-.09-.34-.12h0c-.1-.02-.18-.04-.24-.04-.06,0-.1.01-.12.04h0s0,0,0,0c0,0,0,0,0,0,0,.02-.01.04,0,.05,0,.02.01.03.03.04.03.01.06.02.09.02.03,0,.07,0,.1.02.04.02.05.04.06.07,0,.03-.01.07-.03.11l-.5,1.03-.5,1.03c-.05.1-.08.15-.11.18s-.08.03-.16.02c-.05,0-.09-.03-.12-.04-.04-.01-.06,0-.08.03-.01.02-.01.04,0,.06,0,.02.03.04.06.05.06.03.12.05.18.07.07.02.13.05.2.08,0,0,.01,0,.02,0,0,0,.01,0,.02.01h0c.07.04.15.09.23.14.08.05.18.11.28.16.36.17.69.23.99.18.3-.05.57-.22.79-.48.05-.06.1-.13.15-.2.05-.07.09-.15.13-.23.21-.43.25-.85.14-1.22M81.42,45.85c-.07.15-.15.28-.24.39-.08.11-.18.21-.27.29h0c-.16.14-.34.22-.52.25-.18.03-.36,0-.54-.09-.05-.02-.09-.05-.12-.08-.03-.03-.05-.06-.07-.09h0s-.03-.1-.01-.17c.01-.07.05-.15.09-.24l.47-.95.47-.95c.04-.09.08-.15.15-.16.07-.02.16,0,.31.08.27.13.43.38.48.69.05.31-.02.67-.2,1.05"/>
        <path class="st2" d="M76.2,41.26h0c.02-.09.05-.16.1-.21.05-.05.11-.09.19-.11.06-.01.11-.02.16-.03.05,0,.1-.01.15-.02.04,0,.07-.01.09-.02.02,0,.03,0,.04-.01.05,0,.09,0,.12,0,.03,0,.04.02.05.05,0,.04-.03.07-.09.09-.06.02-.14.05-.23.09-.05.02-.09.05-.13.08-.04.03-.07.06-.11.09h0c-.07.08-.12.16-.15.25-.03.09-.04.18-.02.26.03.15.11.26.24.34.12.07.28.1.44.07.15-.03.27-.1.37-.21.1-.11.18-.27.25-.48.01-.04.03-.08.04-.11.01-.04.02-.07.04-.11h0c.06-.16.12-.31.23-.42.11-.11.26-.2.49-.24.24-.05.47,0,.64.11.18.11.3.3.36.56h0s0,.01,0,.02c0,0,0,.01,0,.02.03.14.03.27.02.37-.01.1-.04.18-.06.21-.01.01-.06.03-.15.06-.09.02-.21.05-.37.08-.03,0-.06,0-.08,0-.02,0-.03-.02-.03-.04,0-.03.01-.06.05-.08.04-.03.1-.06.18-.11.12-.08.21-.14.26-.22.05-.08.07-.17.05-.28,0,0,0,0,0,0,0,0,0,0,0,0h0c-.03-.14-.1-.24-.2-.3-.1-.06-.23-.08-.38-.05-.1.02-.18.06-.24.12-.06.06-.11.14-.16.24h0s-.02.06-.04.09c-.01.03-.02.07-.03.11-.09.29-.18.51-.31.68-.14.17-.32.28-.6.33-.28.05-.55,0-.75-.13-.21-.13-.36-.35-.41-.62-.02-.09-.03-.18-.03-.26,0-.08,0-.15.02-.22h0Z"/>
        <path class="st2" d="M79.36,38.96s0-.06,0-.08h0c0-.09,0-.18-.01-.27,0-.09,0-.18,0-.27,0-.09,0-.16.01-.21,0-.05,0-.09.01-.11,0-.04,0-.08-.01-.1,0-.02-.03-.03-.06-.03-.05,0-.06.03-.07.07,0,.04,0,.1-.02.16-.01.05-.03.08-.07.09-.03.01-.08.02-.16.02h-1.13s-1.13,0-1.13,0c-.11,0-.17,0-.22-.02-.04-.02-.07-.06-.09-.14-.01-.05,0-.09-.02-.13,0-.04-.02-.06-.07-.06-.03,0-.04,0-.06.03-.01.02-.02.04-.02.08,0,.03,0,.08.01.16,0,.08.01.18.01.31,0,.12,0,.21-.01.28,0,.07-.01.12-.02.15h0s0,.07.02.09c.01.02.03.03.05.03.03,0,.05,0,.06-.02.01-.02.02-.04.02-.08h0c0-.11.03-.16.09-.19.05-.03.13-.03.23-.03h.49s.49,0,.49,0c.02,0,.04,0,.05.02.01.01.02.03.02.05v.05s0,.04,0,.05c0,.02,0,.03,0,.05h0s-.03.07-.07.1c-.03.03-.08.05-.15.08l-.56.22-.56.22c-.05.02-.09.04-.12.06-.03.02-.04.05-.04.1,0,.04,0,.07,0,.11,0,.04,0,.07,0,.11,0,.06,0,.11,0,.16,0,.05,0,.1,0,.14,0,.03,0,.05,0,.06,0,.01.02.02.04.02.04,0,.05-.02.07-.06.01-.04.02-.09.05-.14.01-.03.06-.06.13-.1.07-.04.18-.08.31-.13l.34-.14.34-.14c.06-.03.12-.05.18-.08.05-.03.1-.07.14-.12.04.16.13.29.26.39.13.09.3.14.5.14.23,0,.42-.07.55-.21.13-.14.21-.34.21-.6,0-.03,0-.06,0-.08M79.02,39.28c-.12.08-.28.13-.49.13-.2,0-.36-.04-.47-.13-.11-.09-.16-.21-.16-.38h0v-.02c0-.08,0-.13.02-.16.02-.03.04-.05.09-.05h.47s.47,0,.47,0c.08,0,.14,0,.18.03.04.03.06.08.07.18h0s0,0,0,.02,0,.01,0,.02c0,.16-.07.28-.18.37"/>
        <path class="st2" d="M76.28,36.01h0s0-.03,0-.05c0-.02,0-.03,0-.05,0-.15,0-.26-.01-.34,0-.08-.01-.13-.01-.15,0-.04,0-.06.02-.08s.03-.03.06-.03c.04,0,.06.02.07.06,0,.04,0,.09.01.15,0,.07.04.11.09.13.05.02.12.02.22.02h1.13s1.13,0,1.13,0c.07,0,.12,0,.16-.01.03-.01.05-.03.07-.08.02-.05.01-.11.02-.15,0-.04.02-.07.07-.07.02,0,.04,0,.05.02.01.01.02.04.02.06,0,.02,0,.07,0,.16,0,.09,0,.22-.01.39h0s0,.06,0,.09c0,.03,0,.06,0,.09,0,.29,0,.51,0,.67,0,.16,0,.26,0,.29,0,.07-.01.1-.04.12-.02.02-.06.02-.11.02h-.23s-.21,0-.21,0c-.04,0-.07,0-.09-.01-.02,0-.03-.02-.03-.04,0-.04.05-.06.12-.09.07-.03.16-.06.25-.15.06-.07.11-.15.14-.25.03-.1.05-.22.05-.35,0-.13-.02-.2-.06-.24-.05-.04-.12-.04-.24-.04h-.41s-.41,0-.41,0c-.04,0-.07,0-.08.01-.01.01-.02.03-.02.08v.22c0,.1.01.19.03.27.02.07.04.13.06.15.06.07.14.08.2.1s.1.02.1.08c0,.02,0,.04-.02.05-.01,0-.03.01-.05.01-.06,0-.13,0-.22-.01-.08,0-.17-.01-.27-.01-.12,0-.21,0-.28,0-.07,0-.12,0-.14,0-.03,0-.05,0-.07-.02-.01-.01-.02-.03-.02-.04,0-.04.04-.06.1-.08s.15-.04.24-.09c.07-.04.11-.09.14-.16.02-.07.03-.15.03-.26v-.11s0-.11,0-.11c0-.03,0-.06-.02-.07-.01-.01-.04-.02-.07-.02h-.51s-.51,0-.51,0c-.14,0-.21.02-.26.07-.04.05-.06.14-.06.29,0,.15,0,.27.05.37.04.1.11.18.23.25.09.06.18.1.24.13.06.03.1.06.1.1,0,.01,0,.02-.02.03,0,0-.02.02-.03.02,0,0,0,0-.02,0-.02,0-.04,0-.06,0l-.24-.03-.24-.03c-.08,0-.12-.01-.14-.03-.02-.02-.03-.05-.03-.12,0-.1,0-.24.02-.43,0-.19.02-.43.02-.72h0Z"/>
        <path class="st2" d="M79.25,33.61s-.04-.08-.05-.14c-.01-.06-.04-.11-.12-.11-.02,0-.05,0-.09.01-.03,0-.07.02-.12.03l-.29.1-.29.1-.5.17-.5.17s-.06.02-.08.03c-.02,0-.03.02-.03.03,0,0,0,.02.03.03.02,0,.05.02.08.03l.72.21.72.21c.08.02.14.04.2.05.05.01.1.02.12.02.13,0,.15-.07.17-.14.01-.07.01-.15.08-.15.02,0,.04,0,.05.02.01.02.02.04.02.07,0,.02,0,.07-.02.12,0,.06-.02.13-.02.22,0,.1,0,.18,0,.24,0,.06,0,.09,0,.1,0,.03,0,.06-.02.07-.01.02-.03.02-.05.02-.05,0-.06-.03-.07-.07,0-.04,0-.09-.02-.13-.02-.04-.05-.07-.1-.09-.04-.03-.1-.05-.17-.07l-1.32-.43-1.32-.43s-.05-.02-.07-.03c-.01-.01-.02-.02-.02-.03,0-.02.03-.04.07-.05.04-.02.1-.03.16-.05l.2-.07.2-.07.95-.33.95-.33c.12-.04.22-.07.3-.11.08-.03.13-.07.15-.12.02-.03.02-.08.03-.12,0-.04.02-.07.05-.07.02,0,.04,0,.05.02.01.01.02.03.02.06,0,.01,0,.07-.01.17,0,.1-.01.25-.02.44,0,.08,0,.14.01.2,0,.05.01.1.01.12,0,.02,0,.03,0,.04s-.01.02-.02.02c0,0,0,0-.01,0,0,0,0,0-.02,0,0,0-.01,0-.02,0,0,0-.01,0-.01,0"/>
        <path class="st2" d="M79.23,31.23h0s.01-.02.02-.03c0,0,.02,0,.04,0,.01,0,.03,0,.04,0,.01,0,.02.02.02.03h0s0,0,0,.02c0,0,0,.01,0,.02,0,.02,0,.08-.02.16,0,.08-.02.19-.02.33,0,.14,0,.25.02.33s.02.13.02.16c0,.02,0,.04-.02.05-.01.01-.03.02-.05.02-.04,0-.06-.02-.07-.06,0-.04,0-.09-.02-.15-.01-.06-.03-.09-.07-.11-.04-.02-.09-.02-.17-.02h-1.13s-1.13,0-1.13,0c-.1,0-.17,0-.21.02-.04.02-.07.05-.09.11-.02.06-.01.11-.02.15,0,.04-.02.07-.08.07-.02,0-.04,0-.05-.03-.01-.02-.02-.04-.02-.08,0-.03,0-.08.02-.16,0-.08.02-.18.02-.31,0-.13,0-.23-.01-.31,0-.08-.01-.13-.01-.16,0-.01,0-.02,0-.03,0,0,0-.02,0-.03h0s.02-.03.03-.03c.01,0,.03-.01.04-.01.02,0,.03,0,.04.01,0,0,.02.02.02.03h0s0,.04,0,.07c0,.03,0,.05.01.08.02.08.04.12.09.14.04.02.11.02.22.02h1.13s1.13,0,1.13,0c.08,0,.13,0,.16-.02.03-.01.05-.04.07-.09.01-.04.01-.08.02-.11,0-.03,0-.06.01-.08"/>
        <path class="st2" d="M76.48,28.36h0s.09.04.17.05c.08,0,.17,0,.29,0h1.02s1.03,0,1.03,0c.06,0,.1,0,.14,0,.03,0,.05-.02.07-.05h0s0-.01,0-.02c0,0,0-.02,0-.02.02-.06.02-.12.02-.16,0-.04.02-.07.07-.07.02,0,.04,0,.05.02.01.01.02.03.02.05v.1s0,.1,0,.1v.22s0,.22,0,.22c0,.02,0,.04,0,.05s-.02.02-.04.04l-1.07.66-1.07.66s0,.02.01.02c0,0,.02,0,.04,0h.67s.67,0,.67,0c.07,0,.12,0,.17,0,.04,0,.07,0,.09,0,.18,0,.28,0,.33-.04.06-.04.07-.11.07-.24,0-.02,0-.05.02-.06.01-.02.03-.03.05-.03.02,0,.04.01.05.03.01.02.02.05.02.09,0,.04,0,.09,0,.15,0,.06,0,.12,0,.19s0,.13,0,.18c0,.05,0,.09,0,.13s0,.06-.02.08c-.01.02-.03.03-.05.03-.03,0-.04,0-.05-.02,0-.01-.01-.03-.01-.07v-.05c0-.09-.04-.13-.12-.16-.08-.03-.21-.03-.39-.03h-1.23s-1.23,0-1.23,0c-.03,0-.06,0-.09-.02-.02-.01-.04-.03-.04-.05,0-.02,0-.03.02-.05.01-.02.03-.03.06-.05l1.32-.81,1.32-.81s0-.02-.01-.02c0,0-.02,0-.04,0h-.96s-.96,0-.96,0c-.18,0-.3,0-.38.03s-.1.08-.1.18c0,.01,0,.03,0,.04,0,.01,0,.03,0,.04,0,.02,0,.04-.02.05-.01.01-.03.02-.06.02-.02,0-.04-.01-.05-.03-.01-.02-.02-.05-.02-.1,0-.04,0-.09,0-.15,0-.06,0-.12.01-.19,0-.02,0-.05,0-.07,0-.02,0-.04,0-.07,0-.03,0-.06,0-.09,0-.03,0-.06,0-.09,0-.04,0-.07.02-.09.01-.02.03-.03.05-.03.03,0,.05,0,.06.02.01.01.02.04.02.07v.04s0,.07.02.09c.01.03.03.05.05.06"/>
        <path class="st2" d="M78.99,25.84h-.86s-.86,0-.86,0c-.3,0-.53.03-.68.12-.15.09-.23.25-.23.52,0,.13.02.25.07.34.04.1.11.18.19.23.09.06.19.09.32.11.12.02.27.02.44.02h.6s.6,0,.6,0c.19,0,.33,0,.43-.01.1-.01.17-.03.2-.08.03-.04.03-.11.04-.17,0-.06.02-.1.07-.1.02,0,.04,0,.05.02.01.01.02.03.02.06,0,.03,0,.07,0,.13,0,.06,0,.12,0,.21,0,.09,0,.16,0,.22,0,.06,0,.1,0,.12,0,.03,0,.06-.02.08-.01.02-.03.03-.05.03-.03,0-.05-.01-.06-.03,0-.02-.01-.06-.01-.11,0-.1-.04-.16-.14-.19-.1-.03-.27-.03-.52-.03h-.61s-.61,0-.61,0c-.17,0-.32,0-.45-.02-.13-.02-.25-.05-.36-.12-.12-.07-.21-.17-.27-.31-.06-.13-.1-.3-.1-.49,0-.21.03-.38.09-.53.06-.14.15-.26.27-.34.1-.07.2-.1.32-.12.12-.02.26-.02.41-.02h.86s.86,0,.86,0c.08,0,.13,0,.16-.02.03-.01.05-.04.06-.09.02-.06.02-.12.02-.16,0-.04.02-.07.07-.06.02,0,.04,0,.05.02.01.01.02.03.02.05,0,.02,0,.08-.02.16,0,.08-.02.19-.02.33,0,.14,0,.25.02.33,0,.08.02.13.02.16s0,.04-.02.06c-.01.01-.03.02-.05.02-.05,0-.07-.03-.07-.07s0-.1-.02-.16c-.01-.05-.03-.08-.07-.09-.03-.01-.08-.02-.16-.02"/>
        <path class="st9" d="M95.34,9.82v3.27s-.01,5.35-.01,5.35v5.35c-.3-.06-.87-.18-1.37-.29-.5-.11-.92-.19-.92-.19l-.4-3.18-.4-3.18s.03-.01.04-.02c.01,0,.02-.02.04-.03h0s.05-.06.07-.09c.02-.03.03-.06.02-.08,0-.07-.05-.11-.1-.14-.05-.03-.09-.05-.09-.05l-.21-1.7-.21-1.7s0-.02,0-.03c0-.01,0-.02,0-.03h0c-.02-.23,0-.42.04-.56.03-.13.07-.21.07-.21,0-.01-.06-.03-.12-.05-.06-.02-.12-.03-.13-.04-.09-.02-.2-.05-.32-.08-.12-.03-.25-.06-.37-.08-.04,0-.08.02-.12.03-.04.01-.07.02-.09.03,0,.04-.02.13-.03.21-.01.08-.02.15-.02.15,0,0-.13-.02-.28-.03-.15-.02-.31-.04-.37-.04-.01-.06-.02-.15-.03-.23,0-.08-.01-.17-.02-.22,0-.02,0-.04-.02-.05,0-.01-.02-.02-.04-.02-.03,0-.29-.03-.56-.05-.26-.02-.53-.04-.56-.04-.01,0-.03,0-.04,0-.01,0-.02.02-.02.03,0,.05-.02.13-.03.23-.01.1-.02.2-.04.29-.06,0-.22.01-.38.02-.16.01-.31.03-.35.03-.02-.08-.03-.17-.04-.27-.01-.09-.03-.19-.04-.28-.03,0-.08-.02-.13-.04-.05-.02-.1-.03-.12-.03-.02,0-.1,0-.19.01-.09,0-.2.02-.3.02,0-.01-.04-.98-.09-1.94-.04-.97-.09-1.94-.09-1.98.03,0,.06-.03.09-.06.03-.03.05-.08.06-.13,0,.02-.02.05-.04.07-.02.02-.06.04-.1.04-.05,0-.09-.03-.11-.06-.03-.03-.04-.07-.04-.09,0-.08.04-.12.09-.14.05-.02.1-.01.13,0-.02-.02-.05-.03-.08-.04-.03,0-.05,0-.06-.01-.08,0-.14.04-.17.08-.03.05-.05.1-.05.13,0,.04.01.08.04.12.03.04.07.07.14.09,0,.05,0,1.01,0,1.98,0,.96,0,1.92,0,1.96-.18.01-.28.02-.33.02-.06,0-.07,0-.08.02-.02.02-.05.22-.07.42-.02.2-.04.4-.04.41-.06,0-.13.02-.2.03-.07,0-.15.02-.23.03,0,0-.03-.15-.05-.3-.03-.15-.05-.3-.05-.31,0-.01,0-.03-.02-.03,0,0-.03-.02-.05-.02-.04,0-.09-.02-.14-.03-.05-.01-.11-.02-.19-.03-.01,0-.17.03-.34.07-.17.04-.35.08-.4.09,0,0-.01,0-.02.01,0,0-.02.02-.02.04l-.23,2.09-.23,2.09s-.05.02-.1.06c-.05.04-.1.09-.11.14,0,.05.02.1.04.14.03.04.07.08.1.1l-.33,3.19-.33,3.19s-.43.08-.93.19c-.5.11-1.08.24-1.38.35v-8.64s.02-8.64.02-8.64h7.09s7.09.02,7.09.02v3.27Z"/>
        <path class="st8" d="M89.67,20.98c-.71-.01-1.42.68-1.33,2.09,0,0-.53,0-1.05.02-.53.01-1.07.03-1.11.01-.11-.04-.15-.11-.19-.19-.04-.07-.08-.15-.19-.19-.11-.04-.18,0-.25,0-.07.02-.13.03-.21-.06-.08-.08-.07-.15-.06-.21,0-.06.02-.13-.06-.21-.08-.08-.14-.07-.2-.06-.05,0-.1,0-.14-.1-.01-.03,0-.06,0-.08.01-.02.04-.04.08-.05.33-.04.36-.13.3-.2-.06-.07-.21-.13-.27-.11-.04.01-.09-.01-.13-.06-.04-.05-.06-.11-.04-.17.02-.05-.04-.15-.1-.25-.06-.1-.13-.2-.13-.23,0-.01,0-.05,0-.08,0-.04,0-.08,0-.12h0s0-.04,0-.06,0-.03,0-.04c.06-.02.07-.13.06-.23,0-.09-.03-.17-.03-.23,0-.01,0-.03,0-.03,0-.04,0-.06.01-.09,0-.04.02-.06.04-.07.02-.02.05-.04.05-.16,0-.12-.02-.18-.05-.25,0,0,0,0,0-.01-.03-.06-.05-.13-.05-.23,0-.02.01-.03.03-.03,0,0,.02,0,.04,0,.01,0,.02,0,.03,0,.16-.02.21-.08.21-.14,0-.06-.06-.12-.13-.15-.04-.01-.06-.04-.08-.06-.04-.05-.06-.11-.06-.19,0-.11.02-.24.03-.36,0-.11,0-.11-.02-.11-.01,0-.03,0-.02-.11,0-.11,0-.19-.03-.26-.02-.07-.04-.15-.03-.26,0-.11.05-.21.1-.29.04-.08.09-.15.09-.2,0-.05.01-.1.02-.14s.03-.08.04-.11h0c.03-.06.07-.1.09-.12.03-.03.05-.04.05-.04.44-.07,1.09-.12,1.73-.16.64-.04,1.25-.06,1.61-.06.02,0,.04,0,.05,0,.02,0,.03,0,.05,0,.55,0,1.26.02,1.92.06.66.04,1.25.1,1.56.19,0,0,0,.01,0,.04,0,.03,0,.06.01.11l.41,3.82c.03.28.05.52.07.7.02.18.03.29.03.31,0,.03.02.33.04.63.02.3.05.61.05.65,0,.06,0,.12,0,.17-.02.05-.05.09-.1.11-.03,0-.38-.03-.73-.08-.35-.04-.69-.09-.69-.09.08-1.42-.63-2.14-1.34-2.15"/>
        <path class="st8" d="M84.82,15.18s-.03,0-.02-.12c.01-.11.02-.23.03-.35.01-.12.02-.24.03-.35.01-.11.01-.15.01-.19,0-.04,0-.07,0-.19,0-.06,0-.19.02-.36.01-.16.03-.36.05-.53h0c.01-.11.03-.23.05-.32.02-.09.04-.16.07-.2.04-.07.08-.12.14-.17.06-.05.13-.09.25-.15.03.14.06.32.07.45.02.14.03.24.04.24.07-.01.29-.02.49-.04.2-.01.38-.02.4-.02.01,0,.03,0,.03-.02,0,0,.01-.02.02-.03,0-.05.03-.22.04-.39.02-.17.04-.34.04-.4.06,0,.11,0,.15,0,.05,0,.09,0,.12,0,.07,0,.25.03.41.14.16.12.31.31.34.64.05,0,.26,0,.49,0,.23,0,.49,0,.64-.02.02,0,.04,0,.07-.02.02-.01.04-.03.04-.05.01-.1.03-.24.05-.38.02-.14.04-.27.04-.34.16.01.39.03.57.05.18.02.33.04.33.04,0,0,.02.16.03.33.01.17.03.36.04.42,0,.02.01.03.03.04.02,0,.03.02.05.02.11.02.26.04.41.06.15.02.29.05.39.07.02,0,.04,0,.05,0,.01,0,.02-.02.02-.04.02-.12.04-.29.06-.43.02-.14.04-.27.04-.29.05,0,.16.04.27.07.11.03.23.06.31.08,0,.02.02.11.03.24.01.12.03.29.05.46h0c.02.17.03.36.05.54.01.17.02.33.03.45l-.13-.04-.13-.04s-.07,0-.09.02c-.02.02-.04.05-.04.09l.03.49.03.49.21.09.21.09s.02.16.05.39.06.52.08.79c-.26-.05-.78-.12-1.39-.17-.61-.05-1.31-.09-1.93-.1-.68-.01-1.3,0-1.86.03-.56.03-1.06.07-1.47.12-.05,0-.12,0-.18,0-.06,0-.11-.02-.11-.08.02-.07,0-.11-.03-.15-.03-.04-.06-.08-.06-.15.01-.11-.02-.13-.05-.15-.03-.02-.06-.04-.05-.15.01-.11.02-.14.04-.17.01-.03.03-.05.04-.17.01-.11,0-.12-.02-.12"/>
        <path class="st2" d="M87.87,13.86h.49s.49,0,.49,0c.04,0,.07.01.09.04.02.02.04.06.04.09v.49s0,.49,0,.49c0,.04-.01.07-.04.09-.02.02-.06.04-.09.04l-.06-.1-.06-.1h-.38s-.38,0-.38,0v-.38s0-.38,0-.38l-.11-.08-.11-.08s.02-.07.04-.09c.02-.02.06-.04.09-.04M85.58,15.17l-.17-.06-.17-.06h-.1s-.1,0-.1,0v-.23s0-.23,0-.23l-.08-.16-.08-.16s0-.04.02-.05c0-.01.02-.03.04-.03l.32-.1.32-.1s.03,0,.04.02c0,.01.01.03.01.05v.52s0,.52,0,.52c0,.02,0,.04-.02.06,0,.01-.02.02-.04.03"/>
        <polygon class="st8" points="85.6 12.24 85.65 12.25 85.71 12.27 85.77 12.54 85.82 12.82 85.74 12.82 85.67 12.81 85.63 12.53 85.6 12.24"/>
        <polygon class="st8" points="87.67 11.95 87.73 11.96 87.79 11.98 87.84 12.32 87.89 12.65 87.82 12.65 87.75 12.65 87.71 12.3 87.67 11.95"/>
        <polygon class="st0" points="90.34 9.61 91.13 10.17 91.92 10.72 92.02 9.47 92.11 8.23 91.22 8.92 90.34 9.61"/>
        <polygon class="st0" points="89.79 10.05 89.02 10.66 88.24 11.26 89.86 11.24 91.48 11.22 90.63 10.64 89.79 10.05"/>
        <polygon class="st0" points="87.58 10.93 88.41 10.29 89.25 9.65 88.35 9.02 87.46 8.39 87.52 9.66 87.58 10.93"/>
        <path class="st0" d="M89.78,9.22s.48-.39.97-.77c.48-.37.97-.74.97-.74l-1.86.11-1.86.11s.45.33.9.66c.45.33.9.65.9.63"/>
        <path class="st6" d="M95.71,6.55h7.22s7.22.02,7.22.02l-.03,17.24c-.82-.22-1.57-.4-2.4-.54-.84-.14-1.76-.25-2.92-.31-.19-.29-.37-.63-.5-1-.13-.37-.21-.78-.2-1.22h0c0-.1,0-.21.02-.31.01-.1.03-.21.05-.32.01,0,.04-.02.07-.04.03-.01.06-.02.09-.02.12,0,.12.04.11.08,0,.04-.01.08.11.08.12,0,.15.02.17.04.02.02.05.04.17.04.12,0,.15-.02.17-.05.02-.02.05-.04.17-.05.12,0,.15.04.17.07.02.04.05.07.17.08.13,0,.14-.08.16-.16.02-.08.03-.17.15-.21.12-.03.16,0,.21.02.04.03.09.06.21.02.12-.03.16-.03.19-.04.03,0,.06-.03.16-.1.1-.07.1-.13.1-.19,0-.06,0-.11.1-.19.1-.07.13-.07.16-.07.03,0,.04,0,.11-.12.07-.11.11-.12.16-.13.05-.01.09-.02.16-.13.07-.11.06-.14.04-.18-.02-.04-.04-.08-.02-.2.02-.12.12-.22.21-.33.09-.1.19-.2.21-.33.02-.12-.01-.17-.06-.21-.05-.04-.11-.09-.13-.21-.02-.12,0-.15.03-.19s.05-.06.03-.19c-.02-.12-.03-.15-.05-.18-.02-.03-.05-.05-.1-.14h0s0-.01,0-.02c0,0,0,0,0-.01-.06-.11-.09-.12-.12-.13-.03,0-.06-.02-.12-.13-.06-.11-.05-.15-.05-.19,0-.04,0-.07-.1-.16-.09-.08-.12-.09-.15-.09-.03,0-.06,0-.15-.09-.09-.08-.13-.06-.18-.03-.05.03-.1.07-.21.03-.11-.05-.1-.15-.08-.25.02-.1.03-.2-.08-.25-.03-.01-.06-.02-.08-.02-.02,0-.04,0-.05.01.03-.1,0-.13-.04-.16-.03-.03-.06-.06-.02-.17.04-.12.05-.13.06-.15,0-.02.02-.03.06-.15.04-.12.08-.13.11-.13.04,0,.08-.01.11-.13.04-.12.05-.15.05-.18,0-.03-.02-.06-.04-.19-.02-.12-.1-.14-.17-.16-.08-.02-.15-.04-.17-.16-.02-.12.04-.17.09-.21.05-.04.09-.08.02-.18-.06-.11-.12-.11-.17-.11-.05,0-.11,0-.17-.11-.05-.09-.04-.14-.02-.19.02-.05.05-.08.04-.13h0s-.01-.02-.02-.04c-.01-.01-.03-.03-.05-.05-.1-.08-.12-.09-.15-.11-.03-.01-.05-.03-.15-.11-.1-.08-.11-.13-.13-.18s-.04-.08-.16-.12c-.12-.04-.21-.16-.26-.29-.05-.14-.06-.29-.03-.41.04-.12.03-.13.03-.15,0-.01,0-.02.03-.14.04-.12.03-.15,0-.18-.02-.03-.06-.06-.08-.18-.03-.12,0-.17.02-.22s.05-.09.02-.22c-.02-.12-.09-.13-.17-.14-.08,0-.17,0-.24-.11-.07-.1-.09-.13-.12-.16-.02-.03-.05-.06-.12-.16-.07-.1-.03-.19,0-.26.03-.07.05-.14-.06-.21-.1-.07-.14-.08-.18-.09-.04-.01-.08-.02-.18-.09-.1-.07-.15-.03-.2.02-.05.05-.11.11-.23.09-.12-.03-.16-.05-.2-.08s-.07-.05-.2-.08c-.12-.03-.15-.04-.18-.05-.03,0-.05,0-.18.02-.12.02-.18-.05-.24-.13-.06-.07-.11-.15-.24-.13-.12.02-.13.11-.14.21,0,.1,0,.2-.11.27-.1.07-.19.02-.27-.04-.08-.05-.16-.11-.27-.04-.1.07-.14.11-.17.16-.03.05-.05.11-.12.21.15.03.2.12.2.23,0,.11-.06.24-.13.34-.07.1-.18.2-.28.29-.1.1-.19.2-.21.32-.03.12-.01.15.01.18s.07.06.1.18c.03.12.04.13.05.14,0,0,.02.02.05.14.03.12-.03.15-.09.18-.06.03-.12.06-.09.18.03.12.04.13.04.14,0,.01,0,.03.05.16-.1.04-.12.07-.14.1-.02.03-.04.07-.16.1-.12.04-.12.09-.11.15s.02.13-.08.21c-.07.06-.11.08-.13.09-.02.01-.04.01-.07.03-.01,0-.02.02-.04.03-.02.01-.04.03-.06.05-.1.08-.1.1-.08.12.01.02.03.05-.03.16-.06.11-.14.09-.22.08-.08-.01-.16-.03-.22.08-.06.11-.04.14,0,.19.04.04.08.09.06.21-.02.12-.08.15-.13.17-.05.02-.11.04-.13.17-.02.12-.08.17-.11.21-.04.04-.06.09-.02.21.04.12,0,.39-.07.65-.07.26-.17.51-.27.6-.09.08-.06.15-.04.22.03.07.06.13-.03.22-.09.08-.17.06-.24.04-.07-.02-.13-.04-.19.07-.06.1-.03.15,0,.19.03.04.07.08.03.17h0s0,.01,0,.02c0,0,0,.01,0,.02-.06.11-.14.12-.2.13-.07.01-.12.03-.15.15-.02.12,0,.15.02.18.02.03.04.06.02.18-.02.12-.06.17-.09.22-.03.05-.05.1-.02.22.02.12.03.24.04.37s.01.24.04.37c.02.12.05.17.09.22.04.05.09.09.15.19.07.1.12.11.18.12.06,0,.11.01.18.12.03.05.06.09.07.11.02.03.03.04.04.06.01.01.02.03.05.04.02.02.06.04.11.08.1.07.16.05.22.03.06-.02.12-.04.22.03.1.07.11.1.13.12.02.02.04.03.16.06.12.03.15.09.17.16.03.07.05.13.17.16.06.01.1.02.13.03.03,0,.05.01.07.01.02,0,.04,0,.07,0,.03,0,.07,0,.13,0,.13,0,.15-.01.17-.03s.05-.03.17-.03c.12,0,.17-.04.22-.09.04-.04.09-.09.21-.09.03.11.05.22.06.33.01.11.02.21.02.31h0c.01.46-.08.88-.23,1.25-.15.38-.35.71-.55,1.01-.96.09-2,.23-2.88.37-.88.15-1.61.3-1.94.41l.02-17.24Z"/>
        <path class="st7" d="M101.48,19.11c-.12-.1-.3-.17-.36-.28-.06-.11-.35-.11-.55-.16-.2-.06-.3-.17.01-.51.08-.09.04-.2-.04-.31-.08-.11-.2-.22-.26-.33-.06-.11.07-.15.2-.2.13-.05.26-.09.2-.2-.02-.04-.03-.07-.04-.1,0-.03,0-.06,0-.09h0c0-.06.03-.12.04-.18,0-.06,0-.12-.04-.2-.06-.11-.02-.23-.04-.3-.02-.07-.09-.08-.39.03-.27.07-.34-.07-.34-.22s.07-.32.07-.32c.32-.07.37-.25.37-.42s-.05-.34.07-.38c.42-.13.61-.23.67-.31.06-.08,0-.15-.1-.23-.18-.17-.13-.42-.02-.6.11-.18.29-.28.36-.14.15.3.37.35.53.3.16-.05.25-.19.15-.27-.18-.13-.22-.24-.19-.34.03-.1.12-.18.21-.26h0c.06-.05.13-.1.17-.14.04-.05.06-.09.03-.13-.07-.1-.12-.14-.17-.17-.05-.03-.1-.07-.17-.17-.07-.1.02-.16.12-.21.09-.05.19-.11.12-.21-.07-.1-.16-.11-.23-.13-.07-.02-.12-.04-.1-.16.01-.12.02-.19.03-.25,0-.06.01-.13.03-.25.01-.12.09-.2.16-.28.07-.08.14-.16.16-.28.01-.12.08-.14.14-.15.06-.01.12-.03.14-.15.01-.12.04-.14.07-.15.03-.01.05-.03.06-.15,0-.12.1-.07.2-.01.1.06.19.11.2-.01,0-.03.07-.05.16-.05.09,0,.2.03.31.1.1.07.17-.04.24-.15.07-.11.13-.22.23-.15.1.07.09.14.06.21-.03.07-.06.16,0,.26.07.1.09.13.12.16.02.03.05.06.12.16.07.1.16.1.24.11.08,0,.15.02.17.14.02.12,0,.17-.02.22-.02.05-.05.09-.02.22.02.12.06.15.08.18.02.03.03.06,0,.18-.04.12-.03.13-.03.14,0,.01,0,.03-.03.14-.04.12-.02.28.03.41.05.14.14.25.26.29.12.04.14.08.16.12.02.05.03.1.13.18.07.06.1.08.13.09.02.01.03.02.06.03h0s.03.02.04.03c.02.01.04.03.07.05.1.08.08.13.05.18-.03.05-.06.12,0,.22.06.11.12.11.17.11.05,0,.11,0,.17.11.06.11.02.14-.02.18-.05.04-.11.08-.09.21.02.12.1.14.17.16.08.02.15.04.17.16.02.12.04.15.04.19,0,.03-.01.06-.05.18-.04.12-.08.13-.11.13-.04,0-.08.01-.12.13-.04.12-.05.13-.06.15,0,.02-.02.03-.06.15-.04.11,0,.15.02.17.03.03.07.05.04.16.01,0,.03-.01.05-.01.02,0,.05,0,.08.02.11.05.1.15.08.25-.02.1-.03.2.08.25.11.05.17,0,.21-.03.04-.03.08-.06.18.03.09.08.12.09.15.09.03,0,.06,0,.15.09.09.08.1.12.1.16,0,.04-.01.08.05.19.02.04.04.07.06.09.02.02.03.03.04.03h0s.04.01.06.03.05.04.09.11c.06.11.09.14.12.17.02.03.04.06.06.19.02.12-.05.12-.12.12-.07,0-.14,0-.12.12.02.12.09.23.15.34.06.11.11.22.09.34-.1-.05-.16.05-.21.19-.05.14-.1.31-.17.38-.24.25-.44.45-.6.56-.16.11-.27.12-.32.01-.05-.11-.18.02-.32.15s-.27.27-.32.15c-.05-.11-.14-.11-.22-.11-.08,0-.17,0-.22-.11-.05-.11-.22-.07-.39-.03-.17.04-.34.09-.39-.03-.05-.11-.23,0-.42.11-.19.11-.37.22-.42.11-.05-.11-.2-.03-.35.05-.15.08-.3.16-.35.05-.05-.11-.34-.12-.61-.12-.26,0-.5,0-.43-.11.15-.25.08-.39-.04-.49"/>
        <path class="st7" d="M102.23,21.77c.06-.44.1-.85.12-1.03h0s0-.05.01-.07c0-.02,0-.03,0-.03,0,0,.02.02.06.04.04.02.1.04.22.03,0-.02,0-.02.02,0,.01,0,.04.02.06.04h0s.04.02.07.02c.02,0,.04,0,.06-.02h0s.02-.03.03-.06c0-.03.01-.06.01-.1.06,0,.13-.01.17-.01.05,0,.08,0,.08,0,0,0,0,.03.02.07.02.03.04.07.06.1h0s.01.02.02.02c0,0,.01,0,.02.01.01,0,.02,0,.03,0,0,0,.02-.02.03-.03h0s.02-.04.03-.06c.01-.02.02-.03.03-.03.01,0,.05.02.1.04.04.02.09.04.12.06h.01s.01,0,.01,0c.04-.02.05-.07.07-.1.02-.03.04-.04.09.01,0,.01,0,.03,0,.04,0,.01,0,.03,0,.05h0c-.03.51.08.95.22,1.31.14.37.3.67.37.91h-1.21s-1.21-.01-1.21-.01c.12-.28.2-.74.26-1.18"/>
        <path class="st10" d="M110.11,38.74c0,.06,0,.12-.01.18-.04.45-.14.88-.31,1.29-.17.4-.39.77-.66,1.1-.4.49-.9.88-1.47,1.16s-1.21.43-1.89.43h-10.1s.03-18.54.03-18.54l14.44.02-.02,14.18c0,.06,0,.12,0,.18"/>
        <path class="st2" d="M108.98,30c-.11-.45-.28-.86-.47-1.08,0,0-.06-.07-.15-.17-.09-.1-.21-.23-.34-.35h0c-.08-.08-.16-.16-.24-.22-.08-.07-.15-.12-.21-.16-.19-.12-.48-.12-.78-.12-.3,0-.61.02-.85-.06-.8-.27-1.58-.45-2.15-.56-.57-.11-.94-.15-.94-.15l-.74-.37-.74-.37c.19-.08.23-.42.2-.75-.03-.32-.12-.62-.16-.61-.08.02-.08.29-.18.54-.1.25-.3.49-.79.45-.02.02-.12-.04-.25-.11-.13-.07-.3-.15-.46-.16-.15-.01-.34.03-.49.07-.15.04-.25.08-.25.08-.05,0-.11,0-.18,0-.08,0-.16-.02-.27-.06-.18-.06-.24-.31-.27-.52-.03-.21-.02-.39-.08-.31-.06.08-.22.39-.24.73-.02.34.11.71.61.91,0,0-.01.02-.02.04-.01.03-.03.07-.03.12,0,.05,0,.12,0,.17,0,.05,0,.09,0,.09l-.12.47-.12.47s-.07.06-.13.09c-.06.03-.12.06-.12.09,0,.03,0,.07,0,.1,0,.03,0,.06.02.09h0c.05.19.17.35.34.47.17.12.38.19.62.19.08,0,.16,0,.24-.02.08-.02.15-.04.22-.07h0s0,0,0,0c.09-.06.12.05.13.21.01.16,0,.37.03.52.01.09.05.15.1.24.05.08.13.19.21.35.08.16.11.27.12.36,0,.09-.03.16-.06.24-.05.11-.05.17-.06.2s-.04.05-.15.1c-.04.01-.07.03-.09.05-.03.02-.05.03-.06.05h0c-.06.06-.08.13-.1.21-.02.09-.03.19-.06.31-.04.15-.1.3-.11.41,0,.11.03.18.2.18h2.35s2.35,0,2.35,0c.06,0,.03.11.04.23,0,.11.05.23.26.23.41,0,.75,0,1.09,0,.33,0,.65,0,1.02.01.22.02.39.06.53.05.14,0,.24-.06.33-.21.1,0,.43,0,.76-.19.33-.18.67-.52.81-1.19,0,0,0-.01,0-.02,0,0,0-.01,0-.02h0c.06-.35.02-.82-.09-1.27"/>
        <path class="st2" d="M107.92,38.82c-.11-.45-.28-.86-.47-1.08,0,0-.06-.07-.15-.17-.09-.1-.21-.23-.34-.35h0c-.08-.08-.16-.16-.24-.22-.08-.07-.15-.12-.21-.16-.19-.12-.48-.12-.78-.12-.3,0-.61.02-.85-.06-.8-.27-1.58-.45-2.15-.56-.57-.11-.94-.15-.94-.15l-.74-.37-.74-.37c.19-.08.23-.42.2-.75-.03-.32-.12-.62-.16-.61-.08.02-.08.29-.18.54-.1.25-.3.49-.79.45-.02.02-.12-.04-.25-.11-.13-.07-.3-.15-.46-.16-.15-.01-.34.03-.49.07-.15.04-.25.08-.25.08-.05,0-.11,0-.18,0-.08,0-.16-.02-.27-.06-.18-.06-.24-.31-.27-.52-.03-.21-.02-.39-.08-.31-.06.08-.22.39-.24.73-.02.34.11.71.61.91,0,0-.01.02-.02.04-.01.03-.03.07-.03.12,0,.05,0,.12,0,.17,0,.05,0,.09,0,.09l-.12.47-.12.47s-.07.06-.13.09c-.06.03-.12.06-.12.09,0,.03,0,.07,0,.1,0,.03.01.06.02.09h0c.05.19.17.35.34.47.17.12.38.19.62.19.08,0,.16,0,.24-.02.08-.02.15-.04.22-.07h0s0,0,0,0c.09-.06.12.05.13.21.01.16,0,.37.03.52.01.09.05.15.1.24.05.08.13.19.21.35.08.16.11.27.12.36,0,.09-.03.16-.06.24-.05.11-.05.17-.06.2s-.04.05-.15.1c-.04.01-.07.03-.09.05-.03.02-.05.03-.06.05h0c-.06.06-.08.13-.1.21-.02.09-.03.19-.06.31-.04.15-.1.3-.11.41,0,.11.03.18.2.18h2.35s2.35,0,2.35,0c.06,0,.03.11.04.23,0,.11.05.23.26.23.41,0,.75,0,1.09,0,.33,0,.65,0,1.02.01.22.02.39.06.53.05.14,0,.24-.06.33-.21.1,0,.43,0,.76-.19.33-.18.67-.52.81-1.19,0,0,0-.01,0-.02,0,0,0-.01,0-.02h0c.06-.35.02-.82-.09-1.27"/>
        <path class="st1" d="M99.15,26.08c.07-.04.23-.1.39-.12.16-.02.31,0,.37.13-.14,0-.39.22-.58.33-.19.11-.31.1-.18-.35"/>
        <path class="st1" d="M100.35,28.17c-.08.02-.14.03-.2.06-.06.03-.11.06-.16.12,0,0-.01.01-.02.02,0,0-.01.01-.02.02h0c-.4.46-.61.5-.7.42-.09-.08-.06-.29.02-.33.02,0,.04-.02.05-.04.02-.02.03-.03.04-.05h0s.03-.1-.02-.14c-.04-.04-.13-.06-.29-.05l.25-.23.25-.23s.11-.15.17-.31c.06-.16.12-.31.14-.28.11.26.27.22.36.08.09-.14.09-.39-.11-.55h.03s.03-.02.03-.02c.03.05.11.15.17.24.06.09.12.16.12.16,0-.01.05,0,.11.03.06.03.13.06.14.08.16.18.15.41.06.61-.09.2-.27.36-.43.4"/>
        <path class="st1" d="M102.67,28.58c-.02.06-.05.11-.11.14-.25.19-.53.46-.7.73-.17.26-.25.52-.1.69.16.18.32.39.44.58.12.2.21.39.21.54h0v.02s-.02.08-.05.11c-.03.02-.07.04-.12.07-.06-.06-.27-.14-.56-.17-.29-.03-.64-.01-.96.12-.04-.03-.07-.06-.09-.08-.02-.02-.03-.05-.04-.07h0c-.02-.13.29-.18.62-.2.33-.02.67-.02.68-.07.11-.33-.17-.59-.5-.85-.32-.26-.69-.52-.74-.87-.03-.25.06-.41.2-.54.14-.13.31-.22.44-.34h0c.06-.05.11-.12.13-.19.03-.08.03-.16,0-.27.12-.34.41-.34.67-.2.26.14.51.42.56.67.01.07.01.13,0,.18"/>
        <path class="st1" d="M105.85,30.61c-.06.13-.09.25-.09.36,0,.11,0,.21.01.29h0c.02.15.05.26.02.33-.04.07-.14.11-.39.11-.8.31-1.05.3-1,.21.05-.1.39-.28.77-.35.07-.01.16-.04.23-.09.08-.05.15-.12.19-.21h0s.04-.08.05-.12c.01-.05.02-.1.01-.15-.02-.6.04-1.31.29-1.82.25-.52.68-.84,1.42-.65.26.06.61.54.87.97.26.43.43.81.31.68-.21-.23-.52-.39-.78-.49-.26-.1-.47-.14-.47-.15s-.3.13-.64.34c-.33.2-.7.47-.82.74"/>
        <path class="st1" d="M108.68,31.27h0s-.02.11-.03.17c-.02.07-.04.14-.07.23-.1.2-.26.35-.45.43-.19.09-.4.12-.6.1-.01-.02-.02-.03-.03-.04s-.01-.02-.02-.03c-.03-.01-.05-.03-.06-.05-.02-.02-.03-.04-.05-.06-.14-.12-.32-.08-.48,0-.15.07-.28.17-.28.17.11-.1.2-.17.29-.22.1-.05.2-.08.35-.11.13-.02.21,0,.28.02.06.03.1.09.15.14.08,0,.16.01.25,0,.09-.02.2-.07.32-.2.08-.08.15-.18.22-.28.06-.1.12-.19.16-.27h0s.04-.09.06-.11c.01-.03.02-.04.02-.04,0,0,0,.01,0,.04,0,.03,0,.07,0,.12"/>
        <path class="st1" d="M98.09,34.9c.07-.04.23-.1.39-.12.16-.02.31,0,.37.13-.14,0-.39.22-.58.33s-.31.1-.18-.35"/>
        <path class="st1" d="M99.29,36.99c-.08.02-.14.03-.2.06-.06.03-.11.06-.16.12,0,0-.01.01-.02.02,0,0-.01.01-.02.02h0c-.4.46-.61.5-.7.42-.09-.08-.06-.29.02-.33.02,0,.04-.02.05-.04.02-.02.03-.03.04-.05h0s.03-.1-.02-.14c-.04-.04-.13-.06-.29-.05l.25-.23.25-.23s.11-.15.17-.31c.06-.16.12-.31.14-.28.11.26.27.22.36.08s.09-.39-.11-.55h.03s.03-.02.03-.02c.03.05.11.15.17.24.06.09.12.16.12.16,0-.01.05,0,.11.03.06.03.13.06.14.08.16.18.15.41.06.61-.09.2-.27.36-.43.4"/>
        <path class="st1" d="M101.61,37.4c-.02.06-.05.11-.11.14-.25.19-.53.46-.7.73-.17.26-.25.52-.1.69.16.18.32.39.44.58.12.2.21.39.21.54h0v.02s-.02.08-.05.11c-.03.02-.07.04-.12.07-.05-.06-.27-.14-.56-.17-.29-.03-.64-.01-.96.12-.04-.03-.07-.06-.09-.08-.02-.02-.03-.05-.04-.07h0c-.02-.13.29-.18.62-.2.33-.02.67-.02.68-.07.11-.33-.17-.59-.5-.85-.32-.26-.69-.52-.74-.87-.03-.25.06-.41.2-.54.14-.13.31-.22.44-.35h0c.06-.05.11-.12.13-.19.03-.08.03-.16,0-.27.12-.34.41-.34.67-.2.26.14.51.42.56.67.01.07.01.13,0,.18"/>
        <path class="st1" d="M104.79,39.43c-.06.13-.08.25-.09.36s0,.21.01.29h0c.02.15.05.26.02.33-.04.07-.14.11-.39.11-.8.31-1.05.3-1,.21.05-.1.39-.29.77-.35.07-.01.16-.04.23-.09.08-.05.15-.12.19-.21h0s.04-.08.05-.12.02-.1.01-.15c-.02-.6.04-1.31.29-1.82.25-.52.68-.84,1.42-.65.26.06.61.54.87.97.26.43.43.81.31.69-.21-.23-.52-.39-.78-.49-.26-.1-.47-.14-.47-.15s-.3.13-.64.34c-.33.2-.7.47-.82.74"/>
        <path class="st1" d="M107.62,40.09h0s-.02.11-.03.17c-.02.07-.04.14-.07.23-.1.2-.26.35-.45.43-.19.09-.4.12-.6.1-.01-.02-.02-.03-.03-.04,0-.01-.01-.02-.02-.03-.03-.01-.05-.03-.06-.05-.02-.02-.03-.04-.05-.06-.14-.12-.32-.08-.48,0-.15.07-.28.17-.28.17.11-.1.2-.17.29-.22.1-.05.2-.08.35-.11.13-.02.21,0,.28.02.06.03.1.09.15.14.08,0,.16.01.25,0s.2-.07.32-.2c.08-.08.15-.18.22-.28.06-.1.12-.19.16-.27h0s.04-.09.06-.11c.01-.03.02-.04.02-.04,0,0,0,.01,0,.04,0,.03,0,.07,0,.12"/>
        <polygon class="st5" points="83.49 26.6 81.89 26.08 83.05 26 83.49 24.92 83.49 26.6"/>
        <polygon class="st5" points="82.5 27.96 82.78 26.83 83.49 26.6 82.5 27.96"/>
        <polygon class="st5" points="84.48 27.96 83.49 26.6 84.2 26.83 84.48 27.96"/>
        <polygon class="st5" points="83.93 26 83.49 26.6 85.09 26.08 83.93 26"/>
        <polygon class="st5" points="88.38 26.61 86.78 26.08 87.95 26 88.38 24.93 88.38 26.61"/>
        <polygon class="st5" points="87.39 27.96 87.67 26.83 88.38 26.61 87.39 27.96"/>
        <polygon class="st5" points="89.37 27.97 88.38 26.61 89.09 26.84 89.37 27.97"/>
        <polygon class="st5" points="88.82 26.01 88.38 26.61 89.98 26.09 88.82 26.01"/>
        <polygon class="st5" points="93.02 26.61 91.42 26.09 92.58 26.01 93.02 24.93 93.02 26.61"/>
        <polygon class="st5" points="92.03 27.97 92.31 26.84 93.02 26.61 92.03 27.97"/>
        <polygon class="st5" points="94 27.97 93.02 26.61 93.72 26.84 94 27.97"/>
        <polygon class="st5" points="93.46 26.01 93.02 26.61 94.62 26.1 93.46 26.01"/>
        <polygon class="st5" points="83.48 30.24 81.89 29.72 83.05 29.64 83.49 28.56 83.48 30.24"/>
        <polygon class="st5" points="82.49 31.6 82.78 30.47 83.48 30.24 82.49 31.6"/>
        <polygon class="st5" points="84.47 31.6 83.48 30.24 84.19 30.47 84.47 31.6"/>
        <polygon class="st5" points="83.92 29.64 83.48 30.24 85.08 29.72 83.92 29.64"/>
        <polygon class="st5" points="88.37 30.25 86.78 29.72 87.94 29.64 88.38 28.57 88.37 30.25"/>
        <polygon class="st5" points="87.38 31.6 87.67 30.47 88.37 30.25 87.38 31.6"/>
        <polygon class="st5" points="89.36 31.61 88.37 30.25 89.08 30.48 89.36 31.61"/>
        <polygon class="st5" points="88.81 29.65 88.38 30.25 89.97 29.73 88.81 29.65"/>
        <polygon class="st5" points="93.01 30.25 91.42 29.73 92.58 29.65 93.02 28.57 93.01 30.25"/>
        <polygon class="st5" points="92.02 31.61 92.31 30.48 93.01 30.25 92.02 31.61"/>
        <polygon class="st5" points="94 31.61 93.01 30.25 93.72 30.48 94 31.61"/>
        <polygon class="st5" points="93.45 29.65 93.01 30.25 94.61 29.74 93.45 29.65"/>
        <polygon class="st5" points="93.01 33.89 91.41 33.37 92.57 33.29 93.01 32.21 93.01 33.89"/>
        <polygon class="st5" points="92.02 35.25 92.3 34.12 93.01 33.89 92.02 35.25"/>
        <polygon class="st5" points="93.99 35.25 93.01 33.89 93.71 34.12 93.99 35.25"/>
        <polygon class="st5" points="93.45 33.29 93.01 33.89 94.61 33.37 93.45 33.29"/>
        <polygon class="st5" points="88.37 33.88 86.77 33.36 87.93 33.28 88.37 32.2 88.37 33.88"/>
        <polygon class="st5" points="87.38 35.24 87.66 34.11 88.37 33.88 87.38 35.24"/>
        <polygon class="st5" points="89.36 35.25 88.37 33.88 89.08 34.11 89.36 35.25"/>
        <polygon class="st5" points="88.81 33.28 88.37 33.88 89.97 33.37 88.81 33.28"/>
        <polygon class="st5" points="83.48 33.88 81.88 33.36 83.04 33.28 83.48 32.2 83.48 33.88"/>
        <polygon class="st5" points="82.49 35.24 82.77 34.11 83.48 33.88 82.49 35.24"/>
        <polygon class="st5" points="84.47 35.24 83.48 33.88 84.19 34.11 84.47 35.24"/>
        <polygon class="st5" points="83.92 33.28 83.48 33.88 85.08 33.36 83.92 33.28"/>
        <polygon class="st5" points="83.47 37.52 81.88 37 83.04 36.92 83.48 35.84 83.47 37.52"/>
        <polygon class="st5" points="82.48 38.88 82.77 37.75 83.47 37.52 82.48 38.88"/>
        <polygon class="st5" points="84.46 38.88 83.47 37.52 84.18 37.75 84.46 38.88"/>
        <polygon class="st5" points="83.91 36.92 83.47 37.52 85.07 37 83.91 36.92"/>
        <polygon class="st5" points="88.36 37.52 86.77 37 87.93 36.92 88.37 35.84 88.36 37.52"/>
        <polygon class="st5" points="87.37 38.88 87.66 37.75 88.36 37.52 87.37 38.88"/>
        <polygon class="st5" points="89.35 38.89 88.36 37.52 89.07 37.75 89.35 38.89"/>
        <polygon class="st5" points="88.8 36.92 88.36 37.52 89.96 37.01 88.8 36.92"/>
        <polygon class="st5" points="93 37.53 91.41 37.01 92.57 36.93 93.01 35.85 93 37.53"/>
        <polygon class="st5" points="92.01 38.89 92.3 37.76 93 37.53 92.01 38.89"/>
        <polygon class="st5" points="93.99 38.89 93 37.53 93.71 37.76 93.99 38.89"/>
        <polygon class="st5" points="93.44 36.93 93 37.53 94.6 37.01 93.44 36.93"/>
        <polygon class="st5" points="88.36 41.16 86.76 40.64 87.92 40.56 88.36 39.48 88.36 41.16"/>
        <polygon class="st5" points="87.37 42.52 87.65 41.39 88.36 41.16 87.37 42.52"/>
        <polygon class="st5" points="89.35 42.53 88.36 41.16 89.07 41.39 89.35 42.53"/>
        <polygon class="st5" points="88.8 40.56 88.36 41.16 89.96 40.65 88.8 40.56"/>
      </g>
    </g>
  </g>
</svg>