<svg xmlns="http://www.w3.org/2000/svg" viewBox="0 0 900 648" width="900" height="648"><rect width="900" height="648" fill="#ffffff"/><polyline points="26.0,26.0 110.7,74.9" fill="none" stroke="#9aa7b8" stroke-width="1"/><polyline points="110.7,74.9 195.3,123.8" fill="none" stroke="#9aa7b8" stroke-width="1"/><polyline points="195.3,123.8 280.0,172.6" fill="none" stroke="#9aa7b8" stroke-width="1"/><polyline points="280.0,172.6 364.6,221.5" fill="none" stroke="#9aa7b8" stroke-width="1"/><polyline points="364.6,221.5 449.3,270.4" fill="none" stroke="#9aa7b8" stroke-width="1"/><polyline points="449.3,270.4 534.0,319.3" fill="none" stroke="#9aa7b8" stroke-width="1"/><polyline points="534.0,319.3 618.6,368.2" fill="none" stroke="#9aa7b8" stroke-width="1"/><polyline points="618.6,368.2 703.3,417.0" fill="none" stroke="#9aa7b8" stroke-width="1"/><polyline points="703.3,417.0 788.0,465.9" fill="none" stroke="#9aa7b8" stroke-width="1"/><polyline points="788.0,465.9 872.6,514.8" fill="none" stroke="#9aa7b8" stroke-width="1"/><polyline points="26.0,26.0 110.7,74.9" fill="none" stroke="#2563eb" stroke-width="2"/><polyline points="110.7,74.9 199.8,126.3" fill="none" stroke="#2563eb" stroke-width="2"/><polyline points="199.8,126.3 280.0,223.5" fill="none" stroke="#2563eb" stroke-width="2"/><polyline points="280.0,223.5 368.9,224.0" fill="none" stroke="#2563eb" stroke-width="2"/><polyline points="368.9,224.0 449.3,367.1" fill="none" stroke="#2563eb" stroke-width="2"/><polyline points="449.3,367.1 537.6,321.4" fill="none" stroke="#2563eb" stroke-width="2"/><polyline points="537.6,321.4 618.6,501.2" fill="none" stroke="#2563eb" stroke-width="2"/><polyline points="618.6,501.2 705.9,418.6" fill="none" stroke="#2563eb" stroke-width="2"/><polyline points="705.9,418.6 788.0,622.3" fill="none" stroke="#2563eb" stroke-width="2"/><polyline points="788.0,622.3 874.0,515.6" fill="none" stroke="#2563eb" stroke-width="2"/><rect x="22.0" y="22.0" width="8" height="8" fill="#0f766e" stroke="#fff" stroke-width="0.8"/><rect x="868.6" y="510.8" width="8" height="8" fill="#0f766e" stroke="#fff" stroke-width="0.8"/></svg>