<svg xmlns="http://www.w3.org/2000/svg" viewBox="0 0 900 542" width="900" height="542"><rect width="900" height="542" fill="#ffffff"/><polyline points="26.0,26.0 79.0,56.6" fill="none" stroke="#9aa7b8" stroke-width="1"/><polyline points="79.0,56.6 132.0,87.2" fill="none" stroke="#9aa7b8" stroke-width="1"/><polyline points="132.0,87.2 185.0,117.8" fill="none" stroke="#9aa7b8" stroke-width="1"/><polyline points="185.0,117.8 238.0,148.4" fill="none" stroke="#9aa7b8" stroke-width="1"/><polyline points="238.0,148.4 291.0,179.0" fill="none" stroke="#9aa7b8" stroke-width="1"/><polyline points="291.0,179.0 344.0,209.6" fill="none" stroke="#9aa7b8" stroke-width="1"/><polyline points="344.0,209.6 397.0,240.2" fill="none" stroke="#9aa7b8" stroke-width="1"/><polyline points="397.0,240.2 450.0,270.8" fill="none" stroke="#9aa7b8" stroke-width="1"/><polyline points="450.0,270.8 503.0,301.4" fill="none" stroke="#9aa7b8" stroke-width="1"/><polyline points="503.0,301.4 556.0,332.0" fill="none" stroke="#9aa7b8" stroke-width="1"/><polyline points="556.0,332.0 609.0,362.6" fill="none" stroke="#9aa7b8" stroke-width="1"/><polyline points="609.0,362.6 662.0,393.2" fill="none" stroke="#9aa7b8" stroke-width="1"/><polyline points="662.0,393.2 715.0,423.8" fill="none" stroke="#9aa7b8" stroke-width="1"/><polyline points="715.0,423.8 768.0,454.4" fill="none" stroke="#9aa7b8" stroke-width="1"/><polyline points="768.0,454.4 821.0,485.0" fill="none" stroke="#9aa7b8" stroke-width="1"/><polyline points="821.0,485.0 874.0,515.6" fill="none" stroke="#9aa7b8" stroke-width="1"/><polyline points="26.0,26.0 79.0,55.6" fill="none" stroke="#2563eb" stroke-width="2"/><polyline points="79.0,55.6 132.0,83.1" fill="none" stroke="#2563eb" stroke-width="2"/><polyline points="132.0,83.1 185.0,108.9" fill="none" stroke="#2563eb" stroke-width="2"/><polyline points="185.0,108.9 238.0,133.2" fill="none" stroke="#2563eb" stroke-width="2"/><polyline points="238.0,133.2 291.0,155.9" fill="none" stroke="#2563eb" stroke-width="2"/><polyline points="291.0,155.9 344.0,177.5" fill="none" stroke="#2563eb" stroke-width="2"/><polyline points="344.0,177.5 397.0,198.0" fill="none" stroke="#2563eb" stroke-width="2"/><polyline points="397.0,198.0 450.0,217.6" fill="none" stroke="#2563eb" stroke-width="2"/><polyline points="450.0,217.6 503.0,236.5" fill="none" stroke="#2563eb" stroke-width="2"/><polyline points="503.0,236.5 556.0,254.8" fill="none" stroke="#2563eb" stroke-width="2"/><polyline points="556.0,254.8 609.0,272.6" fill="none" stroke="#2563eb" stroke-width="2"/><polyline points="609.0,272.6 662.0,290.1" fill="none" stroke="#2563eb" stroke-width="2"/><polyline points="662.0,290.1 715.0,307.5" fill="none" stroke="#2563eb" stroke-width="2"/><polyline points="715.0,307.5 768.0,324.7" fill="none" stroke="#2563eb" stroke-width="2"/><polyline points="768.0,324.7 821.0,341.8" fill="none" stroke="#2563eb" stroke-width="2"/><polyline points="821.0,341.8 874.0,358.9" fill="none" stroke="#2563eb" stroke-width="2"/><rect x="22.0" y="22.0" width="8" height="8" fill="#0f766e" stroke="#fff" stroke-width="0.8"/></svg>