<svg xmlns="http://www.w3.org/2000/svg" viewBox="0 0 900 380" width="900" height="380"><rect width="900" height="380" fill="#ffffff"/><polyline points="26.0,353.7 26.0,317.6" fill="none" stroke="#9aa7b8" stroke-width="1"/><polyline points="26.0,317.6 26.0,281.6" fill="none" stroke="#9aa7b8" stroke-width="1"/><polyline points="26.0,281.6 26.0,245.5" fill="none" stroke="#9aa7b8" stroke-width="1"/><polyline points="26.0,245.5 26.0,209.4" fill="none" stroke="#9aa7b8" stroke-width="1"/><polyline points="26.0,209.4 26.0,173.3" fill="none" stroke="#9aa7b8" stroke-width="1"/><polyline points="26.0,173.3 26.0,137.3" fill="none" stroke="#9aa7b8" stroke-width="1"/><polyline points="26.0,137.3 26.0,101.2" fill="none" stroke="#9aa7b8" stroke-width="1"/><polyline points="26.0,101.2 26.0,65.1" fill="none" stroke="#9aa7b8" stroke-width="1"/><polyline points="26.0,65.1 26.0,29.1" fill="none" stroke="#9aa7b8" stroke-width="1"/><polyline points="98.1,353.7 98.1,317.6" fill="none" stroke="#9aa7b8" stroke-width="1"/><polyline points="98.1,317.6 98.1,281.6" fill="none" stroke="#9aa7b8" stroke-width="1"/><polyline points="98.1,281.6 98.1,245.5" fill="none" stroke="#9aa7b8" stroke-width="1"/><polyline points="98.1,245.5 98.1,209.4" fill="none" stroke="#9aa7b8" stroke-width="1"/><polyline points="98.1,209.4 98.1,173.3" fill="none" stroke="#9aa7b8" stroke-width="1"/><polyline points="98.1,173.3 98.1,137.3" fill="none" stroke="#9aa7b8" stroke-width="1"/><polyline points="98.1,137.3 98.1,101.2" fill="none" stroke="#9aa7b8" stroke-width="1"/><polyline points="98.1,101.2 98.1,65.1" fill="none" stroke="#9aa7b8" stroke-width="1"/><polyline points="98.1,65.1 98.1,29.1" fill="none" stroke="#9aa7b8" stroke-width="1"/><polyline points="170.3,353.7 170.3,317.6" fill="none" stroke="#9aa7b8" stroke-width="1"/><polyline points="170.3,317.6 170.3,281.6" fill="none" stroke="#9aa7b8" stroke-width="1"/><polyline points="170.3,281.6 170.3,245.5" fill="none" stroke="#9aa7b8" stroke-width="1"/><polyline points="170.3,245.5 170.3,209.4" fill="none" stroke="#9aa7b8" stroke-width="1"/><polyline points="170.3,209.4 170.3,173.3" fill="none" stroke="#9aa7b8" stroke-width="1"/><polyline points="170.3,173.3 170.3,137.3" fill="none" stroke="#9aa7b8" stroke-width="1"/><polyline points="170.3,137.3 170.3,101.2" fill="none" stroke="#9aa7b8" stroke-width="1"/><polyline points="170.3,101.2 170.3,65.1" fill="none" stroke="#9aa7b8" stroke-width="1"/><polyline points="170.3,65.1 170.3,29.1" fill="none" stroke="#9aa7b8" stroke-width="1"/><polyline points="242.4,353.7 242.4,317.6" fill="none" stroke="#9aa7b8" stroke-width="1"/><polyline points="242.4,317.6 242.4,281.6" fill="none" stroke="#9aa7b8" stroke-width="1"/><polyline points="242.4,281.6 242.4,245.5" fill="none" stroke="#9aa7b8" stroke-width="1"/><polyline points="242.4,245.5 242.4,209.4" fill="none" stroke="#9aa7b8" stroke-width="1"/><polyline points="242.4,209.4 242.4,173.3" fill="none" stroke="#9aa7b8" stroke-width="1"/><polyline points="242.4,173.3 242.4,137.3" fill="none" stroke="#9aa7b8" stroke-width="1"/><polyline points="242.4,137.3 242.4,101.2" fill="none" stroke="#9aa7b8" stroke-width="1"/><polyline points="242.4,101.2 242.4,65.1" fill="none" stroke="#9aa7b8" stroke-width="1"/><polyline points="242.4,65.1 242.4,29.1" fill="none" stroke="#9aa7b8" stroke-width="1"/><polyline points="314.6,353.7 314.6,317.6" fill="none" stroke="#9aa7b8" stroke-width="1"/><polyline points="314.6,317.6 314.6,281.6" fill="none" stroke="#9aa7b8" stroke-width="1"/><polyline points="314.6,281.6 314.6,245.5" fill="none" stroke="#9aa7b8" stroke-width="1"/><polyline points="314.6,245.5 314.6,209.4" fill="none" stroke="#9aa7b8" stroke-width="1"/><polyline points="314.6,209.4 314.6,173.3" fill="none" stroke="#9aa7b8" stroke-width="1"/><polyline points="314.6,173.3 314.6,137.3" fill="none" stroke="#9aa7b8" stroke-width="1"/><polyline points="314.6,137.3 314.6,101.2" fill="none" stroke="#9aa7b8" stroke-width="1"/><polyline points="314.6,101.2 314.6,65.1" fill="none" stroke="#9aa7b8" stroke-width="1"/><polyline points="314.6,65.1 314.6,29.1" fill="none" stroke="#9aa7b8" stroke-width="1"/><polyline points="386.7,353.7 386.7,317.6" fill="none" stroke="#9aa7b8" stroke-width="1"/><polyline points="386.7,317.6 386.7,281.6" fill="none" stroke="#9aa7b8" stroke-width="1"/><polyline points="386.7,281.6 386.7,245.5" fill="none" stroke="#9aa7b8" stroke-width="1"/><polyline points="386.7,245.5 386.7,209.4" fill="none" stroke="#9aa7b8" stroke-width="1"/><polyline points="386.7,209.4 386.7,173.3" fill="none" stroke="#9aa7b8" stroke-width="1"/><polyline points="386.7,173.3 386.7,137.3" fill="none" stroke="#9aa7b8" stroke-width="1"/><polyline points="386.7,137.3 386.7,101.2" fill="none" stroke="#9aa7b8" stroke-width="1"/><polyline points="386.7,101.2 386.7,65.1" fill="none" stroke="#9aa7b8" stroke-width="1"/><polyline points="386.7,65.1 386.7,29.1" fill="none" stroke="#9aa7b8" stroke-width="1"/><polyline points="458.9,353.7 458.9,317.6" fill="none" stroke="#9aa7b8" stroke-width="1"/><polyline points="458.9,317.6 458.9,281.6" fill="none" stroke="#9aa7b8" stroke-width="1"/><polyline points="458.9,281.6 458.9,245.5" fill="none" stroke="#9aa7b8" stroke-width="1"/><polyline points="458.9,245.5 458.9,209.4" fill="none" stroke="#9aa7b8" stroke-width="1"/><polyline points="458.9,209.4 458.9,173.3" fill="none" stroke="#9aa7b8" stroke-width="1"/><polyline points="458.9,173.3 458.9,137.3" fill="none" stroke="#9aa7b8" stroke-width="1"/><polyline points="458.9,137.3 458.9,101.2" fill="none" stroke="#9aa7b8" stroke-width="1"/><polyline points="458.9,101.2 458.9,65.1" fill="none" stroke="#9aa7b8" stroke-width="1"/><polyline points="458.9,65.1 458.9,29.1" fill="none" stroke="#9aa7b8" stroke-width="1"/><polyline points="531.0,353.7 531.0,317.6" fill="none" stroke="#9aa7b8" stroke-width="1"/><polyline points="531.0,317.6 531.0,281.6" fill="none" stroke="#9aa7b8" stroke-width="1"/><polyline points="531.0,281.6 531.0,245.5" fill="none" stroke="#9aa7b8" stroke-width="1"/><polyline points="531.0,245.5 531.0,209.4" fill="none" stroke="#9aa7b8" stroke-width="1"/><polyline points="531.0,209.4 531.0,173.3" fill="none" stroke="#9aa7b8" stroke-width="1"/><polyline points="531.0,173.3 531.0,137.3" fill="none" stroke="#9aa7b8" stroke-width="1"/><polyline points="531.0,137.3 531.0,101.2" fill="none" stroke="#9aa7b8" stroke-width="1"/><polyline points="531.0,101.2 531.0,65.1" fill="none" stroke="#9aa7b8" stroke-width="1"/><polyline points="531.0,65.1 531.0,29.1" fill="none" stroke="#9aa7b8" stroke-width="1"/><polyline points="603.2,353.7 603.2,317.6" fill="none" stroke="#9aa7b8" stroke-width="1"/><polyline points="603.2,317.6 603.2,281.6" fill="none" stroke="#9aa7b8" stroke-width="1"/><polyline points="603.2,281.6 603.2,245.5" fill="none" stroke="#9aa7b8" stroke-width="1"/><polyline points="603.2,245.5 603.2,209.4" fill="none" stroke="#9aa7b8" stroke-width="1"/><polyline points="603.2,209.4 603.2,173.3" fill="none" stroke="#9aa7b8" stroke-width="1"/><polyline points="603.2,173.3 603.2,137.3" fill="none" stroke="#9aa7b8" stroke-width="1"/><polyline points="603.2,137.3 603.2,101.2" fill="none" stroke="#9aa7b8" stroke-width="1"/><polyline points="603.2,101.2 603.2,65.1" fill="none" stroke="#9aa7b8" stroke-width="1"/><polyline points="603.2,65.1 603.2,29.1" fill="none" stroke="#9aa7b8" stroke-width="1"/><polyline points="675.3,353.7 675.3,317.6" fill="none" stroke="#9aa7b8" stroke-width="1"/><polyline points="675.3,317.6 675.3,281.6" fill="none" stroke="#9aa7b8" stroke-width="1"/><polyline points="675.3,281.6 675.3,245.5" fill="none" stroke="#9aa7b8" stroke-width="1"/><polyline points="675.3,245.5 675.3,209.4" fill="none" stroke="#9aa7b8" stroke-width="1"/><polyline points="675.3,209.4 675.3,173.3" fill="none" stroke="#9aa7b8" stroke-width="1"/><polyline points="675.3,173.3 675.3,137.3" fill="none" stroke="#9aa7b8" stroke-width="1"/><polyline points="675.3,137.3 675.3,101.2" fill="none" stroke="#9aa7b8" stroke-width="1"/><polyline points="675.3,101.2 675.3,65.1" fill="none" stroke="#9aa7b8" stroke-width="1"/><polyline points="675.3,65.1 675.3,29.1" fill="none" stroke="#9aa7b8" stroke-width="1"/><polyline points="747.5,353.7 747.5,317.6" fill="none" stroke="#9aa7b8" stroke-width="1"/><polyline points="747.5,317.6 747.5,281.6" fill="none" stroke="#9aa7b8" stroke-width="1"/><polyline points="747.5,281.6 747.5,245.5" fill="none" stroke="#9aa7b8" stroke-width="1"/><polyline points="747.5,245.5 747.5,209.4" fill="none" stroke="#9aa7b8" stroke-width="1"/><polyline points="747.5,209.4 747.5,173.3" fill="none" stroke="#9aa7b8" stroke-width="1"/><polyline points="747.5,173.3 747.5,137.3" fill="none" stroke="#9aa7b8" stroke-width="1"/><polyline points="747.5,137.3 747.5,101.2" fill="none" stroke="#9aa7b8" stroke-width="1"/><polyline points="747.5,101.2 747.5,65.1" fill="none" stroke="#9aa7b8" stroke-width="1"/><polyline points="747.5,65.1 747.5,29.1" fill="none" stroke="#9aa7b8" stroke-width="1"/><polyline points="26.0,317.6 98.1,317.6" fill="none" stroke="#9aa7b8" stroke-width="1"/><polyline points="98.1,317.6 170.3,317.6" fill="none" stroke="#9aa7b8" stroke-width="1"/><polyline points="170.3,317.6 242.4,317.6" fill="none" stroke="#9aa7b8" stroke-width="1"/><polyline points="242.4,317.6 314.6,317.6" fill="none" stroke="#9aa7b8" stroke-width="1"/><polyline points="314.6,317.6 386.7,317.6" fill="none" stroke="#9aa7b8" stroke-width="1"/><polyline points="386.7,317.6 458.9,317.6" fill="none" stroke="#9aa7b8" stroke-width="1"/><polyline points="458.9,317.6 531.0,317.6" fill="none" stroke="#9aa7b8" stroke-width="1"/><polyline points="531.0,317.6 603.2,317.6" fill="none" stroke="#9aa7b8" stroke-width="1"/><polyline points="603.2,317.6 675.3,317.6" fill="none" stroke="#9aa7b8" stroke-width="1"/><polyline points="675.3,317.6 747.5,317.6" fill="none" stroke="#9aa7b8" stroke-width="1"/><polyline points="26.0,281.6 98.1,281.6" fill="none" stroke="#9aa7b8" stroke-width="1"/><polyline points="98.1,281.6 170.3,281.6" fill="none" stroke="#9aa7b8" stroke-width="1"/><polyline points="170.3,281.6 242.4,281.6" fill="none" stroke="#9aa7b8" stroke-width="1"/><polyline points="242.4,281.6 314.6,281.6" fill="none" stroke="#9aa7b8" stroke-width="1"/><polyline points="314.6,281.6 386.7,281.6" fill="none" stroke="#9aa7b8" stroke-width="1"/><polyline points="386.7,281.6 458.9,281.6" fill="none" stroke="#9aa7b8" stroke-width="1"/><polyline points="458.9,281.6 531.0,281.6" fill="none" stroke="#9aa7b8" stroke-width="1"/><polyline points="531.0,281.6 603.2,281.6" fill="none" stroke="#9aa7b8" stroke-width="1"/><polyline points="603.2,281.6 675.3,281.6" fill="none" stroke="#9aa7b8" stroke-width="1"/><polyline points="675.3,281.6 747.5,281.6" fill="none" stroke="#9aa7b8" stroke-width="1"/><polyline points="26.0,245.5 98.1,245.5" fill="none" stroke="#9aa7b8" stroke-width="1"/><polyline points="98.1,245.5 170.3,245.5" fill="none" stroke="#9aa7b8" stroke-width="1"/><polyline points="170.3,245.5 242.4,245.5" fill="none" stroke="#9aa7b8" stroke-width="1"/><polyline points="242.4,245.5 314.6,245.5" fill="none" stroke="#9aa7b8" stroke-width="1"/><polyline points="314.6,245.5 386.7,245.5" fill="none" stroke="#9aa7b8" stroke-width="1"/><polyline points="386.7,245.5 458.9,245.5" fill="none" stroke="#9aa7b8" stroke-width="1"/><polyline points="458.9,245.5 531.0,245.5" fill="none" stroke="#9aa7b8" stroke-width="1"/><polyline points="531.0,245.5 603.2,245.5" fill="none" stroke="#9aa7b8" stroke-width="1"/><polyline points="603.2,245.5 675.3,245.5" fill="none" stroke="#9aa7b8" stroke-width="1"/><polyline points="675.3,245.5 747.5,245.5" fill="none" stroke="#9aa7b8" stroke-width="1"/><polyline points="26.0,209.4 98.1,209.4" fill="none" stroke="#9aa7b8" stroke-width="1"/><polyline points="98.1,209.4 170.3,209.4" fill="none" stroke="#9aa7b8" stroke-width="1"/><polyline points="170.3,209.4 242.4,209.4" fill="none" stroke="#9aa7b8" stroke-width="1"/><polyline points="242.4,209.4 314.6,209.4" fill="none" stroke="#9aa7b8" stroke-width="1"/><polyline points="314.6,209.4 386.7,209.4" fill="none" stroke="#9aa7b8" stroke-width="1"/><polyline points="386.7,209.4 458.9,209.4" fill="none" stroke="#9aa7b8" stroke-width="1"/><polyline points="458.9,209.4 531.0,209.4" fill="none" stroke="#9aa7b8" stroke-width="1"/><polyline points="531.0,209.4 603.2,209.4" fill="none" stroke="#9aa7b8" stroke-width="1"/><polyline points="603.2,209.4 675.3,209.4" fill="none" stroke="#9aa7b8" stroke-width="1"/><polyline points="675.3,209.4 747.5,209.4" fill="none" stroke="#9aa7b8" stroke-width="1"/><polyline points="26.0,173.3 98.1,173.3" fill="none" stroke="#9aa7b8" stroke-width="1"/><polyline points="98.1,173.3 170.3,173.3" fill="none" stroke="#9aa7b8" stroke-width="1"/><polyline points="170.3,173.3 242.4,173.3" fill="none" stroke="#9aa7b8" stroke-width="1"/><polyline points="242.4,173.3 314.6,173.3" fill="none" stroke="#9aa7b8" stroke-width="1"/><polyline points="314.6,173.3 386.7,173.3" fill="none" stroke="#9aa7b8" stroke-width="1"/><polyline points="386.7,173.3 458.9,173.3" fill="none" stroke="#9aa7b8" stroke-width="1"/><polyline points="458.9,173.3 531.0,173.3" fill="none" stroke="#9aa7b8" stroke-width="1"/><polyline points="531.0,173.3 603.2,173.3" fill="none" stroke="#9aa7b8" stroke-width="1"/><polyline points="603.2,173.3 675.3,173.3" fill="none" stroke="#9aa7b8" stroke-width="1"/><polyline points="675.3,173.3 747.5,173.3" fill="none" stroke="#9aa7b8" stroke-width="1"/><polyline points="26.0,137.3 98.1,137.3" fill="none" stroke="#9aa7b8" stroke-width="1"/><polyline points="98.1,137.3 170.3,137.3" fill="none" stroke="#9aa7b8" stroke-width="1"/><polyline points="170.3,137.3 242.4,137.3" fill="none" stroke="#9aa7b8" stroke-width="1"/><polyline points="242.4,137.3 314.6,137.3" fill="none" stroke="#9aa7b8" stroke-width="1"/><polyline points="314.6,137.3 386.7,137.3" fill="none" stroke="#9aa7b8" stroke-width="1"/><polyline points="386.7,137.3 458.9,137.3" fill="none" stroke="#9aa7b8" stroke-width="1"/><polyline points="458.9,137.3 531.0,137.3" fill="none" stroke="#9aa7b8" stroke-width="1"/><polyline points="531.0,137.3 603.2,137.3" fill="none" stroke="#9aa7b8" stroke-width="1"/><polyline points="603.2,137.3 675.3,137.3" fill="none" stroke="#9aa7b8" stroke-width="1"/><polyline points="675.3,137.3 747.5,137.3" fill="none" stroke="#9aa7b8" stroke-width="1"/><polyline points="26.0,101.2 98.1,101.2" fill="none" stroke="#9aa7b8" stroke-width="1"/><polyline points="98.1,101.2 170.3,101.2" fill="none" stroke="#9aa7b8" stroke-width="1"/><polyline points="170.3,101.2 242.4,101.2" fill="none" stroke="#9aa7b8" stroke-width="1"/><polyline points="242.4,101.2 314.6,101.2" fill="none" stroke="#9aa7b8" stroke-width="1"/><polyline points="314.6,101.2 386.7,101.2" fill="none" stroke="#9aa7b8" stroke-width="1"/><polyline points="386.7,101.2 458.9,101.2" fill="none" stroke="#9aa7b8" stroke-width="1"/><polyline points="458.9,101.2 531.0,101.2" fill="none" stroke="#9aa7b8" stroke-width="1"/><polyline points="531.0,101.2 603.2,101.2" fill="none" stroke="#9aa7b8" stroke-width="1"/><polyline points="603.2,101.2 675.3,101.2" fill="none" stroke="#9aa7b8" stroke-width="1"/><polyline points="675.3,101.2 747.5,101.2" fill="none" stroke="#9aa7b8" stroke-width="1"/><polyline points="26.0,65.1 98.1,65.1" fill="none" stroke="#9aa7b8" stroke-width="1"/><polyline points="98.1,65.1 170.3,65.1" fill="none" stroke="#9aa7b8" stroke-width="1"/><polyline points="170.3,65.1 242.4,65.1" fill="none" stroke="#9aa7b8" stroke-width="1"/><polyline points="242.4,65.1 314.6,65.1" fill="none" stroke="#9aa7b8" stroke-width="1"/><polyline points="314.6,65.1 386.7,65.1" fill="none" stroke="#9aa7b8" stroke-width="1"/><polyline points="386.7,65.1 458.9,65.1" fill="none" stroke="#9aa7b8" stroke-width="1"/><polyline points="458.9,65.1 531.0,65.1" fill="none" stroke="#9aa7b8" stroke-width="1"/><polyline points="531.0,65.1 603.2,65.1" fill="none" stroke="#9aa7b8" stroke-width="1"/><polyline points="603.2,65.1 675.3,65.1" fill="none" stroke="#9aa7b8" stroke-width="1"/><polyline points="675.3,65.1 747.5,65.1" fill="none" stroke="#9aa7b8" stroke-width="1"/><polyline points="26.0,29.1 98.1,29.1" fill="none" stroke="#9aa7b8" stroke-width="1"/><polyline points="98.1,29.1 170.3,29.1" fill="none" stroke="#9aa7b8" stroke-width="1"/><polyline points="170.3,29.1 242.4,29.1" fill="none" stroke="#9aa7b8" stroke-width="1"/><polyline points="242.4,29.1 314.6,29.1" fill="none" stroke="#9aa7b8" stroke-width="1"/><polyline points="314.6,29.1 386.7,29.1" fill="none" stroke="#9aa7b8" stroke-width="1"/><polyline points="386.7,29.1 458.9,29.1" fill="none" stroke="#9aa7b8" stroke-width="1"/><polyline points="458.9,29.1 531.0,29.1" fill="none" stroke="#9aa7b8" stroke-width="1"/><polyline points="531.0,29.1 603.2,29.1" fill="none" stroke="#9aa7b8" stroke-width="1"/><polyline points="603.2,29.1 675.3,29.1" fill="none" stroke="#9aa7b8" stroke-width="1"/><polyline points="675.3,29.1 747.5,29.1" fill="none" stroke="#9aa7b8" stroke-width="1"/><polyline points="26.0,353.7 39.3,316.8" fill="none" stroke="#2563eb" stroke-width="2"/><polyline points="39.3,316.8 59.9,280.1" fill="none" stroke="#2563eb" stroke-width="2"/><polyline points="59.9,280.1 80.4,243.4" fill="none" stroke="#2563eb" stroke-width="2"/><polyline points="80.4,243.4 99.5,207.0" fill="none" stroke="#2563eb" stroke-width="2"/><polyline points="99.5,207.0 116.3,170.6" fill="none" stroke="#2563eb" stroke-width="2"/><polyline points="116.3,170.6 130.4,134.4" fill="none" stroke="#2563eb" stroke-width="2"/><polyline points="130.4,134.4 141.3,98.2" fill="none" stroke="#2563eb" stroke-width="2"/><polyline points="141.3,98.2 148.6,62.1" fill="none" stroke="#2563eb" stroke-width="2"/><polyline points="148.6,62.1 152.5,26.0" fill="none" stroke="#2563eb" stroke-width="2"/><polyline points="98.1,353.7 111.5,317.6" fill="none" stroke="#2563eb" stroke-width="2"/><polyline points="111.5,317.6 132.0,281.6" fill="none" stroke="#2563eb" stroke-width="2"/><polyline points="132.0,281.6 152.6,245.5" fill="none" stroke="#2563eb" stroke-width="2"/><polyline points="152.6,245.5 171.6,209.4" fill="none" stroke="#2563eb" stroke-width="2"/><polyline points="171.6,209.4 188.5,173.3" fill="none" stroke="#2563eb" stroke-width="2"/><polyline points="188.5,173.3 202.5,137.2" fill="none" stroke="#2563eb" stroke-width="2"/><polyline points="202.5,137.2 213.4,101.1" fill="none" stroke="#2563eb" stroke-width="2"/><polyline points="213.4,101.1 220.7,65.0" fill="none" stroke="#2563eb" stroke-width="2"/><polyline points="220.7,65.0 224.7,28.9" fill="none" stroke="#2563eb" stroke-width="2"/><polyline points="170.3,353.7 183.7,317.6" fill="none" stroke="#2563eb" stroke-width="2"/><polyline points="183.7,317.6 204.2,281.6" fill="none" stroke="#2563eb" stroke-width="2"/><polyline points="204.2,281.6 224.7,245.5" fill="none" stroke="#2563eb" stroke-width="2"/><polyline points="224.7,245.5 243.8,209.4" fill="none" stroke="#2563eb" stroke-width="2"/><polyline points="243.8,209.4 260.6,173.4" fill="none" stroke="#2563eb" stroke-width="2"/><polyline points="260.6,173.4 274.7,137.3" fill="none" stroke="#2563eb" stroke-width="2"/><polyline points="274.7,137.3 285.5,101.2" fill="none" stroke="#2563eb" stroke-width="2"/><polyline points="285.5,101.2 292.9,65.1" fill="none" stroke="#2563eb" stroke-width="2"/><polyline points="292.9,65.1 296.8,29.1" fill="none" stroke="#2563eb" stroke-width="2"/><polyline points="242.4,353.7 255.9,317.6" fill="none" stroke="#2563eb" stroke-width="2"/><polyline points="255.9,317.6 276.4,281.6" fill="none" stroke="#2563eb" stroke-width="2"/><polyline points="276.4,281.6 296.9,245.5" fill="none" stroke="#2563eb" stroke-width="2"/><polyline points="296.9,245.5 315.9,209.4" fill="none" stroke="#2563eb" stroke-width="2"/><polyline points="315.9,209.4 332.7,173.3" fill="none" stroke="#2563eb" stroke-width="2"/><polyline points="332.7,173.3 346.8,137.3" fill="none" stroke="#2563eb" stroke-width="2"/><polyline points="346.8,137.3 357.7,101.2" fill="none" stroke="#2563eb" stroke-width="2"/><polyline points="357.7,101.2 365.0,65.1" fill="none" stroke="#2563eb" stroke-width="2"/><polyline points="365.0,65.1 368.9,29.1" fill="none" stroke="#2563eb" stroke-width="2"/><polyline points="314.6,353.7 328.1,317.6" fill="none" stroke="#2563eb" stroke-width="2"/><polyline points="328.1,317.6 348.5,281.6" fill="none" stroke="#2563eb" stroke-width="2"/><polyline points="348.5,281.6 369.0,245.5" fill="none" stroke="#2563eb" stroke-width="2"/><polyline points="369.0,245.5 388.1,209.4" fill="none" stroke="#2563eb" stroke-width="2"/><polyline points="388.1,209.4 404.9,173.3" fill="none" stroke="#2563eb" stroke-width="2"/><polyline points="404.9,173.3 419.0,137.3" fill="none" stroke="#2563eb" stroke-width="2"/><polyline points="419.0,137.3 429.8,101.2" fill="none" stroke="#2563eb" stroke-width="2"/><polyline points="429.8,101.2 437.2,65.1" fill="none" stroke="#2563eb" stroke-width="2"/><polyline points="437.2,65.1 441.0,29.1" fill="none" stroke="#2563eb" stroke-width="2"/><polyline points="386.7,353.7 400.2,317.6" fill="none" stroke="#2563eb" stroke-width="2"/><polyline points="400.2,317.6 420.7,281.6" fill="none" stroke="#2563eb" stroke-width="2"/><polyline points="420.7,281.6 441.2,245.5" fill="none" stroke="#2563eb" stroke-width="2"/><polyline points="441.2,245.5 460.2,209.4" fill="none" stroke="#2563eb" stroke-width="2"/><polyline points="460.2,209.4 477.0,173.3" fill="none" stroke="#2563eb" stroke-width="2"/><polyline points="477.0,173.3 491.1,137.3" fill="none" stroke="#2563eb" stroke-width="2"/><polyline points="491.1,137.3 502.0,101.2" fill="none" stroke="#2563eb" stroke-width="2"/><polyline points="502.0,101.2 509.3,65.1" fill="none" stroke="#2563eb" stroke-width="2"/><polyline points="509.3,65.1 513.1,29.1" fill="none" stroke="#2563eb" stroke-width="2"/><polyline points="458.9,353.7 472.3,317.6" fill="none" stroke="#2563eb" stroke-width="2"/><polyline points="472.3,317.6 492.8,281.6" fill="none" stroke="#2563eb" stroke-width="2"/><polyline points="492.8,281.6 513.3,245.5" fill="none" stroke="#2563eb" stroke-width="2"/><polyline points="513.3,245.5 532.4,209.4" fill="none" stroke="#2563eb" stroke-width="2"/><polyline points="532.4,209.4 549.2,173.3" fill="none" stroke="#2563eb" stroke-width="2"/><polyline points="549.2,173.3 563.2,137.3" fill="none" stroke="#2563eb" stroke-width="2"/><polyline points="563.2,137.3 574.1,101.2" fill="none" stroke="#2563eb" stroke-width="2"/><polyline points="574.1,101.2 581.5,65.1" fill="none" stroke="#2563eb" stroke-width="2"/><polyline points="581.5,65.1 585.3,29.1" fill="none" stroke="#2563eb" stroke-width="2"/><polyline points="531.0,353.7 544.5,317.6" fill="none" stroke="#2563eb" stroke-width="2"/><polyline points="544.5,317.6 564.9,281.6" fill="none" stroke="#2563eb" stroke-width="2"/><polyline points="564.9,281.6 585.5,245.5" fill="none" stroke="#2563eb" stroke-width="2"/><polyline points="585.5,245.5 604.5,209.4" fill="none" stroke="#2563eb" stroke-width="2"/><polyline points="604.5,209.4 621.3,173.3" fill="none" stroke="#2563eb" stroke-width="2"/><polyline points="621.3,173.3 635.4,137.3" fill="none" stroke="#2563eb" stroke-width="2"/><polyline points="635.4,137.3 646.3,101.2" fill="none" stroke="#2563eb" stroke-width="2"/><polyline points="646.3,101.2 653.6,65.1" fill="none" stroke="#2563eb" stroke-width="2"/><polyline points="653.6,65.1 657.5,29.1" fill="none" stroke="#2563eb" stroke-width="2"/><polyline points="603.2,353.7 616.6,317.6" fill="none" stroke="#2563eb" stroke-width="2"/><polyline points="616.6,317.6 637.1,281.6" fill="none" stroke="#2563eb" stroke-width="2"/><polyline points="637.1,281.6 657.6,245.5" fill="none" stroke="#2563eb" stroke-width="2"/><polyline points="657.6,245.5 676.6,209.4" fill="none" stroke="#2563eb" stroke-width="2"/><polyline points="676.6,209.4 693.5,173.3" fill="none" stroke="#2563eb" stroke-width="2"/><polyline points="693.5,173.3 707.5,137.3" fill="none" stroke="#2563eb" stroke-width="2"/><polyline points="707.5,137.3 718.4,101.2" fill="none" stroke="#2563eb" stroke-width="2"/><polyline points="718.4,101.2 725.8,65.1" fill="none" stroke="#2563eb" stroke-width="2"/><polyline points="725.8,65.1 729.6,29.0" fill="none" stroke="#2563eb" stroke-width="2"/><polyline points="675.3,353.7 688.7,317.6" fill="none" stroke="#2563eb" stroke-width="2"/><polyline points="688.7,317.6 709.2,281.6" fill="none" stroke="#2563eb" stroke-width="2"/><polyline points="709.2,281.6 729.7,245.5" fill="none" stroke="#2563eb" stroke-width="2"/><polyline points="729.7,245.5 748.8,209.5" fill="none" stroke="#2563eb" stroke-width="2"/><polyline points="748.8,209.5 765.6,173.4" fill="none" stroke="#2563eb" stroke-width="2"/><polyline points="765.6,173.4 779.7,137.4" fill="none" stroke="#2563eb" stroke-width="2"/><polyline points="779.7,137.4 790.6,101.3" fill="none" stroke="#2563eb" stroke-width="2"/><polyline points="790.6,101.3 797.9,65.3" fill="none" stroke="#2563eb" stroke-width="2"/><polyline points="797.9,65.3 801.8,29.2" fill="none" stroke="#2563eb" stroke-width="2"/><polyline points="747.5,353.7 760.7,318.5" fill="none" stroke="#2563eb" stroke-width="2"/><polyline points="760.7,318.5 781.3,283.1" fill="none" stroke="#2563eb" stroke-width="2"/><polyline points="781.3,283.1 801.9,247.5" fill="none" stroke="#2563eb" stroke-width="2"/><polyline points="801.9,247.5 820.9,211.9" fill="none" stroke="#2563eb" stroke-width="2"/><polyline points="820.9,211.9 837.8,176.1" fill="none" stroke="#2563eb" stroke-width="2"/><polyline points="837.8,176.1 851.8,140.2" fill="none" stroke="#2563eb" stroke-width="2"/><polyline points="851.8,140.2 862.7,104.2" fill="none" stroke="#2563eb" stroke-width="2"/><polyline points="862.7,104.2 870.0,68.2" fill="none" stroke="#2563eb" stroke-width="2"/><polyline points="870.0,68.2 874.0,32.1" fill="none" stroke="#2563eb" stroke-width="2"/><polyline points="39.3,316.8 111.5,317.6" fill="none" stroke="#2563eb" stroke-width="2"/><polyline points="111.5,317.6 183.7,317.6" fill="none" stroke="#2563eb" stroke-width="2"/><polyline points="183.7,317.6 255.9,317.6" fill="none" stroke="#2563eb" stroke-width="2"/><polyline points="255.9,317.6 328.1,317.6" fill="none" stroke="#2563eb" stroke-width="2"/><polyline points="328.1,317.6 400.2,317.6" fill="none" stroke="#2563eb" stroke-width="2"/><polyline points="400.2,317.6 472.3,317.6" fill="none" stroke="#2563eb" stroke-width="2"/><polyline points="472.3,317.6 544.5,317.6" fill="none" stroke="#2563eb" stroke-width="2"/><polyline points="544.5,317.6 616.6,317.6" fill="none" stroke="#2563eb" stroke-width="2"/><polyline points="616.6,317.6 688.7,317.6" fill="none" stroke="#2563eb" stroke-width="2"/><polyline points="688.7,317.6 760.7,318.5" fill="none" stroke="#2563eb" stroke-width="2"/><polyline points="59.9,280.1 132.0,281.6" fill="none" stroke="#2563eb" stroke-width="2"/><polyline points="132.0,281.6 204.2,281.6" fill="none" stroke="#2563eb" stroke-width="2"/><polyline points="204.2,281.6 276.4,281.6" fill="none" stroke="#2563eb" stroke-width="2"/><polyline points="276.4,281.6 348.5,281.6" fill="none" stroke="#2563eb" stroke-width="2"/><polyline points="348.5,281.6 420.7,281.6" fill="none" stroke="#2563eb" stroke-width="2"/><polyline points="420.7,281.6 492.8,281.6" fill="none" stroke="#2563eb" stroke-width="2"/><polyline points="492.8,281.6 564.9,281.6" fill="none" stroke="#2563eb" stroke-width="2"/><polyline points="564.9,281.6 637.1,281.6" fill="none" stroke="#2563eb" stroke-width="2"/><polyline points="637.1,281.6 709.2,281.6" fill="none" stroke="#2563eb" stroke-width="2"/><polyline points="709.2,281.6 781.3,283.1" fill="none" stroke="#2563eb" stroke-width="2"/><polyline points="80.4,243.4 152.6,245.5" fill="none" stroke="#2563eb" stroke-width="2"/><polyline points="152.6,245.5 224.7,245.5" fill="none" stroke="#2563eb" stroke-width="2"/><polyline points="224.7,245.5 296.9,245.5" fill="none" stroke="#2563eb" stroke-width="2"/><polyline points="296.9,245.5 369.0,245.5" fill="none" stroke="#2563eb" stroke-width="2"/><polyline points="369.0,245.5 441.2,245.5" fill="none" stroke="#2563eb" stroke-width="2"/><polyline points="441.2,245.5 513.3,245.5" fill="none" stroke="#2563eb" stroke-width="2"/><polyline points="513.3,245.5 585.5,245.5" fill="none" stroke="#2563eb" stroke-width="2"/><polyline points="585.5,245.5 657.6,245.5" fill="none" stroke="#2563eb" stroke-width="2"/><polyline points="657.6,245.5 729.7,245.5" fill="none" stroke="#2563eb" stroke-width="2"/><polyline points="729.7,245.5 801.9,247.5" fill="none" stroke="#2563eb" stroke-width="2"/><polyline points="99.5,207.0 171.6,209.4" fill="none" stroke="#2563eb" stroke-width="2"/><polyline points="171.6,209.4 243.8,209.4" fill="none" stroke="#2563eb" stroke-width="2"/><polyline points="243.8,209.4 315.9,209.4" fill="none" stroke="#2563eb" stroke-width="2"/><polyline points="315.9,209.4 388.1,209.4" fill="none" stroke="#2563eb" stroke-width="2"/><polyline points="388.1,209.4 460.2,209.4" fill="none" stroke="#2563eb" stroke-width="2"/><polyline points="460.2,209.4 532.4,209.4" fill="none" stroke="#2563eb" stroke-width="2"/><polyline points="532.4,209.4 604.5,209.4" fill="none" stroke="#2563eb" stroke-width="2"/><polyline points="604.5,209.4 676.6,209.4" fill="none" stroke="#2563eb" stroke-width="2"/><polyline points="676.6,209.4 748.8,209.5" fill="none" stroke="#2563eb" stroke-width="2"/><polyline points="748.8,209.5 820.9,211.9" fill="none" stroke="#2563eb" stroke-width="2"/><polyline points="116.3,170.6 188.5,173.3" fill="none" stroke="#2563eb" stroke-width="2"/><polyline points="188.5,173.3 260.6,173.4" fill="none" stroke="#2563eb" stroke-width="2"/><polyline points="260.6,173.4 332.7,173.3" fill="none" stroke="#2563eb" stroke-width="2"/><polyline points="332.7,173.3 404.9,173.3" fill="none" stroke="#2563eb" stroke-width="2"/><polyline points="404.9,173.3 477.0,173.3" fill="none" stroke="#2563eb" stroke-width="2"/><polyline points="477.0,173.3 549.2,173.3" fill="none" stroke="#2563eb" stroke-width="2"/><polyline points="549.2,173.3 621.3,173.3" fill="none" stroke="#2563eb" stroke-width="2"/><polyline points="621.3,173.3 693.5,173.3" fill="none" stroke="#2563eb" stroke-width="2"/><polyline points="693.5,173.3 765.6,173.4" fill="none" stroke="#2563eb" stroke-width="2"/><polyline points="765.6,173.4 837.8,176.1" fill="none" stroke="#2563eb" stroke-width="2"/><polyline points="130.4,134.4 202.5,137.2" fill="none" stroke="#2563eb" stroke-width="2"/><polyline points="202.5,137.2 274.7,137.3" fill="none" stroke="#2563eb" stroke-width="2"/><polyline points="274.7,137.3 346.8,137.3" fill="none" stroke="#2563eb" stroke-width="2"/><polyline points="346.8,137.3 419.0,137.3" fill="none" stroke="#2563eb" stroke-width="2"/><polyline points="419.0,137.3 491.1,137.3" fill="none" stroke="#2563eb" stroke-width="2"/><polyline points="491.1,137.3 563.2,137.3" fill="none" stroke="#2563eb" stroke-width="2"/><polyline points="563.2,137.3 635.4,137.3" fill="none" stroke="#2563eb" stroke-width="2"/><polyline points="635.4,137.3 707.5,137.3" fill="none" stroke="#2563eb" stroke-width="2"/><polyline points="707.5,137.3 779.7,137.4" fill="none" stroke="#2563eb" stroke-width="2"/><polyline points="779.7,137.4 851.8,140.2" fill="none" stroke="#2563eb" stroke-width="2"/><polyline points="141.3,98.2 213.4,101.1" fill="none" stroke="#2563eb" stroke-width="2"/><polyline points="213.4,101.1 285.5,101.2" fill="none" stroke="#2563eb" stroke-width="2"/><polyline points="285.5,101.2 357.7,101.2" fill="none" stroke="#2563eb" stroke-width="2"/><polyline points="357.7,101.2 429.8,101.2" fill="none" stroke="#2563eb" stroke-width="2"/><polyline points="429.8,101.2 502.0,101.2" fill="none" stroke="#2563eb" stroke-width="2"/><polyline points="502.0,101.2 574.1,101.2" fill="none" stroke="#2563eb" stroke-width="2"/><polyline points="574.1,101.2 646.3,101.2" fill="none" stroke="#2563eb" stroke-width="2"/><polyline points="646.3,101.2 718.4,101.2" fill="none" stroke="#2563eb" stroke-width="2"/><polyline points="718.4,101.2 790.6,101.3" fill="none" stroke="#2563eb" stroke-width="2"/><polyline points="790.6,101.3 862.7,104.2" fill="none" stroke="#2563eb" stroke-width="2"/><polyline points="148.6,62.1 220.7,65.0" fill="none" stroke="#2563eb" stroke-width="2"/><polyline points="220.7,65.0 292.9,65.1" fill="none" stroke="#2563eb" stroke-width="2"/><polyline points="292.9,65.1 365.0,65.1" fill="none" stroke="#2563eb" stroke-width="2"/><polyline points="365.0,65.1 437.2,65.1" fill="none" stroke="#2563eb" stroke-width="2"/><polyline points="437.2,65.1 509.3,65.1" fill="none" stroke="#2563eb" stroke-width="2"/><polyline points="509.3,65.1 581.5,65.1" fill="none" stroke="#2563eb" stroke-width="2"/><polyline points="581.5,65.1 653.6,65.1" fill="none" stroke="#2563eb" stroke-width="2"/><polyline points="653.6,65.1 725.8,65.1" fill="none" stroke="#2563eb" stroke-width="2"/><polyline points="725.8,65.1 797.9,65.3" fill="none" stroke="#2563eb" stroke-width="2"/><polyline points="797.9,65.3 870.0,68.2" fill="none" stroke="#2563eb" stroke-width="2"/><polyline points="152.5,26.0 224.7,28.9" fill="none" stroke="#2563eb" stroke-width="2"/><polyline points="224.7,28.9 296.8,29.1" fill="none" stroke="#2563eb" stroke-width="2"/><polyline points="296.8,29.1 368.9,29.1" fill="none" stroke="#2563eb" stroke-width="2"/><polyline points="368.9,29.1 441.0,29.1" fill="none" stroke="#2563eb" stroke-width="2"/><polyline points="441.0,29.1 513.1,29.1" fill="none" stroke="#2563eb" stroke-width="2"/><polyline points="513.1,29.1 585.3,29.1" fill="none" stroke="#2563eb" stroke-width="2"/><polyline points="585.3,29.1 657.5,29.1" fill="none" stroke="#2563eb" stroke-width="2"/><polyline points="657.5,29.1 729.6,29.0" fill="none" stroke="#2563eb" stroke-width="2"/><polyline points="729.6,29.0 801.8,29.2" fill="none" stroke="#2563eb" stroke-width="2"/><polyline points="801.8,29.2 874.0,32.1" fill="none" stroke="#2563eb" stroke-width="2"/><rect x="22.0" y="349.7" width="8" height="8" fill="#0f766e" stroke="#fff" stroke-width="0.8"/><rect x="94.1" y="349.7" width="8" height="8" fill="#0f766e" stroke="#fff" stroke-width="0.8"/><rect x="166.3" y="349.7" width="8" height="8" fill="#0f766e" stroke="#fff" stroke-width="0.8"/><rect x="238.4" y="349.7" width="8" height="8" fill="#0f766e" stroke="#fff" stroke-width="0.8"/><rect x="310.6" y="349.7" width="8" height="8" fill="#0f766e" stroke="#fff" stroke-width="0.8"/><rect x="382.7" y="349.7" width="8" height="8" fill="#0f766e" stroke="#fff" stroke-width="0.8"/><rect x="454.9" y="349.7" width="8" height="8" fill="#0f766e" stroke="#fff" stroke-width="0.8"/><rect x="527.0" y="349.7" width="8" height="8" fill="#0f766e" stroke="#fff" stroke-width="0.8"/><rect x="599.2" y="349.7" width="8" height="8" fill="#0f766e" stroke="#fff" stroke-width="0.8"/><rect x="671.3" y="349.7" width="8" height="8" fill="#0f766e" stroke="#fff" stroke-width="0.8"/><rect x="743.5" y="349.7" width="8" height="8" fill="#0f766e" stroke="#fff" stroke-width="0.8"/></svg>