<svg xmlns="http://www.w3.org/2000/svg" viewBox="0 0 900 900" width="900" height="900"><rect width="900" height="900" fill="#ffffff"/><rect x="870.0" y="446.0" width="8" height="8" fill="#0f766e" stroke="#fff" stroke-width="0.8"/><rect x="861.9" y="363.3" width="8" height="8" fill="#0f766e" stroke="#fff" stroke-width="0.8"/><rect x="837.7" y="283.7" width="8" height="8" fill="#0f766e" stroke="#fff" stroke-width="0.8"/><rect x="798.5" y="210.4" width="8" height="8" fill="#0f766e" stroke="#fff" stroke-width="0.8"/><rect x="745.8" y="146.2" width="8" height="8" fill="#0f766e" stroke="#fff" stroke-width="0.8"/><rect x="681.6" y="93.5" width="8" height="8" fill="#0f766e" stroke="#fff" stroke-width="0.8"/><rect x="608.3" y="54.3" width="8" height="8" fill="#0f766e" stroke="#fff" stroke-width="0.8"/><rect x="528.7" y="30.1" width="8" height="8" fill="#0f766e" stroke="#fff" stroke-width="0.8"/><rect x="446.0" y="22.0" width="8" height="8" fill="#0f766e" stroke="#fff" stroke-width="0.8"/><rect x="363.3" y="30.1" width="8" height="8" fill="#0f766e" stroke="#fff" stroke-width="0.8"/><rect x="283.7" y="54.3" width="8" height="8" fill="#0f766e" stroke="#fff" stroke-width="0.8"/><rect x="210.4" y="93.5" width="8" height="8" fill="#0f766e" stroke="#fff" stroke-width="0.8"/><rect x="146.2" y="146.2" width="8" height="8" fill="#0f766e" stroke="#fff" stroke-width="0.8"/><rect x="93.5" y="210.4" width="8" height="8" fill="#0f766e" stroke="#fff" stroke-width="0.8"/><rect x="54.3" y="283.7" width="8" height="8" fill="#0f766e" stroke="#fff" stroke-width="0.8"/><rect x="30.1" y="363.3" width="8" height="8" fill="#0f766e" stroke="#fff" stroke-width="0.8"/><rect x="22.0" y="446.0" width="8" height="8" fill="#0f766e" stroke="#fff" stroke-width="0.8"/><rect x="30.1" y="528.7" width="8" height="8" fill="#0f766e" stroke="#fff" stroke-width="0.8"/><rect x="54.3" y="608.3" width="8" height="8" fill="#0f766e" stroke="#fff" stroke-width="0.8"/><rect x="93.5" y="681.6" width="8" height="8" fill="#0f766e" stroke="#fff" stroke-width="0.8"/><rect x="146.2" y="745.8" width="8" height="8" fill="#0f766e" stroke="#fff" stroke-width="0.8"/><rect x="210.4" y="798.5" width="8" height="8" fill="#0f766e" stroke="#fff" stroke-width="0.8"/><rect x="283.7" y="837.7" width="8" height="8" fill="#0f766e" stroke="#fff" stroke-width="0.8"/><rect x="363.3" y="861.9" width="8" height="8" fill="#0f766e" stroke="#fff" stroke-width="0.8"/><rect x="446.0" y="870.0" width="8" height="8" fill="#0f766e" stroke="#fff" stroke-width="0.8"/><rect x="528.7" y="861.9" width="8" height="8" fill="#0f766e" stroke="#fff" stroke-width="0.8"/><rect x="608.3" y="837.7" width="8" height="8" fill="#0f766e" stroke="#fff" stroke-width="0.8"/><rect x="681.6" y="798.5" width="8" height="8" fill="#0f766e" stroke="#fff" stroke-width="0.8"/><rect x="745.8" y="745.8" width="8" height="8" fill="#0f766e" stroke="#fff" stroke-width="0.8"/><rect x="798.5" y="681.6" width="8" height="8" fill="#0f766e" stroke="#fff" stroke-width="0.8"/><rect x="837.7" y="608.3" width="8" height="8" fill="#0f766e" stroke="#fff" stroke-width="0.8"/><rect x="861.9" y="528.7" width="8" height="8" fill="#0f766e" stroke="#fff" stroke-width="0.8"/></svg>